<svg width="24" height="24" viewBox="0 0 24 24" fill="none" xmlns="http://www.w3.org/2000/svg">
<g id="- placeholder">
<path id="icon" fill-rule="evenodd" clip-rule="evenodd" d="M12 2C17.5228 2 22 6.47715 22 12C22 17.5228 17.5228 22 12 22C6.47715 22 2 17.5228 2 12C2 6.47715 6.47715 2 12 2ZM17 13H7C7 15.7614 9.23858 18 12 18C14.7614 18 17 15.7614 17 13ZM9 7C8.17157 7 7.5 7.67157 7.5 8.5C7.5 9.32843 8.17157 10 9 10C9.82843 10 10.5 9.32843 10.5 8.5C10.5 7.67157 9.82843 7 9 7ZM15 7C14.1716 7 13.5 7.67157 13.5 8.5C13.5 9.32843 14.1716 10 15 10C15.8284 10 16.5 9.32843 16.5 8.5C16.5 7.67157 15.8284 7 15 7Z" fill="#1C1C1C"/>
</g>
</svg>
