<svg width="24" height="24" viewBox="0 0 24 24" fill="none" xmlns="http://www.w3.org/2000/svg">
<g id="accounting">
<path id="icon" fill-rule="evenodd" clip-rule="evenodd" d="M18.25 2C19.2165 2 20 2.7835 20 3.75V20.25C20 21.2165 19.2165 22 18.25 22H5.75C4.7835 22 4 21.2165 4 20.25V3.75C4 2.7835 4.7835 2 5.75 2H18.25ZM13 17.5H6.5C6.25454 17.5 6.05039 17.6769 6.00806 17.9101L6 18V19.5C6 19.7455 6.17688 19.9496 6.41012 19.9919L6.5 20H13C13.2455 20 13.4496 19.8231 13.4919 19.5899L13.5 19.5V18C13.5 17.7545 13.3231 17.5504 13.0899 17.5081L13 17.5ZM17.5 17.5H15.5C15.2545 17.5 15.0504 17.6769 15.0081 17.9101L15 18V19.5C15 19.7455 15.1769 19.9496 15.4101 19.9919L15.5 20H17.5C17.7455 20 17.9496 19.8231 17.9919 19.5899L18 19.5V18C18 17.7545 17.8231 17.5504 17.5899 17.5081L17.5 17.5ZM8.5 14H6.5C6.25454 14 6.05039 14.1769 6.00806 14.4101L6 14.5V16C6 16.2455 6.17688 16.4496 6.41012 16.4919L6.5 16.5H8.5C8.74546 16.5 8.94961 16.3231 8.99194 16.0899L9 16V14.5C9 14.2545 8.82312 14.0504 8.58988 14.0081L8.5 14ZM17.5 14H15.5C15.2545 14 15.0504 14.1769 15.0081 14.4101L15 14.5V16C15 16.2455 15.1769 16.4496 15.4101 16.4919L15.5 16.5H17.5C17.7455 16.5 17.9496 16.3231 17.9919 16.0899L18 16V14.5C18 14.2545 17.8231 14.0504 17.5899 14.0081L17.5 14ZM13 14H11C10.7545 14 10.5504 14.1769 10.5081 14.4101L10.5 14.5V16C10.5 16.2455 10.6769 16.4496 10.9101 16.4919L11 16.5H13C13.2455 16.5 13.4496 16.3231 13.4919 16.0899L13.5 16V14.5C13.5 14.2545 13.3231 14.0504 13.0899 14.0081L13 14ZM8.5 10.5H6.5C6.25454 10.5 6.05039 10.6769 6.00806 10.9101L6 11V12.5C6 12.7455 6.17688 12.9496 6.41012 12.9919L6.5 13H8.5C8.74546 13 8.94961 12.8231 8.99194 12.5899L9 12.5V11C9 10.7545 8.82312 10.5504 8.58988 10.5081L8.5 10.5ZM17.5 10.5H15.5C15.2545 10.5 15.0504 10.6769 15.0081 10.9101L15 11V12.5C15 12.7455 15.1769 12.9496 15.4101 12.9919L15.5 13H17.5C17.7455 13 17.9496 12.8231 17.9919 12.5899L18 12.5V11C18 10.7545 17.8231 10.5504 17.5899 10.5081L17.5 10.5ZM13 10.5H11C10.7545 10.5 10.5504 10.6769 10.5081 10.9101L10.5 11V12.5C10.5 12.7455 10.6769 12.9496 10.9101 12.9919L11 13H13C13.2455 13 13.4496 12.8231 13.4919 12.5899L13.5 12.5V11C13.5 10.7545 13.3231 10.5504 13.0899 10.5081L13 10.5ZM17.5 4H6.5C6.25454 4 6.05039 4.17688 6.00806 4.41012L6 4.5V8C6 8.24546 6.17688 8.44961 6.41012 8.49194L6.5 8.5H17.5C17.7455 8.5 17.9496 8.32312 17.9919 8.08988L18 8V4.5C18 4.25454 17.8231 4.05039 17.5899 4.00806L17.5 4ZM16.5 5C16.7761 5 17 5.22386 17 5.5V7C17 7.27614 16.7761 7.5 16.5 7.5H15.5C15.2239 7.5 15 7.27614 15 7V5.5C15 5.22386 15.2239 5 15.5 5H16.5Z" fill="#1C1C1C"/>
</g>
</svg>
