<svg width="24" height="24" viewBox="0 0 24 24" fill="none" xmlns="http://www.w3.org/2000/svg">
<g id="basic">
<path id="icon" fill-rule="evenodd" clip-rule="evenodd" d="M15.25 18.999V21H12.75V18.999H15.25ZM21 16.75V19.25C21 20.2165 20.2165 21 19.25 21H16.75V18.999H19V16.75H21ZM9.5 12.75C10.4665 12.75 11.25 13.5335 11.25 14.5V19.25C11.25 20.2165 10.4665 21 9.5 21H4.75C3.7835 21 3 20.2165 3 19.25V14.5C3 13.5335 3.7835 12.75 4.75 12.75H9.5ZM21 12.75V15.25H19V12.75H21ZM21 8.75V11.25H19V8.75H21ZM5 8.75V11.25H3V8.75H5ZM19.25 3C20.2165 3 21 3.7835 21 4.75V7.25H19V4.999H16.75V3H19.25ZM7.25 3V4.999H5V7.25H3V4.75C3 3.7835 3.7835 3 4.75 3H7.25ZM11.25 3V4.999H8.75V3H11.25ZM15.25 3V4.999H12.75V3H15.25Z" fill="#1C1C1C"/>
</g>
</svg>
