<svg width="24" height="24" viewBox="0 0 24 24" fill="none" xmlns="http://www.w3.org/2000/svg">
<g id="bell">
<path id="icon" fill-rule="evenodd" clip-rule="evenodd" d="M14.5 19.5C14.5 20.8807 13.3807 22 12 22C10.6745 22 9.58996 20.9685 9.50532 19.6644L9.5 19.5H14.5ZM12 2C12.9146 2 13.6858 2.76741 13.924 3.81522C16.2936 4.61645 18 6.85895 18 9.5V15L19.6 16.2C20.0418 16.5314 20.1314 17.1582 19.8 17.6C19.6111 17.8518 19.3148 18 19 18H5C4.44772 18 4 17.5523 4 17C4 16.6852 4.14819 16.3889 4.4 16.2L6 15V9.5C6 6.85895 7.70638 4.61645 10.0768 3.81485C10.3142 2.76741 11.0854 2 12 2Z" fill="#1C1C1C"/>
</g>
</svg>
