<svg width="24" height="24" viewBox="0 0 24 24" fill="none" xmlns="http://www.w3.org/2000/svg">
<g id="chat-solid">
<path id="icon" fill-rule="evenodd" clip-rule="evenodd" d="M19.5568 13.056C21.0311 13.7552 22 14.9373 22 16.2778C22 17.5718 21.0971 18.7182 19.7082 19.4252L20.5976 21.0069C20.7087 21.2044 20.6888 21.4494 20.5473 21.6263C20.3769 21.8393 20.0817 21.8937 19.85 21.7685L19.7664 21.7131L17.707 20.0658C17.3014 20.1318 16.8787 20.1667 16.4444 20.1667C13.5906 20.1667 11.2394 18.6604 10.9247 16.7217C13.5904 16.7152 15.9954 15.9564 17.7408 14.7564C18.4591 14.2626 19.0657 13.6954 19.5434 13.0745L19.5568 13.056ZM10.8889 3.5C15.7981 3.5 19.7778 6.23604 19.7778 9.61111C19.7778 12.92 15.9526 15.6147 11.1766 15.7191L10.7513 15.7215L5.34473 20.0464C5.10514 20.2381 4.75553 20.1993 4.56386 19.9597C4.42235 19.7828 4.40241 19.5377 4.51347 19.3403L6.91084 15.0776C3.99886 14.074 2 12.003 2 9.61111C2 6.23604 5.97969 3.5 10.8889 3.5Z" fill="#1C1C1C"/>
</g>
</svg>
