<svg width="24" height="24" viewBox="0 0 24 24" fill="none" xmlns="http://www.w3.org/2000/svg">
<g id="developer">
<path id="icon" fill-rule="evenodd" clip-rule="evenodd" d="M14.3032 2.78737C14.931 2.94434 15.3282 3.55064 15.2374 4.17767L15.2127 4.30322L11.2127 20.3032C11.0452 20.973 10.3666 21.3802 9.69682 21.2127C9.06894 21.0558 8.6718 20.4495 8.76258 19.8224L8.78731 19.6969L12.7873 3.69688C12.9547 3.02714 13.6334 2.61994 14.3032 2.78737ZM7.05023 5.03977C7.54522 5.45227 7.64064 6.16638 7.29184 6.69095L7.21028 6.80028L2.877 12.0001L7.21028 17.1998C7.62277 17.6948 7.58785 18.4144 7.15017 18.8675L7.05023 18.9603C6.55524 19.3728 5.83563 19.3379 5.38255 18.9002L5.28972 18.8003L0.289723 12.8003C-0.0668592 12.3724 -0.0942887 11.7657 0.207435 11.3103L0.289723 11.1998L5.28972 5.19982C5.73168 4.66948 6.51988 4.59782 7.05023 5.03977ZM16.9498 5.03979C17.4448 4.62729 18.1644 4.66221 18.6175 5.09989L18.7103 5.19983L23.7103 11.1998L23.7926 11.3103C24.0692 11.7278 24.0692 12.2723 23.7926 12.6898L23.7103 12.8003L18.7103 18.8003L18.6175 18.9002C18.1968 19.3066 17.5462 19.3658 17.0591 19.0419L16.9498 18.9603L16.8499 18.8675C16.4434 18.4468 16.3843 17.7963 16.7082 17.3092L16.7898 17.1998L21.123 12.0001L16.7898 6.80029L16.7082 6.69096C16.3594 6.16639 16.4548 5.45228 16.9498 5.03979Z" fill="#1C1C1C"/>
</g>
</svg>
