<svg width="24" height="24" viewBox="0 0 24 24" fill="none" xmlns="http://www.w3.org/2000/svg">
<g id="e-copedia">
<path id="icon" fill-rule="evenodd" clip-rule="evenodd" d="M17 4C18.5825 4 20.165 4.45079 21.7476 5.35236C21.9036 5.44133 22 5.60716 22 5.7868V18.6501C21.9999 18.9262 21.7761 19.15 21.5 19.15C21.4207 19.15 21.3425 19.1312 21.2719 19.095C19.848 18.365 18.424 18 17 18C15.3333 18 13.6667 18.5 12 19.5C10.3333 18.5 8.66667 18 7 18C5.57605 18 4.15211 18.365 2.72816 19.0949C2.48242 19.221 2.18105 19.1239 2.05506 18.8781C2.01887 18.8075 2 18.7293 2 18.65V5.78677C2 5.60711 2.09639 5.44126 2.2525 5.35233C3.835 4.45078 5.4175 4 7 4C8.66667 4 10.3333 4.5 12 5.5C13.6667 4.5 15.3333 4 17 4ZM7.00001 13.5C5.77336 13.5 4.71112 13.677 3.81432 14.0358C3.55792 14.1383 3.43322 14.4293 3.53577 14.6857C3.63833 14.9421 3.92931 15.0668 4.18571 14.9642C4.95557 14.6563 5.89333 14.5 7.00001 14.5C8.10669 14.5 9.04446 14.6563 9.81432 14.9642C10.0707 15.0668 10.3617 14.9421 10.4642 14.6857C10.5668 14.4293 10.4421 14.1383 10.1857 14.0358C9.2889 13.677 8.22667 13.5 7.00001 13.5ZM17 13.5C15.7734 13.5 14.7111 13.677 13.8143 14.0358C13.5579 14.1383 13.4332 14.4293 13.5358 14.6857C13.6383 14.9421 13.9293 15.0668 14.1857 14.9642C14.9556 14.6563 15.8933 14.5 17 14.5C18.1067 14.5 19.0445 14.6563 19.8143 14.9642C20.0707 15.0668 20.3617 14.9421 20.4642 14.6857C20.5668 14.4293 20.4421 14.1383 20.1857 14.0358C19.2889 13.677 18.2267 13.5 17 13.5ZM7.00001 10.5C5.77336 10.5 4.71112 10.677 3.81432 11.0358C3.55792 11.1383 3.43322 11.4293 3.53577 11.6857C3.63833 11.9421 3.92931 12.0668 4.18571 11.9642C4.95557 11.6563 5.89333 11.5 7.00001 11.5C8.10669 11.5 9.04446 11.6563 9.81432 11.9642C10.0707 12.0668 10.3617 11.9421 10.4642 11.6857C10.5668 11.4293 10.4421 11.1383 10.1857 11.0358C9.2889 10.677 8.22667 10.5 7.00001 10.5ZM17 10.5C15.7734 10.5 14.7111 10.677 13.8143 11.0358C13.5579 11.1383 13.4332 11.4293 13.5358 11.6857C13.6383 11.9421 13.9293 12.0668 14.1857 11.9642C14.9556 11.6563 15.8933 11.5 17 11.5C18.1067 11.5 19.0445 11.6563 19.8143 11.9642C20.0707 12.0668 20.3617 11.9421 20.4642 11.6857C20.5668 11.4293 20.4421 11.1383 20.1857 11.0358C19.2889 10.677 18.2267 10.5 17 10.5ZM7.00001 7.5C5.77336 7.5 4.71112 7.67704 3.81432 8.03576C3.55792 8.13832 3.43322 8.4293 3.53577 8.6857C3.63833 8.94209 3.92931 9.06679 4.18571 8.96424C4.95557 8.65629 5.89333 8.5 7.00001 8.5C8.10669 8.5 9.04446 8.65629 9.81432 8.96424C10.0707 9.06679 10.3617 8.94209 10.4642 8.6857C10.5668 8.4293 10.4421 8.13832 10.1857 8.03576C9.2889 7.67704 8.22667 7.5 7.00001 7.5ZM17 7.5C15.7734 7.5 14.7111 7.67704 13.8143 8.03576C13.5579 8.13832 13.4332 8.4293 13.5358 8.6857C13.6383 8.94209 13.9293 9.06679 14.1857 8.96424C14.9556 8.65629 15.8933 8.5 17 8.5C18.1067 8.5 19.0445 8.65629 19.8143 8.96424C20.0707 9.06679 20.3617 8.94209 20.4642 8.6857C20.5668 8.4293 20.4421 8.13832 20.1857 8.03576C19.2889 7.67704 18.2267 7.5 17 7.5Z" fill="#1C1C1C"/>
</g>
</svg>
