<svg width="24" height="24" viewBox="0 0 24 24" fill="none" xmlns="http://www.w3.org/2000/svg">
<g id="e-signature">
<path id="icon" fill-rule="evenodd" clip-rule="evenodd" d="M13 2V7.25L13.0058 7.39353C13.0748 8.24293 13.7503 8.92084 14.5986 8.99354L14.75 9H20V20.25C20 21.2165 19.2165 22 18.25 22H5.75C4.7835 22 4 21.2165 4 20.25V3.75C4 2.7835 4.7835 2 5.75 2H13ZM10 9.75C8.4283 9.75 7.14244 11.4947 6.6634 13.6266L6.61518 13.8565L6.57599 14.0737C6.43818 14.9059 6.4522 15.6817 6.62163 16.3332L6.69246 16.5716L6.747 16.72L6.55587 16.8214C6.2265 16.9869 5.88382 17.1258 5.53091 17.2336C5.13476 17.3546 4.91171 17.7738 5.03271 18.17C5.14363 18.5331 5.50514 18.7508 5.86976 18.6913L5.96909 18.6681L6.25142 18.576C6.60173 18.4543 6.94219 18.3084 7.2709 18.141L7.59563 17.9667L7.694 17.908L7.71418 17.9215C8.0158 18.1028 8.37349 18.2146 8.788 18.2429L9 18.25L9.2546 18.2456C10.3306 18.2082 11.238 17.9314 11.9611 17.4252L12.1537 17.2815L12.278 17.177L12.2924 17.2295C12.3361 17.3681 12.3904 17.4905 12.4558 17.5978L12.525 17.7L12.6111 17.8068C13.1898 18.4715 13.8864 18.2393 14.6286 17.4875L14.7461 17.3645L14.848 17.25L14.869 17.3535C14.9118 17.5548 14.9599 17.7105 15.0316 17.8664C15.2408 18.3216 15.6302 18.6214 16.1637 18.5738C16.7459 18.522 17.36 18.0236 18.2063 16.962L18.3678 16.7564L18.6887 16.3312L18.8574 16.1004C19.1004 15.765 19.0254 15.296 18.6899 15.0531C18.385 14.8322 17.9697 14.8741 17.7142 15.1356L17.6426 15.2205L17.3495 15.6168L17.0696 15.9786L16.819 16.287L16.5993 16.5432L16.4123 16.7481L16.302 16.86L16.2203 16.3666L16.1781 16.1682L16.1541 16.0774C16.0709 15.7836 15.9529 15.5578 15.7176 15.3856C15.1204 14.9485 14.5964 15.2233 14.0226 15.9L13.7652 16.2115L13.658 16.33L13.6507 16.1161C13.6448 15.7206 13.676 15.2079 13.7454 14.5828C13.8442 13.6935 12.6105 13.4315 12.3065 14.2107L12.2736 14.3135L12.217 14.5168C11.82 15.838 11.0005 16.5474 9.65459 16.7123L9.43768 16.7338L9.262 16.743L9.46096 16.5536C10.2218 15.8028 10.8419 14.9271 11.2739 13.9974C12.2869 11.8174 11.9695 9.75 10 9.75ZM10 11.25C10.4059 11.25 10.531 11.9446 9.99474 13.1845L9.91359 13.3653L9.79807 13.6017C9.44658 14.2869 8.96883 14.9334 8.39704 15.4954L8.14632 15.7309L8.042 15.82L8.01011 15.6426C7.95082 15.2374 7.97278 14.7316 8.08745 14.1435C8.40204 12.5302 9.30576 11.25 10 11.25ZM14.5 7.25V2L20 7.5H14.75L14.6927 7.4934C14.6043 7.47267 14.534 7.40507 14.5094 7.31827L14.5 7.25Z" fill="#1C1C1C"/>
</g>
</svg>
