<svg width="24" height="24" viewBox="0 0 24 24" fill="none" xmlns="http://www.w3.org/2000/svg">
<g id="home">
<path id="icon" fill-rule="evenodd" clip-rule="evenodd" d="M12 6L20 14V21C20 21.5523 19.5523 22 19 22H14V17C14 16.4872 13.614 16.0645 13.1166 16.0067L13 16H11C10.4872 16 10.0645 16.386 10.0067 16.8834L10 17V22H5C4.44772 22 4 21.5523 4 21V14L12 6ZM12.6129 2.2097L12.7071 2.29289L17 6.585V4.75C17 4.47386 17.2239 4.25 17.5 4.25H18.5C18.7761 4.25 19 4.47386 19 4.75V8.585L21.7071 11.2929C22.0976 11.6834 22.0976 12.3166 21.7071 12.7071C21.3466 13.0676 20.7794 13.0953 20.3871 12.7903L20.2929 12.7071L12 4.415L3.70711 12.7071C3.34662 13.0676 2.77939 13.0953 2.3871 12.7903L2.29289 12.7071C1.93241 12.3466 1.90468 11.7794 2.2097 11.3871L2.29289 11.2929L11.2929 2.29289C11.6534 1.93241 12.2206 1.90468 12.6129 2.2097Z" fill="#1C1C1C"/>
</g>
</svg>
