<svg width="24" height="24" viewBox="0 0 24 24" fill="none" xmlns="http://www.w3.org/2000/svg">
<g id="inbox-smart">
<path id="icon" fill-rule="evenodd" clip-rule="evenodd" d="M12 4V6H6.918L4.118 14H7.3469C7.74373 14 8.10302 14.2347 8.26254 14.598L9.23746 16.8187C9.39698 17.182 9.75627 17.4167 10.1531 17.4167H13.8469C14.2437 17.4167 14.603 17.182 14.7625 16.8187L15.7375 14.598C15.897 14.2347 16.2563 14 16.6531 14H19.881L19.356 12.5H21.474L21.9018 13.7193C21.9668 13.9051 22 14.1005 22 14.2974V18.25C22 19.1682 21.2929 19.9212 20.3935 19.9942L20.25 20H3.75C2.7835 20 2 19.2165 2 18.25V14.2974C2 14.1005 2.03322 13.9051 2.09825 13.7193L5.08984 5.17189C5.33551 4.46999 5.99794 4 6.74159 4H12ZM18.1672 1.23972C18.2749 0.94673 18.6466 0.922314 18.7982 1.16647L18.8338 1.23972L19.9787 4.35544L23.1618 4.53386C23.4453 4.54972 23.5832 4.87616 23.4484 5.10313L23.4047 5.16225L23.3678 5.19802L20.8925 7.3018L21.7147 10.528C21.7881 10.8162 21.5327 11.055 21.2843 10.9889L21.217 10.9631L21.1754 10.9385L18.5005 9.12219L15.8256 10.9385C15.5867 11.1007 15.291 10.9201 15.2743 10.6522L15.2769 10.5771L15.2863 10.528L16.108 7.3018L13.6332 5.19802C13.4127 5.0106 13.4843 4.6616 13.7208 4.56103L13.7892 4.54007L13.8392 4.53386L17.0218 4.35544L18.1672 1.23972Z" fill="#1C1C1C"/>
</g>
</svg>
