<svg width="24" height="24" viewBox="0 0 24 24" fill="none" xmlns="http://www.w3.org/2000/svg">
<g id="inbox-einvoicing">
<path id="icon" fill-rule="evenodd" clip-rule="evenodd" d="M12 3.997V5.997L6.918 5.99734L4.118 13.997L7.3469 13.9973C7.74373 13.9973 8.10302 14.232 8.26254 14.5954L9.23746 16.816C9.39698 17.1794 9.75627 17.414 10.1531 17.414H13.8469C14.2437 17.414 14.603 17.1794 14.7625 16.816L15.7375 14.5954C15.897 14.232 16.2563 13.9973 16.6531 13.9973L19.881 13.997L19.356 12.497H21.474L21.9018 13.7166C21.9668 13.9024 22 14.0979 22 14.2947V18.2473C22 19.1655 21.2929 19.9185 20.3935 19.9915L20.25 19.9973H3.75C2.7835 19.9973 2 19.2138 2 18.2473V14.2947C2 14.0979 2.03322 13.9024 2.09825 13.7166L5.08984 5.16923C5.33551 4.46733 5.99794 3.99734 6.74159 3.99734L12 3.997ZM17.9658 1C20.3389 1 22.0176 2.6875 22.0176 4.99023C22.0176 5.97803 21.751 6.33865 20.9884 6.37567L20.8486 6.37891H16.1289V6.7832C16.1377 8.08398 16.9639 8.91895 18.3438 8.91895C18.9844 8.91895 19.4583 8.78006 19.8459 8.50845L20.2486 8.20226C20.5158 8.00553 20.6738 7.92578 20.9541 7.92578C21.4375 7.92578 21.7715 8.25977 21.7715 8.76953C21.7715 9.13672 21.5701 9.49002 21.2167 9.78622L20.9386 10.0025C20.3093 10.4567 19.3124 10.7295 18.1943 10.7295C15.5413 10.7295 13.8736 9.21431 13.7778 6.70631L13.7734 6.47559V5.27148C13.7734 2.72266 15.4609 1 17.9658 1ZM18.001 2.76297C16.9103 2.76297 16.1961 3.53176 16.1334 4.69477L16.1289 4.88113H19.8027V4.86356C19.8027 3.58914 19.0996 2.76297 18.001 2.76297Z" fill="#1C1C1C"/>
</g>
</svg>
