<svg width="24" height="24" viewBox="0 0 24 24" fill="none" xmlns="http://www.w3.org/2000/svg">
<g id="inbox-scanning">
<path id="icon" fill-rule="evenodd" clip-rule="evenodd" d="M13.5 4V6H6.918L4.118 14H7.3469C7.74373 14 8.10302 14.2347 8.26254 14.598L9.23746 16.8187C9.39698 17.182 9.75627 17.4167 10.1531 17.4167H13.8469C14.2437 17.4167 14.603 17.182 14.7625 16.8187L15.7375 14.598C15.897 14.2347 16.2563 14 16.6531 14H19.881L19.356 12.5H21.474L21.9018 13.7193C21.9668 13.9051 22 14.1005 22 14.2974V18.25C22 19.1682 21.2929 19.9212 20.3935 19.9942L20.25 20H3.75C2.7835 20 2 19.2165 2 18.25V14.2974C2 14.1005 2.03322 13.9051 2.09825 13.7193L5.08984 5.17189C5.33551 4.46999 5.99794 4 6.74159 4H13.5ZM20 1L23 4V10C23 10.5107 22.612 10.9352 22.1162 10.9932L22 11H15.995C15.4843 11 15.0641 10.612 15.0067 10.1162L15 10L15.005 2C15.005 1.48929 15.3887 1.0648 15.8839 1.00676L16 1H20ZM19 2V5H22L19 2Z" fill="#1C1C1C"/>
</g>
</svg>
