<svg width="24" height="24" viewBox="0 0 24 24" fill="none" xmlns="http://www.w3.org/2000/svg">
<g id="inventory">
<path id="icon" fill-rule="evenodd" clip-rule="evenodd" d="M10 15C11.933 15 13.5 16.567 13.5 18.5C13.5 20.433 11.933 22 10 22C8.067 22 6.5 20.433 6.5 18.5C6.5 16.567 8.067 15 10 15ZM10 17.25C9.30964 17.25 8.75 17.8096 8.75 18.5C8.75 19.1903 9.30964 19.75 10 19.75C10.6904 19.75 11.25 19.1903 11.25 18.5C11.25 17.8096 10.6904 17.25 10 17.25ZM21.5183 15.3095L21.5576 15.4312C21.7251 16.0564 21.3878 16.6979 20.7955 16.9229L20.6737 16.9622L14.4985 18.6172L14.5 18.5C14.5 17.6586 14.2691 16.8712 13.8672 16.1976L20.0267 14.5474C20.6519 14.3798 21.2933 14.7172 21.5183 15.3095ZM18.1432 5.86808L19.955 12.6296C20.0979 13.163 19.7813 13.7114 19.2479 13.8543L13.3051 15.4461C12.7076 14.7997 11.9228 14.3289 11.0368 14.12L9.44991 8.19745C9.30697 7.66398 9.62355 7.11565 10.157 6.9727L16.9185 5.16097C17.452 5.01803 18.0003 5.33461 18.1432 5.86808ZM3.65703 1.53643L3.78465 1.58458L6.4755 2.76864C6.77906 2.90221 7.01525 3.15 7.13527 3.45513L7.17946 3.58924L9.96888 14.0004L9.78818 14.0049C8.97373 14.0426 8.21583 14.2968 7.57071 14.7114L4.91931 4.81504L2.77775 3.87284C2.18798 3.61333 1.8988 2.95345 2.08892 2.35287L2.13707 2.22525C2.39658 1.63549 3.05646 1.34631 3.65703 1.53643ZM15.4396 7.36897C15.3413 7.00221 14.9875 6.77213 14.6211 6.81891L14.521 6.83864L13.0721 7.22687C12.672 7.33407 12.4346 7.74533 12.5418 8.14543C12.6401 8.51218 12.9938 8.74226 13.3603 8.69548L13.4604 8.67576L14.9092 8.28753C15.3093 8.18032 15.5468 7.76907 15.4396 7.36897Z" fill="#1C1C1C"/>
</g>
</svg>
