<svg width="24" height="24" viewBox="0 0 24 24" fill="none" xmlns="http://www.w3.org/2000/svg">
<g id="journal-pro">
<path id="icon" fill-rule="evenodd" clip-rule="evenodd" d="M16.7369 3.66813C16.6815 4.7605 16.9634 5.70109 17.6312 6.36884C18.2989 7.03659 19.2395 7.31849 20.3312 7.26459C19.5878 8.64231 18.5721 10.1172 17.2404 11.449C16.2002 12.4891 15.1375 13.4013 14.1141 14.1546L14.1142 17.4725C14.1142 17.6191 14.0559 17.7597 13.9523 17.8633L9.97745 21.8381C9.76163 22.054 9.41171 22.054 9.19589 21.8381C9.09225 21.7345 9.03402 21.5939 9.03402 21.4474V18.3211C9.03402 18.1746 9.09225 18.034 9.19589 17.9303L10.4353 16.691C10.5389 16.5873 10.5971 16.4468 10.5971 16.3002L10.5971 16.1683C9.35888 16.6312 8.37876 16.6554 7.86169 16.1383C7.34461 15.6212 7.36877 14.6411 7.8317 13.4029L7.69982 13.4029C7.58256 13.4029 7.46915 13.4401 7.37541 13.5081L7.30904 13.5647L6.06966 14.8041C5.98674 14.887 5.8802 14.9409 5.76585 14.9591L5.67888 14.966H2.55265C2.40607 14.966 2.26551 14.9078 2.16187 14.8041C1.97002 14.6123 1.94871 14.3145 2.09792 14.0991L2.16187 14.0226L6.1367 10.0477C6.21962 9.9648 6.32616 9.91096 6.44051 9.89273L6.52748 9.88585L9.84538 9.88595C10.5987 8.8625 11.5109 7.79979 12.551 6.75962C13.8828 5.42788 15.3577 4.4122 16.7369 3.66813ZM21.9297 2.07027C22.0343 2.17481 22.0253 2.61657 21.8817 3.28203L21.7986 3.63287L21.6925 4.01784L21.6306 4.22214L21.4888 4.65239C21.3349 5.09629 21.1442 5.57955 20.9142 6.08799C19.8413 6.28134 18.9532 6.12776 18.4127 5.58728C17.8901 5.06469 17.7293 4.21709 17.8931 3.19296L17.912 3.08585C18.5052 2.81747 19.0641 2.60268 19.5662 2.4373L19.9822 2.30755L20.1787 2.25157L20.547 2.15701C21.3075 1.97698 21.8165 1.95702 21.9297 2.07027Z" fill="#1C1C1C"/>
</g>
</svg>
