<svg width="24" height="24" viewBox="0 0 24 24" fill="none" xmlns="http://www.w3.org/2000/svg">
<g id="market">
<path id="icon" fill-rule="evenodd" clip-rule="evenodd" d="M7 17.5C7.27614 17.5 7.5 17.7239 7.5 18V21.5C7.5 21.7761 7.27614 22 7 22H3.5C3.22386 22 3 21.7761 3 21.5V18C3 17.7239 3.22386 17.5 3.5 17.5H7ZM12.5 17.5C12.7761 17.5 13 17.7239 13 18V21.5C13 21.7761 12.7761 22 12.5 22H9C8.72386 22 8.5 21.7761 8.5 21.5V18C8.5 17.7239 8.72386 17.5 9 17.5H12.5ZM18 17.5C18.2761 17.5 18.5 17.7239 18.5 18V21.5C18.5 21.7761 18.2761 22 18 22H14.5C14.2239 22 14 21.7761 14 21.5V18C14 17.7239 14.2239 17.5 14.5 17.5H18ZM7 12C7.27614 12 7.5 12.2239 7.5 12.5V16C7.5 16.2761 7.27614 16.5 7 16.5H3.5C3.22386 16.5 3 16.2761 3 16V12.5C3 12.2239 3.22386 12 3.5 12H7ZM12.5 12C12.7761 12 13 12.2239 13 12.5V16C13 16.2761 12.7761 16.5 12.5 16.5H9C8.72386 16.5 8.5 16.2761 8.5 16V12.5C8.5 12.2239 8.72386 12 9 12H12.5ZM19.4704 9.47728L20.3763 12.858C20.4477 13.1248 20.2894 13.3989 20.0227 13.4704L16.642 14.3763C16.3752 14.4477 16.1011 14.2894 16.0296 14.0227L15.1237 10.642C15.0523 10.3752 15.2105 10.1011 15.4773 10.0296L18.858 9.12373C19.1248 9.05226 19.3989 9.21055 19.4704 9.47728ZM7 6.5C7.27614 6.5 7.5 6.72386 7.5 7V10.5C7.5 10.7761 7.27614 11 7 11H3.5C3.22386 11 3 10.7761 3 10.5V7C3 6.72386 3.22386 6.5 3.5 6.5H7ZM10.642 4.12373L14.0227 5.0296C14.2894 5.10107 14.4477 5.37523 14.3763 5.64197L13.4704 9.02271C13.3989 9.28944 13.1248 9.44773 12.858 9.37626L9.47728 8.47039C9.21055 8.39892 9.05226 8.12476 9.12373 7.85802L10.0296 4.47728C10.1011 4.21055 10.3752 4.05226 10.642 4.12373ZM20 2C20.2761 2 20.5 2.22386 20.5 2.5V6C20.5 6.27614 20.2761 6.5 20 6.5H16.5C16.2239 6.5 16 6.27614 16 6V2.5C16 2.22386 16.2239 2 16.5 2H20Z" fill="#1C1C1C"/>
</g>
</svg>
