<svg width="24" height="24" viewBox="0 0 24 24" fill="none" xmlns="http://www.w3.org/2000/svg">
<g id="partner-api">
<path id="icon" fill-rule="evenodd" clip-rule="evenodd" d="M9.88388 11.6161C10.3395 12.0717 10.3699 12.7915 9.97501 13.2824L9.88388 13.3839L8.016 15.25H19C19.6904 15.25 20.25 15.8096 20.25 16.5C20.25 17.1472 19.7581 17.6795 19.1278 17.7435L19 17.75H8.017L9.88388 19.6161C10.372 20.1043 10.372 20.8957 9.88388 21.3839C9.42827 21.8395 8.70845 21.8699 8.21761 21.475L8.11612 21.3839L4.11612 17.3839C4.06835 17.3361 4.02525 17.2854 3.98683 17.2324L3.9179 17.1264L3.87572 17.0471L3.82973 16.9402L3.80056 16.8531L3.77042 16.7262L3.75394 16.5999L3.75 16.5L3.75247 16.4208L3.76461 16.3088L3.78131 16.2207L3.81098 16.1135L3.86031 15.9858L3.94689 15.8261L4.00881 15.7382L4.07268 15.6618L8.11612 11.6161C8.60427 11.128 9.39573 11.128 9.88388 11.6161ZM15.7824 2.52499L15.8839 2.61612L19.8839 6.61612C19.9136 6.64585 19.9419 6.67707 19.9685 6.70967L19.8839 6.61612C19.9317 6.66389 19.9747 6.71456 20.0132 6.76757L20.078 6.86665L20.1243 6.9529L20.1703 7.05984L20.1994 7.14694L20.2296 7.27377L20.2464 7.40382L20.25 7.5L20.2475 7.57925L20.2354 7.69118L20.2187 7.77927L20.189 7.88653L20.1397 8.01417L20.0821 8.12636L20.0131 8.23242L19.9646 8.29512L19.8839 8.38388L15.8839 12.3839C15.3957 12.872 14.6043 12.872 14.1161 12.3839C13.6605 11.9283 13.6301 11.2085 14.025 10.7176L14.1161 10.6161L15.982 8.75H5C4.30964 8.75 3.75 8.19036 3.75 7.5C3.75 6.85279 4.24187 6.32047 4.87219 6.25645L5 6.25H15.983L14.1161 4.38388C13.628 3.89573 13.628 3.10427 14.1161 2.61612C14.5717 2.1605 15.2915 2.13013 15.7824 2.52499Z" fill="#1C1C1C"/>
</g>
</svg>
