<svg width="24" height="24" viewBox="0 0 24 24" fill="none" xmlns="http://www.w3.org/2000/svg">
<path fill-rule="evenodd" clip-rule="evenodd" d="M22 12C22 6.47715 17.5228 2 12 2C6.47715 2 2 6.47715 2 12C2 14.8208 3.16798 17.3689 5.04672 19.1869C6.84629 20.9284 9.298 22 12 22C14.702 22 17.1537 20.9284 18.9533 19.1869C20.832 17.3689 22 14.8208 22 12ZM5.70422 16.9365C7.16882 18.8018 9.44448 20 12 20C14.5555 20 16.8312 18.8018 18.2958 16.9365C17.1596 14.6058 14.7673 13 12 13C9.23269 13 6.84043 14.6058 5.70422 16.9365ZM12 12C13.933 12 15.5 10.433 15.5 8.5C15.5 6.567 13.933 5 12 5C10.067 5 8.5 6.567 8.5 8.5C8.5 10.433 10.067 12 12 12Z" fill="#1C1C1C"/>
</svg>
