<svg width="24" height="24" viewBox="0 0 24 24" fill="none" xmlns="http://www.w3.org/2000/svg">
<g id="projects">
<path id="icon" fill-rule="evenodd" clip-rule="evenodd" d="M12 2C17.5228 2 22 6.47715 22 12C22 17.5228 17.5228 22 12 22C6.47715 22 2 17.5228 2 12C2 6.47715 6.47715 2 12 2ZM12 5C11.4872 5 11.0645 5.38604 11.0067 5.88338L11 6L10.9999 12.0194L11.0094 12.1379L11.0317 12.2507L11.0549 12.3275L11.0848 12.4031L11.1319 12.4964L11.1942 12.5925L11.264 12.6774L11.3364 12.7485L11.4318 12.8231L11.5307 12.8833L11.6061 12.9191L15.1061 14.4191L15.2159 14.4589C15.6958 14.6017 16.2171 14.3653 16.4191 13.8939C16.6212 13.4225 16.4328 12.882 15.9985 12.633L15.8939 12.5809L13 11.34V6L12.9933 5.88338C12.9355 5.38604 12.5128 5 12 5Z" fill="#1C1C1C"/>
</g>
</svg>
