<svg width="24" height="24" viewBox="0 0 24 24" fill="none" xmlns="http://www.w3.org/2000/svg">
<g id="report-solid">
<path id="icon" fill-rule="evenodd" clip-rule="evenodd" d="M6.5 12C7.05228 12 7.5 12.4477 7.5 13V19C7.5 19.5523 7.05228 20 6.5 20H4C3.44772 20 3 19.5523 3 19V13C3 12.4477 3.44772 12 4 12H6.5ZM13.25 7C13.8023 7 14.25 7.44772 14.25 8V19C14.25 19.5523 13.8023 20 13.25 20H10.75C10.1977 20 9.75 19.5523 9.75 19V8C9.75 7.44772 10.1977 7 10.75 7H13.25ZM20 4C20.5523 4 21 4.44772 21 5V19C21 19.5523 20.5523 20 20 20H17.5C16.9477 20 16.5 19.5523 16.5 19V5C16.5 4.44772 16.9477 4 17.5 4H20Z" fill="#1C1C1C"/>
</g>
</svg>
