<svg width="24" height="24" viewBox="0 0 24 24" fill="none" xmlns="http://www.w3.org/2000/svg">
<g id="sales">
<path id="icon" fill-rule="evenodd" clip-rule="evenodd" d="M12.0214 23.3162C12.6147 23.3162 13.142 22.9866 13.142 22.1956V21.1409C16.6884 20.7585 18.9032 18.6755 18.9032 15.6433C18.9032 13.033 17.3344 11.4509 14.078 10.739L11.4018 10.1326C9.72745 9.76343 8.91006 8.99878 8.91006 7.87817C8.91006 6.53345 10.0702 5.55786 11.8896 5.55786C13.3661 5.55786 14.3944 6.05884 15.5414 7.33765C16.1215 7.94409 16.5697 8.16821 17.1762 8.16821C17.9145 8.16821 18.4814 7.65405 18.4814 6.8894C18.4814 6.15112 18.0463 5.34692 17.308 4.62183C16.3324 3.69897 14.869 3.09253 13.2211 2.88159V1.78735C13.2211 1.00952 12.6938 0.679932 12.0873 0.679932C11.494 0.679932 10.9667 0.996338 10.9667 1.78735V2.84204C7.55215 3.15845 5.37686 5.2019 5.37686 8.12866C5.37686 10.6863 6.94571 12.387 9.95157 13.0593L12.6278 13.679C14.579 14.1404 15.3832 14.8259 15.3832 15.9861C15.3832 17.489 14.2099 18.4382 12.1137 18.4382C10.5448 18.4382 9.23965 17.845 8.05313 16.5662C7.38077 15.8938 7.01163 15.7488 6.51065 15.7488C5.70645 15.7488 5.10001 16.2629 5.10001 17.1462C5.10001 17.9241 5.54825 18.7283 6.35245 19.427C7.40714 20.3894 9.05508 20.9827 10.8876 21.1541V22.1956C10.8876 22.9866 11.4149 23.3162 12.0214 23.3162Z" fill="#1C1C1C"/>
</g>
</svg>
