<svg width="24" height="24" viewBox="0 0 24 24" fill="none" xmlns="http://www.w3.org/2000/svg">
<g id="search-bold">
<path id="icon" fill-rule="evenodd" clip-rule="evenodd" d="M9.75 2C14.0302 2 17.5 5.46979 17.5 9.75C17.5 11.4392 16.9596 13.0021 16.0423 14.2754L21.6339 19.8661C22.122 20.3543 22.122 21.1457 21.6339 21.6339C21.1783 22.0895 20.4585 22.1199 19.9676 21.725L19.8661 21.6339L14.2754 16.0423C13.0021 16.9596 11.4392 17.5 9.75 17.5C5.46979 17.5 2 14.0302 2 9.75C2 5.46979 5.46979 2 9.75 2ZM9.75 4.5C6.8505 4.5 4.5 6.8505 4.5 9.75C4.5 12.6495 6.8505 15 9.75 15C12.6495 15 15 12.6495 15 9.75C15 6.8505 12.6495 4.5 9.75 4.5Z" fill="#1C1C1C"/>
</g>
</svg>
