<svg width="24" height="24" viewBox="0 0 24 24" fill="none" xmlns="http://www.w3.org/2000/svg">
<g id="settings-solid">
<path id="icon" fill-rule="evenodd" clip-rule="evenodd" d="M13 2C13.5523 2 14 2.44772 14 3L14.0008 4.76984C14.5999 4.93526 15.1689 5.17315 15.6979 5.47349L16.9497 4.22183C17.3403 3.8313 17.9734 3.8313 18.364 4.22183L19.7782 5.63604C20.1687 6.02656 20.1687 6.65973 19.7782 7.05025L18.5265 8.30212C18.827 8.83136 19.065 9.40073 19.2304 10.0002L21 10C21.5523 10 22 10.4477 22 11V13C22 13.5523 21.5523 14 21 14L19.2302 14.0008C19.0647 14.5999 18.8268 15.1689 18.5265 15.6979L19.7782 16.9497C20.1687 17.3403 20.1687 17.9734 19.7782 18.364L18.364 19.7782C17.9734 20.1687 17.3403 20.1687 16.9497 19.7782L15.6979 18.5265C15.1689 18.8268 14.5999 19.0647 14.0008 19.2302L14 21C14 21.5523 13.5523 22 13 22H11C10.4477 22 10 21.5523 10 21L10.0002 19.2304C9.40073 19.065 8.83136 18.827 8.30212 18.5265L7.05025 19.7782C6.65973 20.1687 6.02656 20.1687 5.63604 19.7782L4.22183 18.364C3.8313 17.9734 3.8313 17.3403 4.22183 16.9497L5.47349 15.6979C5.17315 15.1689 4.93526 14.5999 4.76984 14.0008L3 14C2.44772 14 2 13.5523 2 13V11C2 10.4477 2.44772 10 3 10L4.76956 10.0002C4.935 9.40073 5.17299 8.83136 5.47349 8.30212L4.22183 7.05025C3.8313 6.65973 3.8313 6.02656 4.22183 5.63604L5.63604 4.22183C6.02656 3.8313 6.65973 3.8313 7.05025 4.22183L8.30212 5.47349C8.83136 5.17299 9.40073 4.935 10.0002 4.76956L10 3C10 2.44772 10.4477 2 11 2H13ZM12 8C9.79086 8 8 9.79086 8 12C8 14.2091 9.79086 16 12 16C14.2091 16 16 14.2091 16 12C16 9.79086 14.2091 8 12 8Z" fill="#1C1C1C"/>
</g>
</svg>
