<svg width="24" height="24" viewBox="0 0 24 24" fill="none" xmlns="http://www.w3.org/2000/svg">
<path fill-rule="evenodd" clip-rule="evenodd" d="M19.25 3C20.2165 3 21 3.7835 21 4.75V11H19.5V4.75C19.5 4.63165 19.4178 4.53251 19.3073 4.5066L19.25 4.5H4.75C4.63165 4.5 4.53251 4.58223 4.5066 4.69268L4.5 4.75V19.25C4.5 19.3683 4.58223 19.4675 4.69268 19.4934L4.75 19.5H11V21H4.75C3.7835 21 3 20.2165 3 19.25V4.75C3 3.7835 3.7835 3 4.75 3H19.25ZM14.75 10.25C17.2353 10.25 19.25 12.2647 19.25 14.75C19.25 15.7441 18.9276 16.6629 18.3818 17.4076L18.4182 17.3571L20.7803 19.7197C21.0732 20.0126 21.0732 20.4874 20.7803 20.7803C20.5141 21.0466 20.0974 21.0708 19.8038 20.8529L19.7197 20.7803L17.3571 18.4182L17.2454 18.4953C16.5313 18.9721 15.6731 19.25 14.75 19.25C12.2647 19.25 10.25 17.2353 10.25 14.75C10.25 12.2647 12.2647 10.25 14.75 10.25ZM14.75 11.75C13.0931 11.75 11.75 13.0931 11.75 14.75C11.75 16.4069 13.0931 17.75 14.75 17.75C16.4069 17.75 17.75 16.4069 17.75 14.75C17.75 13.0931 16.4069 11.75 14.75 11.75ZM7.75 15C8.16421 15 8.5 15.3358 8.5 15.75C8.5 16.1642 8.16421 16.5 7.75 16.5H7.25C6.83579 16.5 6.5 16.1642 6.5 15.75C6.5 15.3358 6.83579 15 7.25 15H7.75ZM7.75 11C8.16421 11 8.5 11.3358 8.5 11.75C8.5 12.1642 8.16421 12.5 7.75 12.5H7.25C6.83579 12.5 6.5 12.1642 6.5 11.75C6.5 11.3358 6.83579 11 7.25 11H7.75ZM16.75 7C17.1642 7 17.5 7.33579 17.5 7.75C17.5 8.16421 17.1642 8.5 16.75 8.5H10.25C9.83579 8.5 9.5 8.16421 9.5 7.75C9.5 7.33579 9.83579 7 10.25 7H16.75ZM7.75 7C8.16421 7 8.5 7.33579 8.5 7.75C8.5 8.16421 8.16421 8.5 7.75 8.5H7.25C6.83579 8.5 6.5 8.16421 6.5 7.75C6.5 7.33579 6.83579 7 7.25 7H7.75Z" fill="#1C1C1C"/>
</svg>
