<svg width="24" height="24" viewBox="0 0 24 24" fill="none" xmlns="http://www.w3.org/2000/svg">
<path fill-rule="evenodd" clip-rule="evenodd" d="M16.25 2C16.6642 2 17 2.33579 17 2.75V3H19.25C20.2165 3 21 3.7835 21 4.75V19.25C21 20.2165 20.2165 21 19.25 21H4.75C3.7835 21 3 20.2165 3 19.25V16.25H4.5V19.25C4.5 19.3683 4.58223 19.4675 4.69268 19.4934L4.75 19.5H19.25C19.3683 19.5 19.4675 19.4178 19.4934 19.3073L19.5 19.25V8H4.5V11.25H3V4.75C3 3.7835 3.7835 3 4.75 3H7V2.75C7 2.33579 7.33579 2 7.75 2C8.16421 2 8.5 2.33579 8.5 2.75V3H15.5V2.75C15.5 2.33579 15.8358 2 16.25 2ZM9.44621 10.1471L9.53033 10.2197L12.5303 13.2197C12.7966 13.4859 12.8208 13.9026 12.6029 14.1962L12.5303 14.2803L9.53033 17.2803C9.23744 17.5732 8.76256 17.5732 8.46967 17.2803C8.2034 17.0141 8.1792 16.5974 8.39705 16.3038L8.46967 16.2197L10.189 14.5H3.75C3.33579 14.5 3 14.1642 3 13.75C3 13.3703 3.28215 13.0565 3.64823 13.0068L3.75 13H10.189L8.46967 11.2803C8.2034 11.0141 8.1792 10.5974 8.39705 10.3038L8.46967 10.2197C8.73594 9.9534 9.1526 9.9292 9.44621 10.1471ZM7 4.5H4.75C4.63165 4.5 4.53251 4.58223 4.5066 4.69268L4.5 4.75V6.5H19.5V4.75C19.5 4.63165 19.4178 4.53251 19.3073 4.5066L19.25 4.5H17V4.75C17 5.16421 16.6642 5.5 16.25 5.5C15.8358 5.5 15.5 5.16421 15.5 4.75V4.5H8.5V4.75C8.5 5.16421 8.16421 5.5 7.75 5.5C7.33579 5.5 7 5.16421 7 4.75V4.5Z" fill="#1C1C1C"/>
</svg>
