<svg width="24" height="24" viewBox="0 0 24 24" fill="none" xmlns="http://www.w3.org/2000/svg">
<path d="M10.8887 4.14844C12.2742 4.14844 13.586 4.36615 14.7549 4.75488C14.1145 5.30741 14.2378 6.43363 15.127 6.7627L17.1396 7.50781L17.8848 9.52051C17.9837 9.78796 18.1562 9.98518 18.3623 10.1143L18.127 10.2021C17.0931 10.5847 17.0931 12.0471 18.127 12.4297L19.0029 12.7529C17.6517 14.8274 14.6699 16.2908 11.1768 16.3672L10.751 16.3701L5.34473 20.6953C5.10514 20.8868 4.75509 20.8479 4.56348 20.6084C4.42197 20.4315 4.40262 20.1857 4.51367 19.9883L6.91113 15.7256C3.99924 14.7221 2.00012 12.6516 2 10.2598C2 6.88474 5.97957 4.14852 10.8887 4.14844ZM20.4893 9.12207C20.5497 8.95919 20.7802 8.95937 20.8408 9.12207L21.3555 10.5127C21.3745 10.564 21.4155 10.605 21.4668 10.624L22.8564 11.1377C23.0197 11.1981 23.0197 11.4289 22.8564 11.4893L21.4668 12.0039C21.4155 12.0229 21.3745 12.0639 21.3555 12.1152L20.8408 13.5049C20.7804 13.6681 20.5497 13.6681 20.4893 13.5049L19.9756 12.1152C19.9566 12.0639 19.9156 12.0229 19.8643 12.0039L18.4736 11.4893C18.3109 11.4286 18.3108 11.1982 18.4736 11.1377L19.8643 10.624C19.9156 10.605 19.9566 10.564 19.9756 10.5127L20.4893 9.12207ZM18.8232 2.12207C18.8839 1.95933 19.1143 1.95923 19.1748 2.12207L20.0488 4.48633C20.0678 4.53757 20.1089 4.57771 20.1602 4.59668L22.5234 5.47168C22.6867 5.53208 22.6867 5.76284 22.5234 5.82324L20.1602 6.69727C20.1088 6.71626 20.0678 6.75727 20.0488 6.80859L19.1748 9.17188C19.1144 9.33512 18.8836 9.33512 18.8232 9.17188L17.9482 6.80859C17.9293 6.75733 17.8891 6.71628 17.8379 6.69727L15.4736 5.82324C15.3108 5.76274 15.3109 5.53229 15.4736 5.47168L17.8379 4.59668C17.889 4.57768 17.9292 4.53739 17.9482 4.48633L18.8232 2.12207Z" fill="#1C1C1C"/>
</svg>
