<svg width="24" height="24" viewBox="0 0 24 24" fill="none" xmlns="http://www.w3.org/2000/svg">
<path d="M17.3246 14.4749C17.3852 14.3122 17.6157 14.312 17.6761 14.4749L18.5502 16.8391C18.5692 16.8903 18.6102 16.9305 18.6615 16.9495L21.0248 17.8245C21.1879 17.8849 21.188 18.1156 21.0248 18.176L18.6615 19.05C18.6102 19.069 18.5692 19.1101 18.5502 19.1614L17.6761 21.5247C17.6157 21.6879 17.385 21.6879 17.3246 21.5247L16.4496 19.1614C16.4306 19.1101 16.3904 19.0691 16.3392 19.05L13.975 18.176C13.812 18.1156 13.8121 17.885 13.975 17.8245L16.3392 16.9495C16.3903 16.9304 16.4306 16.8902 16.4496 16.8391L17.3246 14.4749ZM8.33533 5.28833C8.60127 4.57062 9.6162 4.57067 9.8822 5.28833L11.4486 9.51978L15.6791 11.0852C16.3973 11.351 16.3973 12.3673 15.6791 12.6331L11.4486 14.1985L9.8822 18.429C9.61641 19.1472 8.60111 19.1472 8.33533 18.429L6.7699 14.1985L2.53845 12.6331C1.82034 12.3673 1.82044 11.3511 2.53845 11.0852L6.7699 9.51978L8.33533 5.28833ZM8.06873 10.3313C7.98519 10.557 7.80714 10.735 7.58142 10.8186L4.7699 11.8586L7.58142 12.8987C7.80723 12.9822 7.98517 13.1612 8.06873 13.387L9.10876 16.1975L10.1488 13.387C10.2323 13.1612 10.4104 12.9823 10.6361 12.8987L13.4476 11.8586L10.6361 10.8186C10.4105 10.735 10.2323 10.557 10.1488 10.3313L9.10876 7.51978L8.06873 10.3313ZM17.3246 2.47485C17.3852 2.31217 17.6157 2.31201 17.6761 2.47485L18.5502 4.83911C18.5692 4.89034 18.6102 4.9305 18.6615 4.94946L21.0248 5.82446C21.1879 5.88492 21.188 6.11563 21.0248 6.17603L18.6615 7.05005C18.6102 7.06904 18.5692 7.11005 18.5502 7.16138L17.6761 9.52466C17.6157 9.68789 17.385 9.68788 17.3246 9.52466L16.4496 7.16138C16.4306 7.11014 16.3904 7.06908 16.3392 7.05005L13.975 6.17603C13.812 6.11557 13.8121 5.88502 13.975 5.82446L16.3392 4.94946C16.3903 4.93044 16.4306 4.89016 16.4496 4.83911L17.3246 2.47485Z" fill="#1C1C1C"/>
</svg>
