<svg width="24" height="24" viewBox="0 0 24 24" fill="none" xmlns="http://www.w3.org/2000/svg">
<path fill-rule="evenodd" clip-rule="evenodd" d="M7.916 10.1591L8.976 11.2191L6.31281 13.8839C4.84835 15.3484 4.84835 17.7228 6.31281 19.1872C7.73004 20.6045 9.99941 20.6502 11.4716 19.3244L11.6161 19.1872L18.273 12.5304C18.5659 12.2375 19.0407 12.2375 19.3336 12.5304C19.6021 12.7989 19.6245 13.2203 19.4007 13.5142L19.3336 13.591L12.6768 20.2479C10.6265 22.2982 7.3024 22.2982 5.25215 20.2479C3.25316 18.2489 3.20318 15.0389 5.10223 12.9794L5.25215 12.8233L7.916 10.1591ZM19.6872 3.69149C21.1044 5.10871 21.1501 7.37809 19.8243 8.85029L19.6872 8.99479L10.5555 18.1265C9.67677 19.0052 8.25215 19.0052 7.37347 18.1265C6.5314 17.2845 6.49632 15.941 7.26821 15.0571L7.37347 14.9445L14.0303 8.28768C14.3232 7.99479 14.7981 7.99479 15.091 8.28768C15.3595 8.55617 15.3818 8.97757 15.1581 9.27154L15.091 9.34834L8.43413 16.0052C8.14124 16.2981 8.14124 16.773 8.43413 17.0659C8.70262 17.3343 9.12402 17.3567 9.41799 17.133L9.49479 17.0659L18.6265 7.93413C19.5052 7.05545 19.5052 5.63083 18.6265 4.75215C17.7845 3.91008 16.441 3.875 15.5571 4.64689L15.4445 4.75215L12.512 7.68399L11.451 6.62299L14.3839 3.69149C15.8483 2.22702 18.2227 2.22702 19.6872 3.69149ZM4 9C4 10.1046 4.89543 11 6 11C4.94564 11 4.08183 11.8159 4.00549 12.8507L4 13L3.99575 12.8685C3.92803 11.8252 3.06039 11 2 11C3.10457 11 4 10.1046 4 9ZM10 6.5C10 7.60457 10.8954 8.5 12 8.5C10.9456 8.5 10.0818 9.31588 10.0055 10.3507L10 10.5L9.99575 10.3685C9.92803 9.32523 9.06039 8.5 8 8.5C9.10457 8.5 10 7.60457 10 6.5ZM6.5 2C6.5 4.20914 8.51472 6 11 6C8.58782 6 6.61892 7.68707 6.50519 9.8062L6.5 10L6.49043 9.737C6.33807 7.65046 4.38587 6 2 6C4.48528 6 6.5 4.20914 6.5 2Z" fill="#1C1C1C"/>
</svg>
