<svg width="24" height="24" viewBox="0 0 24 24" fill="none" xmlns="http://www.w3.org/2000/svg">
<path d="M17.5 13.4996C19.9851 13.4996 21.9998 15.5145 22 17.9996C22 20.4849 19.9852 22.4996 17.5 22.4996C15.0147 22.4996 13 20.4849 13 17.9996C13.0001 15.5145 15.0148 13.4997 17.5 13.4996ZM12.3789 3.68811C13.8433 2.22374 16.2181 2.22382 17.6826 3.68811C19.0998 5.10534 19.1451 7.37509 17.8193 8.84729L17.6826 8.99182L8.55074 18.1237C7.67211 19.002 6.24769 19.002 5.36909 18.1237C4.52712 17.2817 4.49199 15.9382 5.26363 15.0543L5.36909 14.942L12.0253 8.28479C12.3182 7.99195 12.793 7.99206 13.0859 8.28479C13.3543 8.55322 13.3769 8.97423 13.1533 9.26819L13.0859 9.34534L6.42964 16.0026C6.13705 16.2955 6.13685 16.7703 6.42964 17.0631C6.69794 17.3312 7.11918 17.3536 7.41304 17.1305L7.49019 17.0631L16.622 7.93127C17.5005 7.0527 17.5004 5.62832 16.622 4.74963C15.78 3.90757 14.4365 3.87229 13.5527 4.64417L13.4394 4.74963L4.30855 13.8805C2.84432 15.345 2.84416 17.7198 4.30855 19.1842C5.72571 20.6011 7.99462 20.6464 9.46675 19.3209L9.61128 19.1842L11.5488 17.2457C11.5178 17.4929 11.5 17.7451 11.5 18.0006C11.5 18.439 11.5483 18.8663 11.6376 19.278L10.6718 20.2448C8.62155 22.2947 5.29718 22.2949 3.24702 20.2448C1.24838 18.2458 1.19888 15.0357 3.09761 12.9762L3.24702 12.8199L12.3789 3.68811ZM17.5 19.9996C17.0859 19.9997 16.7501 20.3356 16.75 20.7496C16.75 21.1638 17.0858 21.4996 17.5 21.4996C17.9142 21.4996 18.25 21.1638 18.25 20.7496C18.2498 20.3356 17.9141 19.9996 17.5 19.9996ZM17.5 14.4996C17.1204 14.4997 16.8066 14.7822 16.7568 15.1481L16.75 15.2496V18.7496C16.75 19.1638 17.0858 19.4996 17.5 19.4996C17.8797 19.4996 18.1935 19.2173 18.2431 18.8512L18.25 18.7496V15.2496C18.2498 14.8356 17.9141 14.4996 17.5 14.4996Z" fill="#1C1C1C"/>
</svg>
