<svg width="24" height="24" viewBox="0 0 24 24" fill="none" xmlns="http://www.w3.org/2000/svg">
<path fill-rule="evenodd" clip-rule="evenodd" d="M14.3794 3.68832C15.8439 2.22385 18.2182 2.22385 19.6827 3.68832C21.0999 5.10554 21.1457 7.37491 19.8199 8.84711L19.6827 8.99162L10.551 18.1233C9.6723 19.002 8.24768 19.002 7.369 18.1233C6.52693 17.2813 6.49185 15.9378 7.26374 15.054L7.369 14.9414L14.0259 8.28451C14.3187 7.99162 14.7936 7.99162 15.0865 8.28451C15.355 8.553 15.3774 8.97439 15.1536 9.26837L15.0865 9.34517L8.42966 16.002C8.13677 16.2949 8.13677 16.7698 8.42966 17.0627C8.69815 17.3312 9.11955 17.3535 9.41352 17.1298L9.49032 17.0627L18.6221 7.93096C19.5007 7.05228 19.5007 5.62766 18.6221 4.74898C17.78 3.90691 16.4365 3.87182 15.5527 4.64372L15.4401 4.74898L6.30834 13.8807C4.84387 15.3452 4.84387 17.7195 6.30834 19.184C7.72557 20.6012 9.99494 20.6469 11.4671 19.3212L11.6116 19.184L18.2685 12.5272C18.5614 12.2343 19.0363 12.2343 19.3292 12.5272C19.5976 12.7956 19.62 13.217 19.3963 13.511L19.3292 13.5878L12.6723 20.2447C10.622 22.2949 7.29793 22.2949 5.24768 20.2447C3.24868 18.2457 3.19871 15.0357 5.09776 12.9762L5.24768 12.82L14.3794 3.68832Z" fill="#1C1C1C"/>
</svg>
