<svg width="24" height="24" viewBox="0 0 24 24" fill="none" xmlns="http://www.w3.org/2000/svg">
<path fill-rule="evenodd" clip-rule="evenodd" d="M19.0259 18.4665C19.3188 18.7594 19.3188 19.2343 19.0259 19.5272C18.7596 19.7934 18.3429 19.8176 18.0493 19.5998L17.9652 19.5272L15.677 17.239L12.6723 20.2447C10.6221 22.2949 7.29795 22.2949 5.2477 20.2447C3.2487 18.2457 3.19872 15.0357 5.09777 12.9762L5.2477 12.82L8.25301 9.81497L5.96521 7.52716C5.67232 7.23426 5.67232 6.75939 5.96521 6.4665C6.23148 6.20023 6.64814 6.17602 6.94175 6.39388L7.02587 6.4665L19.0259 18.4665ZM9.31301 10.875L6.30836 13.8807C4.84389 15.3452 4.84389 17.7196 6.30836 19.184C7.72558 20.6013 9.99495 20.647 11.4672 19.3212L11.6117 19.184L14.617 16.179L13.556 15.118L10.551 18.1234C9.67232 19.0021 8.2477 19.0021 7.36902 18.1234C6.52695 17.2813 6.49186 15.9378 7.26376 15.054L7.36902 14.9414L10.374 11.936L9.31301 10.875ZM11.435 12.9969L8.42968 16.002C8.13678 16.2949 8.13678 16.7698 8.42968 17.0627C8.69816 17.3312 9.11956 17.3535 9.41353 17.1298L9.49034 17.0627L12.495 14.0569L11.435 12.9969ZM19.3292 12.5272C19.5977 12.7957 19.62 13.2171 19.3963 13.511L19.3292 13.5878L17.799 15.118L16.738 14.057L18.2685 12.5272C18.5614 12.2343 19.0363 12.2343 19.3292 12.5272ZM19.6827 3.68832C21.1 5.10554 21.1457 7.37491 19.8199 8.84711L19.6827 8.99162L15.677 12.996L14.617 11.936L18.6221 7.93096C19.5007 7.05228 19.5007 5.62766 18.6221 4.74898C17.78 3.90691 16.4365 3.87182 15.5527 4.64372L15.4401 4.74898L11.435 8.75397L10.374 7.69297L14.3794 3.68832C15.8439 2.22385 18.2183 2.22385 19.6827 3.68832ZM15.0865 8.28449C15.355 8.55297 15.3774 8.97437 15.1537 9.26835L15.0865 9.34515L13.556 10.8749L12.495 9.81395L14.0259 8.28449C14.3188 7.9916 14.7936 7.9916 15.0865 8.28449Z" fill="#1C1C1C"/>
</svg>
