<svg width="24" height="24" viewBox="0 0 24 24" fill="none" xmlns="http://www.w3.org/2000/svg">
<path fill-rule="evenodd" clip-rule="evenodd" d="M14.75 5.75C14.75 5.63165 14.6678 5.53251 14.5573 5.5066L14.5 5.5H14C13.5858 5.5 13.25 5.16421 13.25 4.75C13.25 4.3703 13.5322 4.05651 13.8982 4.00685L14 4H14.5C14.8725 4 15.2177 4.11636 15.5015 4.3147C15.7428 4.14446 16.0307 4.03485 16.3423 4.00701L16.5 4H17L17.1018 4.00685C17.4678 4.05651 17.75 4.3703 17.75 4.75C17.75 5.1297 17.4678 5.44349 17.1018 5.49315L17 5.5H16.5L16.4427 5.5066C16.3543 5.52733 16.284 5.59493 16.2594 5.68173L16.25 5.75V8H20.25C21.2165 8 22 8.7835 22 9.75V14.25C22 15.2165 21.2165 16 20.25 16H16.25V18.25L16.2566 18.3073C16.2773 18.3957 16.3449 18.466 16.4317 18.4906L16.5 18.5H17L17.1018 18.5068C17.4678 18.5565 17.75 18.8703 17.75 19.25C17.75 19.6297 17.4678 19.9435 17.1018 19.9932L17 20H16.5L16.3565 19.9942C16.0395 19.9685 15.7463 19.8582 15.4996 19.6861C15.2545 19.8579 14.961 19.9684 14.6435 19.9942L14.5 20H14C13.5858 20 13.25 19.6642 13.25 19.25C13.25 18.8703 13.5322 18.5565 13.8982 18.5068L14 18.5H14.5C14.6183 18.5 14.7175 18.4178 14.7434 18.3073L14.75 18.25V5.75ZM20.25 9.5H16.25V14.5H20.25C20.3683 14.5 20.4675 14.4178 20.4934 14.3073L20.5 14.25V9.75C20.5 9.63165 20.4178 9.53251 20.3073 9.5066L20.25 9.5ZM6 11C6.55228 11 7 11.4477 7 12C7 12.5523 6.55228 13 6 13C5.44772 13 5 12.5523 5 12C5 11.4477 5.44772 11 6 11ZM9.5 11C10.0523 11 10.5 11.4477 10.5 12C10.5 12.5523 10.0523 13 9.5 13C8.94772 13 8.5 12.5523 8.5 12C8.5 11.4477 8.94772 11 9.5 11ZM13 11C13.0866 11 13.1706 11.011 13.2507 11.0317V12.9683C13.1706 12.989 13.0866 13 13 13C12.4477 13 12 12.5523 12 12C12 11.4477 12.4477 11 13 11ZM3.75 16C2.7835 16 2 15.2165 2 14.25V9.75C2 8.7835 2.7835 8 3.75 8H13.25V9.5H3.75C3.63165 9.5 3.53251 9.58223 3.5066 9.69268L3.5 9.75V14.25C3.5 14.3683 3.58223 14.4675 3.69268 14.4934L3.75 14.5H13.25V16H3.75Z" fill="#1C1C1C"/>
</svg>
