<svg width="24" height="24" viewBox="0 0 24 24" fill="none" xmlns="http://www.w3.org/2000/svg">
<path d="M20.0592 15.6063C20.1942 15.2188 20.618 15.0142 21.0055 15.1492C21.3928 15.2843 21.5975 15.7081 21.4625 16.0955C20.8462 17.8642 19.6987 19.4003 18.1696 20.5115C16.6407 21.6225 14.7999 22.2584 12.8815 22.3426C10.9632 22.4268 9.04979 21.9564 7.38245 20.992C6.20141 20.3089 5.16193 19.5842 4.32288 18.3914L3.8717 19.6844C3.73667 20.0717 3.31373 20.2762 2.92639 20.1414C2.53894 20.0064 2.33434 19.5826 2.46936 19.1951L3.46643 16.3348C3.60143 15.9474 4.02432 15.7428 4.41174 15.8777L7.14417 16.8299C7.53125 16.965 7.73593 17.388 7.6012 17.7752C7.46618 18.1627 7.04236 18.3673 6.65491 18.2322L5.86389 17.9568C6.47739 18.676 7.22031 19.1817 8.12659 19.7059C9.54967 20.5289 11.1821 20.9299 12.816 20.8582C14.4498 20.7865 16.0087 20.2461 17.2965 19.3104C18.5839 18.3749 19.5439 17.0851 20.0592 15.6063ZM12.2037 7.12384C12.4649 7.12384 12.7321 7.25727 12.7321 7.62872V8.04669C13.504 8.14536 14.1951 8.41201 14.6246 8.8299C14.9496 9.13748 15.1237 9.48049 15.1237 9.80548C15.1235 10.1884 14.8213 10.4549 14.4557 10.4549C14.1423 10.4549 13.904 10.3451 13.6139 10.0955C13.1206 9.62552 12.703 9.43928 12.1227 9.43927C11.4378 9.43927 11.0026 9.82868 11.0026 10.3162C11.0027 10.7513 11.3391 11.0295 12.0758 11.1746L13.3766 11.4451C14.7022 11.756 15.3551 12.4682 15.3551 13.6014C15.355 14.9768 14.3395 15.9284 12.7145 16.1199V16.4861C12.7143 16.8573 12.4472 16.991 12.1862 16.991C11.9252 16.9909 11.6532 16.8571 11.653 16.4861V16.1317C10.7707 16.0562 9.99211 15.7836 9.51038 15.3367C9.18542 15.0407 8.99963 14.7035 8.99963 14.3553C8.9998 13.9028 9.33088 13.6473 9.7428 13.6473C9.99815 13.6473 10.2069 13.7291 10.5377 14.0076C11.0543 14.4777 11.6234 14.7215 12.2096 14.7215C13.0279 14.7215 13.4693 14.3557 13.4694 13.7986C13.4694 13.3633 13.1382 13.1075 12.3024 12.9276L11.0055 12.6424C9.73767 12.3226 9.09827 11.5854 9.09827 10.4608C9.09844 9.12028 10.1086 8.18015 11.6754 8.03497V7.62872C11.6754 7.25153 11.9426 7.12388 12.2037 7.12384ZM2.33459 9.61212C2.44398 9.21676 2.85328 8.9853 3.24866 9.09454C3.64411 9.20394 3.87661 9.61316 3.76721 10.0086C3.60107 10.6092 3.50599 11.2249 3.48596 11.8436C3.47246 12.2533 3.12911 12.5744 2.71936 12.5613C2.30927 12.5481 1.98734 12.2048 2.00061 11.7947C2.02456 11.0556 2.13781 10.3234 2.33459 9.61212ZM20.524 7.42657C20.9075 7.28058 21.337 7.47281 21.483 7.85626C21.7348 8.51751 21.9076 9.21224 21.9948 9.92853C22.0443 10.3358 21.7536 10.7062 21.3463 10.7557C20.9391 10.805 20.5687 10.5154 20.5192 10.1082C20.4466 9.51134 20.3033 8.93346 20.0944 8.38458C19.9486 8.00127 20.1408 7.57263 20.524 7.42657ZM6.64221 3.79572C6.98489 3.57012 7.44587 3.66497 7.67151 4.00763C7.89687 4.35024 7.80208 4.81132 7.45959 5.03693C6.91689 5.39429 6.41057 5.80774 5.95276 6.27228C5.50526 6.72637 5.11351 7.21874 4.78186 7.73907C4.5614 8.08496 4.10243 8.18687 3.75647 7.96661C3.41047 7.74609 3.3084 7.28625 3.52893 6.94025C3.91708 6.3313 4.37403 5.75712 4.89417 5.22931C5.42635 4.6893 6.0138 4.20951 6.64221 3.79572ZM15.6227 3.20392C15.7857 2.82738 16.2227 2.65421 16.5992 2.8172C17.2781 3.11106 17.9211 3.48227 18.5133 3.92755C19.0902 4.36128 19.6064 4.85532 20.0543 5.39923C20.3152 5.71596 20.2695 6.1843 19.9528 6.44513C19.636 6.70586 19.1677 6.66026 18.9069 6.34357C18.5342 5.89115 18.1039 5.47837 17.6207 5.11505C17.1245 4.74192 16.5834 4.42896 16.0094 4.18048C15.6329 4.01752 15.4598 3.58043 15.6227 3.20392ZM11.5699 2.04962C12.3091 1.97774 13.0448 1.98473 13.7643 2.06622C14.1719 2.1124 14.4657 2.47986 14.4196 2.88751C14.3734 3.29521 14.005 3.58799 13.5973 3.54181C12.9817 3.47209 12.3499 3.46722 11.7135 3.52911C11.0638 3.59233 10.4235 3.72383 9.80432 3.91974C9.41319 4.04338 8.99546 3.82649 8.8717 3.43536C8.74831 3.04445 8.9653 2.62759 9.35608 2.50372C10.0729 2.27692 10.8153 2.12302 11.5699 2.04962Z" fill="#1C1C1C"/>
</svg>
