<svg width="24" height="24" viewBox="0 0 24 24" fill="none" xmlns="http://www.w3.org/2000/svg">
<path fill-rule="evenodd" clip-rule="evenodd" d="M20.25 8C21.2165 8 22 8.7835 22 9.75V14.25C22 15.2165 21.2165 16 20.25 16H3.75C2.7835 16 2 15.2165 2 14.25V9.75C2 8.7835 2.7835 8 3.75 8H20.25ZM20.25 9.5H3.75C3.63165 9.5 3.53251 9.58223 3.5066 9.69268L3.5 9.75V14.25C3.5 14.3683 3.58223 14.4675 3.69268 14.4934L3.75 14.5H20.25C20.3683 14.5 20.4675 14.4178 20.4934 14.3073L20.5 14.25V9.75C20.5 9.63165 20.4178 9.53251 20.3073 9.5066L20.25 9.5ZM6 11C6.55228 11 7 11.4477 7 12C7 12.5523 6.55228 13 6 13C5.44772 13 5 12.5523 5 12C5 11.4477 5.44772 11 6 11Z" fill="#1C1C1C"/>
</svg>
