<svg width="24" height="24" viewBox="0 0 24 24" fill="none" xmlns="http://www.w3.org/2000/svg">
<path d="M20.6182 14.0098C20.9693 13.8071 21.4184 13.9272 21.6211 14.2783L23.1221 16.8789C23.3248 17.23 23.2046 17.6791 22.8535 17.8818C22.5025 18.0844 22.0533 17.9643 21.8506 17.6133L21.168 16.4297C20.5679 17.7551 19.6834 18.6584 18.6523 19.5479C17.2014 20.7995 15.4195 21.6167 13.5303 21.8945C11.6408 22.1724 9.72524 21.899 8.02637 21.1035C6.32718 20.3079 4.92271 19.0261 3.99414 17.418C3.79144 17.0669 3.9116 16.6177 4.2627 16.415C4.61378 16.2124 5.06293 16.3325 5.26562 16.6836C6.04168 18.0277 7.21736 19.1043 8.64844 19.7744C10.0801 20.4448 11.7046 20.6784 13.3164 20.4414C14.9285 20.2043 16.4524 19.507 17.6934 18.4365C18.4854 17.7533 19.1198 17.1188 19.5879 16.2988L18.8564 16.7217C18.5054 16.9241 18.0562 16.804 17.8535 16.4531C17.6508 16.102 17.7719 15.6529 18.123 15.4502L20.6182 14.0098ZM12.166 7.16699C12.424 7.16712 12.6875 7.29916 12.6875 7.66602V8.0791C13.45 8.17657 14.1322 8.43987 14.5566 8.85254C14.8778 9.15649 15.0498 9.49525 15.0498 9.81641C15.0498 10.1949 14.7519 10.459 14.3906 10.459C14.0812 10.459 13.8461 10.3498 13.5596 10.1035C13.0721 9.63899 12.6584 9.45508 12.085 9.45508C11.4085 9.45523 10.9785 9.83965 10.9785 10.3213C10.9786 10.7512 11.3111 11.0266 12.0391 11.1699L13.3252 11.4365C14.6348 11.7438 15.2793 12.4478 15.2793 13.5674C15.2791 14.9263 14.2755 15.8664 12.6699 16.0557V16.417C12.6699 16.784 12.4065 16.916 12.1484 16.916C11.8904 16.916 11.6211 16.784 11.6211 16.417V16.0674C10.7494 15.9928 9.98088 15.7228 9.50488 15.2812C9.1838 14.9888 9 14.6566 9 14.3125C9 13.8652 9.3272 13.6133 9.73438 13.6133C9.98657 13.6133 10.1928 13.6936 10.5195 13.9688C11.0298 14.4331 11.5919 14.6737 12.1709 14.6738C12.9795 14.6738 13.416 14.3123 13.416 13.7617C13.4159 13.3318 13.0884 13.0791 12.2627 12.9014L10.9824 12.6201C9.72954 12.3042 9.09782 11.576 9.09766 10.4648C9.09766 9.14016 10.0953 8.21082 11.6436 8.06738V7.66602C11.6436 7.29325 11.9079 7.16699 12.166 7.16699ZM10.9736 2.08008C12.9338 1.82923 14.9283 2.16951 16.7041 3.05566C18.4797 3.94175 19.9585 5.33394 20.9531 7.05664C21.1558 7.40774 21.0347 7.85686 20.6836 8.05957C20.3326 8.26207 19.8843 8.14199 19.6816 7.79102C18.8305 6.31687 17.5659 5.12623 16.0488 4.36914C14.5318 3.61211 12.8301 3.32244 11.1602 3.53613C9.49042 3.74985 7.92571 4.45754 6.66406 5.56836C5.90683 6.23514 5.27867 7.02967 4.80469 7.91211L5.55371 7.47949C5.9048 7.27683 6.35394 7.39794 6.55664 7.74902C6.75904 8.09999 6.63888 8.54826 6.28809 8.75098L3.72754 10.2295C3.37644 10.4322 2.92731 10.312 2.72461 9.96094L1.09863 7.14453C0.896059 6.79346 1.01615 6.34428 1.36719 6.1416C1.71825 5.93907 2.16745 6.06011 2.37012 6.41113L3.2002 7.84961C3.77908 6.56102 4.62719 5.40539 5.69434 4.46582C7.17619 3.1612 9.01362 2.33098 10.9736 2.08008Z" fill="#1C1C1C"/>
</svg>
