<svg width="24" height="24" viewBox="0 0 24 24" fill="none" xmlns="http://www.w3.org/2000/svg">
<path fill-rule="evenodd" clip-rule="evenodd" d="M18.5 12.25L20 13.75V21C20 21.5523 19.5523 22 19 22H5C4.44772 22 4 21.5523 4 21V13.75L5.5 12.25V20.5H18.5V12.25ZM11.625 12.8321L12 13.207L12.375 12.8321C12.9963 12.2108 14.0037 12.2108 14.625 12.8321C15.2463 13.4534 15.2463 14.4608 14.625 15.0821L12 17.7071L9.37499 15.0821C8.75367 14.4608 8.75367 13.4534 9.37499 12.8321C9.99631 12.2108 11.0037 12.2108 11.625 12.8321ZM12.4462 2.14705L12.5303 2.21967L17 6.689V5.5C17 5.22386 17.2239 5 17.5 5H18C18.2761 5 18.5 5.22386 18.5 5.5V8.189L21.5303 11.2197C21.8232 11.5126 21.8232 11.9874 21.5303 12.2803C21.2641 12.5466 20.8474 12.5708 20.5538 12.3529L20.4697 12.2803L12 3.811L3.53033 12.2803C3.26406 12.5466 2.8474 12.5708 2.55379 12.3529L2.46967 12.2803C2.2034 12.0141 2.1792 11.5974 2.39705 11.3038L2.46967 11.2197L11.4697 2.21967C11.7359 1.9534 12.1526 1.9292 12.4462 2.14705Z" fill="#1C1C1C"/>
</svg>
