<svg width="24" height="24" viewBox="0 0 24 24" fill="none" xmlns="http://www.w3.org/2000/svg">
<path fill-rule="evenodd" clip-rule="evenodd" d="M17 4.5C18.5825 4.5 20.165 4.95079 21.7476 5.85236C21.9036 5.94133 22 6.10716 22 6.2868V19.1501C22 19.4262 21.7761 19.65 21.5 19.65C21.4207 19.65 21.3425 19.6312 21.2719 19.595C19.848 18.865 18.424 18.5 17 18.5C15.3333 18.5 13.6667 19 12 20C10.3333 19 8.66667 18.5 7 18.5C5.57605 18.5 4.15211 18.865 2.72816 19.5949C2.48242 19.721 2.18105 19.6239 2.05506 19.3781C2.01887 19.3075 2 19.2293 2 19.15V6.28677C2 6.10711 2.09639 5.94126 2.2525 5.85233C3.835 4.95078 5.4175 4.5 7 4.5C8.66667 4.5 10.3333 5 12 6C13.6667 5 15.3333 4.5 17 4.5ZM17 6C15.7158 6 14.4143 6.36293 13.0802 7.10761L12.7717 7.28624L12 7.74929L11.2283 7.28624C9.78605 6.42092 8.383 6 7 6C5.88994 6 4.76754 6.27107 3.62213 6.82524L3.5 6.887V17.626L3.55552 17.606C4.56785 17.2483 5.5888 17.0477 6.61495 17.0075L7 17C8.58465 17 10.1561 17.3823 11.704 18.1343L12 18.283L12.296 18.1343C13.7249 17.4401 15.1737 17.061 16.6346 17.0068L17 17C18.0274 17 19.0501 17.1608 20.0645 17.4792L20.5 17.627V6.887L20.3779 6.82526C19.3366 6.32146 18.3143 6.05163 17.3031 6.00673L17 6ZM17 13.75C17.8356 13.75 18.669 13.8652 19.4994 14.0944L19.4997 15.6609C18.6625 15.3863 17.8297 15.25 17 15.25C15.8402 15.25 14.6746 15.5164 13.499 16.0543L13.4985 14.4268C14.6597 13.9767 15.8278 13.75 17 13.75ZM17 10.75C17.8356 10.75 18.669 10.8652 19.4994 11.0944L19.4997 12.6609C18.6625 12.3863 17.8297 12.25 17 12.25C15.8402 12.25 14.6746 12.5164 13.499 13.0543L13.4985 11.4268C14.6597 10.9767 15.8278 10.75 17 10.75ZM17 7.75C17.8356 7.75 18.669 7.86518 19.4994 8.09438L19.4997 9.66092C18.6625 9.38634 17.8297 9.25 17 9.25C15.8402 9.25 14.6746 9.51639 13.499 10.0543L13.4985 8.42685C14.6597 7.97668 15.8278 7.75 17 7.75Z" fill="#1C1C1C"/>
</svg>
