<svg width="24" height="24" viewBox="0 0 24 24" fill="none" xmlns="http://www.w3.org/2000/svg">
<path fill-rule="evenodd" clip-rule="evenodd" d="M19.25 2C19.6297 2 19.9435 2.28215 19.9932 2.64823L20 2.75V21.25C20 21.6297 19.7178 21.9435 19.3518 21.9932L19.25 22H6.75C5.23122 22 4 20.7688 4 19.25C4 19.1658 4.00378 19.0826 4.01118 19.0003L4 19V5L4.04316 5.00137C4.01521 4.92279 4 4.83817 4 4.75C4 3.28747 5.1417 2.0916 6.58248 2.00502L6.75 2H19.25ZM18.5 18H6.75C6.05964 18 5.5 18.5596 5.5 19.25C5.5 19.8972 5.99187 20.4295 6.62219 20.4935L6.75 20.5H18.5V19.75H6.75C6.47386 19.75 6.25 19.5261 6.25 19.25C6.25 18.9739 6.47386 18.75 6.75 18.75H18.5V18ZM5.50646 4.62222L5.50001 4.75003C5.50001 4.8382 5.4848 4.92282 5.45685 5.0014L5.50001 5.00003L5.49969 16.8C5.80457 16.6441 6.14237 16.5435 6.49992 16.5112L6.50006 3.52502C5.97018 3.63256 5.56201 4.07527 5.50646 4.62222ZM18.5 3.5H7.5V16.5H18.5V3.5ZM14.25 9C14.6642 9 15 9.33579 15 9.75C15 10.1642 14.6642 10.5 14.25 10.5H11.75C11.3358 10.5 11 10.1642 11 9.75C11 9.33579 11.3358 9 11.75 9H14.25ZM16.25 6C16.6642 6 17 6.33579 17 6.75C17 7.16421 16.6642 7.5 16.25 7.5H9.75C9.33579 7.5 9 7.16421 9 6.75C9 6.33579 9.33579 6 9.75 6H16.25Z" fill="#1C1C1C"/>
</svg>
