<svg width="24" height="24" viewBox="0 0 24 24" fill="none" xmlns="http://www.w3.org/2000/svg">
<path fill-rule="evenodd" clip-rule="evenodd" d="M10.75 11C11.7165 11 12.5 11.7835 12.5 12.75V20.25C12.5 21.2165 11.7165 22 10.75 22H4.75C3.7835 22 3 21.2165 3 20.25V12.75C3 11.7835 3.7835 11 4.75 11H10.75ZM11 19.5H9.5V20.5H11V19.5ZM8.5 19.5H4.5V20.5H8.5V19.5ZM14.5858 2C14.851 2 15.1054 2.10536 15.2929 2.29289L20.7071 7.70711C20.8946 7.89464 21 8.149 21 8.41421V18.25C21 19.2165 20.2165 20 19.25 20H13.5V18.5H19.25C19.3683 18.5 19.4675 18.4178 19.4934 18.3073L19.5 18.25V9H15.75C14.8318 9 14.0788 8.29289 14.0058 7.39353L14 7.25V3.499L8.25 3.5C8.13165 3.5 8.03251 3.58223 8.0066 3.69268L8 3.75V10H6.5V3.75C6.5 2.7835 7.2835 2 8.25 2H14.5858ZM11 17.5H9.5V18.5H11V17.5ZM8.5 17.5H7V18.5H8.5V17.5ZM6 17.5H4.5V18.5H6V17.5ZM16.0156 10.5156C16.1684 10.5156 16.349 10.5743 16.3872 10.7793L16.3945 10.8633V11.1055C16.9492 11.168 17.4375 11.3516 17.7344 11.6406C17.9453 11.8438 18.0547 12.0586 18.0547 12.2852C18.0547 12.5742 17.8164 12.7773 17.5391 12.7773C17.2969 12.7773 17.1016 12.7031 16.8906 12.543C16.5625 12.293 16.3047 12.1953 15.9609 12.1953C15.582 12.1953 15.3516 12.4258 15.3516 12.6758C15.3516 12.9008 15.5193 13.0435 15.9116 13.1325L16.0508 13.1602L16.7383 13.2812C17.7383 13.457 18.2461 13.9609 18.2461 14.7891C18.2461 15.6966 17.6085 16.3428 16.5767 16.5303L16.3906 16.5586V16.7344C16.3906 17.0039 16.1836 17.0859 16.0156 17.0859C15.8594 17.0859 15.6753 17.0211 15.6364 16.8174L15.6289 16.7344V16.5703C14.9805 16.5234 14.418 16.3281 14.0859 16.0117C13.8867 15.8164 13.7695 15.6016 13.7695 15.3672C13.7695 15.0195 14.0352 14.8242 14.3594 14.8242C14.5189 14.8242 14.6675 14.8676 14.8551 14.9861L14.9727 15.0664C15.3164 15.3203 15.6992 15.4609 16.0156 15.4609C16.4961 15.4609 16.7383 15.2578 16.7383 14.9609C16.7383 14.7443 16.5607 14.6084 16.1205 14.5033L15.9805 14.4727L15.3086 14.3398C14.3125 14.1484 13.8203 13.6367 13.8203 12.8008C13.8203 11.9154 14.4579 11.2773 15.4535 11.117L15.6328 11.0938V10.8633C15.6328 10.5898 15.8438 10.5156 16.0156 10.5156ZM11 15.5H9.5V16.5H11V15.5ZM8.5 15.5H7V16.5H8.5V15.5ZM6 15.5H4.5V16.5H6V15.5ZM11 12.5H4.5V14.5H11V12.5ZM15.5 4.61902V7.25002C15.5 7.36837 15.5822 7.46751 15.6927 7.49342L15.75 7.50002H18.381L15.5 4.61902Z" fill="#1C1C1C"/>
</svg>
