<svg width="24" height="24" viewBox="0 0 24 24" fill="none" xmlns="http://www.w3.org/2000/svg">
<path fill-rule="evenodd" clip-rule="evenodd" d="M16.25 2C16.6642 2 17 2.29381 17 2.65625V3H19.25C20.2165 3 21 3.82959 21 4.85294V19.1471C21 20.1704 20.2165 21 19.25 21H4.75C3.7835 21 3 20.1704 3 19.1471V4.85294C3 3.82959 3.7835 3 4.75 3H7V2.65625C7 2.29381 7.33579 2 7.75 2C8.16421 2 8.5 2.29381 8.5 2.65625V3H15.5V2.65625C15.5 2.29381 15.8358 2 16.25 2ZM19.5 8H4.5V19.1471C4.5 19.2724 4.58223 19.3773 4.69268 19.4048L4.75 19.4118H19.25C19.3683 19.4118 19.4675 19.3247 19.4934 19.2078L19.5 19.1471V8ZM8.5 15C8.77614 15 9 15.2239 9 15.5V16.5C9 16.7761 8.77614 17 8.5 17H6.5C6.22386 17 6 16.7761 6 16.5V15.5C6 15.2239 6.22386 15 6.5 15H8.5ZM13 15C13.2761 15 13.5 15.2239 13.5 15.5V16.5C13.5 16.7761 13.2761 17 13 17H11C10.7239 17 10.5 16.7761 10.5 16.5V15.5C10.5 15.2239 10.7239 15 11 15H13ZM17.5 15C17.7761 15 18 15.2239 18 15.5V16.5C18 16.7761 17.7761 17 17.5 17H15.5C15.2239 17 15 16.7761 15 16.5V15.5C15 15.2239 15.2239 15 15.5 15H17.5ZM8.5 10.5C8.77614 10.5 9 10.7239 9 11V12C9 12.2761 8.77614 12.5 8.5 12.5H6.5C6.22386 12.5 6 12.2761 6 12V11C6 10.7239 6.22386 10.5 6.5 10.5H8.5ZM13 10.5C13.2761 10.5 13.5 10.7239 13.5 11V12C13.5 12.2761 13.2761 12.5 13 12.5H11C10.7239 12.5 10.5 12.2761 10.5 12V11C10.5 10.7239 10.7239 10.5 11 10.5H13ZM17.5 10.5C17.7761 10.5 18 10.7239 18 11V12C18 12.2761 17.7761 12.5 17.5 12.5H15.5C15.2239 12.5 15 12.2761 15 12V11C15 10.7239 15.2239 10.5 15.5 10.5H17.5ZM7 4.58801L4.75 4.58825C4.63165 4.58825 4.53251 4.67532 4.5066 4.79226L4.5 4.85295V6.50001H19.5V4.85295C19.5 4.72765 19.4178 4.62267 19.3073 4.59524L19.25 4.58825L17 4.58801V4.84376C17 5.2062 16.6642 5.50001 16.25 5.50001C15.8358 5.50001 15.5 5.2062 15.5 4.84376V4.58801H8.5V4.84376C8.5 5.2062 8.16421 5.50001 7.75 5.50001C7.33579 5.50001 7 5.2062 7 4.84376V4.58801Z" fill="#1C1C1C"/>
</svg>
