<svg width="24" height="24" viewBox="0 0 24 24" fill="none" xmlns="http://www.w3.org/2000/svg">
<path fill-rule="evenodd" clip-rule="evenodd" d="M20 8C21.1046 8 22 8.89543 22 10V19C22 20.1046 21.1046 21 20 21H8C6.89543 21 6 20.1046 6 19V10C6 8.89543 6.89543 8 8 8H20ZM20.5 13H7.49997L7.49998 19C7.49998 19.2455 7.67685 19.4496 7.9101 19.492L7.99998 19.5H20C20.2454 19.5 20.4496 19.3231 20.4919 19.0899L20.5 19L20.5 13ZM12 15C12.2761 15 12.5 15.2239 12.5 15.5V17C12.5 17.2761 12.2761 17.5 12 17.5H10C9.72386 17.5 9.5 17.2761 9.5 17V15.5C9.5 15.2239 9.72386 15 10 15H12ZM16.6065 4.43183L17.294 6.99997H15.741L15.1576 4.82006C15.0941 4.58297 14.8704 4.43155 14.6341 4.45103L14.5453 4.46651L3.92007 7.31352C3.68297 7.37705 3.53156 7.60073 3.55103 7.83699L3.56651 7.92589L4.99998 13.276L5.00061 17.1813C4.61506 16.9211 4.31801 16.5261 4.18818 16.0415L2.11763 8.31412C1.83174 7.24719 2.46491 6.15051 3.53184 5.86463L14.157 3.01762C15.224 2.73174 16.3206 3.3649 16.6065 4.43183ZM20 9.5H7.99998C7.75452 9.5 7.55037 9.67688 7.50803 9.91012L7.49998 10L7.49997 11.5H20.5L20.5 10C20.5 9.75454 20.3231 9.55039 20.0899 9.50806L20 9.5Z" fill="#1C1C1C"/>
</svg>
