<svg width="24" height="24" viewBox="0 0 24 24" fill="none" xmlns="http://www.w3.org/2000/svg">
<path fill-rule="evenodd" clip-rule="evenodd" d="M13.5858 2C13.851 2 14.1054 2.10536 14.2929 2.29289L19.7071 7.70711C19.8946 7.89464 20 8.149 20 8.41421V20.25C20 21.2165 19.2165 22 18.25 22H5.75C4.7835 22 4 21.2165 4 20.25V3.75C4 2.7835 4.7835 2 5.75 2H13.5858ZM13 3.5H5.75C5.63165 3.5 5.53251 3.58223 5.5066 3.69268L5.5 3.75V20.25C5.5 20.3683 5.58223 20.4675 5.69268 20.4934L5.75 20.5H18.25C18.3683 20.5 18.4675 20.4178 18.4934 20.3073L18.5 20.25V9H14.75C13.8318 9 13.0788 8.29289 13.0058 7.39353L13 7.25V3.5ZM11.8569 9.73389C12.0718 9.73389 12.2909 9.83149 12.3369 10.0946L12.3457 10.2012V10.5879C13.0601 10.6792 13.6992 10.9263 14.0967 11.313C14.3975 11.5977 14.5586 11.9146 14.5586 12.2153C14.5586 12.5698 14.2793 12.8169 13.9409 12.8169C13.6509 12.8169 13.4307 12.7148 13.1621 12.4839C12.7056 12.0488 12.3188 11.877 11.7817 11.877C11.1479 11.877 10.7451 12.2368 10.7451 12.688C10.7451 13.0598 11.0106 13.3081 11.5879 13.4497L11.7388 13.4829L12.7539 13.6924C14.1074 13.9556 14.7734 14.627 14.7734 15.728C14.7734 16.9456 13.9135 17.8045 12.5225 18.032L12.3296 18.0591V18.3975C12.3296 18.7412 12.0825 18.8647 11.8408 18.8647C11.626 18.8647 11.4026 18.7671 11.3557 18.504L11.3467 18.3975V18.0698C10.5303 18 9.81055 17.7476 9.36475 17.334C9.06396 17.0601 8.89209 16.7485 8.89209 16.4263C8.89209 16.0073 9.19824 15.771 9.57959 15.771C9.81592 15.771 10.0093 15.8462 10.3154 16.104C10.7935 16.5391 11.3198 16.7646 11.8623 16.7646C12.6196 16.7646 13.0278 16.4263 13.0278 15.9106C13.0278 15.5366 12.7639 15.3061 12.1069 15.1418L11.9482 15.105L10.9385 14.8848C9.63867 14.6162 8.9834 13.918 8.9834 12.8223C8.9834 11.6355 9.83847 10.7878 11.182 10.5988L11.3682 10.5771V10.2012C11.3682 9.85205 11.6152 9.73389 11.8569 9.73389ZM14.5 4.62097V7.24997C14.5 7.36832 14.5822 7.46746 14.6927 7.49337L14.75 7.49997H17.38L14.5 4.62097Z" fill="#1C1C1C"/>
</svg>
