<svg width="24" height="24" viewBox="0 0 24 24" fill="none" xmlns="http://www.w3.org/2000/svg">
<path fill-rule="evenodd" clip-rule="evenodd" d="M11 17.75C11 16.7835 10.2165 16 9.25 16L4.75 16C3.7835 16 3 16.7835 3 17.75L3 19.25C3 20.2165 3.7835 21 4.75 21L9.25 21C10.2165 21 11 20.2165 11 19.25L11 17.75ZM17 11.25C17 10.2835 16.2165 9.5 15.25 9.5L4.75 9.5C3.7835 9.5 3 10.2835 3 11.25L3 12.75C3 13.7165 3.7835 14.5 4.75 14.5L15.25 14.5C16.2165 14.5 17 13.7165 17 12.75L17 11.25ZM21 4.75C21 3.7835 20.2165 3 19.25 3L4.75 3C3.7835 3 3 3.7835 3 4.75L3 6.25C3 7.2165 3.7835 8 4.75 8L19.25 8C20.2165 8 21 7.2165 21 6.25L21 4.75ZM9.5 17.75L9.5 19.25C9.5 19.3683 9.41777 19.4675 9.30732 19.4934L9.25 19.5L4.75 19.5C4.63165 19.5 4.53251 19.4178 4.5066 19.3073L4.5 19.25L4.5 17.75C4.5 17.6317 4.58223 17.5325 4.69268 17.5066L4.75 17.5L9.25 17.5C9.36835 17.5 9.46749 17.5822 9.4934 17.6927L9.5 17.75ZM15.5 11.25L15.5 12.75C15.5 12.8683 15.4178 12.9675 15.3073 12.9934L15.25 13L4.75 13C4.63165 13 4.53251 12.9178 4.5066 12.8073L4.5 12.75L4.5 11.25C4.5 11.1317 4.58223 11.0325 4.69268 11.0066L4.75 11L15.25 11C15.3683 11 15.4675 11.0822 15.4934 11.1927L15.5 11.25ZM19.5 4.75L19.5 6.25C19.5 6.36835 19.4178 6.46749 19.3073 6.4934L19.25 6.5L4.75 6.5C4.63165 6.5 4.53251 6.41777 4.5066 6.30732L4.5 6.25L4.5 4.75C4.5 4.63165 4.58223 4.53251 4.69268 4.5066L4.75 4.5L19.25 4.5C19.3683 4.5 19.4675 4.58223 19.4934 4.69268L19.5 4.75Z" fill="#1C1C1C"/>
</svg>
