<svg width="24" height="24" viewBox="0 0 24 24" fill="none" xmlns="http://www.w3.org/2000/svg">
<path d="M2.75 4C3.16421 4 3.5 4.33579 3.5 4.75V18.5H21.25C21.6642 18.5 22 18.8358 22 19.25C22 19.6642 21.6642 20 21.25 20H2.75C2.33579 20 2 19.6642 2 19.25V4.75C2 4.33579 2.33579 4 2.75 4ZM20.5 6.21973C20.7929 5.92684 21.2677 5.92686 21.5605 6.21973C21.8534 6.51262 21.8534 6.98738 21.5605 7.28027L15.0605 13.7803C14.7677 14.0731 14.2929 14.0732 14 13.7803L10.5303 10.3105L6.59082 14.25C6.29792 14.5428 5.82314 14.5429 5.53027 14.25C5.23744 13.9571 5.23748 13.4823 5.53027 13.1895L10 8.71973C10.2929 8.42684 10.7677 8.42686 11.0605 8.71973L14.5303 12.1895L20.5 6.21973Z" fill="#1C1C1C"/>
</svg>
