<svg width="24" height="24" viewBox="0 0 24 24" fill="none" xmlns="http://www.w3.org/2000/svg">
<path d="M2.75 4C3.16421 4 3.5 4.33579 3.5 4.75V9.74512L7.76367 6.81055C8.04698 6.61556 8.42651 6.63887 8.68457 6.86621L11.7305 9.54883L18.6104 5.35938C18.8417 5.21867 19.131 5.21315 19.3672 5.3457C19.6035 5.47849 19.75 5.72892 19.75 6V18.5H21.25C21.6642 18.5 22 18.8358 22 19.25C22 19.6642 21.6642 20 21.25 20H2.75C2.33579 20 2 19.6642 2 19.25V4.75C2 4.33579 2.33579 4 2.75 4ZM12.0391 11.1172C11.7586 11.288 11.3987 11.2561 11.1523 11.0391L8.13281 8.37793L3.5 11.5664V18.5H18.25V7.33496L12.0391 11.1172Z" fill="#1C1C1C"/>
</svg>
