<svg width="24" height="24" viewBox="0 0 24 24" fill="none" xmlns="http://www.w3.org/2000/svg">
<path fill-rule="evenodd" clip-rule="evenodd" d="M20.3127 12.156C20.9038 12.8203 21.25 13.6217 21.25 14.5C21.25 15.5104 20.7834 16.4444 19.9777 17.1803L19.768 17.359L20.6527 19.1284C20.8272 19.4773 20.8266 19.8819 20.6634 20.2246L20.5947 20.3501L20.5108 20.4683C20.1588 20.9083 19.563 21.0527 19.0099 20.8147L18.8832 20.7529L18.7539 20.6636L16.308 18.708L16.0748 18.7293L15.8842 18.7408L15.5 18.75C13.4351 18.75 11.5924 17.952 10.5772 16.7153C10.7174 16.7201 10.8583 16.7222 11 16.7222C11.6128 16.7222 12.2121 16.6827 12.7931 16.6075C13.521 17.0043 14.4599 17.25 15.5 17.25C15.7087 17.25 15.9154 17.24 16.119 17.2203L16.4219 17.1835L16.7446 17.1361L18.804 18.785L17.8352 16.8449L18.4171 16.4844C19.2774 15.9516 19.75 15.233 19.75 14.5C19.75 14.1288 19.6282 13.7674 19.407 13.4352C19.7075 13.0991 19.969 12.7443 20.1884 12.3748L20.3127 12.156ZM11 3.25C15.7857 3.25 19.75 5.97547 19.75 9.5C19.75 12.9554 15.9396 15.6428 11.2805 15.7469L11.141 15.748L6.47878 19.4774C6.01158 19.8512 5.35845 19.8354 4.91185 19.4736L4.81263 19.384L4.72182 19.2822C4.43237 18.9204 4.36897 18.4318 4.54762 18.0121L4.60848 17.8885L6.345 14.801L6.11408 14.6955C3.92225 13.6485 2.46918 11.927 2.27278 9.95847L2.25572 9.73026L2.25 9.5C2.25 5.97547 6.21431 3.25 11 3.25ZM11 4.75C6.94913 4.75 3.75 6.9494 3.75 9.5C3.75 11.1787 5.14728 12.7627 7.40994 13.6189L7.66488 13.711L8.51527 14.004L6.546 17.502L10.6175 14.2466L10.8849 14.2494L11.2688 14.2468C15.1915 14.1521 18.25 11.9939 18.25 9.5C18.25 6.9494 15.0509 4.75 11 4.75Z" fill="#1C1C1C"/>
</svg>
