<svg width="24" height="24" viewBox="0 0 24 24" fill="none" xmlns="http://www.w3.org/2000/svg">
<path d="M12 2C17.5228 2 22 6.47715 22 12C22 17.5228 17.5228 22 12 22C6.47715 22 2 17.5228 2 12C2 6.47715 6.47715 2 12 2ZM12 3.5C7.30558 3.5 3.5 7.30558 3.5 12C3.5 16.6944 7.30558 20.5 12 20.5C16.6944 20.5 20.5 16.6944 20.5 12C20.5 7.30558 16.6944 3.5 12 3.5ZM11.9834 10.749C12.1823 10.749 12.373 10.8279 12.5137 10.9688C12.6543 11.1096 12.7334 11.3008 12.7334 11.5V15.252H14C14.4142 15.252 14.75 15.588 14.75 16.0029C14.75 16.4178 14.4142 16.7539 14 16.7539H10C9.58579 16.7539 9.25 16.4178 9.25 16.0029C9.25001 15.588 9.58579 15.252 10 15.252H11.2334V12.251H10C9.5858 12.251 9.25002 11.9149 9.25 11.5C9.25 11.0851 9.58579 10.749 10 10.749H11.9834ZM11.7334 7.25C12.2857 7.25001 12.7334 7.69874 12.7334 8.25195C12.7333 8.80504 12.2856 9.25292 11.7334 9.25293C11.1812 9.25293 10.7335 8.80504 10.7334 8.25195C10.7334 7.69874 11.1811 7.25 11.7334 7.25Z" fill="#1C1C1C"/>
</svg>
