<svg width="24" height="24" viewBox="0 0 24 24" fill="none" xmlns="http://www.w3.org/2000/svg">
<path d="M12 2C17.5228 2 22 6.47715 22 12C22 17.5228 17.5228 22 12 22C6.47715 22 2 17.5228 2 12C2 6.47715 6.47715 2 12 2ZM12 3.5C7.30558 3.5 3.5 7.30558 3.5 12C3.5 16.6944 7.30558 20.5 12 20.5C16.6944 20.5 20.5 16.6944 20.5 12C20.5 7.30558 16.6944 3.5 12 3.5ZM12 14.75C12.5524 14.75 13 15.1977 13 15.75C13 16.3023 12.5524 16.75 12 16.75C11.4476 16.75 11 16.3023 11 15.75C11 15.1977 11.4476 14.75 12 14.75ZM12 7.25C12.5494 7.25071 12.9897 7.70318 12.9717 8.24902L12.7422 12.5098C12.7284 12.9231 12.3867 13.25 11.9707 13.25C11.5518 13.2498 11.2097 12.9183 11.2002 12.502L11.0264 8.23828C11.0145 7.69558 11.454 7.24942 12 7.25Z" fill="#1C1C1C"/>
</svg>
