<svg width="24" height="24" viewBox="0 0 24 24" fill="none" xmlns="http://www.w3.org/2000/svg">
<path fill-rule="evenodd" clip-rule="evenodd" d="M12 2C17.5228 2 22 6.47715 22 12C22 17.5228 17.5228 22 12 22C6.47715 22 2 17.5228 2 12C2 6.47715 6.47715 2 12 2ZM12 3.5C7.30558 3.5 3.5 7.30558 3.5 12C3.5 16.6944 7.30558 20.5 12 20.5C16.6944 20.5 20.5 16.6944 20.5 12C20.5 7.30558 16.6944 3.5 12 3.5ZM12.5791 13.6507C12.73 13.5133 12.8085 13.3206 12.8063 13.1075V11.8352C12.8125 11.7696 12.8293 11.7266 12.8514 11.6921C12.8763 11.653 12.9166 11.6111 12.9873 11.5589C13.0596 11.5056 13.1506 11.4508 13.2717 11.3794L13.2998 11.3629C13.4116 11.297 13.5424 11.2199 13.6869 11.126C14.3932 10.6724 14.8429 10.1139 14.8429 9.28777C14.8429 8.61516 14.4733 8.09732 13.9562 7.75824C13.4434 7.42203 12.773 7.25 12.1106 7.25C11.5593 7.25 10.8774 7.34633 10.3219 7.56728C10.1123 7.65064 9.91434 7.75424 9.74657 7.88208C9.65622 7.95092 9.57324 8.02784 9.50179 8.11374C9.4414 8.18634 9.38907 8.26556 9.34775 8.3517C9.30338 8.44249 9.26969 8.53453 9.24577 8.62604C9.21461 8.74524 9.20001 8.86364 9.20001 8.97737C9.20001 9.05211 9.20952 9.09533 9.22041 9.1436C9.2564 9.30303 9.34094 9.44488 9.47402 9.54533C9.60616 9.64507 9.76969 9.69171 9.94476 9.69171C10.2904 9.69171 10.5711 9.49719 10.6894 9.17479L10.6933 9.16212C10.7457 8.99191 10.9188 8.85569 11.2101 8.76277C11.4921 8.67284 11.8211 8.64557 12.0623 8.64557C12.3291 8.64557 12.6367 8.7242 12.8708 8.85899C13.1122 8.99792 13.2157 9.15725 13.2157 9.29893C13.2157 9.48729 13.1645 9.61841 13.0637 9.74276C12.9532 9.87897 12.7791 10.0123 12.5137 10.1866L12.5121 10.1877C12.468 10.2172 12.4223 10.2473 12.3755 10.2781L12.3749 10.2785L12.3747 10.2786L12.3743 10.2788L12.3743 10.2788C12.1428 10.4311 11.8856 10.6003 11.6802 10.7911C11.4278 11.0254 11.2125 11.3283 11.2125 11.7286V13.109C11.2125 13.3352 11.3004 13.5304 11.4611 13.6647C11.6163 13.7945 11.8178 13.8499 12.0214 13.8499C12.2316 13.8499 12.4304 13.7861 12.5791 13.6507ZM12.0214 16.75C12.5249 16.75 12.9448 16.3509 12.9448 15.8457C12.9448 15.3341 12.5221 14.9452 12.0214 14.9452C11.5236 14.9452 11.1018 15.335 11.1018 15.8457C11.1018 16.35 11.5208 16.75 12.0214 16.75Z" fill="#1C1C1C"/>
</svg>
