<svg width="24" height="24" viewBox="0 0 24 24" fill="none" xmlns="http://www.w3.org/2000/svg">
<path fill-rule="evenodd" clip-rule="evenodd" d="M12 2C17.5228 2 22 6.47715 22 12C22 17.5228 17.5228 22 12 22C6.47715 22 2 17.5228 2 12C2 6.47715 6.47715 2 12 2ZM12 3.5C7.30558 3.5 3.5 7.30558 3.5 12C3.5 16.6944 7.30558 20.5 12 20.5C16.6944 20.5 20.5 16.6944 20.5 12C20.5 7.30558 16.6944 3.5 12 3.5ZM16.4027 7.36723C16.7203 7.56939 16.8344 7.97088 16.6854 8.30476L16.6327 8.40263L11.5418 16.4026C11.2854 16.8055 10.7317 16.8633 10.3966 16.5479L10.3234 16.4685L7.41435 12.8321C7.15559 12.5087 7.20803 12.0367 7.53148 11.778C7.82552 11.5427 8.24231 11.5647 8.51006 11.8136L8.58565 11.8951L10.839 14.712L15.3673 7.59732C15.5896 7.24786 16.0532 7.14485 16.4027 7.36723Z" fill="#1C1C1C"/>
</svg>
