<svg width="24" height="24" viewBox="0 0 24 24" fill="none" xmlns="http://www.w3.org/2000/svg">
<path fill-rule="evenodd" clip-rule="evenodd" d="M5.39823 12.7568L5.5 12.75H10.5L10.5695 12.7532L10.6714 12.7697L10.7393 12.789L10.7981 12.8116L10.869 12.8469L10.9514 12.901L11.0316 12.9709C11.0674 13.0067 11.0997 13.0467 11.1274 13.0888L11.1777 13.1782L11.2177 13.2818C11.2291 13.3189 11.2377 13.3581 11.2432 13.3982L11.25 13.5V18.5C11.25 18.9142 10.9142 19.25 10.5 19.25C10.1203 19.25 9.80651 18.9678 9.75685 18.6018L9.75 18.5V15.31L4.03033 21.0303C3.73744 21.3232 3.26256 21.3232 2.96967 21.0303C2.7034 20.7641 2.6792 20.3474 2.89705 20.0538L2.96967 19.9697L8.688 14.25H5.5C5.1203 14.25 4.80651 13.9678 4.75685 13.6018L4.75 13.5C4.75 13.1203 5.03215 12.8065 5.39823 12.7568ZM21.0303 2.96967C21.2966 3.23594 21.3208 3.6526 21.1029 3.94621L21.0303 4.03033L15.31 9.75H18.5C18.8797 9.75 19.1935 10.0322 19.2432 10.3982L19.25 10.5C19.25 10.8797 18.9678 11.1935 18.6018 11.2432L18.5 11.25L13.4486 11.2482L13.3286 11.2303L13.2607 11.211L13.2019 11.1884L13.131 11.1531L13.0486 11.099L12.9684 11.0291C12.9326 10.9933 12.9003 10.9533 12.8726 10.9112L12.8223 10.8218L12.7823 10.7182C12.7709 10.6811 12.7623 10.6419 12.7568 10.6018L12.75 10.5V5.5C12.75 5.08579 13.0858 4.75 13.5 4.75C13.8797 4.75 14.1935 5.03215 14.2432 5.39823L14.25 5.5V8.688L19.9697 2.96967C20.2626 2.67678 20.7374 2.67678 21.0303 2.96967Z" fill="#1C1C1C"/>
</svg>
