<svg width="24" height="24" viewBox="0 0 24 24" fill="none" xmlns="http://www.w3.org/2000/svg">
<path fill-rule="evenodd" clip-rule="evenodd" d="M11.0303 12.9697C11.2966 13.2359 11.3208 13.6526 11.1029 13.9462L11.0303 14.0303L5.31 19.75H8.5C8.8797 19.75 9.19349 20.0322 9.24315 20.3982L9.25 20.5C9.25 20.8797 8.96785 21.1935 8.60177 21.2432L8.5 21.25L3.44858 21.2482L3.32863 21.2303L3.26072 21.211L3.20186 21.1884L3.13095 21.1531L3.04856 21.099L2.96842 21.0291C2.93262 20.9933 2.90025 20.9533 2.87257 20.9112L2.82231 20.8218L2.78227 20.7182C2.77092 20.6811 2.76229 20.6419 2.75685 20.6018L2.75 20.5V15.5C2.75 15.0858 3.08579 14.75 3.5 14.75C3.8797 14.75 4.19349 15.0322 4.24315 15.3982L4.25 15.5L4.249 18.689L9.96967 12.9697C10.2626 12.6768 10.7374 12.6768 11.0303 12.9697ZM15.3982 2.75685L15.5 2.75H20.5L20.5695 2.75317L20.6714 2.76973L20.7393 2.78898L20.7981 2.8116L20.869 2.84686L20.9514 2.90097L21.0316 2.97092C21.0674 3.00672 21.0997 3.04669 21.1274 3.08883L21.1777 3.17823L21.2177 3.28184C21.2291 3.31893 21.2377 3.35808 21.2432 3.39823L21.25 3.5V8.5C21.25 8.91421 20.9142 9.25 20.5 9.25C20.1203 9.25 19.8065 8.96785 19.7568 8.60177L19.75 8.5V5.31L14.0303 11.0303C13.7374 11.3232 13.2626 11.3232 12.9697 11.0303C12.7034 10.7641 12.6792 10.3474 12.8971 10.0538L12.9697 9.96967L18.688 4.25H15.5C15.1203 4.25 14.8065 3.96785 14.7568 3.60177L14.75 3.5C14.75 3.1203 15.0322 2.80651 15.3982 2.75685Z" fill="#1C1C1C"/>
</svg>
