<svg width="24" height="24" viewBox="0 0 24 24" fill="none" xmlns="http://www.w3.org/2000/svg">
<path d="M8.96973 13.2197C9.26262 12.9268 9.73738 12.9268 10.0303 13.2197C10.3232 13.5126 10.3232 13.9874 10.0303 14.2803L7.31055 17L10.0303 19.7197C10.3232 20.0126 10.3232 20.4874 10.0303 20.7803C9.73738 21.0732 9.26262 21.0732 8.96973 20.7803L6.25 18.0605L3.53027 20.7803C3.23738 21.0732 2.76262 21.0732 2.46973 20.7803C2.17683 20.4874 2.17683 20.0126 2.46973 19.7197L5.18945 17L2.46973 14.2803C2.17683 13.9874 2.17683 13.5126 2.46973 13.2197C2.76262 12.9268 3.23738 12.9268 3.53027 13.2197L6.25 15.9395L8.96973 13.2197ZM19.25 3C20.2165 3 21 3.7835 21 4.75V19.25C21 20.2165 20.2165 21 19.25 21H11.6191C11.7904 20.5151 11.7904 19.9849 11.6191 19.5H14V4.5H9.59961V11.5049C8.99101 11.478 8.37389 11.6945 7.90918 12.1592L6.25 13.8184L4.59082 12.1592C4.15148 11.7198 3.57583 11.5 3 11.5V4.75C3 3.7835 3.7835 3 4.75 3H19.25ZM15.5 19.5H19.25C19.3881 19.5 19.5 19.3881 19.5 19.25V4.75C19.5 4.61193 19.3881 4.5 19.25 4.5H15.5V19.5Z" fill="#1C1C1C"/>
</svg>
