<svg width="24" height="24" viewBox="0 0 24 24" fill="none" xmlns="http://www.w3.org/2000/svg">
<path fill-rule="evenodd" clip-rule="evenodd" d="M16.6607 4.1736C16.9895 4.36345 17.1202 4.7647 16.9802 5.10656L16.9352 5.19812L8.63712 19.5708C8.43002 19.9296 7.97132 20.0525 7.6126 19.8454C7.28378 19.6555 7.1531 19.2543 7.29313 18.9124L7.33809 18.8208L15.6362 4.44812C15.8433 4.0894 16.302 3.9665 16.6607 4.1736ZM5 9C6.44213 9 7.64659 10.0176 7.93456 11.3739C7.9877 11.3603 8.04484 11.3536 8.10355 11.3536L9.91755 11.3531L9.05155 12.8531L8.10355 12.8536C8.02747 12.8536 7.95402 12.8422 7.88482 12.8212C7.52918 14.0788 6.37217 15 5 15C3.34315 15 2 13.6569 2 12C2 10.3431 3.34315 9 5 9ZM19 9C20.6569 9 22 10.3431 22 12C22 13.6569 20.6569 15 19 15C17.6398 15 16.4909 14.0947 16.1232 12.8538L14.2476 12.8531L15.1136 11.3531L16.07 11.3529C16.3658 10.0071 17.5653 9 19 9ZM5 10.5C4.17157 10.5 3.5 11.1716 3.5 12C3.5 12.8284 4.17157 13.5 5 13.5C5.82843 13.5 6.5 12.8284 6.5 12C6.5 11.1716 5.82843 10.5 5 10.5ZM19 10.5C18.1716 10.5 17.5 11.1716 17.5 12C17.5 12.8284 18.1716 13.5 19 13.5C19.8284 13.5 20.5 12.8284 20.5 12C20.5 11.1716 19.8284 10.5 19 10.5Z" fill="#1C1C1C"/>
</svg>
