<svg width="24" height="24" viewBox="0 0 24 24" fill="none" xmlns="http://www.w3.org/2000/svg">
<path fill-rule="evenodd" clip-rule="evenodd" d="M18.25 2C19.2165 2 20 2.7835 20 3.75V20.25C20 21.2165 19.2165 22 18.25 22H5.75C4.7835 22 4 21.2165 4 20.25V18H3.5C3.08579 18 2.75 17.6642 2.75 17.25C2.75 16.8358 3.08579 16.5 3.5 16.5H4V12.75H3.5C3.08579 12.75 2.75 12.4142 2.75 12C2.75 11.5858 3.08579 11.25 3.5 11.25H4V8H3.5C3.08579 8 2.75 7.66421 2.75 7.25C2.75 6.83579 3.08579 6.5 3.5 6.5H4V3.75C4 2.7835 4.7835 2 5.75 2H18.25ZM18.25 3.5H5.75C5.63165 3.5 5.53251 3.58223 5.5066 3.69268L5.5 3.75V6.5H6C6.41421 6.5 6.75 6.83579 6.75 7.25C6.75 7.66421 6.41421 8 6 8H5.5V11.25H6C6.41421 11.25 6.75 11.5858 6.75 12C6.75 12.4142 6.41421 12.75 6 12.75H5.5V16.5H6C6.41421 16.5 6.75 16.8358 6.75 17.25C6.75 17.6642 6.41421 18 6 18H5.5V20.25C5.5 20.3683 5.58223 20.4675 5.69268 20.4934L5.75 20.5H18.25C18.3683 20.5 18.4675 20.4178 18.4934 20.3073L18.5 20.25V3.75C18.5 3.63165 18.4178 3.53251 18.3073 3.5066L18.25 3.5ZM11.8658 12C14.2997 12 15.7463 13.3164 16.2056 15.9493C16.3716 16.9014 15.7344 17.8079 14.7823 17.974C14.683 17.9913 14.5824 18 14.4816 18H9.25001C8.2835 18 7.5 17.2165 7.5 16.25C7.5 16.1492 7.50871 16.0486 7.52603 15.9493C7.9853 13.3164 9.4319 12 11.8658 12ZM11.8658 6.5C12.9704 6.5 13.8658 7.61929 13.8658 9C13.8658 10.3807 12.9704 11.5 11.8658 11.5C10.7612 11.5 9.86578 10.3807 9.86578 9C9.86578 7.61929 10.7612 6.5 11.8658 6.5Z" fill="#1C1C1C"/>
</svg>
