<svg width="24" height="24" viewBox="0 0 24 24" fill="none" xmlns="http://www.w3.org/2000/svg">
<path fill-rule="evenodd" clip-rule="evenodd" d="M6 5V6.5H5.75C5.63165 6.5 5.53251 6.58223 5.5066 6.69268L5.5 6.75V20.25C5.5 20.3683 5.58223 20.4675 5.69268 20.4934L5.75 20.5H15.25C15.3683 20.5 15.4675 20.4178 15.4934 20.3073L15.5 20.25V20H17V20.25C17 21.2165 16.2165 22 15.25 22H5.75C4.7835 22 4 21.2165 4 20.25V6.75C4 5.7835 4.7835 5 5.75 5H6ZM13.5858 2C13.851 2 14.1054 2.10536 14.2929 2.29289L19.7071 7.70711C19.8946 7.89464 20 8.149 20 8.41421V17.25C20 18.2165 19.2165 19 18.25 19H8.75C7.7835 19 7 18.2165 7 17.25V3.75C7 2.7835 7.7835 2 8.75 2H13.5858ZM13 3.5H8.75C8.63165 3.5 8.53251 3.58223 8.5066 3.69268L8.5 3.75V17.25C8.5 17.3683 8.58223 17.4675 8.69268 17.4934L8.75 17.5H18.25C18.3683 17.5 18.4675 17.4178 18.4934 17.3073L18.5 17.25V9H14.75C13.8318 9 13.0788 8.29289 13.0058 7.39353L13 7.25V3.5ZM14.5 4.62097V7.24997C14.5 7.36832 14.5822 7.46746 14.6927 7.49337L14.75 7.49997H17.379L14.5 4.62097Z" fill="#1C1C1C"/>
</svg>
