<svg width="24" height="24" viewBox="0 0 24 24" fill="none" xmlns="http://www.w3.org/2000/svg">
<path fill-rule="evenodd" clip-rule="evenodd" d="M11.441 3.44093C11.7489 3.28697 12.1045 3.26772 12.4244 3.38319L12.559 3.44093L22.1565 8.23968C22.4855 8.40418 22.6612 8.75326 22.6209 9.09866L22.62 15.2499C22.62 15.6642 22.2842 15.9999 21.87 15.9999C21.4558 15.9999 21.12 15.6642 21.12 15.2499L21.1194 10.279L18.9994 11.339L19 17.4999C19 19.1568 15.866 20.4999 12 20.4999C8.22829 20.4999 5.15331 19.2215 5.00555 17.6206L4.99999 17.4999L4.99941 11.338L1.84347 9.76021C1.45588 9.56641 1.28106 9.11646 1.42158 8.71814L1.46334 8.61981C1.52914 8.48821 1.62766 8.37653 1.74866 8.29501L1.84347 8.23968L11.441 3.44093ZM6.49942 12.088L6.49921 17.4828C6.508 17.5781 6.88399 17.9306 7.71628 18.2742C8.81965 18.7298 10.3509 19 12 19C13.689 19 15.2532 18.7164 16.3589 18.2426C16.8308 18.0403 17.1806 17.8185 17.3823 17.6141L17.4922 17.4968C17.4952 17.4941 17.4972 17.4931 17.4984 17.4936L17.5 17.5L17.4994 12.089L12.559 14.559C12.2511 14.713 11.8955 14.7322 11.5756 14.6167L11.441 14.559L6.49942 12.088ZM12 4.83789L3.677 8.99889L11.999 13.1609L20.322 8.99889L12 4.83789Z" fill="#1C1C1C"/>
</svg>
