<svg width="24" height="24" viewBox="0 0 24 24" fill="none" xmlns="http://www.w3.org/2000/svg">
<path fill-rule="evenodd" clip-rule="evenodd" d="M6.49902 15L6.50001 20.25C6.50001 20.3683 6.58224 20.4675 6.69269 20.4934L6.75001 20.5H16.25C16.3684 20.5 16.4675 20.4178 16.4934 20.3073L16.5 20.25V20H18V20.25C18 21.2165 17.2165 22 16.25 22H6.75001C5.78351 22 5.00001 21.2165 5.00001 20.25L4.99902 15H6.49902ZM14.5858 2C14.851 2 15.1054 2.10536 15.2929 2.29289L20.7071 7.70711C20.8946 7.89464 21 8.149 21 8.41421V17.25C21 18.2165 20.2165 19 19.25 19H9.75C8.7835 19 8 18.2165 8 17.25L7.99901 15H9.49901L9.5 17.25C9.5 17.3683 9.58223 17.4675 9.69268 17.4934L9.75 17.5H19.25C19.3683 17.5 19.4675 17.4178 19.4934 17.3073L19.5 17.25L19.499 9H15.75C14.8318 9 14.0788 8.29289 14.0058 7.39353L14 7.25L13.999 3.5H9.75C9.63165 3.5 9.53251 3.58223 9.5066 3.69268L9.5 3.75L9.49901 5H7.99901L8 3.75C8 2.7835 8.7835 2 9.75 2H14.5858ZM4.39243 8.95606C4.52656 8.79783 4.7464 8.73893 4.94167 8.80889L5.02353 8.84686L7.16683 10.0843L7.24064 10.1362C7.39887 10.2703 7.45777 10.4902 7.38781 10.6854L7.34985 10.7673L7.29793 10.8411C7.16381 10.9993 6.94397 11.0582 6.7487 10.9883L6.66683 10.9503L5.78944 10.4448C5.99926 11.6133 7.02108 12.5001 8.25 12.5001C8.81675 12.5001 9.35281 12.3118 9.78934 11.9701C10.1155 11.7148 10.5869 11.7722 10.8422 12.0984C11.0975 12.4246 11.0401 12.8959 10.7139 13.1513C10.0158 13.6978 9.15492 14.0001 8.25 14.0001C6.37847 14.0001 4.80715 12.7147 4.37058 10.9787L3.96911 11.6732L3.91719 11.747C3.7639 11.9278 3.49867 11.9789 3.28609 11.8562C3.07352 11.7335 2.98516 11.4782 3.06512 11.255L3.10308 11.1732L4.34052 9.02987L4.39243 8.95606ZM8.25002 6C10.1843 6 11.7979 7.3729 12.1695 9.19739L12.5277 8.57688C12.6504 8.36431 12.9057 8.27595 13.1289 8.35591L13.2107 8.39387C13.4233 8.5166 13.5117 8.77185 13.4317 8.99502L13.3937 9.07688L12.1563 11.2202C12.0336 11.4328 11.7783 11.5211 11.5552 11.4412L11.4733 11.4032L9.32999 10.1658C9.09084 10.0277 9.00891 9.72189 9.14698 9.48275C9.26971 9.27017 9.52496 9.18181 9.74813 9.26177L9.82999 9.29974L10.7442 9.82753C10.6556 8.52727 9.57276 7.5 8.25002 7.5C7.68327 7.5 7.14721 7.68822 6.71069 8.02993C6.38452 8.28526 5.91313 8.22783 5.65781 7.90166C5.40249 7.5755 5.45992 7.10411 5.78608 6.84879C6.48424 6.30227 7.3451 6 8.25002 6ZM15.499 4.62L15.5 7.25C15.5 7.36834 15.5822 7.46748 15.6927 7.49339L15.75 7.5H18.379L15.499 4.62Z" fill="#1C1C1C"/>
</svg>
