<svg width="24" height="24" viewBox="0 0 24 24" fill="none" xmlns="http://www.w3.org/2000/svg">
<path fill-rule="evenodd" clip-rule="evenodd" d="M12 2C14.316 2 16.2234 3.74966 16.4725 5.99929L14.9584 5.9993C14.7201 4.58079 13.4863 3.5 12 3.5C10.5134 3.5 9.27935 4.58129 9.04143 6.00029L20.25 6C20.6642 6 21 6.33579 21 6.75C21 7.16421 20.6642 7.5 20.25 7.5H19.5V18C19.5 20.2091 17.7091 22 15.5 22H8.5C6.29086 22 4.5 20.2091 4.5 18V7.5H3.75C3.33579 7.5 3 7.16421 3 6.75C3 6.33579 3.33579 6 3.75 6L7.52743 6.0003C7.77602 3.75018 9.68362 2 12 2ZM18 7.5H6V18C6 19.3255 7.03154 20.41 8.33562 20.4947L8.5 20.5H15.5C16.8255 20.5 17.91 19.4685 17.9947 18.1644L18 18V7.5ZM14.0538 10.8971C14.3474 10.6792 14.7641 10.7034 15.0303 10.9697C15.2966 11.2359 15.3208 11.6526 15.1029 11.9462L15.0303 12.0303L13.061 14L15.0303 15.9697C15.3232 16.2626 15.3232 16.7374 15.0303 17.0303C14.7641 17.2966 14.3474 17.3208 14.0538 17.1029L13.9697 17.0303L12 15.061L10.0303 17.0303L9.94621 17.1029C9.6526 17.3208 9.23594 17.2966 8.96967 17.0303C8.7034 16.7641 8.6792 16.3474 8.89705 16.0538L8.96967 15.9697L10.939 14L8.96967 12.0303C8.67678 11.7374 8.67678 11.2626 8.96967 10.9697C9.23594 10.7034 9.6526 10.6792 9.94621 10.8971L10.0303 10.9697L12 12.939L13.9697 10.9697L14.0538 10.8971Z" fill="#1C1C1C"/>
</svg>
