<svg width="24" height="24" viewBox="0 0 24 24" fill="none" xmlns="http://www.w3.org/2000/svg">
<path fill-rule="evenodd" clip-rule="evenodd" d="M12 2C14.316 2 16.2234 3.74966 16.4725 5.99929L20.25 6C20.6642 6 21 6.33579 21 6.75C21 7.16421 20.6642 7.5 20.25 7.5H19.5V18C19.5 20.2091 17.7091 22 15.5 22H8.5C6.29086 22 4.5 20.2091 4.5 18V7.5H3.75C3.33579 7.5 3 7.16421 3 6.75C3 6.33579 3.33579 6 3.75 6L7.52743 6.0003C7.77602 3.75018 9.68362 2 12 2ZM18 7.5H6V18C6 19.3255 7.03154 20.41 8.33562 20.4947L8.5 20.5H15.5C16.8255 20.5 17.91 19.4685 17.9947 18.1644L18 18V7.5ZM9.75 9.5C10.1642 9.5 10.5 9.83579 10.5 10.25V17.75C10.5 18.1642 10.1642 18.5 9.75 18.5C9.33579 18.5 9 18.1642 9 17.75V10.25C9 9.83579 9.33579 9.5 9.75 9.5ZM14.25 9.5C14.6642 9.5 15 9.83579 15 10.25V17.75C15 18.1642 14.6642 18.5 14.25 18.5C13.8358 18.5 13.5 18.1642 13.5 17.75V10.25C13.5 9.83579 13.8358 9.5 14.25 9.5ZM12 3.5C10.5134 3.5 9.27936 4.58129 9.04144 6.00029L14.9584 5.9993C14.7201 4.58079 13.4863 3.5 12 3.5Z" fill="#1C1C1C"/>
</svg>
