<svg width="24" height="24" viewBox="0 0 24 24" fill="none" xmlns="http://www.w3.org/2000/svg">
<path fill-rule="evenodd" clip-rule="evenodd" d="M16.25 2C16.6642 2 17 2.33579 17 2.75V3H19.25C20.2165 3 21 3.7835 21 4.75V19.25C21 20.2165 20.2165 21 19.25 21H17V19.5H19.25C19.3683 19.5 19.4675 19.4178 19.4934 19.3073L19.5 19.25V8H4.5V19.25C4.5 19.3683 4.58223 19.4675 4.69268 19.4934L4.75 19.5H7V21H4.75C3.7835 21 3 20.2165 3 19.25V4.75C3 3.7835 3.7835 3 4.75 3H7V2.75C7 2.33579 7.33579 2 7.75 2C8.16421 2 8.5 2.33579 8.5 2.75V3H15.5V2.75C15.5 2.33579 15.8358 2 16.25 2ZM12 11.25C12.3797 11.25 12.6935 11.5322 12.7432 11.8982L12.75 12V18.439L14.4697 16.7197C14.7359 16.4534 15.1526 16.4292 15.4462 16.6471L15.5303 16.7197C15.7966 16.9859 15.8208 17.4026 15.6029 17.6962L15.5303 17.7803L12.5303 20.7803C12.2641 21.0466 11.8474 21.0708 11.5538 20.8529L11.4697 20.7803L8.46967 17.7803C8.17678 17.4874 8.17678 17.0126 8.46967 16.7197C8.73594 16.4534 9.1526 16.4292 9.44621 16.6471L9.53033 16.7197L11.25 18.439V12C11.25 11.5858 11.5858 11.25 12 11.25ZM7 4.5H4.75C4.63165 4.5 4.53251 4.58223 4.5066 4.69268L4.5 4.75V6.5H19.5V4.75C19.5 4.63165 19.4178 4.53251 19.3073 4.5066L19.25 4.5H17V4.75C17 5.16421 16.6642 5.5 16.25 5.5C15.8358 5.5 15.5 5.16421 15.5 4.75V4.5H8.5V4.75C8.5 5.16421 8.16421 5.5 7.75 5.5C7.33579 5.5 7 5.16421 7 4.75V4.5Z" fill="#1C1C1C"/>
</svg>
