<svg width="24" height="24" viewBox="0 0 24 24" fill="none" xmlns="http://www.w3.org/2000/svg">
<path fill-rule="evenodd" clip-rule="evenodd" d="M20.5 17C20.7761 17 21 17.2239 21 17.5V21.5C21 21.7761 20.7761 22 20.5 22H16.5C16.2239 22 16 21.7761 16 21.5V17.5C16 17.2239 16.2239 17 16.5 17H20.5ZM19.5 18.5H17.5V20.5H19.5V18.5ZM14.5 3.75C14.9142 3.75 15.25 4.08579 15.25 4.5C15.25 4.8797 14.9678 5.19349 14.6018 5.24315L14.5 5.25H13C12.8817 5.25 12.7825 5.33223 12.7566 5.44268L12.75 5.5V11.25H14.5C14.9142 11.25 15.25 11.5858 15.25 12C15.25 12.3797 14.9678 12.6935 14.6018 12.7432L14.5 12.75H12.75V18.5C12.75 18.6183 12.8322 18.7175 12.9427 18.7434L13 18.75H14.5C14.9142 18.75 15.25 19.0858 15.25 19.5C15.25 19.8797 14.9678 20.1935 14.6018 20.2432L14.5 20.25H13C12.0818 20.25 11.3288 19.5429 11.2558 18.6435L11.25 18.5V12.75H9.5C9.08579 12.75 8.75 12.4142 8.75 12C8.75 11.6203 9.03215 11.3065 9.39823 11.2568L9.5 11.25H11.25V5.5C11.25 4.58183 11.9571 3.82881 12.8565 3.7558L13 3.75H14.5ZM20.5 9.5C20.7761 9.5 21 9.72386 21 10V14C21 14.2761 20.7761 14.5 20.5 14.5H16.5C16.2239 14.5 16 14.2761 16 14V10C16 9.72386 16.2239 9.5 16.5 9.5H20.5ZM7.5 9.5C7.77614 9.5 8 9.72386 8 10V14C8 14.2761 7.77614 14.5 7.5 14.5H3.5C3.22386 14.5 3 14.2761 3 14V10C3 9.72386 3.22386 9.5 3.5 9.5H7.5ZM19.5 11H17.5V13H19.5V11ZM6.5 11H4.5V13H6.5V11ZM20.5 2C20.7761 2 21 2.22386 21 2.5V6.5C21 6.77614 20.7761 7 20.5 7H16.5C16.2239 7 16 6.77614 16 6.5V2.5C16 2.22386 16.2239 2 16.5 2H20.5ZM19.5 3.5H17.5V5.5H19.5V3.5Z" fill="#1C1C1C"/>
</svg>
