<svg width="24" height="24" viewBox="0 0 24 24" fill="none" xmlns="http://www.w3.org/2000/svg">
<path fill-rule="evenodd" clip-rule="evenodd" d="M13.5858 2C13.851 2 14.1054 2.10536 14.2929 2.29289L19.7071 7.70711C19.8946 7.89464 20 8.149 20 8.41421V12.5H18.5V9H14.75C13.8318 9 13.0788 8.29289 13.0058 7.39353L13 7.25V3.5H5.75C5.63165 3.5 5.53251 3.58223 5.5066 3.69268L5.5 3.75V20.25C5.5 20.3683 5.58223 20.4675 5.69268 20.4934L5.75 20.5H18.25C18.3683 20.5 18.4675 20.4178 18.4934 20.3073L18.5 20.25V17H20V20.25C20 21.2165 19.2165 22 18.25 22H5.75C4.7835 22 4 21.2165 4 20.25V3.75C4 2.7835 4.7835 2 5.75 2H13.5858ZM13.5538 11.1471C13.8148 10.9534 14.173 10.951 14.4364 11.1399L14.5303 11.2197L14.6029 11.3038C14.7966 11.5648 14.799 11.923 14.6101 12.1864L14.5303 12.2803L12.811 14H19.25L19.3518 14.0068C19.7178 14.0565 20 14.3703 20 14.75C20 15.1297 19.7178 15.4435 19.3518 15.4932L19.25 15.5H12.811L14.5303 17.2197L14.6029 17.3038C14.8208 17.5974 14.7966 18.0141 14.5303 18.2803C14.2641 18.5466 13.8474 18.5708 13.5538 18.3529L13.4697 18.2803L10.4697 15.2803L10.3971 15.1962C10.2034 14.9352 10.201 14.577 10.3899 14.3136L10.4697 14.2197L13.4697 11.2197L13.5538 11.1471ZM14.5 4.62097V7.24997C14.5 7.36832 14.5822 7.46746 14.6927 7.49337L14.75 7.49997H17.38L14.5 4.62097Z" fill="#1C1C1C"/>
</svg>
