<svg width="24" height="24" viewBox="0 0 24 24" fill="none" xmlns="http://www.w3.org/2000/svg">
<path fill-rule="evenodd" clip-rule="evenodd" d="M13.5858 2C13.851 2 14.1054 2.10536 14.2929 2.29289L19.7071 7.70711C19.8946 7.89464 20 8.149 20 8.41421V13H18.5V9H14.75C13.8318 9 13.0788 8.29289 13.0058 7.39353L13 7.25V3.5H5.75C5.63165 3.5 5.53251 3.58223 5.5066 3.69268L5.5 3.75V20.25C5.5 20.3683 5.58223 20.4675 5.69268 20.4934L5.75 20.5H12V22H5.75C4.7835 22 4 21.2165 4 20.25V3.75C4 2.7835 4.7835 2 5.75 2H13.5858ZM15.75 13.5C16.1297 13.5 16.4435 13.7822 16.4932 14.1482L16.5 14.25V17H19.25C19.6642 17 20 17.3358 20 17.75C20 18.1297 19.7178 18.4435 19.3518 18.4932L19.25 18.5H16.5V21.25C16.5 21.6642 16.1642 22 15.75 22C15.3703 22 15.0565 21.7178 15.0068 21.3518L15 21.25V18.5H12.25C11.8358 18.5 11.5 18.1642 11.5 17.75C11.5 17.3703 11.7822 17.0565 12.1482 17.0068L12.25 17H15V14.25C15 13.8358 15.3358 13.5 15.75 13.5ZM14.5 4.62097V7.24997C14.5 7.36832 14.5822 7.46746 14.6927 7.49337L14.75 7.49997H17.38L14.5 4.62097Z" fill="#1C1C1C"/>
</svg>
