<svg width="24" height="24" viewBox="0 0 24 24" fill="none" xmlns="http://www.w3.org/2000/svg">
<path fill-rule="evenodd" clip-rule="evenodd" d="M13.5858 2C13.851 2 14.1054 2.10536 14.2929 2.29289L19.7071 7.70711C19.8946 7.89464 20 8.149 20 8.41421V20.25C20 21.2165 19.2165 22 18.25 22H5.75C4.7835 22 4 21.2165 4 20.25V12H5.5V20.25C5.5 20.3683 5.58223 20.4675 5.69268 20.4934L5.75 20.5H18.25C18.3683 20.5 18.4675 20.4178 18.4934 20.3073L18.5 20.25V9H14.75C13.8318 9 13.0788 8.29289 13.0058 7.39353L13 7.25V3.5H11V2H13.5858ZM4.43319 7.25006C4.54367 7.44126 4.51713 7.68998 4.35355 7.85355C4.17999 8.02712 3.91056 8.0464 3.71569 7.91141L3.64645 7.85355L2.64645 6.85355L2.58859 6.78431C2.47047 6.6138 2.47047 6.3862 2.58859 6.21569L2.64645 6.14645L3.64645 5.14645L3.71569 5.08859C3.8862 4.97047 4.1138 4.97047 4.28431 5.08859L4.35355 5.14645L4.41141 5.21569C4.52198 5.37531 4.52905 5.58494 4.43261 5.75094L6.25 5.75L6.25094 3.93261C6.08494 4.02905 5.87531 4.02198 5.71569 3.91141L5.64645 3.85355C5.47288 3.67999 5.4536 3.41056 5.58859 3.21569L5.64645 3.14645L6.64645 2.14645L6.71569 2.08859C6.8862 1.97047 7.1138 1.97047 7.28431 2.08859L7.35355 2.14645L8.35355 3.14645L8.41141 3.21569C8.52953 3.3862 8.52953 3.6138 8.41141 3.78431L8.35355 3.85355L8.28431 3.91141C8.12501 4.02176 7.9159 4.02902 7.75006 3.93319L7.75 5.75L9.56739 5.75094C9.47095 5.58494 9.47802 5.37531 9.58859 5.21569L9.64645 5.14645C9.82001 4.97288 10.0894 4.9536 10.2843 5.08859L10.3536 5.14645L11.3536 6.14645C11.5271 6.32001 11.5464 6.58944 11.4114 6.78431L11.3536 6.85355L10.3536 7.85355C10.1583 8.04882 9.84171 8.04882 9.64645 7.85355C9.48287 7.68998 9.45633 7.44126 9.56681 7.25006L7.75 7.25L7.75006 9.06681C7.9159 8.97098 8.12501 8.97824 8.28431 9.08859L8.35355 9.14645C8.52712 9.32001 8.5464 9.58944 8.41141 9.78431L8.35355 9.85355L7.35355 10.8536C7.17999 11.0271 6.91056 11.0464 6.71569 10.9114L6.64645 10.8536L5.64645 9.85355C5.45118 9.65829 5.45118 9.34171 5.64645 9.14645C5.81031 8.98259 6.0596 8.95623 6.25094 9.06739L6.25 7.25L4.43319 7.25006ZM14.5 4.62097V7.24997C14.5 7.36832 14.5822 7.46746 14.6927 7.49337L14.75 7.49997H17.38L14.5 4.62097Z" fill="#1C1C1C"/>
</svg>
