<svg width="24" height="24" viewBox="0 0 24 24" fill="none" xmlns="http://www.w3.org/2000/svg">
<path fill-rule="evenodd" clip-rule="evenodd" d="M13.5858 2C13.851 2 14.1054 2.10536 14.2929 2.29289L19.7071 7.70711C19.8946 7.89464 20 8.149 20 8.41421V14H18.5V9H14.75C13.8318 9 13.0788 8.29289 13.0058 7.39353L13 7.25V3.5H5.75C5.63165 3.5 5.53251 3.58223 5.5066 3.69268L5.5 3.75V20.25C5.5 20.3683 5.58223 20.4675 5.69268 20.4934L5.75 20.5H10V22H5.75C4.7835 22 4 21.2165 4 20.25V3.75C4 2.7835 4.7835 2 5.75 2H13.5858ZM19.7803 15.7197C20.0466 15.9859 20.0708 16.4026 19.8529 16.6962L19.7803 16.7803L14.7803 21.7803C14.5141 22.0466 14.0974 22.0708 13.8038 21.8529L13.7197 21.7803L10.7197 18.7803C10.4268 18.4874 10.4268 18.0126 10.7197 17.7197C10.9859 17.4534 11.4026 17.4292 11.6962 17.6471L11.7803 17.7197L14.25 20.189L18.7197 15.7197C19.0126 15.4268 19.4874 15.4268 19.7803 15.7197ZM17.38 7.49997L14.5 4.62097V7.24997C14.5 7.36832 14.5822 7.46746 14.6927 7.49337L14.75 7.49997H17.38Z" fill="#1C1C1C"/>
</svg>
