<svg width="24" height="24" viewBox="0 0 24 24" fill="none" xmlns="http://www.w3.org/2000/svg">
<path fill-rule="evenodd" clip-rule="evenodd" d="M13.5858 2C13.851 2 14.1054 2.10536 14.2929 2.29289L19.7071 7.70711C19.8946 7.89464 20 8.149 20 8.41421V20.25C20 21.2165 19.2165 22 18.25 22H5.75C4.7835 22 4 21.2165 4 20.25V3.75C4 2.7835 4.7835 2 5.75 2H13.5858ZM13 3.5H5.75C5.63165 3.5 5.53251 3.58223 5.5066 3.69268L5.5 3.75V20.25C5.5 20.3683 5.58223 20.4675 5.69268 20.4934L5.75 20.5H18.25C18.3683 20.5 18.4675 20.4178 18.4934 20.3073L18.5 20.25V9H14.75C13.8318 9 13.0788 8.29289 13.0058 7.39353L13 7.25V3.5ZM12 16.4102C12.5156 16.4102 12.9346 16.7432 12.9346 17.2588C12.9346 17.7744 12.5156 18.1074 12 18.1074C11.4844 18.1074 11.0601 17.7744 11.0601 17.2588C11.0601 16.7432 11.4844 16.4102 12 16.4102ZM12 10.4321C12.5087 10.4321 12.8831 10.7841 12.9168 11.2386L12.9184 11.3452L12.7681 14.9653C12.7466 15.4004 12.4136 15.7012 12 15.7012C11.6061 15.7012 11.2935 15.4394 11.2317 15.0689L11.2212 14.9653L11.0869 11.3452C11.0654 10.8403 11.4575 10.4321 12 10.4321ZM14.5 4.62097V7.24997C14.5 7.36832 14.5822 7.46746 14.6927 7.49337L14.75 7.49997H17.38L14.5 4.62097Z" fill="#1C1C1C"/>
</svg>
