<svg width="24" height="24" viewBox="0 0 24 24" fill="none" xmlns="http://www.w3.org/2000/svg">
<path fill-rule="evenodd" clip-rule="evenodd" d="M14.2929 2.29289C14.1054 2.10536 13.851 2 13.5858 2H5.75C4.7835 2 4 2.7835 4 3.75V10H5.5V3.75L5.5066 3.69268C5.53251 3.58223 5.63165 3.5 5.75 3.5H13V7.25L13.0058 7.39353C13.0788 8.29289 13.8318 9 14.75 9H18.5V20.25L18.4934 20.3073C18.4675 20.4178 18.3683 20.5 18.25 20.5H16V22H18.25C19.2165 22 20 21.2165 20 20.25V8.41421C20 8.149 19.8946 7.89464 19.7071 7.70711L14.2929 2.29289ZM14.5 7.24997V4.62097L17.38 7.49997H14.75L14.6927 7.49337C14.5822 7.46746 14.5 7.36832 14.5 7.24997ZM12 14L12 19.2081C12.2519 19.1062 12.4941 18.9784 12.7223 18.8259C13.3801 18.3864 13.8928 17.7616 14.1955 17.0307C14.4983 16.2998 14.5775 15.4956 14.4231 14.7196C14.2688 13.9437 13.8878 13.231 13.3284 12.6716C12.769 12.1122 12.0563 11.7312 11.2804 11.5769C10.5044 11.4225 9.70017 11.5017 8.96927 11.8045C8.23836 12.1072 7.61365 12.6199 7.17412 13.2777C7.02163 13.5059 6.89381 13.7481 6.7919 14L12 14ZM5.2085 14C5.36439 13.4501 5.6059 12.9248 5.92692 12.4444C6.53126 11.5399 7.39025 10.8349 8.39524 10.4187C9.40023 10.0024 10.5061 9.89347 11.573 10.1057C12.6399 10.3179 13.6199 10.8417 14.3891 11.6109C15.1583 12.3801 15.6821 13.3601 15.8943 14.427C16.1065 15.4939 15.9976 16.5998 15.5813 17.6048C15.1651 18.6098 14.4601 19.4687 13.5556 20.0731C13.0752 20.3941 12.5499 20.6356 12 20.7915C11.5146 20.9291 11.01 21 10.5 21L10.5 15.5H5C5 14.99 5.0709 14.4854 5.2085 14ZM8 20.2081L7.96927 20.1955C7.48396 19.9945 7.04301 19.6999 6.67157 19.3284C6.30014 18.957 6.0055 18.516 5.80448 18.0307L5.7919 18H8L8 20.2081ZM4 16.5C4 17.0082 4.07044 17.513 4.2085 18C4.26663 18.2051 4.33676 18.407 4.41866 18.6048C4.69506 19.2721 5.10019 19.8784 5.61091 20.3891C6.12163 20.8998 6.72795 21.3049 7.39524 21.5813C7.59297 21.6632 7.79492 21.7334 8 21.7915C8.48701 21.9296 8.99175 22 9.5 22L9.5 16.5H4Z" fill="#1C1C1C"/>
</svg>
