<svg width="24" height="24" viewBox="0 0 24 24" fill="none" xmlns="http://www.w3.org/2000/svg">
<path fill-rule="evenodd" clip-rule="evenodd" d="M13.5858 2C13.851 2 14.1054 2.10536 14.2929 2.29289L19.7071 7.70711C19.8946 7.89464 20 8.149 20 8.41421V20.25C20 21.2165 19.2165 22 18.25 22H5.75C4.7835 22 4 21.2165 4 20.25V3.75C4 2.7835 4.7835 2 5.75 2H13.5858ZM13 3.5H5.75C5.63165 3.5 5.53251 3.58223 5.5066 3.69268L5.5 3.75V20.25C5.5 20.3683 5.58223 20.4675 5.69268 20.4934L5.75 20.5H18.25C18.3683 20.5 18.4675 20.4178 18.4934 20.3073L18.5 20.25V9H14.75C13.8318 9 13.0788 8.29289 13.0058 7.39353L13 7.25V3.5ZM15.5 15.75C15.9142 15.75 16.25 16.0858 16.25 16.5C16.25 16.8797 15.9678 17.1935 15.6018 17.2432L15.5 17.25H8.5C8.08579 17.25 7.75 16.9142 7.75 16.5C7.75 16.1203 8.03215 15.8065 8.39823 15.7568L8.5 15.75H15.5ZM15.5 11.75C15.9142 11.75 16.25 12.0858 16.25 12.5C16.25 12.8797 15.9678 13.1935 15.6018 13.2432L15.5 13.25H8.5C8.08579 13.25 7.75 12.9142 7.75 12.5C7.75 12.1203 8.03215 11.8065 8.39823 11.7568L8.5 11.75H15.5ZM14.5 4.62097V7.24997C14.5 7.36832 14.5822 7.46746 14.6927 7.49337L14.75 7.49997H17.38L14.5 4.62097Z" fill="#1C1C1C"/>
</svg>
