<svg width="24" height="24" viewBox="0 0 24 24" fill="none" xmlns="http://www.w3.org/2000/svg">
<path d="M13.5859 2C13.8511 2.00004 14.1055 2.10547 14.293 2.29297L19.707 7.70703C19.8945 7.89453 20 8.1489 20 8.41406V20.25C20 21.2165 19.2165 22 18.25 22H5.75C4.7835 22 4 21.2165 4 20.25V3.75C4 2.7835 4.7835 2 5.75 2H13.5859ZM5.75 3.5C5.63177 3.5 5.53287 3.58211 5.50684 3.69238L5.5 3.75V20.25C5.5 20.3682 5.58211 20.4671 5.69238 20.4932L5.75 20.5H18.25C18.3682 20.5 18.4671 20.4179 18.4932 20.3076L18.5 20.25V9H14.75C13.8318 9 13.0789 8.2929 13.0059 7.39355L13 7.25V3.5H5.75ZM10.4287 11C11.976 11 12.2254 12.6242 11.4297 14.3369C11.0903 15.0674 10.6027 15.7557 10.0049 16.3457L9.84863 16.4941L9.9873 16.4873L10.1572 16.4707C11.2147 16.3411 11.8589 15.7832 12.1709 14.7451L12.2148 14.5859L12.2412 14.5049C12.48 13.8928 13.4485 14.0984 13.3711 14.7969C13.3165 15.288 13.2922 15.6912 13.2969 16.002L13.3027 16.1699L13.3867 16.0771L13.5889 15.832C14.0397 15.3004 14.4517 15.0845 14.9209 15.4277C15.1058 15.5631 15.1984 15.7408 15.2637 15.9717L15.2832 16.043L15.3164 16.1982L15.3799 16.5859L15.4668 16.498L15.6133 16.3369L15.7861 16.1357L15.9834 15.8936L16.2031 15.6094L16.4336 15.2979L16.4893 15.2314C16.69 15.026 17.0163 14.9936 17.2559 15.167C17.5194 15.3579 17.5785 15.7257 17.3877 15.9893L17.2549 16.1709L17.0029 16.5049L16.876 16.666C16.211 17.5001 15.7289 17.8918 15.2715 17.9326C14.8523 17.97 14.5463 17.7346 14.3818 17.377C14.3256 17.2545 14.2875 17.1317 14.2539 16.9736L14.2373 16.8926L14.1572 16.9824L14.0654 17.0791C13.4823 17.6698 12.9352 17.8523 12.4805 17.3301L12.4121 17.2461L12.3584 17.166C12.307 17.0818 12.2639 16.9858 12.2295 16.877L12.2188 16.835L12.1211 16.918L11.9697 17.0303C11.4016 17.428 10.6882 17.6454 9.84277 17.6748L9.64258 17.6787L9.47656 17.6729C9.15088 17.6507 8.8698 17.5623 8.63281 17.4199L8.61719 17.4102L8.53906 17.4561L8.28418 17.5928C8.02596 17.7242 7.75859 17.839 7.4834 17.9346L7.26172 18.0068L7.18359 18.0254C6.89712 18.0721 6.61254 17.9005 6.52539 17.6152C6.43064 17.3042 6.60606 16.975 6.91699 16.8799C7.19427 16.7952 7.46387 16.6857 7.72266 16.5557L7.87305 16.4766L7.83008 16.3594L7.77441 16.1729C7.64131 15.661 7.63005 15.0512 7.73828 14.3975L7.76953 14.2266L7.80664 14.0459C8.18302 12.3709 9.19382 11 10.4287 11ZM10.4287 12.1787C9.88325 12.1787 9.17295 13.1846 8.92578 14.4521C8.83569 14.9142 8.81866 15.3115 8.86523 15.6299L8.88965 15.7695L8.97168 15.6992L9.16895 15.5146C9.6182 15.0731 9.99336 14.5647 10.2695 14.0264L10.3604 13.8408L10.4238 13.6982C10.8449 12.7245 10.7474 12.1791 10.4287 12.1787ZM14.5 7.25C14.5 7.36822 14.5821 7.46714 14.6924 7.49316L14.75 7.5H17.3799L14.5 4.62109V7.25Z" fill="#1C1C1C"/>
</svg>
