<svg width="24" height="24" viewBox="0 0 24 24" fill="none" xmlns="http://www.w3.org/2000/svg">
<path fill-rule="evenodd" clip-rule="evenodd" d="M13.5858 2C13.851 2 14.1054 2.10536 14.2929 2.29289L19.7071 7.70711C19.8946 7.89464 20 8.149 20 8.41421V12.75H18.5V9H14.75C13.8318 9 13.0788 8.29289 13.0058 7.39353L13 7.25V3.5H5.75C5.63165 3.5 5.53251 3.58223 5.5066 3.69268L5.5 3.75V20.25C5.5 20.3683 5.58223 20.4675 5.69268 20.4934L5.75 20.5H10.75V22H5.75C4.7835 22 4 21.2165 4 20.25V3.75C4 2.7835 4.7835 2 5.75 2H13.5858ZM19.25 14.25C19.6297 14.25 19.9435 14.5322 19.9932 14.8982L20 15V19.5C20 19.9142 19.6642 20.25 19.25 20.25C18.8703 20.25 18.5565 19.9678 18.5068 19.6018L18.5 19.5V16.81L13.5303 21.7803C13.2374 22.0732 12.7626 22.0732 12.4697 21.7803C12.2034 21.5141 12.1792 21.0974 12.3971 20.8038L12.4697 20.7197L17.438 15.75H14.75C14.3703 15.75 14.0565 15.4678 14.0068 15.1018L14 15C14 14.6203 14.2822 14.3065 14.6482 14.2568L14.75 14.25H19.25ZM14.5 4.62097V7.24997C14.5 7.36832 14.5822 7.46746 14.6927 7.49337L14.75 7.49997H17.38L14.5 4.62097Z" fill="#1C1C1C"/>
</svg>
