<svg width="24" height="24" viewBox="0 0 24 24" fill="none" xmlns="http://www.w3.org/2000/svg">
<path fill-rule="evenodd" clip-rule="evenodd" d="M11.9504 11.1459L14.169 14.989L15.0369 15.2227C14.9869 14.8923 15.0028 14.5464 15.0948 14.2029C15.4521 12.8693 16.823 12.0778 18.1566 12.4352C19.4903 12.7925 20.2818 14.1634 19.9244 15.497C19.5671 16.8307 18.1962 17.6222 16.8625 17.2648L15.23 16.827L16.0754 18.2906C16.7658 19.4863 16.3561 21.0153 15.1604 21.7057C13.9646 22.396 12.4357 21.9863 11.7453 20.7906C11.055 19.5949 11.4646 18.0659 12.6604 17.3755C12.9686 17.1976 13.2989 17.0927 13.6314 17.0556L13.181 16.278L8.89366 15.1296C8.49356 15.0223 8.25612 14.6111 8.36333 14.211C8.47053 13.8109 8.88179 13.5735 9.28189 13.6807L12.121 14.441L10.6514 11.8959C10.4443 11.5372 10.5672 11.0785 10.9259 10.8714C11.2846 10.6643 11.7433 10.7872 11.9504 11.1459ZM13.5858 2C13.851 2 14.1054 2.10536 14.2929 2.29289L19.7071 7.70711C19.8946 7.89464 20 8.149 20 8.41421V11H18.5V9H14.75C13.8318 9 13.0788 8.29289 13.0058 7.39353L13 7.25V3.5H5.75C5.63165 3.5 5.53251 3.58223 5.5066 3.69268L5.5 3.75V20.25C5.5 20.3683 5.58223 20.4675 5.69268 20.4934L5.75 20.5H10V22H5.75C4.7835 22 4 21.2165 4 20.25V3.75C4 2.7835 4.7835 2 5.75 2H13.5858ZM13.4104 18.6745C12.9321 18.9507 12.7682 19.5623 13.0444 20.0406C13.3205 20.5189 13.9321 20.6827 14.4104 20.4066C14.8887 20.1305 15.0526 19.5189 14.7764 19.0406C14.5003 18.5623 13.8887 18.3984 13.4104 18.6745ZM16.5437 14.5912C16.4007 15.1246 16.7173 15.673 17.2508 15.8159C17.7842 15.9588 18.3326 15.6423 18.4755 15.1088C18.6185 14.5753 18.3019 14.027 17.7684 13.8841C17.235 13.7411 16.6866 14.0577 16.5437 14.5912ZM14.5 4.62097V7.24997C14.5 7.36832 14.5822 7.46746 14.6927 7.49337L14.75 7.49997H17.38L14.5 4.62097Z" fill="#1C1C1C"/>
</svg>
