<svg width="24" height="24" viewBox="0 0 24 24" fill="none" xmlns="http://www.w3.org/2000/svg">
<path fill-rule="evenodd" clip-rule="evenodd" d="M13.5858 2C13.851 2 14.1054 2.10536 14.2929 2.29289L19.7071 7.70711C19.8946 7.89464 20 8.149 20 8.41421V20.25C20 21.2165 19.2165 22 18.25 22H16V20.5H18.25C18.3683 20.5 18.4675 20.4178 18.4934 20.3073L18.5 20.25V9H14.75C13.8318 9 13.0788 8.29289 13.0058 7.39353L13 7.25V3.5H5.75C5.63165 3.5 5.53251 3.58223 5.5066 3.69268L5.5 3.75V10H4V3.75C4 2.7835 4.7835 2 5.75 2H13.5858ZM10 10C13.3137 10 16 12.6863 16 16C16 19.3137 13.3137 22 10 22C6.68629 22 4 19.3137 4 16C4 12.6863 6.68629 10 10 10ZM10 11.5C7.51472 11.5 5.5 13.5147 5.5 16C5.5 18.4853 7.51472 20.5 10 20.5C12.4853 20.5 14.5 18.4853 14.5 16C14.5 13.5147 12.4853 11.5 10 11.5ZM10 12.25C10.3797 12.25 10.6935 12.5322 10.7432 12.8982L10.75 13V16C10.75 16.3797 10.4678 16.6935 10.1018 16.7432L10 16.75H8C7.58579 16.75 7.25 16.4142 7.25 16C7.25 15.6203 7.53215 15.3065 7.89823 15.2568L8 15.25L9.25 15.249V13C9.25 12.6203 9.53215 12.3065 9.89823 12.2568L10 12.25ZM14.5 4.62097V7.24997C14.5 7.36832 14.5822 7.46746 14.6927 7.49337L14.75 7.49997H17.38L14.5 4.62097Z" fill="#1C1C1C"/>
</svg>
