<svg width="24" height="24" viewBox="0 0 24 24" fill="none" xmlns="http://www.w3.org/2000/svg">
<path fill-rule="evenodd" clip-rule="evenodd" d="M16.5858 2C16.851 2 17.1054 2.10536 17.2929 2.29289L20.7071 5.70711C20.8946 5.89464 21 6.149 21 6.41421V15.25C21 16.2165 20.2165 17 19.25 17H15V20.25C15 21.2165 14.2165 22 13.25 22H4.75C3.7835 22 3 21.2165 3 20.25V8.75C3 7.7835 3.7835 7 4.75 7H9V3.75C9 2.7835 9.7835 2 10.75 2H16.5858ZM15.5 3.49902L10.75 3.50002C10.6317 3.50002 10.5325 3.58226 10.5066 3.6927L10.5 3.75002V7.00002H11.5V8.50002H10.5V10H9V8.50002H4.75C4.63165 8.50002 4.53251 8.58226 4.5066 8.6927L4.5 8.75002V20.25C4.5 20.3684 4.58223 20.4675 4.69268 20.4934L4.75 20.5H13.25C13.3683 20.5 13.4675 20.4178 13.4934 20.3073L13.5 20.25V17H12.5V15.5H13.5V14H15V15.5H19.25C19.3683 15.5 19.4675 15.4178 19.4934 15.3073L19.5 15.25V7.50002H17.25C16.3318 7.50002 15.5788 6.79291 15.5058 5.89355L15.5 5.75002V3.49902ZM10.5 14V15.25C10.5 15.3683 10.5822 15.4675 10.6927 15.4934L10.75 15.5H11.5V17H10.75C9.7835 17 9 16.2165 9 15.25V14H10.5ZM15 11V13H13.5V11H15ZM10.5 11V13H9V11H10.5ZM12.5 7H13.25C14.2165 7 15 7.7835 15 8.75V10H13.5V8.75C13.5 8.63165 13.4178 8.53251 13.3073 8.5066L13.25 8.5H12.5V7ZM17 4.12V5.75C17 5.86834 17.0822 5.96748 17.1927 5.99339L17.25 6H18.881L17 4.12Z" fill="#1C1C1C"/>
</svg>
