<svg width="24" height="24" viewBox="0 0 24 24" fill="none" xmlns="http://www.w3.org/2000/svg">
<path d="M8.5 13C10.9853 13 13 15.0147 13 17.5C13 19.9853 10.9853 22 8.5 22C6.01472 22 4 19.9853 4 17.5C4 15.0147 6.01472 13 8.5 13ZM13.5859 2C13.8511 2.00004 14.1055 2.10547 14.293 2.29297L19.707 7.70703C19.8945 7.89453 20 8.1489 20 8.41406V20.25C20 21.2165 19.2165 22 18.25 22H14V20.5H18.25C18.3682 20.5 18.4671 20.4179 18.4932 20.3076L18.5 20.25V9H14.75C13.8318 9 13.0789 8.2929 13.0059 7.39355L13 7.25V3.5H5.75C5.63177 3.5 5.53287 3.58211 5.50684 3.69238L5.5 3.75V12H4V3.75C4 2.7835 4.7835 2 5.75 2H13.5859ZM8.5 19.5C8.08579 19.5 7.75 19.8358 7.75 20.25C7.75 20.6642 8.08579 21 8.5 21C8.91421 21 9.25 20.6642 9.25 20.25C9.25 19.8358 8.91421 19.5 8.5 19.5ZM8.5 14C8.1203 14 7.8065 14.2824 7.75684 14.6484L7.75 14.75V18.25C7.75 18.6642 8.08579 19 8.5 19C8.8797 19 9.1935 18.7176 9.24316 18.3516L9.25 18.25V14.75C9.25 14.3358 8.91421 14 8.5 14ZM14.5 7.25C14.5 7.36822 14.5821 7.46714 14.6924 7.49316L14.75 7.5H17.3799L14.5 4.62109V7.25Z" fill="#1C1C1C"/>
</svg>
