<svg width="24" height="24" viewBox="0 0 24 24" fill="none" xmlns="http://www.w3.org/2000/svg">
<path fill-rule="evenodd" clip-rule="evenodd" d="M20.25 16.25C20.6297 16.25 20.9435 16.5322 20.9932 16.8982L21 17V18.25C21 20.2543 19.4276 21.8913 17.4492 21.9948L17.25 22H6.75C4.74574 22 3.10873 20.4276 3.0052 18.4492L3 18.25V17C3 16.5858 3.33579 16.25 3.75 16.25C4.1297 16.25 4.44349 16.5322 4.49315 16.8982L4.5 17V18.25C4.5 19.4409 5.42516 20.4156 6.59595 20.4948L6.75 20.5H17.25C18.4409 20.5 19.4156 19.5748 19.4948 18.404L19.5 18.25V17C19.5 16.5858 19.8358 16.25 20.25 16.25ZM16.75 17C17.1642 17 17.5 17.3358 17.5 17.75C17.5 18.1642 17.1642 18.5 16.75 18.5H7.25C6.83579 18.5 6.5 18.1642 6.5 17.75C6.5 17.3358 6.83579 17 7.25 17H16.75ZM12 2C12.3797 2 12.6935 2.28215 12.7432 2.64823L12.75 2.75V11.939L14.9697 9.71967C15.2626 9.42678 15.7374 9.42678 16.0303 9.71967C16.2966 9.98594 16.3208 10.4026 16.1029 10.6962L16.0303 10.7803L12.5303 14.2803C12.5057 14.3049 12.4794 14.3278 12.4516 14.3488L12.5303 14.2803L12.4884 14.3192L12.4364 14.3601L12.3215 14.4278L12.2241 14.4659L12.1402 14.4869L12.0523 14.4982L12 14.5L11.9477 14.4982L11.829 14.4804L11.7307 14.4502L11.631 14.4031L11.5486 14.349L11.4697 14.2803L7.96967 10.7803C7.67678 10.4874 7.67678 10.0126 7.96967 9.71967C8.23594 9.4534 8.6526 9.4292 8.94621 9.64705L9.03033 9.71967L11.25 11.939V2.75C11.25 2.33579 11.5858 2 12 2Z" fill="#1C1C1C"/>
</svg>
