<svg width="24" height="24" viewBox="0 0 24 24" fill="none" xmlns="http://www.w3.org/2000/svg">
<path fill-rule="evenodd" clip-rule="evenodd" d="M16.0126 4.51256C16.6558 3.86935 17.6751 3.83151 18.3626 4.39905L18.4874 4.51256L20.0732 6.09835C20.7164 6.74157 20.7543 7.76092 20.1867 8.44839L20.0732 8.57322L8.06066 20.5858H4V16.5251L16.0126 4.51256ZM14.499 8.146L5.5 17.1458V19.0858H7.438L16.438 10.085L14.499 8.146ZM17.4268 5.57322C17.3454 5.49186 17.2219 5.4783 17.1265 5.53254L17.0732 5.57322L15.56 7.085L17.499 9.024L19.0126 7.51256C19.0776 7.44748 19.0993 7.35543 19.0776 7.27237L19.0532 7.21232L19.0126 7.15901L17.4268 5.57322Z" fill="#1C1C1C"/>
</svg>
