<svg width="24" height="24" viewBox="0 0 24 24" fill="none" xmlns="http://www.w3.org/2000/svg">
<path fill-rule="evenodd" clip-rule="evenodd" d="M20.25 20.5C20.6642 20.5 21 20.8358 21 21.25C21 21.6642 20.6642 22 20.25 22H3.75C3.33579 22 3 21.6642 3 21.25C3 20.8358 3.33579 20.5 3.75 20.5H20.25ZM16.0126 2.92675C16.6558 2.28353 17.6751 2.24569 18.3626 2.81324L18.4874 2.92675L20.0732 4.51253C20.7164 5.15575 20.7543 6.1751 20.1867 6.86257L20.0732 6.98741L8.06066 19H4V14.9393L16.0126 2.92675ZM14.499 6.56018L5.5 15.56V17.5H7.438L16.438 8.49918L14.499 6.56018ZM17.4268 3.98741C17.3454 3.90605 17.2219 3.89249 17.1265 3.94673L17.0732 3.98741L15.56 5.49918L17.499 7.43818L19.0126 5.92675C19.0776 5.86166 19.0993 5.76961 19.0776 5.68655L19.0532 5.6265L19.0126 5.57319L17.4268 3.98741Z" fill="#1C1C1C"/>
</svg>
