<svg width="24" height="24" viewBox="0 0 24 24" fill="none" xmlns="http://www.w3.org/2000/svg">
<path fill-rule="evenodd" clip-rule="evenodd" d="M20.3712 18.835L21.9354 20.3995C22.1304 20.5949 22.2279 20.8508 22.2279 21.1068C22.2279 21.3629 22.1302 21.6188 21.9354 21.814L21.5428 22.2069C21.3478 22.4023 21.092 22.5001 20.8361 22.5002C20.5801 22.5004 20.3241 22.4027 20.1289 22.2076L18.5642 20.642L20.3712 18.835ZM7.49999 16C9.9339 16 11.3805 17.3164 11.8398 19.9493C12.0058 20.9014 11.3686 21.8079 10.4165 21.974C10.3172 21.9913 10.2166 22 10.1158 22H4.88419C3.91769 22 3.13419 21.2165 3.13419 20.25C3.13419 20.1492 3.1429 20.0486 3.16022 19.9493C3.61949 17.3164 5.06608 16 7.49999 16ZM14.9992 18.5L16.4982 20H13.2122L13.2023 19.937C13.1038 19.4214 12.9808 18.9424 12.8334 18.5002L14.9992 18.5ZM15.4532 13.9142L19.6652 18.127L17.8572 19.935L13.6467 15.7216L13.6424 13.9604L15.4532 13.9142ZM15.2751 2C15.7392 2 16.1844 2.18437 16.5126 2.51256L20.4874 6.48744C20.8156 6.81563 21 7.26074 21 7.72487L20.9992 18.059L19.4992 16.558L19.5 8.25H16.5C15.5818 8.25 14.8288 7.54289 14.7558 6.64353L14.75 6.5V3.5H7.74999C7.63164 3.5 7.5325 3.58223 7.50659 3.69268L7.49999 3.75V9.5C6.96031 9.5 6.44651 9.66392 5.99944 9.96386L5.99999 3.75C5.99999 2.7835 6.78349 2 7.74999 2H15.2751ZM7.5 10.5C8.60457 10.5 9.5 11.6193 9.5 13C9.5 14.3807 8.60457 15.5 7.5 15.5C6.39543 15.5 5.5 14.3807 5.5 13C5.5 11.6193 6.39543 10.5 7.5 10.5ZM14.75 11.5C15.1642 11.5 15.5 11.8358 15.5 12.25C15.5 12.6642 15.1642 13 14.75 13H11.25C10.8358 13 10.5 12.6642 10.5 12.25C10.5 11.8358 10.8358 11.5 11.25 11.5H14.75ZM16.2492 4.37097L16.25 6.49997C16.25 6.61832 16.3322 6.71746 16.4427 6.74337L16.5 6.74997H18.6282L16.2492 4.37097Z" fill="#1C1C1C"/>
</svg>
