<svg width="24" height="24" viewBox="0 0 24 24" fill="none" xmlns="http://www.w3.org/2000/svg">
<path fill-rule="evenodd" clip-rule="evenodd" d="M19.25 3C20.2165 3 21 3.7835 21 4.75V19.25C21 20.2165 20.2165 21 19.25 21H4.75C3.7835 21 3 20.2165 3 19.25V4.75C3 3.7835 3.7835 3 4.75 3H19.25ZM19.5 6H4.5V19.25C4.5 19.3683 4.58223 19.4675 4.69268 19.4934L4.75 19.5H19.25C19.3683 19.5 19.4675 19.4178 19.4934 19.3073L19.5 19.25V6ZM12.25 8C12.5261 8 12.75 8.22386 12.75 8.5V17.5C12.75 17.7761 12.5261 18 12.25 18H11.75C11.4739 18 11.25 17.7761 11.25 17.5V8.5C11.25 8.22386 11.4739 8 11.75 8H12.25ZM8.75 15.5C9.16421 15.5 9.5 15.8358 9.5 16.25C9.5 16.6642 9.16421 17 8.75 17H6.75C6.33579 17 6 16.6642 6 16.25C6 15.8358 6.33579 15.5 6.75 15.5H8.75ZM8.75 12C9.16421 12 9.5 12.3358 9.5 12.75C9.5 13.1642 9.16421 13.5 8.75 13.5H6.75C6.33579 13.5 6 13.1642 6 12.75C6 12.3358 6.33579 12 6.75 12H8.75ZM8.75 8.5C9.16421 8.5 9.5 8.83579 9.5 9.25C9.5 9.66421 9.16421 10 8.75 10H6.75C6.33579 10 6 9.66421 6 9.25C6 8.83579 6.33579 8.5 6.75 8.5H8.75ZM17.25 8.5C17.6642 8.5 18 8.83579 18 9.25C18 9.66421 17.6642 10 17.25 10H15.25C14.8358 10 14.5 9.66421 14.5 9.25C14.5 8.83579 14.8358 8.5 15.25 8.5H17.25Z" fill="#1C1C1C"/>
</svg>
