<svg width="24" height="24" viewBox="0 0 24 24" fill="none" xmlns="http://www.w3.org/2000/svg">
<path fill-rule="evenodd" clip-rule="evenodd" d="M10.775 17.7495C11.4769 18.6811 13.4505 19.3773 15.8474 19.4853L16.2254 19.4974L16.5 19.5L16.8559 19.4951C19.3856 19.434 21.4944 18.7193 22.2251 17.7502C22.4037 17.9864 22.5 18.2385 22.5 18.5C22.5 19.8807 19.8137 21 16.5 21C13.1863 21 10.5 19.8807 10.5 18.5C10.5 18.2385 10.5963 17.9864 10.775 17.7495ZM10.775 14.7495C11.4769 15.6811 13.4505 16.3773 15.8474 16.4853L16.2254 16.4974L16.5 16.5L16.8559 16.4951C19.3856 16.434 21.4944 15.7193 22.2251 14.7502C22.4037 14.9864 22.5 15.2385 22.5 15.5C22.5 16.8807 19.8137 18 16.5 18C13.1863 18 10.5 16.8807 10.5 15.5C10.5 15.2385 10.5963 14.9864 10.775 14.7495ZM6.25 14C7.07843 14 7.75 14.6716 7.75 15.5C7.75 16.3284 7.07843 17 6.25 17C5.42157 17 4.75 16.3284 4.75 15.5C4.75 14.6716 5.42157 14 6.25 14ZM18 3C18.9182 3 19.6712 3.70711 19.7442 4.60647L19.75 4.75L19.7515 9.36741C18.794 9.13539 17.6844 9 16.5 9C14.6913 9 13.057 9.31573 11.8727 9.80916C11.1776 10.0988 10.6263 10.4556 10.2452 10.8389C9.78735 11.2995 9.55002 11.8085 9.50713 12.3269L9.5 12.5V15.25L8.73765 15.25C8.61755 14.0405 7.63544 13.0846 6.41438 13.0053L6.25 13C4.95367 13 3.88779 13.9867 3.76235 15.25L2.25 15.25L2.14823 15.2432C1.81543 15.198 1.55199 14.9346 1.50685 14.6018L1.5 14.5V9.92857L1.50781 9.82057C1.52335 9.71384 1.56173 9.61167 1.62033 9.52112L1.68557 9.43469L4.68557 6.00612L4.76181 5.93064C4.86985 5.83799 5.00212 5.77797 5.14299 5.75767L5.25 5.75H7.75V4.75C7.75 3.83183 8.45711 3.07881 9.35647 3.0058L9.5 3H18ZM16.5 10C19.8137 10 22.5 11.1193 22.5 12.5C22.5 13.8807 19.8137 15 16.5 15C13.1863 15 10.5 13.8807 10.5 12.5C10.5 11.1193 13.1863 10 16.5 10ZM16.5 11.5C15.0749 11.5 13.7575 11.7322 12.8343 12.1168C12.5614 12.2306 12.3418 12.3504 12.1838 12.4636L12.136 12.5L12.1838 12.5364C12.3102 12.627 12.476 12.7218 12.677 12.8143L12.8343 12.8832C13.7575 13.2678 15.0749 13.5 16.5 13.5C17.9251 13.5 19.2425 13.2678 20.1657 12.8832C20.4386 12.7694 20.6582 12.6496 20.8162 12.5364L20.863 12.499L20.8162 12.4636C20.6898 12.373 20.524 12.2782 20.323 12.1857L20.1657 12.1168C19.2425 11.7322 17.9251 11.5 16.5 11.5ZM7 7.25H5.59L4 9.068V10H7V7.25Z" fill="#1C1C1C"/>
</svg>
