<svg width="24" height="24" viewBox="0 0 24 24" fill="none" xmlns="http://www.w3.org/2000/svg">
<path fill-rule="evenodd" clip-rule="evenodd" d="M7.5 16C9.93391 16 11.3805 17.3164 11.8398 19.9493C12.0058 20.9014 11.3686 21.8079 10.4165 21.974C10.3172 21.9913 10.2166 22 10.1158 22H4.8842C3.9177 22 3.1342 21.2165 3.1342 20.25C3.1342 20.1492 3.14291 20.0486 3.16023 19.9493C3.6195 17.3164 5.06609 16 7.5 16ZM21.7634 12.2506C21.918 12.4899 22 12.7411 22 13C22 14.2716 20.0223 15.3584 17.2302 15.7951L16.7139 15.8672C16.0141 15.9536 15.2706 16 14.5 16C13.2497 16 12.0709 15.8777 11.0343 15.6612C10.7124 15.3891 10.3576 15.1652 9.97108 14.989C10.1458 14.6949 10.2838 14.3631 10.375 14.0055C11.3198 14.2555 12.4174 14.4221 13.5998 14.4787L14.2123 14.4979L14.5 14.5L14.9525 14.4942C18.2458 14.4162 20.9665 13.4879 21.7634 12.2506ZM7.5 10.5C8.60457 10.5 9.5 11.6193 9.5 13C9.5 14.3807 8.60457 15.5 7.5 15.5C6.39543 15.5 5.5 14.3807 5.5 13C5.5 11.6193 6.39543 10.5 7.5 10.5ZM21.7634 8.75061C21.918 8.98987 22 9.24113 22 9.50004C22 10.7716 20.0223 11.8584 17.2302 12.2951L16.7139 12.3672C16.0141 12.4536 15.2706 12.5 14.5 12.5C12.9762 12.5 11.5586 12.3183 10.3752 12.006C10.243 11.4707 10.0037 10.9934 9.69508 10.6076C9.55178 10.4285 9.39398 10.2686 9.22431 10.13C10.3883 10.5932 11.93 10.9031 13.6476 10.9809L14.2123 10.9979L14.5 11L14.9525 10.9942C18.2458 10.9162 20.9665 9.98793 21.7634 8.75061ZM14.5 3C15.2706 3 16.0141 3.04649 16.7139 3.13284L17.2302 3.20498C20.0223 3.64169 22 4.72846 22 6C22 7.27154 20.0223 8.35831 17.2302 8.79502L16.7139 8.86716C16.0141 8.95351 15.2706 9 14.5 9C13.7294 9 12.9859 8.95351 12.2861 8.86716L11.7698 8.79502C8.97767 8.35831 7 7.27154 7 6C7 4.72846 8.97767 3.64169 11.7698 3.20498L12.2861 3.13284C12.9859 3.04649 13.7294 3 14.5 3ZM14.5 4.5C12.6646 4.5 10.9622 4.78802 9.75379 5.27139C9.29809 5.45367 8.94392 5.65243 8.71193 5.84166L8.538 6L8.62005 6.0779C8.8448 6.29045 9.23299 6.52029 9.75379 6.72861C10.9622 7.21198 12.6646 7.5 14.5 7.5C16.3354 7.5 18.0378 7.21198 19.2462 6.72861C19.7019 6.54633 20.0561 6.34757 20.2881 6.15834L20.461 6L20.38 5.9221C20.1552 5.70955 19.767 5.47971 19.2462 5.27139C18.0378 4.78802 16.3354 4.5 14.5 4.5Z" fill="#1C1C1C"/>
</svg>
