<svg width="24" height="24" viewBox="0 0 24 24" fill="none" xmlns="http://www.w3.org/2000/svg">
<path fill-rule="evenodd" clip-rule="evenodd" d="M10.275 17.7495C10.9769 18.6811 12.9505 19.3773 15.3474 19.4853L15.7254 19.4974L16 19.5L16.3559 19.4951C18.8856 19.434 20.9944 18.7193 21.7251 17.7502C21.9037 17.9864 22 18.2385 22 18.5C22 19.8807 19.3137 21 16 21C12.6863 21 10 19.8807 10 18.5C10 18.2385 10.0963 17.9864 10.275 17.7495ZM14.25 3C15.2165 3 16 3.7835 16 4.75V9C15.4839 9 14.9821 9.0257 14.5008 9.0739L14.5 5.5H3.5V16.25C3.5 16.3683 3.58223 16.4675 3.69268 16.4934L3.75 16.5H9V18H3.75C2.7835 18 2 17.2165 2 16.25V4.75C2 3.7835 2.7835 3 3.75 3H14.25ZM10.275 14.7495C10.9769 15.6811 12.9505 16.3773 15.3474 16.4853L15.7254 16.4974L16 16.5L16.3559 16.4951C18.8856 16.434 20.9944 15.7193 21.7251 14.7502C21.9037 14.9864 22 15.2385 22 15.5C22 16.8807 19.3137 18 16 18C12.6863 18 10 16.8807 10 15.5C10 15.2385 10.0963 14.9864 10.275 14.7495ZM16 10C19.3137 10 22 11.1193 22 12.5C22 13.8807 19.3137 15 16 15C12.6863 15 10 13.8807 10 12.5C10 11.1193 12.6863 10 16 10ZM7.75 13C8.16421 13 8.5 13.3358 8.5 13.75C8.5 14.1642 8.16421 14.5 7.75 14.5H6.25C5.83579 14.5 5.5 14.1642 5.5 13.75C5.5 13.3358 5.83579 13 6.25 13H7.75ZM16 11.5C14.5749 11.5 13.2575 11.7322 12.3343 12.1168C12.0614 12.2306 11.8418 12.3504 11.6838 12.4636L11.636 12.5L11.6838 12.5364C11.8102 12.627 11.976 12.7218 12.177 12.8143L12.3343 12.8832C13.2575 13.2678 14.5749 13.5 16 13.5C17.4251 13.5 18.7425 13.2678 19.6657 12.8832C19.9386 12.7694 20.1582 12.6496 20.3162 12.5364L20.363 12.499L20.3162 12.4636C20.1898 12.373 20.024 12.2782 19.823 12.1857L19.6657 12.1168C18.7425 11.7322 17.4251 11.5 16 11.5ZM8.25 10C8.66421 10 9 10.3358 9 10.75C9 11.1642 8.66421 11.5 8.25 11.5H6.25C5.83579 11.5 5.5 11.1642 5.5 10.75C5.5 10.3358 5.83579 10 6.25 10H8.25ZM11.75 7C12.1642 7 12.5 7.33579 12.5 7.75C12.5 8.16421 12.1642 8.5 11.75 8.5H6.25C5.83579 8.5 5.5 8.16421 5.5 7.75C5.5 7.33579 5.83579 7 6.25 7H11.75Z" fill="#1C1C1C"/>
</svg>
