<svg width="24" height="24" viewBox="0 0 24 24" fill="none" xmlns="http://www.w3.org/2000/svg">
<path fill-rule="evenodd" clip-rule="evenodd" d="M7.5 16C9.93391 16 11.3805 17.3164 11.8398 19.9493C12.0058 20.9014 11.3686 21.8079 10.4165 21.974C10.3172 21.9913 10.2166 22 10.1158 22H4.8842C3.9177 22 3.1342 21.2165 3.1342 20.25C3.1342 20.1492 3.14291 20.0486 3.16023 19.9493C3.6195 17.3164 5.06609 16 7.5 16ZM7.75 3.5C7.63165 3.5 7.53251 3.58223 7.5066 3.69268L7.5 3.75V9.5C6.96033 9.5 6.44652 9.66392 5.99946 9.96386L6 3.75C6 2.7835 6.7835 2 7.75 2H15.2751C15.7393 2 16.1844 2.18437 16.5126 2.51256L20.4874 6.48744C20.8156 6.81563 21 7.26074 21 7.72487V18.25C21 19.2165 20.2165 20 19.25 20H13.2122L13.2023 19.937C13.1038 19.4214 12.9808 18.9424 12.8334 18.5002L19.25 18.5C19.3683 18.5 19.4675 18.4178 19.4934 18.3073L19.5 18.25V8.25H16.5C15.5818 8.25 14.8288 7.54289 14.7558 6.64353L14.75 6.5V3.5H7.75ZM7.5 10.5C8.60457 10.5 9.5 11.6193 9.5 13C9.5 14.3807 8.60457 15.5 7.5 15.5C6.39543 15.5 5.5 14.3807 5.5 13C5.5 11.6193 6.39543 10.5 7.5 10.5ZM17.25 13.5C17.6642 13.5 18 13.8358 18 14.25C18 14.6642 17.6642 15 17.25 15H11.75C11.3358 15 11 14.6642 11 14.25C11 13.8358 11.3358 13.5 11.75 13.5H17.25ZM17.25 10.5C17.6642 10.5 18 10.8358 18 11.25C18 11.6642 17.6642 12 17.25 12H11.25C10.8358 12 10.5 11.6642 10.5 11.25C10.5 10.8358 10.8358 10.5 11.25 10.5H17.25ZM18.6282 6.74997L16.2492 4.37097L16.25 6.49997C16.25 6.61832 16.3322 6.71746 16.4427 6.74337L16.5 6.74997H18.6282Z" fill="#1C1C1C"/>
</svg>
