<svg width="24" height="24" viewBox="0 0 24 24" fill="none" xmlns="http://www.w3.org/2000/svg">
<path fill-rule="evenodd" clip-rule="evenodd" d="M19.5 8L22.5 11V19.25C22.5 20.2165 21.7165 21 20.75 21H13.25C12.2835 21 11.5 20.2165 11.5 19.25V9.75C11.5 8.7835 12.2835 8 13.25 8H19.5ZM18.5 9.5H13.25C13.1317 9.5 13.0325 9.58223 13.0066 9.69268L13 9.75V19.25C13 19.3683 13.0822 19.4675 13.1927 19.4934L13.25 19.5H20.75C20.8683 19.5 20.9675 19.4178 20.9934 19.3073L21 19.25V12H18.5V9.5ZM18.75 16.5C19.1642 16.5 19.5 16.8358 19.5 17.25C19.5 17.6642 19.1642 18 18.75 18H15.25C14.8358 18 14.5 17.6642 14.5 17.25C14.5 16.8358 14.8358 16.5 15.25 16.5H18.75ZM6.25 14C7.07843 14 7.75 14.6716 7.75 15.5C7.75 16.3284 7.07843 17 6.25 17C5.42157 17 4.75 16.3284 4.75 15.5C4.75 14.6716 5.42157 14 6.25 14ZM18 3C18.9182 3 19.6712 3.70711 19.7442 4.60647L19.75 4.75V7H13.4792C12.7313 7 12.0478 7.25438 11.5246 7.67453L11.3726 7.80546C10.8784 8.26164 10.557 8.87734 10.5069 9.56172L10.5 9.75V15.25H8.73765C8.61755 14.0405 7.63544 13.0846 6.41438 13.0053L6.25 13C4.95367 13 3.88779 13.9867 3.76235 15.25H2.25L2.14823 15.2432C1.81543 15.198 1.55199 14.9346 1.50685 14.6018L1.5 14.5V9.92857L1.50781 9.82057C1.52335 9.71384 1.56173 9.61167 1.62033 9.52112L1.68557 9.43469L4.68557 6.00612L4.76181 5.93064C4.86985 5.83799 5.00212 5.77797 5.14299 5.75767L5.25 5.75H7.75V4.75C7.75 3.83183 8.45711 3.07881 9.35647 3.0058L9.5 3H18ZM18.75 13.5C19.1642 13.5 19.5 13.8358 19.5 14.25C19.5 14.6642 19.1642 15 18.75 15H15.25C14.8358 15 14.5 14.6642 14.5 14.25C14.5 13.8358 14.8358 13.5 15.25 13.5H18.75ZM7 7.25H5.59L4 9.068V10H7V7.25Z" fill="#1C1C1C"/>
</svg>
