<svg width="24" height="24" viewBox="0 0 24 24" fill="none" xmlns="http://www.w3.org/2000/svg">
<path fill-rule="evenodd" clip-rule="evenodd" d="M20.25 4C21.2165 4 22 4.7835 22 5.75V11.8891L20.5 11.889V6.339L12.4605 12.592C12.2197 12.7793 11.8933 12.8001 11.6335 12.6544L11.5395 12.592L3.5 6.339V18.25C3.5 18.3683 3.58223 18.4675 3.69268 18.4934L3.75 18.5H12V20H3.75C2.7835 20 2 19.2165 2 18.25V5.75C2 4.7835 2.7835 4 3.75 4H20.25ZM21.7803 13.7197C22.0466 13.9859 22.0708 14.4026 21.8529 14.6962L21.7803 14.7803L16.7803 19.7803C16.5141 20.0466 16.0974 20.0708 15.8038 19.8529L15.7197 19.7803L12.7197 16.7803C12.4268 16.4874 12.4268 16.0126 12.7197 15.7197C12.9859 15.4534 13.4026 15.4292 13.6962 15.6471L13.7803 15.7197L16.25 18.189L20.7197 13.7197C21.0126 13.4268 21.4874 13.4268 21.7803 13.7197ZM19.134 5.5H4.86499L12 11.049L19.134 5.5Z" fill="#1C1C1C"/>
</svg>
