<svg width="24" height="24" viewBox="0 0 24 24" fill="none" xmlns="http://www.w3.org/2000/svg">
<path fill-rule="evenodd" clip-rule="evenodd" d="M20.25 4C21.2165 4 22 4.7835 22 5.75V18.25C22 19.2165 21.2165 20 20.25 20H3.75C2.7835 20 2 19.2165 2 18.25V5.75C2 4.7835 2.7835 4 3.75 4H20.25ZM20.5 6.33899L12.4605 12.592C12.2197 12.7792 11.8933 12.8001 11.6335 12.6544L11.5395 12.592L3.5 6.33899V18.25C3.5 18.3683 3.58223 18.4675 3.69268 18.4934L3.75 18.5H20.25C20.3683 18.5 20.4675 18.4178 20.4934 18.3073L20.5 18.25V6.33899ZM19.134 5.5H4.86501L12 11.049L19.134 5.5Z" fill="#1C1C1C"/>
</svg>
