<svg width="24" height="24" viewBox="0 0 24 24" fill="none" xmlns="http://www.w3.org/2000/svg">
<path d="M21.8623 5.06934C21.9508 5.2786 22 5.50852 22 5.75V18.25C22 19.2165 21.2165 20 20.25 20H3.75C2.7835 20 2 19.2165 2 18.25V5.75C2 5.50865 2.04836 5.27851 2.13672 5.06934L10.9062 12.0859C11.5453 12.5972 12.4537 12.597 13.0928 12.0859L21.8623 5.06934ZM20.25 4C20.4118 4 20.5681 4.02336 20.7168 4.06445L12.1562 10.9141C12.0649 10.9871 11.9351 10.9871 11.8438 10.9141L3.28223 4.06445C3.43122 4.02319 3.58788 4 3.75 4H20.25Z" fill="#1C1C1C"/>
</svg>
