<svg width="24" height="24" viewBox="0 0 24 24" fill="none" xmlns="http://www.w3.org/2000/svg">
<path fill-rule="evenodd" clip-rule="evenodd" d="M19.25 3C20.2165 3 21 3.7835 21 4.75V19.25C21 20.2165 20.2165 21 19.25 21H13.5V19.5H19.25C19.3683 19.5 19.4675 19.4178 19.4934 19.3073L19.5 19.25V4.75C19.5 4.63165 19.4178 4.53251 19.3073 4.5066L19.25 4.5H4.75C4.63165 4.5 4.53251 4.58223 4.5066 4.69268L4.5 4.75V10.5H3V4.75C3 3.7835 3.7835 3 4.75 3H19.25ZM10.25 12C11.2165 12 12 12.7835 12 13.75V19.25C12 20.2165 11.2165 21 10.25 21H4.75C3.7835 21 3 20.2165 3 19.25V13.75C3 12.7835 3.7835 12 4.75 12H10.25ZM10.25 13.5H4.75C4.63165 13.5 4.53251 13.5822 4.5066 13.6927L4.5 13.75V19.25C4.5 19.3683 4.58223 19.4675 4.69268 19.4934L4.75 19.5H10.25C10.3683 19.5 10.4675 19.4178 10.4934 19.3073L10.5 19.25V13.75C10.5 13.6317 10.4178 13.5325 10.3073 13.5066L10.25 13.5ZM17.5 5.75C17.8797 5.75 18.1935 6.03215 18.2432 6.39823L18.25 6.5V10C18.25 10.4142 17.9142 10.75 17.5 10.75C17.1203 10.75 16.8065 10.4678 16.7568 10.1018L16.75 10V8.31L13.5303 11.5303C13.2374 11.8232 12.7626 11.8232 12.4697 11.5303C12.2034 11.2641 12.1792 10.8474 12.3971 10.5538L12.4697 10.4697L15.688 7.25H14C13.6203 7.25 13.3065 6.96785 13.2568 6.60177L13.25 6.5C13.25 6.1203 13.5322 5.80651 13.8982 5.75685L14 5.75H17.5Z" fill="#1C1C1C"/>
</svg>
