<svg width="24" height="24" viewBox="0 0 24 24" fill="none" xmlns="http://www.w3.org/2000/svg">
<path fill-rule="evenodd" clip-rule="evenodd" d="M18.25 2C19.1682 2 19.9212 2.70711 19.9942 3.60647L20 3.75V19.75C20 19.9284 19.9364 20.0998 19.8227 20.2343L19.7485 20.3103L17.936 21.9228C17.6802 22.1504 17.3075 22.1732 17.0283 21.9911L16.939 21.9228L15.6252 20.7533L14.311 21.9228C14.0836 22.1251 13.7639 22.1656 13.4995 22.0442L13.4033 21.9911L13.314 21.9228L12.0002 20.7533L10.686 21.9228C10.4586 22.1251 10.1389 22.1656 9.87454 22.0442L9.7783 21.9911L9.68899 21.9228L8.37525 20.7533L7.06101 21.9228C6.83362 22.1251 6.51387 22.1656 6.24954 22.0442L6.1533 21.9911L6.06399 21.9228L4.25149 20.3103C4.11818 20.1917 4.03241 20.0304 4.00752 19.856L4 19.75V3.75C4 2.83183 4.70711 2.07881 5.60647 2.0058L5.75 2H18.25ZM18.25 3.5H5.75C5.63165 3.5 5.53251 3.58223 5.5066 3.69268L5.5 3.75L5.50025 19.4123L6.56325 20.3582L7.87649 19.1897C8.10388 18.9874 8.42363 18.9469 8.68796 19.0683L8.7842 19.1214L8.87351 19.1897L10.1883 20.3582L11.5015 19.1897C11.7289 18.9874 12.0486 18.9469 12.313 19.0683L12.4092 19.1214L12.4985 19.1897L13.8132 20.3582L15.1265 19.1897C15.3539 18.9874 15.6736 18.9469 15.938 19.0683L16.0342 19.1214L16.1235 19.1897L17.4382 20.3582L18.5002 19.4132L18.5 3.75C18.5 3.65532 18.4474 3.57294 18.3698 3.5305L18.3073 3.5066L18.25 3.5ZM15.75 13C16.1642 13 16.5 13.3358 16.5 13.75C16.5 14.1642 16.1642 14.5 15.75 14.5H8.25C7.83579 14.5 7.5 14.1642 7.5 13.75C7.5 13.3358 7.83579 13 8.25 13H15.75ZM12.75 9.5C13.1642 9.5 13.5 9.83579 13.5 10.25C13.5 10.6642 13.1642 11 12.75 11H8.25C7.83579 11 7.5 10.6642 7.5 10.25C7.5 9.83579 7.83579 9.5 8.25 9.5H12.75ZM15.75 6C16.1642 6 16.5 6.33579 16.5 6.75C16.5 7.16421 16.1642 7.5 15.75 7.5H8.25C7.83579 7.5 7.5 7.16421 7.5 6.75C7.5 6.33579 7.83579 6 8.25 6H15.75Z" fill="#1C1C1C"/>
</svg>
