<svg width="24" height="24" viewBox="0 0 24 24" fill="none" xmlns="http://www.w3.org/2000/svg">
<path fill-rule="evenodd" clip-rule="evenodd" d="M8.5 7.9989V9.4999H5.75C5.63165 9.4999 5.53251 9.58213 5.5066 9.69258L5.5 9.7499V20.2499C5.5 20.3682 5.58223 20.4674 5.69268 20.4933L5.75 20.4999H18.25C18.3683 20.4999 18.4675 20.4177 18.4934 20.3072L18.5 20.2499V9.7499C18.5 9.63155 18.4178 9.53241 18.3073 9.5065L18.25 9.4999H15.5V7.9989L18.25 7.9999C19.2165 7.9999 20 8.7834 20 9.7499V20.2499C20 21.2164 19.2165 21.9999 18.25 21.9999H5.75C4.7835 21.9999 4 21.2164 4 20.2499V9.7499C4 8.7834 4.7835 7.9999 5.75 7.9999L8.5 7.9989ZM11.9915 2L12.0924 2.00564L12.1676 2.01882L12.2475 2.04178L12.3547 2.08891L12.4462 2.147L12.5303 2.21962L15.5303 5.21962C15.8232 5.51252 15.8232 5.98739 15.5303 6.28028C15.2641 6.54655 14.8474 6.57076 14.5538 6.3529L14.4697 6.28028L12.75 4.56095V15.25C12.75 15.6642 12.4142 16 12 16C11.6203 16 11.3065 15.7178 11.2568 15.3517L11.25 15.25V4.56095L9.53033 6.28028C9.23744 6.57318 8.76256 6.57318 8.46967 6.28028C8.2034 6.01402 8.1792 5.59735 8.39705 5.30374L8.46967 5.21962L11.4697 2.21962C11.5084 2.18085 11.5504 2.1472 11.5947 2.11869L11.6832 2.06994L11.8016 2.02653L11.9077 2.00562C11.9354 2.00219 11.9635 2.00031 11.9915 2Z" fill="#1C1C1C"/>
</svg>
