<svg width="24" height="24" viewBox="0 0 24 24" fill="none" xmlns="http://www.w3.org/2000/svg">
<path fill-rule="evenodd" clip-rule="evenodd" d="M13.5858 2C13.851 2 14.1054 2.10536 14.2929 2.29289L19.7071 7.70711C19.8946 7.89464 20 8.149 20 8.41421V20.25C20 21.2165 19.2165 22 18.25 22H12.5V20.5H18.25C18.3683 20.5 18.4675 20.4178 18.4934 20.3073L18.5 20.25V9H14.75C13.8318 9 13.0788 8.29289 13.0058 7.39353L13 7.25V3.5H5.75C5.63165 3.5 5.53251 3.58223 5.5066 3.69268L5.5 3.75V12.5H4V3.75C4 2.7835 4.7835 2 5.75 2H13.5858ZM4.64823 14.5068L4.75 14.5H9.75L9.81947 14.5032L9.92137 14.5197L9.98928 14.539L10.0481 14.5616L10.119 14.5969L10.2014 14.651L10.2816 14.7209C10.3174 14.7567 10.3497 14.7967 10.3774 14.8388L10.4277 14.9282L10.4677 15.0318C10.4791 15.0689 10.4877 15.1081 10.4932 15.1482L10.5 15.25V20.25C10.5 20.6642 10.1642 21 9.75 21C9.3703 21 9.05651 20.7178 9.00685 20.3518L9 20.25V17.06L4.28033 21.7803C3.98744 22.0732 3.51256 22.0732 3.21967 21.7803C2.9534 21.5141 2.9292 21.0974 3.14705 20.8038L3.21967 20.7197L7.938 16H4.75C4.3703 16 4.05651 15.7178 4.00685 15.3518L4 15.25C4 14.8703 4.28215 14.5565 4.64823 14.5068ZM16.5 16.5V18.5H12.5V16.5H16.5ZM16.5 13.5V15.5H12.5V13.5H16.5ZM11.5 10.5V12.5H7.5V10.5H11.5ZM16.5 10.5V12.5H12.5V10.5H16.5ZM14.5 4.62097V7.24997C14.5 7.36832 14.5822 7.46746 14.6927 7.49337L14.75 7.49997H17.38L14.5 4.62097Z" fill="#1C1C1C"/>
</svg>
