<svg width="24" height="24" viewBox="0 0 24 24" fill="none" xmlns="http://www.w3.org/2000/svg">
<path fill-rule="evenodd" clip-rule="evenodd" d="M3.53034 2.46967C3.23745 2.17678 2.76258 2.17678 2.46968 2.46967C2.17679 2.76256 2.17679 3.23744 2.46968 3.53033L6.0746 7.13525C4.01857 8.59446 2.52397 10.7928 1.97756 13.3429C1.89077 13.7479 2.14875 14.1466 2.55377 14.2334C2.95879 14.3201 3.35748 14.0622 3.44426 13.6571C3.92914 11.3942 5.28945 9.45607 7.15324 8.21389L9.14141 10.2021C8.4353 10.9234 8 11.9109 8 13C8 15.2091 9.79086 17 12 17C13.0891 17 14.0766 16.5647 14.7979 15.8586L20.4697 21.5303C20.7626 21.8232 21.2374 21.8232 21.5303 21.5303C21.8232 21.2374 21.8232 20.7626 21.5303 20.4697L3.53034 2.46967ZM13.7372 14.7978L10.2022 11.2628C9.76746 11.7126 9.5 12.3251 9.5 13C9.5 14.3807 10.6193 15.5 12 15.5C12.6749 15.5 13.2874 15.2325 13.7372 14.7978ZM12.0611 9.00046L15.9995 12.9389C15.9672 10.7783 14.2217 9.03282 12.0611 9.00046ZM8.81508 5.75442L10.0327 6.97207C10.6651 6.82677 11.3236 6.75 12 6.75C16.1997 6.75 19.7099 9.70942 20.5558 13.6571C20.6425 14.0622 21.0412 14.3201 21.4463 14.2334C21.8513 14.1466 22.1093 13.7479 22.0225 13.3429C21.0315 8.71791 16.9216 5.25 12 5.25C10.8881 5.25 9.81755 5.42702 8.81508 5.75442Z" fill="#1C1C1C"/>
</svg>
