<svg width="24" height="24" viewBox="0 0 24 24" fill="none" xmlns="http://www.w3.org/2000/svg">
<path d="M11.9998 9C14.209 9 15.9998 10.7909 15.9998 13C15.9998 15.2091 14.209 17 11.9998 17C9.79076 16.9999 7.99982 15.2091 7.99982 13C7.99982 10.7909 9.79076 9.0001 11.9998 9ZM11.9998 10.5C10.6192 10.5001 9.49982 11.6193 9.49982 13C9.49982 14.3807 10.6192 15.4999 11.9998 15.5C13.3805 15.5 14.4998 14.3807 14.4998 13C14.4998 11.6193 13.3805 10.5 11.9998 10.5ZM11.9998 5.25C16.9214 5.25 21.0312 8.71788 22.0223 13.3428C22.1091 13.7478 21.8511 14.1466 21.4461 14.2334C21.0411 14.3201 20.6423 14.0622 20.5555 13.6572C19.7096 9.70951 16.1995 6.75 11.9998 6.75C7.80024 6.75009 4.29003 9.70957 3.44415 13.6572C3.35732 14.0622 2.95851 14.3202 2.55353 14.2334C2.14864 14.1465 1.89059 13.7477 1.97736 13.3428C2.96837 8.7179 7.07834 5.25009 11.9998 5.25Z" fill="#1C1C1C"/>
</svg>
