<svg width="24" height="24" viewBox="0 0 24 24" fill="none" xmlns="http://www.w3.org/2000/svg">
<path fill-rule="evenodd" clip-rule="evenodd" d="M20.25 2C20.6642 2 21 2.33579 21 2.75V4.75C21 4.91228 20.9474 5.07018 20.85 5.2L15.15 12.8C15.0526 12.9298 15 13.0877 15 13.25V19.9747C15 20.2901 14.8027 20.5717 14.5063 20.6795L10.5063 22.1341C10.117 22.2756 9.68671 22.0748 9.54516 21.6855C9.51528 21.6034 9.5 21.5166 9.5 21.4292V13.2663C9.5 13.094 9.44071 12.927 9.33209 12.7933L3.16791 5.20666C3.05929 5.07298 3 4.90597 3 4.73372V2.75C3 2.33579 3.33579 2 3.75 2H20.25Z" fill="#1C1C1C"/>
</svg>
