<svg width="24" height="24" viewBox="0 0 24 24" fill="none" xmlns="http://www.w3.org/2000/svg">
<path fill-rule="evenodd" clip-rule="evenodd" d="M19.25 3C20.2165 3 21 3.7835 21 4.75V19.25C21 20.2165 20.2165 21 19.25 21H4.75C3.7835 21 3 20.2165 3 19.25V4.75C3 3.7835 3.7835 3 4.75 3H19.25ZM18.3246 6.32391C17.9822 6.1596 17.5773 6.27818 17.3741 6.58672L17.3239 6.6755L13.2 15.2661L10.2761 9.1755L10.2191 9.07579C9.92593 8.64147 9.27408 8.64147 8.98093 9.07579L8.92386 9.1755L7.20001 12.7661L6.67615 11.6755L6.62594 11.5867C6.42275 11.2782 6.01776 11.1596 5.67546 11.3239C5.33315 11.4882 5.17236 11.8784 5.286 12.2299L5.32386 12.3246L6.52386 14.8246L6.58093 14.9243C6.87408 15.3586 7.52593 15.3586 7.81908 14.9243L7.87615 14.8246L9.60001 11.2331L12.5239 17.3246L12.5809 17.4243C12.8741 17.8586 13.5259 17.8586 13.8191 17.4243L13.8761 17.3246L18.6761 7.3246L18.714 7.22989C18.8277 6.87837 18.6669 6.48821 18.3246 6.32391Z" fill="#1C1C1C"/>
</svg>
