<svg width="24" height="24" viewBox="0 0 24 24" fill="none" xmlns="http://www.w3.org/2000/svg">
<path fill-rule="evenodd" clip-rule="evenodd" d="M18.1585 2.0171C18.5296 2.09734 18.7767 2.43943 18.7479 2.80774L18.7331 2.90866L17.686 7.75L20 7.75016C20.4142 7.75016 20.75 8.08594 20.75 8.50016C20.75 8.87985 20.4678 9.19365 20.1018 9.24331L20 9.25016L17.362 9.25L16.173 14.75L18.5 14.7502C18.9142 14.7502 19.25 15.0859 19.25 15.5002C19.25 15.8799 18.9678 16.1936 18.6018 16.2433L18.5 16.2502L15.848 16.25L14.7331 21.4087C14.6455 21.8135 14.2464 22.0708 13.8415 21.9832C13.4704 21.903 13.2233 21.5609 13.2521 21.1926L13.2669 21.0917L14.313 16.25H7.848L6.73306 21.4087C6.64552 21.8135 6.24636 22.0708 5.8415 21.9832C5.47038 21.903 5.2233 21.5609 5.25212 21.1926L5.26694 21.0917L6.313 16.25L4 16.2502C3.58579 16.2502 3.25 15.9144 3.25 15.5002C3.25 15.1205 3.53215 14.8067 3.89823 14.757L4 14.7502L6.637 14.75L7.826 9.25L5.5 9.25016C5.08579 9.25016 4.75 8.91437 4.75 8.50016C4.75 8.12046 5.03215 7.80667 5.39823 7.757L5.5 7.75016L8.151 7.75L9.26694 2.59166C9.35448 2.1868 9.75364 1.92956 10.1585 2.0171C10.5296 2.09734 10.7767 2.43943 10.7479 2.80774L10.7331 2.90866L9.686 7.75H16.151L17.2669 2.59166C17.3545 2.1868 17.7536 1.92956 18.1585 2.0171ZM14.637 14.75L15.826 9.25H9.362L8.173 14.75H14.637Z" fill="#1C1C1C"/>
</svg>
