<svg width="24" height="24" viewBox="0 0 24 24" fill="none" xmlns="http://www.w3.org/2000/svg">
<path fill-rule="evenodd" clip-rule="evenodd" d="M11.1161 2.82315C11.6043 2.33499 12.3957 2.33499 12.8839 2.82315L17.25 7.18926V6C17.25 5.58579 17.5858 5.25 18 5.25C18.4142 5.25 18.75 5.58579 18.75 6V8.68926L21.5303 11.4696C21.8232 11.7625 21.8232 12.2374 21.5303 12.5303C21.2374 12.8231 20.7626 12.8231 20.4697 12.5303L17.476 9.53662C17.4718 9.53245 17.4675 9.52823 17.4634 9.52396L12 4.06058L3.53033 12.5303C3.23744 12.8231 2.76256 12.8231 2.46967 12.5303C2.17678 12.2374 2.17678 11.7625 2.46967 11.4696L11.1161 2.82315ZM12.8839 6.07315L19.8839 13.0731C20.1183 13.3076 20.25 13.6255 20.25 13.957V20.2499C20.25 20.9403 19.6904 21.4999 19 21.4999H15C14.3096 21.4999 13.75 20.9403 13.75 20.2499V16.4999H10.25V20.2499C10.25 20.9403 9.69036 21.4999 9 21.4999H5C4.30964 21.4999 3.75 20.9403 3.75 20.2499V13.957C3.75 13.6255 3.8817 13.3076 4.11612 13.0731L11.1161 6.07315C11.6043 5.58499 12.3957 5.58499 12.8839 6.07315ZM12 7.31058L5.25 14.0606V19.9999H8.75V16.2499C8.75 15.5596 9.30964 14.9999 10 14.9999H14C14.6904 14.9999 15.25 15.5596 15.25 16.2499V19.9999H18.75V14.0606L12 7.31058Z" fill="#1C1C1C"/>
</svg>
