<svg width="24" height="24" viewBox="0 0 24 24" fill="none" xmlns="http://www.w3.org/2000/svg">
<path d="M20.25 5C21.2165 5 22 5.7835 22 6.75V17.25C22 18.2165 21.2165 19 20.25 19H3.75C2.7835 19 2 18.2165 2 17.25V6.75C2 5.7835 2.7835 5 3.75 5H20.25ZM3.75 6.5C3.63177 6.5 3.53287 6.58211 3.50684 6.69238L3.5 6.75V17.25C3.5 17.3682 3.58211 17.4671 3.69238 17.4932L3.75 17.5H20.25C20.3682 17.5 20.4671 17.4179 20.4932 17.3076L20.5 17.25V6.75C20.5 6.63177 20.4179 6.53287 20.3076 6.50684L20.25 6.5H3.75ZM8 11.7793C9.67237 11.7793 10.6659 12.6841 10.9814 14.4932C11.0955 15.1473 10.6581 15.7697 10.0039 15.8838C9.93567 15.8957 9.86614 15.9023 9.79688 15.9023H6.20215C5.53819 15.9022 5 15.3632 5 14.6992C5.00002 14.6302 5.00573 14.5612 5.01758 14.4932C5.33316 12.684 6.32757 11.7793 8 11.7793ZM18.25 14C18.6642 14 19 14.3358 19 14.75C19 15.1642 18.6642 15.5 18.25 15.5H13.75C13.3358 15.5 13 15.1642 13 14.75C13 14.3358 13.3358 14 13.75 14H18.25ZM18.25 11C18.6642 11 19 11.3358 19 11.75C19 12.1642 18.6642 12.5 18.25 12.5H13.75C13.3358 12.5 13 12.1642 13 11.75C13 11.3358 13.3358 11 13.75 11H18.25ZM8 8C8.75897 8 9.37399 8.76907 9.37402 9.71777C9.37402 10.6665 8.75899 11.4355 8 11.4355C7.24109 11.4354 6.62598 10.6664 6.62598 9.71777C6.62601 8.76914 7.24111 8.00012 8 8ZM18.25 8C18.6642 8 19 8.33579 19 8.75C19 9.16421 18.6642 9.5 18.25 9.5H12.25C11.8358 9.5 11.5 9.16421 11.5 8.75C11.5 8.33579 11.8358 8 12.25 8H18.25Z" fill="#1C1C1C"/>
</svg>
