<svg width="24" height="24" viewBox="0 0 24 24" fill="none" xmlns="http://www.w3.org/2000/svg">
<path fill-rule="evenodd" clip-rule="evenodd" d="M16.25 6C17.2165 6 18 6.7835 18 7.75V19.25C18 20.2165 17.2165 21 16.25 21H4.75C3.7835 21 3 20.2165 3 19.25V7.75C3 6.7835 3.7835 6 4.75 6H16.25ZM16.25 7.5H4.75C4.63165 7.5 4.53251 7.58223 4.5066 7.69268L4.5 7.75V19.25C4.5 19.3683 4.58223 19.4675 4.69268 19.4934L4.75 19.5H16.25C16.3683 19.5 16.4675 19.4178 16.4934 19.3073L16.5 19.25V7.75C16.5 7.63165 16.4178 7.53251 16.3073 7.5066L16.25 7.5ZM11.9865 14.3885L15.15 18.35H5.65002L8.02502 15.1866L9.63052 17.3335L11.9865 14.3885ZM19.25 3C20.1682 3 20.9212 3.70711 20.9942 4.60647L21 4.75V17.25C21 17.6642 20.6642 18 20.25 18C19.8703 18 19.5565 17.7178 19.5068 17.3518L19.5 17.25V4.75C19.5 4.63165 19.4178 4.53251 19.3073 4.5066L19.25 4.5H6.75C6.33579 4.5 6 4.16421 6 3.75C6 3.3703 6.28215 3.05651 6.64823 3.00685L6.75 3H19.25Z" fill="#1C1C1C"/>
</svg>
