<svg width="24" height="24" viewBox="0 0 24 24" fill="none" xmlns="http://www.w3.org/2000/svg">
<path fill-rule="evenodd" clip-rule="evenodd" d="M8.5 8V9.5H5.75C5.63165 9.5 5.53251 9.58223 5.5066 9.69268L5.5 9.75V20.25C5.5 20.3683 5.58223 20.4675 5.69268 20.4934L5.75 20.5H18.25C18.3683 20.5 18.4675 20.4178 18.4934 20.3073L18.5 20.25V9.75C18.5 9.63165 18.4178 9.53251 18.3073 9.5066L18.25 9.5H15.5V8H18.25C19.2165 8 20 8.7835 20 9.75V20.25C20 21.2165 19.2165 22 18.25 22H5.75C4.7835 22 4 21.2165 4 20.25V9.75C4 8.7835 4.7835 8 5.75 8H8.5ZM12 2C12.3797 2 12.6935 2.28215 12.7432 2.64823L12.75 2.75V13.439L14.4697 11.7197C14.7626 11.4268 15.2374 11.4268 15.5303 11.7197C15.7966 11.9859 15.8208 12.4026 15.6029 12.6962L15.5303 12.7803L12.5303 15.7803C12.4916 15.8191 12.4496 15.8527 12.4053 15.8813L12.3168 15.93L12.1984 15.9734L12.0923 15.9943L12.051 15.9983L11.9811 15.9998L11.9076 15.9943L11.8324 15.9811L11.7525 15.9582L11.6527 15.915C11.5865 15.8803 11.5248 15.8355 11.4697 15.7803L8.46967 12.7803C8.17678 12.4874 8.17678 12.0126 8.46967 11.7197C8.73594 11.4534 9.1526 11.4292 9.44621 11.6471L9.53033 11.7197L11.25 13.439V2.75C11.25 2.33579 11.5858 2 12 2Z" fill="#1C1C1C"/>
</svg>
