<svg width="24" height="24" viewBox="0 0 24 24" fill="none" xmlns="http://www.w3.org/2000/svg">
<path fill-rule="evenodd" clip-rule="evenodd" d="M19.25 3C20.2165 3 21 3.7835 21 4.75V19.25C21 20.2165 20.2165 21 19.25 21H4.75C3.7835 21 3 20.2165 3 19.25V4.75C3 3.7835 3.7835 3 4.75 3H19.25ZM11.25 15.25H4.5V19.25C4.5 19.3683 4.58223 19.4675 4.69268 19.4934L4.75 19.5H11.25V15.25ZM19.5 10.25H12.75V19.5H19.25C19.3683 19.5 19.4675 19.4178 19.4934 19.3073L19.5 19.25V10.25ZM16.5039 12.6328C16.9229 12.6328 17.2138 12.8921 17.2594 13.3024L17.2656 13.418V17.3633C17.2656 17.8047 17.0352 18.0508 16.6289 18.0508C16.256 18.0508 16.0317 17.8442 15.994 17.4779L15.9883 17.3633V13.8516H15.9727L15.5625 14.1289C15.3594 14.2578 15.25 14.2969 15.1211 14.2969C14.8633 14.2969 14.6758 14.1094 14.6758 13.8516C14.6758 13.6875 14.7619 13.5378 14.9316 13.4073L15.0234 13.3438L15.6602 12.918C15.9648 12.7227 16.2422 12.6328 16.5039 12.6328ZM11.25 4.5H4.75C4.63165 4.5 4.53251 4.58223 4.5066 4.69268L4.5 4.75V13.75H11.25V4.5ZM7.88281 6.57031C8.95703 6.57031 9.74219 7.22656 9.74219 8.12109C9.74219 8.62598 9.51899 9.07506 8.97932 9.63984L7.71094 10.9219V10.9766H9.33594C9.69922 10.9766 9.92578 11.1719 9.92578 11.4922C9.92578 11.777 9.74543 11.9605 9.44168 11.9943L9.33594 12H6.66406C6.28516 12 6.03516 11.7852 6.03516 11.457C6.03516 11.2487 6.13701 11.0651 6.43399 10.758L6.55469 10.6367L7.90625 9.24609C8.32422 8.82031 8.5 8.53906 8.5 8.24219C8.5 7.85938 8.22266 7.60156 7.8125 7.60156C7.48047 7.60156 7.23828 7.76953 7.06641 8.11719C6.89453 8.38281 6.74609 8.48438 6.51953 8.48438C6.21094 8.48438 5.99609 8.27344 5.99609 7.97656C5.99609 7.25 6.81641 6.57031 7.88281 6.57031ZM19.25 4.5H12.75V8.75H19.5V4.75C19.5 4.63165 19.4178 4.53251 19.3073 4.5066L19.25 4.5Z" fill="#1C1C1C"/>
</svg>
