<svg width="24" height="24" viewBox="0 0 24 24" fill="none" xmlns="http://www.w3.org/2000/svg">
<path fill-rule="evenodd" clip-rule="evenodd" d="M14.5 20.5V22H9.5V20.5H14.5ZM5.5 18V20.25C5.5 20.3683 5.58223 20.4675 5.69268 20.4934L5.75 20.5H8V22H5.75C4.7835 22 4 21.2165 4 20.25V18H5.5ZM20 18V20.25C20 21.2165 19.2165 22 18.25 22H16V20.5H18.25C18.3683 20.5 18.4675 20.4178 18.4934 20.3073L18.5 20.25V18H20ZM20 12.75V16.5H18.5V12.75H20ZM5.5 12.75V16.5H4V12.75H5.5ZM16.3258 2.67598C16.9692 2.03403 17.9875 1.99627 18.675 2.56269L18.7998 2.67598L19.3935 3.26935C19.9833 3.8578 20.07 4.77108 19.6038 5.48485L19.5099 5.61621L19.3949 5.74434L11.8906 13.2444L8.89128 13.2518L8.81308 10.1851L16.3258 2.67598ZM15.53 5.59204L10.328 10.791L10.353 11.748L11.267 11.746L16.476 6.53904L15.53 5.59204ZM20 9V11.25H18.5V9H20ZM5.5 7.5V11.25H4V7.5H5.5ZM8 2V3.5H5.75C5.63165 3.5 5.53251 3.58223 5.5066 3.69268L5.5 3.75V6H4V3.75C4 2.7835 4.7835 2 5.75 2H8ZM17.6868 3.6971C17.6102 3.6536 17.5155 3.65356 17.4391 3.69684L17.3858 3.73741L16.59 4.53202L17.536 5.47902L18.3554 4.65974C18.4041 4.59709 18.4182 4.51649 18.3986 4.44315L18.3775 4.38991L18.3336 4.33078L17.7399 3.73741L17.6868 3.6971ZM13 2V3.499L9.5 3.5V2H13Z" fill="#1C1C1C"/>
</svg>
