<svg width="24" height="24" viewBox="0 0 24 24" fill="none" xmlns="http://www.w3.org/2000/svg">
<path fill-rule="evenodd" clip-rule="evenodd" d="M20 3C20.5523 3 21 3.44772 21 4V20C21 20.5523 20.5523 21 20 21H14C13.4477 21 13 20.5523 13 20V4C13 3.44772 13.4477 3 14 3H20ZM10 3C10.5128 3 10.9355 3.38604 10.9933 3.88338L11 4V20C11 20.5128 10.614 20.9355 10.1166 20.9933L10 21H4C3.48716 21 3.06449 20.614 3.00673 20.1166L3 20V4C3 3.48716 3.38604 3.06449 3.88338 3.00673L4 3H10ZM19.5 4.5H14.5V19.5H19.5V4.5ZM9.5 4.5H4.5V19.5H9.5V4.5Z" fill="#1C1C1C"/>
</svg>
