<svg width="24" height="24" viewBox="0 0 24 24" fill="none" xmlns="http://www.w3.org/2000/svg">
<path fill-rule="evenodd" clip-rule="evenodd" d="M10 3C10.5128 3 10.9355 3.38604 10.9933 3.88338L11 4V20C11 20.5128 10.614 20.9355 10.1166 20.9933L10 21H4C3.48716 21 3.06449 20.614 3.00673 20.1166L3 20V4C3 3.48716 3.38604 3.06449 3.88338 3.00673L4 3H10ZM20 3C20.5128 3 20.9355 3.38604 20.9933 3.88338L21 4V20C21 20.5128 20.614 20.9355 20.1166 20.9933L20 21H14C13.4872 21 13.0645 20.614 13.0067 20.1166L13 20V4C13 3.48716 13.386 3.06449 13.8834 3.00673L14 3H20ZM9.5 4.5H4.5V19.5H9.5V4.5Z" fill="#1C1C1C"/>
</svg>
