<svg width="24" height="24" viewBox="0 0 24 24" fill="none" xmlns="http://www.w3.org/2000/svg">
<path fill-rule="evenodd" clip-rule="evenodd" d="M10.5 11.5C12.1892 11.5 13.593 11.8995 14.7115 12.6984C14.3683 13.0649 14.0866 13.4885 13.8814 13.9534C12.997 13.3067 11.876 13 10.5 13C7.12944 13 5.28859 14.8404 4.69356 19.0017C4.68476 19.0632 4.68034 19.1253 4.68034 19.1875C4.68034 19.8671 5.19681 20.426 5.85865 20.4932L5.99285 20.5H12.4993L12.5 22H5.99285C4.43954 22 3.18034 20.7408 3.18034 19.1875C3.18034 19.0543 3.1898 18.9213 3.20866 18.7894C3.90354 13.9298 6.33399 11.5 10.5 11.5ZM19.225 20.9744C19.1092 21.5596 18.6047 22 18 22C17.3952 22 16.8908 21.5596 16.775 20.9744H19.225ZM18 12C18.4561 12 18.841 12.3916 18.9611 12.9269C20.1461 13.3266 21 14.4482 21 15.7692V18.6667L21.8348 19.3088C22.0536 19.4772 22.0946 19.7911 21.9262 20.01C21.8505 20.1084 21.7416 20.1742 21.6216 20.1966L21.5299 20.2051H14.4701C14.1939 20.2051 13.9701 19.9813 13.9701 19.7051C13.9701 19.5499 14.0422 19.4035 14.1652 19.3088L15 18.6667V15.7692C15 14.4482 15.8539 13.3266 17.0398 12.9262C17.159 12.3916 17.5438 12 18 12ZM10.5 2C12.433 2 14 3.90279 14 6.25C14 8.59721 12.433 10.5 10.5 10.5C8.567 10.5 7 8.59721 7 6.25C7 3.90279 8.567 2 10.5 2ZM10.5 3.5C9.46673 3.5 8.5 4.67389 8.5 6.25C8.5 7.82611 9.46673 9 10.5 9C11.5333 9 12.5 7.82611 12.5 6.25C12.5 4.67389 11.5333 3.5 10.5 3.5Z" fill="#1C1C1C"/>
</svg>
