<svg width="24" height="24" viewBox="0 0 24 24" fill="none" xmlns="http://www.w3.org/2000/svg">
<path fill-rule="evenodd" clip-rule="evenodd" d="M7.25 16.5V18H4.75C4.33579 18 4 17.6642 4 17.25C4 16.8358 4.33579 16.5 4.75 16.5H7.25ZM19.25 16.5C19.6642 16.5 20 16.8358 20 17.25C20 17.6642 19.6642 18 19.25 18H16.75V16.5H19.25ZM11.5 16.5V18H8.25V16.5H11.5ZM15.75 16.5V18H12.5V16.5H15.75ZM7.25 12.999V14.499L4.75 14.5C4.33579 14.5 4 14.1642 4 13.75C4 13.3358 4.33579 13 4.75 13L7.25 12.999ZM19.25 13C19.6642 13 20 13.3358 20 13.75C20 14.1642 19.6642 14.5 19.25 14.5L16.75 14.499V12.999L19.25 13ZM11.5 12.999V14.499H8.25V12.999H11.5ZM15.75 12.999V14.499H12.5V12.999H15.75ZM7.25 9.5V11H4.75C4.33579 11 4 10.6642 4 10.25C4 9.83579 4.33579 9.5 4.75 9.5H7.25ZM19.25 9.5C19.6642 9.5 20 9.83579 20 10.25C20 10.6642 19.6642 11 19.25 11H16.75V9.5H19.25ZM11.5 9.5V11H8.25V9.5H11.5ZM15.75 9.5V11H12.5V9.5H15.75ZM7.25 6V7.5H4.75C4.33579 7.5 4 7.16421 4 6.75C4 6.33579 4.33579 6 4.75 6L7.25 6ZM19.25 6C19.6642 6 20 6.33579 20 6.75C20 7.16421 19.6642 7.5 19.25 7.5H16.75V6L19.25 6ZM11.5 6V7.5H8.25V6H11.5ZM15.75 6V7.5H12.5V6H15.75Z" fill="#1C1C1C"/>
</svg>
