<svg width="24" height="24" viewBox="0 0 24 24" fill="none" xmlns="http://www.w3.org/2000/svg">
<path fill-rule="evenodd" clip-rule="evenodd" d="M12 15.25C12.3797 15.25 12.6935 15.5322 12.7432 15.8982L12.75 16V19.439L13.9697 18.2197C14.2626 17.9268 14.7374 17.9268 15.0303 18.2197C15.2966 18.4859 15.3208 18.9026 15.1029 19.1962L15.0303 19.2803L12.5303 21.7803C12.5057 21.8049 12.4794 21.8278 12.4516 21.8488L12.5303 21.7803L12.4884 21.8192L12.4364 21.8601L12.3215 21.9278L12.2241 21.9659L12.1083 21.9922L12.0523 21.9982H11.9477L11.829 21.9804L11.7307 21.9502L11.631 21.9031L11.5486 21.849L11.4697 21.7803L8.96967 19.2803C8.67678 18.9874 8.67678 18.5126 8.96967 18.2197C9.23594 17.9534 9.6526 17.9292 9.94621 18.1471L10.0303 18.2197L11.25 19.439V16C11.25 15.5858 11.5858 15.25 12 15.25ZM7.25 12.499V13.999L4.75 14C4.33579 14 4 13.6642 4 13.25C4 12.8358 4.33579 12.5 4.75 12.5L7.25 12.499ZM19.25 12.5C19.6642 12.5 20 12.8358 20 13.25C20 13.6642 19.6642 14 19.25 14L16.75 13.999V12.499L19.25 12.5ZM11.5 12.499V13.999H8.25V12.499H11.5ZM15.75 12.499V13.999H12.5V12.499H15.75ZM7.25 8.99902V10.499L4.75 10.5C4.33579 10.5 4 10.1642 4 9.75002C4 9.33581 4.33579 9.00002 4.75 9.00002L7.25 8.99902ZM19.25 9.00002C19.6642 9.00002 20 9.33581 20 9.75002C20 10.1642 19.6642 10.5 19.25 10.5L16.75 10.499V8.99902L19.25 9.00002ZM11.5 8.99902V10.499H8.25V8.99902H11.5ZM15.75 8.99902V10.499H12.5V8.99902H15.75ZM19.25 5.5C19.6642 5.5 20 5.83579 20 6.25C20 6.66421 19.6642 7 19.25 7H4.75C4.33579 7 4 6.66421 4 6.25C4 5.83579 4.33579 5.5 4.75 5.5H19.25ZM19.25 2C19.6642 2 20 2.33579 20 2.75C20 3.16421 19.6642 3.5 19.25 3.5H4.75C4.33579 3.5 4 3.16421 4 2.75C4 2.33579 4.33579 2 4.75 2H19.25Z" fill="#1C1C1C"/>
</svg>
