<svg width="24" height="24" viewBox="0 0 24 24" fill="none" xmlns="http://www.w3.org/2000/svg">
<path fill-rule="evenodd" clip-rule="evenodd" d="M18.5673 12.1052C18.6428 12.1893 18.6793 12.3015 18.6676 12.4139L18.3764 15.2121L20.8113 16.6212C21.0025 16.7319 21.0678 16.9766 20.9571 17.1678C20.9005 17.2656 20.8051 17.335 20.6945 17.3586L17.9433 17.9463L17.3556 20.6975C17.3094 20.9135 17.0969 21.0513 16.8809 21.0051C16.7703 20.9815 16.6748 20.9122 16.6182 20.8143L15.2091 18.3794L12.4109 18.6706C12.1912 18.6935 11.9945 18.5339 11.9717 18.3141C11.96 18.2017 11.9964 18.0895 12.072 18.0054L13.9523 15.9128L12.8107 13.3416C12.721 13.1397 12.812 12.9033 13.0139 12.8137C13.1173 12.7678 13.2352 12.7678 13.3386 12.8137L15.9098 13.9553L18.0024 12.075C18.1667 11.9274 18.4196 11.9409 18.5673 12.1052ZM4.5 15V19.25C4.5 19.3683 4.58223 19.4675 4.69268 19.4934L4.75 19.5H11V21H4.75C3.7835 21 3 20.2165 3 19.25V15H4.5ZM10.7803 13.2803L7.78033 16.2803L7.69621 16.3529C7.4026 16.5708 6.98594 16.5466 6.71967 16.2803C6.4534 16.0141 6.4292 15.5974 6.64705 15.3038L6.71967 15.2197L8.438 13.5H2.75C2.33579 13.5 2 13.1642 2 12.75C2 12.3358 2.33579 12 2.75 12H8.439L6.71967 10.2803C6.42678 9.98744 6.42678 9.51256 6.71967 9.21967C6.98594 8.9534 7.4026 8.9292 7.69621 9.14705L7.78033 9.21967L10.7803 12.2197C10.8148 12.2541 10.8452 12.2911 10.8715 12.33L10.9261 12.4248L10.9612 12.5113L10.9876 12.6137L10.9982 12.6985L10.9968 12.8195L10.9803 12.9214L10.961 12.9893L10.9384 13.0481L10.9031 13.119L10.8437 13.2083L10.7803 13.2803ZM19.25 3C20.2165 3 21 3.7835 21 4.75V11H19.5V6H4.5V10.5H3V4.75C3 3.7835 3.7835 3 4.75 3H19.25Z" fill="#1C1C1C"/>
</svg>
