<svg width="24" height="24" viewBox="0 0 24 24" fill="none" xmlns="http://www.w3.org/2000/svg">
<path fill-rule="evenodd" clip-rule="evenodd" d="M19.25 20.5C19.6642 20.5 20 20.8358 20 21.25C20 21.6642 19.6642 22 19.25 22H4.75C4.33579 22 4 21.6642 4 21.25C4 20.8358 4.33579 20.5 4.75 20.5H19.25ZM19.25 17C19.6642 17 20 17.3358 20 17.75C20 18.1642 19.6642 18.5 19.25 18.5H4.75C4.33579 18.5 4 18.1642 4 17.75C4 17.3358 4.33579 17 4.75 17H19.25ZM19.25 13.5C19.6642 13.5 20 13.8358 20 14.25C20 14.6642 19.6642 15 19.25 15H4.75C4.33579 15 4 14.6642 4 14.25C4 13.8358 4.33579 13.5 4.75 13.5H19.25ZM19.25 10C19.6642 10 20 10.3358 20 10.75C20 11.1642 19.6642 11.5 19.25 11.5H4.75C4.33579 11.5 4 11.1642 4 10.75C4 10.3358 4.33579 10 4.75 10H19.25ZM16.75 2C17.1297 2 17.4435 2.28215 17.4932 2.64823L17.5 2.75V6.189L18.7197 4.96967C19.0126 4.67678 19.4874 4.67678 19.7803 4.96967C20.0466 5.23594 20.0708 5.6526 19.8529 5.94621L19.7803 6.03033L17.2803 8.53033C17.2557 8.55493 17.2294 8.57783 17.2016 8.59884L17.2803 8.53033L17.2384 8.56924L17.1864 8.61012L17.0715 8.67779L16.9741 8.71591L16.8902 8.73693L16.8023 8.74818L16.75 8.75L16.6977 8.74818L16.579 8.73042L16.4807 8.70019L16.381 8.65314L16.2986 8.59903L16.2197 8.53033L13.7197 6.03033C13.4268 5.73744 13.4268 5.26256 13.7197 4.96967C13.9859 4.7034 14.4026 4.6792 14.6962 4.89705L14.7803 4.96967L16 6.189V2.75C16 2.33579 16.3358 2 16.75 2ZM7.17407 2.00381L7.30231 2.00183L7.42098 2.01959L7.51932 2.04982L7.61892 2.09687L7.67033 2.12878L7.7083 2.15629L7.78033 2.21969L10.2803 4.71969C10.5732 5.01258 10.5732 5.48745 10.2803 5.78035C10.0141 6.04661 9.5974 6.07082 9.30379 5.85296L9.21967 5.78035L7.999 4.56002L8 8.00002C8 8.41423 7.66421 8.75002 7.25 8.75002C6.8703 8.75002 6.55651 8.46786 6.50685 8.10179L6.5 8.00002L6.499 4.56202L5.28033 5.78035C4.98744 6.07324 4.51256 6.07324 4.21967 5.78035C3.9534 5.51408 3.9292 5.09742 4.14705 4.8038L4.21967 4.71969L6.71967 2.21969L6.76162 2.18077L6.81362 2.1399L6.92849 2.07223L7.02594 2.03411L7.10984 2.01309C7.13095 2.0091 7.15237 2.00599 7.17407 2.00381Z" fill="#1C1C1C"/>
</svg>
