<svg width="24" height="24" viewBox="0 0 24 24" fill="none" xmlns="http://www.w3.org/2000/svg">
<path fill-rule="evenodd" clip-rule="evenodd" d="M18.5673 12.1052C18.6428 12.1893 18.6793 12.3015 18.6676 12.4139L18.3764 15.2121L20.8113 16.6212C21.0025 16.7319 21.0678 16.9766 20.9571 17.1678C20.9005 17.2656 20.8051 17.335 20.6945 17.3586L17.9433 17.9463L17.3556 20.6975C17.3094 20.9135 17.0969 21.0513 16.8809 21.0051C16.7703 20.9815 16.6748 20.9122 16.6182 20.8143L15.2091 18.3794L12.4109 18.6706C12.1912 18.6935 11.9945 18.5339 11.9717 18.3141C11.96 18.2017 11.9964 18.0895 12.072 18.0054L13.9523 15.9128L12.8107 13.3416C12.721 13.1397 12.812 12.9033 13.0139 12.8137C13.1173 12.7678 13.2352 12.7678 13.3386 12.8137L15.9098 13.9553L18.0024 12.075C18.1667 11.9274 18.4196 11.9409 18.5673 12.1052ZM19.25 3C20.2165 3 21 3.7835 21 4.75V11H19.5V6H4.5V19.25C4.5 19.3683 4.58223 19.4675 4.69268 19.4934L4.75 19.5H11V21H4.75C3.7835 21 3 20.2165 3 19.25V4.75C3 3.7835 3.7835 3 4.75 3H19.25ZM10.75 15.5C11.1642 15.5 11.5 15.8358 11.5 16.25C11.5 16.6642 11.1642 17 10.75 17H6.75C6.33579 17 6 16.6642 6 16.25C6 15.8358 6.33579 15.5 6.75 15.5H10.75ZM10.75 12C11.1642 12 11.5 12.3358 11.5 12.75C11.5 13.1642 11.1642 13.5 10.75 13.5H6.75C6.33579 13.5 6 13.1642 6 12.75C6 12.3358 6.33579 12 6.75 12H10.75ZM10.75 8.5C11.1642 8.5 11.5 8.83579 11.5 9.25C11.5 9.66421 11.1642 10 10.75 10H6.75C6.33579 10 6 9.66421 6 9.25C6 8.83579 6.33579 8.5 6.75 8.5H10.75ZM17.25 8.5C17.6642 8.5 18 8.83579 18 9.25C18 9.66421 17.6642 10 17.25 10H13.25C12.8358 10 12.5 9.66421 12.5 9.25C12.5 8.83579 12.8358 8.5 13.25 8.5H17.25Z" fill="#1C1C1C"/>
</svg>
