<svg width="24" height="24" viewBox="0 0 24 24" fill="none" xmlns="http://www.w3.org/2000/svg">
<path fill-rule="evenodd" clip-rule="evenodd" d="M7.50002 16C9.93393 16 11.3805 17.3164 11.8398 19.9493C12.0059 20.9014 11.3687 21.8079 10.4165 21.974C10.3172 21.9913 10.2166 22 10.1158 22H4.88422C3.91772 22 3.13422 21.2165 3.13422 20.25C3.13422 20.1492 3.14293 20.0486 3.16025 19.9493C3.61952 17.3164 5.06611 16 7.50002 16ZM19.25 2C20.2165 2 21 2.7835 21 3.75V18.25C21 19.2165 20.2165 20 19.25 20H13.2122L13.2023 19.937C13.1038 19.4214 12.9808 18.9424 12.8334 18.5002L19.25 18.5C19.3684 18.5 19.4675 18.4178 19.4934 18.3073L19.5 18.25V3.75C19.5 3.63165 19.4178 3.53251 19.3073 3.5066L19.25 3.5H7.75002C7.63167 3.5 7.53253 3.58223 7.50662 3.69268L7.50002 3.75V9.5C6.96035 9.5 6.44654 9.66392 5.99948 9.96386L6.00002 3.75C6.00002 2.7835 6.78352 2 7.75002 2H19.25ZM7.5 10.5C8.60457 10.5 9.5 11.6193 9.5 13C9.5 14.3807 8.60457 15.5 7.5 15.5C6.39543 15.5 5.5 14.3807 5.5 13C5.5 11.6193 6.39543 10.5 7.5 10.5ZM17.25 14C17.6642 14 18 14.3358 18 14.75C18 15.1642 17.6642 15.5 17.25 15.5H12.75C12.3358 15.5 12 15.1642 12 14.75C12 14.3358 12.3358 14 12.75 14H17.25ZM17.25 10C17.6642 10 18 10.3358 18 10.75C18 11.1642 17.6642 11.5 17.25 11.5H11.25C10.8358 11.5 10.5 11.1642 10.5 10.75C10.5 10.3358 10.8358 10 11.25 10H17.25ZM17.25 6C17.6642 6 18 6.33579 18 6.75C18 7.16421 17.6642 7.5 17.25 7.5H9.75C9.33579 7.5 9 7.16421 9 6.75C9 6.33579 9.33579 6 9.75 6H17.25Z" fill="#1C1C1C"/>
</svg>
