<svg width="24" height="24" viewBox="0 0 24 24" fill="none" xmlns="http://www.w3.org/2000/svg">
<path fill-rule="evenodd" clip-rule="evenodd" d="M19.25 3C20.2165 3 21 3.7835 21 4.75V19.25C21 20.2165 20.2165 21 19.25 21H4.75C3.86876 21 3.13965 20.3486 3.01788 19.5011L19.25 19.5C19.3683 19.5 19.4675 19.4178 19.4934 19.3073L19.5 19.25L19.499 6H4.499V9.5H2.999L3 4.75C3 3.7835 3.7835 3 4.75 3H19.25ZM6.28033 10.9697C6.54659 11.2359 6.5708 11.6526 6.35295 11.9462L6.28033 12.0303L4.561 13.749L10.25 13.75C10.6642 13.75 11 14.0858 11 14.5C11 14.9142 10.6642 15.25 10.25 15.25L4.56 15.249L6.28033 16.9697C6.57322 17.2626 6.57322 17.7374 6.28033 18.0303C6.01406 18.2966 5.5974 18.3208 5.30379 18.1029L5.21967 18.0303L2.21967 15.0303L2.13988 14.9364L2.08895 14.8547L2.03881 14.7387L2.01242 14.6363L2.00146 14.5471L2.00149 14.4525L2.01973 14.3286L2.04999 14.2302L2.09686 14.131L2.15096 14.0486L2.21967 13.9697L5.21967 10.9697C5.51256 10.6768 5.98743 10.6768 6.28033 10.9697ZM17.25 15.5C17.6642 15.5 18 15.8358 18 16.25C18 16.6642 17.6642 17 17.25 17H13.75C13.3358 17 13 16.6642 13 16.25C13 15.8358 13.3358 15.5 13.75 15.5H17.25ZM17.25 12C17.6642 12 18 12.3358 18 12.75C18 13.1642 17.6642 13.5 17.25 13.5H13.75C13.3358 13.5 13 13.1642 13 12.75C13 12.3358 13.3358 12 13.75 12H17.25ZM17.25 8.5C17.6642 8.5 18 8.83579 18 9.25C18 9.66421 17.6642 10 17.25 10H8.75C8.33579 10 8 9.66421 8 9.25C8 8.83579 8.33579 8.5 8.75 8.5H17.25Z" fill="#1C1C1C"/>
</svg>
