<svg width="24" height="24" viewBox="0 0 24 24" fill="none" xmlns="http://www.w3.org/2000/svg">
<path fill-rule="evenodd" clip-rule="evenodd" d="M14.5981 20.501C14.0793 21.3971 13.11 22 12 22C10.89 22 9.92077 21.3971 9.40192 20.501H14.5981ZM14.75 18.25C15.1642 18.25 15.5 18.5858 15.5 19C15.5 19.4142 15.1642 19.75 14.75 19.75H9.25C8.83579 19.75 8.5 19.4142 8.5 19C8.5 18.5858 8.83579 18.25 9.25 18.25H14.75ZM12 4.5C15.3137 4.5 18 7.21614 18 10.5667C18 12.0686 17.4833 13.0948 16.9131 13.9651L16.6478 14.3569L16.2578 14.9183C15.8403 15.532 15.4966 16.1262 15.4375 16.8466L15.4286 17.0667C15.4286 17.3235 15.3157 17.4661 15.0899 17.4946L15 17.5H9C8.74603 17.5 8.60494 17.3859 8.57672 17.1576L8.57143 17.0667C8.57143 16.2929 8.24344 15.6526 7.82174 15.0028L7.55935 14.6106L7.28571 14.2093L7.0459 13.8452C6.49219 12.9778 6 11.9726 6 10.5667C6 7.21614 8.68629 4.5 12 4.5ZM12 6C9.51845 6 7.5 8.04088 7.5 10.5667C7.5 11.4985 7.74507 12.1655 8.37641 13.1396L9.02336 14.0996L9.17462 14.3342C9.49656 14.8463 9.73411 15.3223 9.88355 15.8076L9.936 16H14.064L14.1182 15.8079C14.244 15.4057 14.4316 15.012 14.679 14.5998L14.8347 14.3501L15.0697 13.9984L15.4781 13.411C16.2138 12.3406 16.5 11.6316 16.5 10.5667C16.5 8.04088 14.4815 6 12 6ZM6.15433 13.875C6.34417 14.2038 6.25672 14.6167 5.96452 14.8427L5.87981 14.8995L5.01378 15.3995C4.65506 15.6066 4.19637 15.4837 3.98926 15.125C3.79941 14.7962 3.88687 14.3833 4.17907 14.1573L4.26378 14.1005L5.12981 13.6005C5.48853 13.3934 5.94722 13.5163 6.15433 13.875ZM18.7786 13.5555L18.8702 13.6005L19.7362 14.1005C20.0949 14.3076 20.2178 14.7663 20.0107 15.125C19.8209 15.4538 19.4196 15.5845 19.0778 15.4445L18.9862 15.3995L18.1202 14.8995C17.7615 14.6924 17.6386 14.2337 17.8457 13.875C18.0355 13.5462 18.4368 13.4155 18.7786 13.5555ZM21.1095 8.89382C21.1754 9.26774 20.952 9.62577 20.6001 9.73824L20.5011 9.76266L19.5163 9.93631C19.1084 10.0082 18.7194 9.73586 18.6475 9.32794C18.5815 8.95401 18.8049 8.59598 19.1568 8.48351L19.2558 8.45909L20.2406 8.28545C20.6486 8.21352 21.0376 8.48589 21.1095 8.89382ZM3.65796 8.27452L3.75937 8.28545L4.74418 8.45909C5.1521 8.53102 5.42448 8.92001 5.35255 9.32794C5.28662 9.70186 4.95426 9.96189 4.58512 9.94724L4.48371 9.93631L3.4989 9.76266C3.09098 9.69073 2.81861 9.30174 2.89053 8.89382C2.95647 8.51989 3.28882 8.25986 3.65796 8.27452ZM17.9458 3.41413C18.2367 3.6582 18.2957 4.07604 18.0984 4.38839L18.0382 4.47076L17.3954 5.2368C17.1292 5.55411 16.6561 5.59549 16.3388 5.32924C16.048 5.08518 15.9889 4.66733 16.1862 4.35498L16.2464 4.27262L16.8892 3.50657C17.1554 3.18927 17.6285 3.14788 17.9458 3.41413ZM7.04017 3.43301L7.11084 3.50657L7.75362 4.27262C8.01988 4.58992 7.97849 5.06299 7.66118 5.32924C7.37032 5.57331 6.94857 5.55887 6.67522 5.31036L6.60456 5.2368L5.96177 4.47076C5.69552 4.15345 5.73691 3.68038 6.05421 3.41413C6.34508 3.17007 6.76682 3.18451 7.04017 3.43301ZM12 1.25C12.3797 1.25 12.6935 1.53215 12.7432 1.89823L12.75 2V3C12.75 3.41421 12.4142 3.75 12 3.75C11.6203 3.75 11.3065 3.46785 11.2569 3.10177L11.25 3V2C11.25 1.58579 11.5858 1.25 12 1.25Z" fill="#1C1C1C"/>
</svg>
