<svg width="24" height="24" viewBox="0 0 24 24" fill="none" xmlns="http://www.w3.org/2000/svg">
<path fill-rule="evenodd" clip-rule="evenodd" d="M6.25 16C6.66421 16 7 16.3358 7 16.75V19.25C7 19.6642 6.66421 20 6.25 20H3.75C3.33579 20 3 19.6642 3 19.25V16.75C3 16.3358 3.33579 16 3.75 16H6.25ZM20.25 17.25C20.6642 17.25 21 17.5858 21 18C21 18.3797 20.7178 18.6935 20.3518 18.7432L20.25 18.75H10C9.58579 18.75 9.25 18.4142 9.25 18C9.25 17.6203 9.53215 17.3065 9.89823 17.2568L10 17.25H20.25ZM6.25 10C6.66421 10 7 10.3358 7 10.75V13.25C7 13.6642 6.66421 14 6.25 14H3.75C3.33579 14 3 13.6642 3 13.25V10.75C3 10.3358 3.33579 10 3.75 10H6.25ZM20.25 11.25C20.6642 11.25 21 11.5858 21 12C21 12.3797 20.7178 12.6935 20.3518 12.7432L20.25 12.75H10C9.58579 12.75 9.25 12.4142 9.25 12C9.25 11.6203 9.53215 11.3065 9.89823 11.2568L10 11.25H20.25ZM6.25 4C6.66421 4 7 4.33579 7 4.75V7.25C7 7.66421 6.66421 8 6.25 8H3.75C3.33579 8 3 7.66421 3 7.25V4.75C3 4.33579 3.33579 4 3.75 4H6.25ZM20.25 5.25C20.6642 5.25 21 5.58579 21 6C21 6.3797 20.7178 6.69349 20.3518 6.74315L20.25 6.75H10C9.58579 6.75 9.25 6.41421 9.25 6C9.25 5.6203 9.53215 5.30651 9.89823 5.25685L10 5.25H20.25Z" fill="#1C1C1C"/>
</svg>
