<svg width="24" height="24" viewBox="0 0 24 24" fill="none" xmlns="http://www.w3.org/2000/svg">
<path fill-rule="evenodd" clip-rule="evenodd" d="M19.25 18C19.6642 18 20 18.3358 20 18.75C20 19.1642 19.6642 19.5 19.25 19.5H4.75C4.33579 19.5 4 19.1642 4 18.75C4 18.3358 4.33579 18 4.75 18H19.25ZM19.25 13.5C19.6642 13.5 20 13.8358 20 14.25C20 14.6642 19.6642 15 19.25 15H4.75C4.33579 15 4 14.6642 4 14.25C4 13.8358 4.33579 13.5 4.75 13.5H19.25ZM19.25 9C19.6642 9 20 9.33579 20 9.75C20 10.1642 19.6642 10.5 19.25 10.5H4.75C4.33579 10.5 4 10.1642 4 9.75C4 9.33579 4.33579 9 4.75 9H19.25ZM19.25 4.5C19.6642 4.5 20 4.83579 20 5.25C20 5.66421 19.6642 6 19.25 6H4.75C4.33579 6 4 5.66421 4 5.25C4 4.83579 4.33579 4.5 4.75 4.5H19.25Z" fill="#1C1C1C"/>
</svg>
