<svg width="24" height="24" viewBox="0 0 24 24" fill="none" xmlns="http://www.w3.org/2000/svg">
<path fill-rule="evenodd" clip-rule="evenodd" d="M17.5 11C19.9853 11 22 13.0147 22 15.5C22 16.4941 21.6776 17.4129 21.1318 18.1576L21.1682 18.1071L23.0303 19.9697C23.3232 20.2626 23.3232 20.7374 23.0303 21.0303C22.7641 21.2966 22.3474 21.3208 22.0538 21.1029L21.9697 21.0303L20.1071 19.1682L19.9954 19.2453C19.2813 19.7221 18.4231 20 17.5 20C15.0147 20 13 17.9853 13 15.5C13 13.0147 15.0147 11 17.5 11ZM11.25 18.5C11.6642 18.5 12 18.8358 12 19.25C12 19.6642 11.6642 20 11.25 20H2.75C2.33579 20 2 19.6642 2 19.25C2 18.8358 2.33579 18.5 2.75 18.5H11.25ZM17.5 12.5C15.8431 12.5 14.5 13.8431 14.5 15.5C14.5 17.1569 15.8431 18.5 17.5 18.5C19.1569 18.5 20.5 17.1569 20.5 15.5C20.5 13.8431 19.1569 12.5 17.5 12.5ZM10.25 13.6666C10.6642 13.6666 11 14.0024 11 14.4166C11 14.8308 10.6642 15.1666 10.25 15.1666H2.75C2.33579 15.1666 2 14.8308 2 14.4166C2 14.0024 2.33579 13.6666 2.75 13.6666H10.25ZM13.25 8.83337C13.6642 8.83337 14 9.16916 14 9.58337C14 9.99759 13.6642 10.3334 13.25 10.3334H2.75C2.33579 10.3334 2 9.99759 2 9.58337C2 9.16916 2.33579 8.83337 2.75 8.83337H13.25ZM21.25 4C21.6642 4 22 4.33579 22 4.75C22 5.16421 21.6642 5.5 21.25 5.5H2.75C2.33579 5.5 2 5.16421 2 4.75C2 4.33579 2.33579 4 2.75 4H21.25Z" fill="#1C1C1C"/>
</svg>
