<svg width="24" height="24" viewBox="0 0 24 24" fill="none" xmlns="http://www.w3.org/2000/svg">
<path fill-rule="evenodd" clip-rule="evenodd" d="M12 1C14.7614 1 17 3.23858 17 6V8H18.25C19.2165 8 20 8.7835 20 9.75V20.25C20 21.2165 19.2165 22 18.25 22H5.75C4.7835 22 4 21.2165 4 20.25V9.75C4 8.7835 4.7835 8 5.75 8H7V6C7 3.23858 9.23858 1 12 1ZM18.25 9.5H5.75C5.63165 9.5 5.53251 9.58223 5.5066 9.69268L5.5 9.75V20.25C5.5 20.3683 5.58223 20.4675 5.69268 20.4934L5.75 20.5H18.25C18.3683 20.5 18.4675 20.4178 18.4934 20.3073L18.5 20.25V9.75C18.5 9.63165 18.4178 9.53251 18.3073 9.5066L18.25 9.5ZM12 13C12.8284 13 13.5 13.6716 13.5 14.5C13.5 15.0546 13.199 15.5389 12.7514 15.7985L12.75 16.75C12.75 17.1642 12.4142 17.5 12 17.5C11.5858 17.5 11.25 17.1642 11.25 16.75L11.2496 15.7991C10.8015 15.5397 10.5 15.055 10.5 14.5C10.5 13.6716 11.1716 13 12 13ZM12 2.5C10.1314 2.5 8.60487 3.96428 8.50518 5.80796L8.5 6V8H15.5V6C15.5 4.13144 14.0357 2.60487 12.192 2.50518L12 2.5Z" fill="#1C1C1C"/>
</svg>
