<svg width="24" height="24" viewBox="0 0 24 24" fill="none" xmlns="http://www.w3.org/2000/svg">
<path fill-rule="evenodd" clip-rule="evenodd" d="M13.5858 2C13.851 2 14.1054 2.10536 14.2929 2.29289L19.7071 7.70711C19.8946 7.89464 20 8.149 20 8.41421V10.5H18.5V9H14.75C13.8318 9 13.0788 8.29289 13.0058 7.39353L13 7.25V3.5H5.75C5.63165 3.5 5.53251 3.58223 5.5066 3.69268L5.5 3.75V20.25C5.5 20.3683 5.58223 20.4675 5.69268 20.4934L5.75 20.5H18.25C18.3683 20.5 18.4675 20.4178 18.4934 20.3073L18.5 20.25V19H20V20.25C20 21.2165 19.2165 22 18.25 22H5.75C4.7835 22 4 21.2165 4 20.25V3.75C4 2.7835 4.7835 2 5.75 2H13.5858ZM13.4809 12.0742C14.9284 12.0742 15.7819 12.949 15.8478 14.353L15.852 14.5312V15.1523C15.852 16.6523 14.9887 17.5977 13.4809 17.5977C12.0371 17.5977 11.1766 16.7265 11.11 15.3297L11.1059 15.1523V14.5312C11.1059 13.0156 11.977 12.0742 13.4809 12.0742ZM18.8434 12.0742C20.1715 12.0742 20.9008 12.8502 21.0145 13.7272L21.0269 13.8594H19.7769C19.7027 13.4453 19.3707 13.125 18.8316 13.125C18.1944 13.125 17.825 13.5679 17.7813 14.3474L17.7769 14.5078V15.1328C17.7769 15.9375 18.0699 16.5469 18.8668 16.5469C19.4653 16.5469 19.7809 16.2067 19.8229 15.8016L19.8277 15.707V15.4727H18.898V14.5703H21.0387V15.6094C21.0387 16.6484 20.3707 17.5977 18.8394 17.5977C17.2682 17.5977 16.5393 16.6113 16.4836 15.302L16.4801 15.1367V14.4961C16.4801 13.0703 17.3199 12.0742 18.8434 12.0742ZM8.66132 12.168V16.4297H10.8019V17.5H7.37616V12.168H8.66132ZM13.4809 13.1172C12.8839 13.1172 12.469 13.5326 12.4194 14.3474L12.4145 14.5156V15.1562C12.4145 16.082 12.8441 16.5547 13.4809 16.5547C14.0741 16.5547 14.4889 16.1393 14.5384 15.3245L14.5434 15.1562V14.5156C14.5434 13.5898 14.1137 13.1172 13.4809 13.1172ZM14.5 4.62097V7.24997C14.5 7.36832 14.5822 7.46746 14.6927 7.49337L14.75 7.49997H17.38L14.5 4.62097Z" fill="#1C1C1C"/>
</svg>
