<svg width="24" height="24" viewBox="0 0 24 24" fill="none" xmlns="http://www.w3.org/2000/svg">
<path d="M14.698 7.31415H9.28571V16.9729H14.698V7.31415Z" fill="#FF5A00"/>
<path d="M9.64612 12.1436C9.64612 10.1812 10.5749 8.43954 12 7.31421C10.9512 6.49507 9.6281 6 8.18495 6C4.76621 6 2 8.74772 2 12.1436C2 15.5395 4.76621 18.2872 8.18495 18.2872C9.6281 18.2872 10.9512 17.7921 12 16.973C10.5729 15.8636 9.64612 14.106 9.64612 12.1436Z" fill="#EB001B"/>
<path d="M22 12.1436C22 15.5395 19.2338 18.2872 15.8151 18.2872C14.3719 18.2872 13.0488 17.7921 12 16.973C13.4432 15.8457 14.3539 14.106 14.3539 12.1436C14.3539 10.1812 13.4251 8.43954 12 7.31421C13.0468 6.49507 14.3699 6 15.813 6C19.2338 6 22 8.76561 22 12.1436Z" fill="#F79E1B"/>
</svg>
