<svg width="24" height="24" viewBox="0 0 24 24" fill="none" xmlns="http://www.w3.org/2000/svg">
<path fill-rule="evenodd" clip-rule="evenodd" d="M19.25 3C20.1682 3 20.9212 3.70711 20.9942 4.60647L21 4.75V19.25C21 20.1682 20.2929 20.9212 19.3935 20.9942L19.25 21H12V19.5H19.25C19.3684 19.5 19.4675 19.4178 19.4934 19.3073L19.5 19.25L19.4997 5.9964L19.4063 6H4.49901L4.50001 12H3.00001V4.75C3.00001 3.83183 3.70712 3.07881 4.60648 3.0058L4.75001 3H19.25ZM3.69567 15.8088L3.77753 15.8468L5.92083 17.0842L5.99464 17.1361C6.15287 17.2703 6.21177 17.4901 6.14181 17.6854L6.10385 17.7672L6.05193 17.8411C5.9178 17.9993 5.69797 18.0582 5.50269 17.9882L5.42083 17.9503L4.54344 17.4447C4.75326 18.6133 5.77507 19.5 7.004 19.5C7.57075 19.5 8.10681 19.3118 8.54333 18.9701C8.8695 18.7147 9.34089 18.7722 9.59621 19.0983C9.85153 19.4245 9.7941 19.8959 9.46793 20.1512C8.76977 20.6977 7.90892 21 7.004 21C5.13247 21 3.56114 19.7147 3.12458 17.9786L2.7231 18.6731L2.67119 18.7469C2.5179 18.9277 2.25267 18.9789 2.04009 18.8561C1.82752 18.7334 1.73916 18.4781 1.81912 18.255L1.85708 18.1731L3.09452 16.0298L3.14643 15.956C3.28056 15.7978 3.50039 15.7389 3.69567 15.8088ZM7.00167 13C8.93591 13 10.5495 14.3729 10.9211 16.1974L11.2794 15.5769C11.4021 15.3643 11.6573 15.2759 11.8805 15.3559L11.9624 15.3939C12.175 15.5166 12.2633 15.7719 12.1834 15.995L12.1454 16.0769L10.908 18.2202C10.7852 18.4328 10.53 18.5211 10.3068 18.4412L10.2249 18.4032L8.08164 17.1658C7.84249 17.0277 7.76055 16.7219 7.89863 16.4827C8.02136 16.2702 8.27661 16.1818 8.49978 16.2618L8.58164 16.2997L9.49581 16.8275C9.40722 15.5273 8.32441 14.5 7.00167 14.5C6.43492 14.5 5.89886 14.6882 5.46233 15.0299C5.13617 15.2853 4.66478 15.2278 4.40946 14.9017C4.15414 14.5755 4.21157 14.1041 4.53773 13.8488C5.23589 13.3023 6.09675 13 7.00167 13ZM17.25 15C17.6642 15 18 15.3358 18 15.75C18 16.1642 17.6642 16.5 17.25 16.5H14.75C14.3358 16.5 14 16.1642 14 15.75C14 15.3358 14.3358 15 14.75 15H17.25ZM17.125 11.5C17.6082 11.5 18 11.8358 18 12.25C18 12.6642 17.6082 13 17.125 13H11.875C11.3918 13 11 12.6642 11 12.25C11 11.8358 11.3918 11.5 11.875 11.5H17.125ZM17.25 8C17.6642 8 18 8.33579 18 8.75C18 9.16421 17.6642 9.5 17.25 9.5H6.75C6.33579 9.5 6 9.16421 6 8.75C6 8.33579 6.33579 8 6.75 8H17.25Z" fill="#1C1C1C"/>
</svg>
