<svg width="24" height="24" viewBox="0 0 24 24" fill="none" xmlns="http://www.w3.org/2000/svg">
<path fill-rule="evenodd" clip-rule="evenodd" d="M12 2C17.5228 2 22 6.47715 22 12C22 13.8058 21.5214 15.4997 20.6841 16.962L20.6603 17C20.4704 17.3288 20.0692 17.4595 19.7273 17.3195L19.6357 17.2745L18.1202 16.3995C17.7615 16.1924 17.6386 15.7337 17.8457 15.375C18.0355 15.0462 18.4368 14.9155 18.7786 15.0555L18.8702 15.1005L19.7091 15.5853C20.1164 14.711 20.3794 13.7559 20.4673 12.7506L19.5 12.75C19.0858 12.75 18.75 12.4142 18.75 12C18.75 11.6203 19.0322 11.3065 19.3982 11.2568L19.5 11.25L20.4674 11.2502C20.3795 10.245 20.1167 9.2899 19.7095 8.41561L18.8702 8.89952C18.5115 9.10663 18.0528 8.98372 17.8457 8.625C17.6558 8.29617 17.7433 7.88334 18.0355 7.6573L18.1202 7.60048L18.9585 7.11719C18.3919 6.31121 17.6888 5.60813 16.8828 5.04152L16.3995 5.87981C16.1924 6.23853 15.7337 6.36143 15.375 6.15433C15.0462 5.96448 14.9155 5.56323 15.0555 5.22137L15.1005 5.12981L15.5844 4.29048C14.7104 3.88344 13.7557 3.62065 12.7508 3.5327L12.75 4.5C12.75 4.91421 12.4142 5.25 12 5.25C11.6203 5.25 11.3065 4.96785 11.2568 4.60177L11.25 4.5L11.2502 3.53262C10.245 3.62047 9.2899 3.88331 8.41561 4.29048L8.89952 5.12981C9.10663 5.48853 8.98372 5.94722 8.625 6.15433C8.29617 6.34418 7.88334 6.25672 7.6573 5.96452L7.60048 5.87981L7.11719 5.04152C6.31121 5.60813 5.60813 6.31121 5.04152 7.11719L5.87981 7.60048C6.23853 7.80759 6.36143 8.26628 6.15433 8.625C5.96448 8.95383 5.56323 9.0845 5.22137 8.94448L5.12981 8.89952L4.29048 8.41561C3.88331 9.2899 3.62047 10.245 3.53262 11.2502L4.5 11.25C4.91421 11.25 5.25 11.5858 5.25 12C5.25 12.3797 4.96785 12.6935 4.60177 12.7432L4.5 12.75L3.53269 12.7506C3.62065 13.7559 3.88359 14.711 4.29088 15.5853L5.12981 15.1005C5.48853 14.8934 5.94722 15.0163 6.15433 15.375C6.34418 15.7038 6.25672 16.1167 5.96452 16.3427L5.87981 16.3995L4.36426 17.2745C4.00555 17.4816 3.54685 17.3587 3.33975 17L3.32 16.96L3.31651 16.963C2.47884 15.5005 2 13.8062 2 12C2 6.47715 6.47715 2 12 2ZM16.0303 7.96967C16.2966 8.23594 16.3208 8.6526 16.1029 8.94621L16.0303 9.03033L13.2377 11.8237C13.2458 11.8813 13.25 11.9402 13.25 12C13.25 12.6904 12.6904 13.25 12 13.25C11.3096 13.25 10.75 12.6904 10.75 12C10.75 11.3096 11.3096 10.75 12 10.75C12.0598 10.75 12.1187 10.7542 12.1763 10.7623L14.9697 7.96967C15.2626 7.67678 15.7374 7.67678 16.0303 7.96967Z" fill="#1C1C1C"/>
</svg>
