<svg width="24" height="24" viewBox="0 0 24 24" fill="none" xmlns="http://www.w3.org/2000/svg">
<path fill-rule="evenodd" clip-rule="evenodd" d="M19.25 3C20.2165 3 21 3.7835 21 4.75V19.25C21 20.2165 20.2165 21 19.25 21H13.5V19.5H19.25C19.3683 19.5 19.4675 19.4178 19.4934 19.3073L19.5 19.25V4.75C19.5 4.63165 19.4178 4.53251 19.3073 4.5066L19.25 4.5H4.75C4.63165 4.5 4.53251 4.58223 4.5066 4.69268L4.5 4.75V10.5H3V4.75C3 3.7835 3.7835 3 4.75 3H19.25ZM10.25 12C11.2165 12 12 12.7835 12 13.75V19.25C12 20.2165 11.2165 21 10.25 21H4.75C3.7835 21 3 20.2165 3 19.25V13.75C3 12.7835 3.7835 12 4.75 12H10.25ZM10.25 13.5H4.75C4.63165 13.5 4.53251 13.5822 4.5066 13.6927L4.5 13.75V19.25C4.5 19.3683 4.58223 19.4675 4.69268 19.4934L4.75 19.5H10.25C10.3683 19.5 10.4675 19.4178 10.4934 19.3073L10.5 19.25V13.75C10.5 13.6317 10.4178 13.5325 10.3073 13.5066L10.25 13.5ZM18.0303 5.96967C18.2966 6.23594 18.3208 6.6526 18.1029 6.94621L18.0303 7.03033L14.81 10.25H16.5C16.8797 10.25 17.1935 10.5322 17.2432 10.8982L17.25 11C17.25 11.3797 16.9678 11.6935 16.6018 11.7432L16.5 11.75H13C12.6203 11.75 12.3065 11.4678 12.2568 11.1018L12.25 11V7.5C12.25 7.08579 12.5858 6.75 13 6.75C13.3797 6.75 13.6935 7.03215 13.7432 7.39823L13.75 7.5V9.188L16.9697 5.96967C17.2626 5.67678 17.7374 5.67678 18.0303 5.96967Z" fill="#1C1C1C"/>
</svg>
