<svg width="24" height="24" viewBox="0 0 24 24" fill="none" xmlns="http://www.w3.org/2000/svg">
<path fill-rule="evenodd" clip-rule="evenodd" d="M6.92381 6.25384L7.05231 6.25183L7.17098 6.26959L7.26932 6.29982L7.36892 6.34687L7.42033 6.37878L7.4583 6.40629L7.53033 6.46969L11.0303 9.96969C11.3232 10.2626 11.3232 10.7375 11.0303 11.0303C10.7641 11.2966 10.3474 11.3208 10.0538 11.103L9.96967 11.0303L7.75 8.81102V17C7.75 17.4142 7.41421 17.75 7 17.75C6.6203 17.75 6.30651 17.4679 6.25685 17.1018L6.25 17V8.81102L4.03033 11.0303C3.73744 11.3232 3.26256 11.3232 2.96967 11.0303C2.7034 10.7641 2.6792 10.3474 2.89705 10.0538L2.96967 9.96969L6.46967 6.46969L6.51162 6.43077L6.56362 6.3899L6.67849 6.32223L6.77594 6.28411L6.85984 6.26309C6.88087 6.25912 6.9022 6.25602 6.92381 6.25384ZM17 6.25C17.3797 6.25 17.6935 6.53215 17.7432 6.89823L17.75 7L17.749 15.19L19.9697 12.9697C20.2626 12.6768 20.7374 12.6768 21.0303 12.9697C21.2966 13.2359 21.3208 13.6526 21.1029 13.9462L21.0303 14.0303L17.5303 17.5303C17.5057 17.5549 17.4794 17.5778 17.4516 17.5988L17.5303 17.5303L17.4884 17.5692L17.4364 17.6101L17.3215 17.6778L17.2241 17.7159L17.1402 17.7369L17.0523 17.7482L17 17.75L16.9477 17.7482L16.829 17.7304L16.7307 17.7002L16.631 17.6531L16.5486 17.599L16.4697 17.5303L12.9697 14.0303C12.6768 13.7374 12.6768 13.2626 12.9697 12.9697C13.2359 12.7034 13.6526 12.6792 13.9462 12.8971L14.0303 12.9697L16.249 15.188L16.25 7C16.25 6.58579 16.5858 6.25 17 6.25Z" fill="#1C1C1C"/>
</svg>
