<svg width="24" height="24" viewBox="0 0 24 24" fill="none" xmlns="http://www.w3.org/2000/svg">
<path fill-rule="evenodd" clip-rule="evenodd" d="M5.5 22L5.4999 21.9823C4.65188 21.8609 4 21.1316 4 20.25V3.75C4 2.86842 4.65188 2.13908 5.4999 2.01774L5.5 2H18.25C19.2165 2 20 2.7835 20 3.75V20.25C20 21.2165 19.2165 22 18.25 22H5.5ZM9 18.3H5.5V20.25C5.5 20.3684 5.58223 20.4675 5.69268 20.4934L5.75 20.5H9V18.3ZM18.25 3.5H10.5V20.5H18.25C18.3683 20.5 18.4675 20.4178 18.4934 20.3073L18.5 20.25V3.75C18.5 3.63165 18.4178 3.53251 18.3073 3.5066L18.25 3.5ZM9 14.6H5.5V16.8H9V14.6ZM9 10.9H5.5V13.1H9V10.9ZM9 7.19995H5.5V9.39995H9V7.19995ZM9 3.5H5.75C5.63165 3.5 5.53251 3.58223 5.5066 3.69268L5.5 3.75V5.7H9V3.5Z" fill="#1C1C1C"/>
</svg>
