<svg width="24" height="24" viewBox="0 0 24 24" fill="none" xmlns="http://www.w3.org/2000/svg">
<path fill-rule="evenodd" clip-rule="evenodd" d="M16.75 2C17.1642 2 17.5 2.33579 17.5 2.75V3H19.25C20.1682 3 20.9212 3.70711 20.9942 4.60647L21 4.75V19.25C21 20.1682 20.2929 20.9212 19.3935 20.9942L19.25 21H4.75C3.83183 21 3.07881 20.2929 3.0058 19.3935L3 19.25V4.75C3 3.83183 3.70711 3.07881 4.60647 3.0058L4.75 3H6.5V2.75C6.5 2.33579 6.83579 2 7.25 2C7.66421 2 8 2.33579 8 2.75V3H11.25V2.75C11.25 2.33579 11.5858 2 12 2C12.4142 2 12.75 2.33579 12.75 2.75V3H16V2.75C16 2.33579 16.3358 2 16.75 2ZM6.499 4.5H4.75L4.69268 4.5066C4.60432 4.52733 4.53402 4.59493 4.50944 4.68173L4.5 4.75V19.25L4.5066 19.3073C4.52733 19.3957 4.59493 19.466 4.68173 19.4906L4.75 19.5H19.25L19.3073 19.4934C19.3957 19.4727 19.466 19.4051 19.4906 19.3183L19.5 19.25V4.75L19.4934 4.69268C19.4727 4.60432 19.4051 4.53402 19.3183 4.50944L19.25 4.5H17.5V4.75C17.5 5.16421 17.1642 5.5 16.75 5.5C16.3358 5.5 16 5.16421 16 4.75V4.5H12.75V4.75C12.75 5.16421 12.4142 5.5 12 5.5C11.5858 5.5 11.25 5.16421 11.25 4.75V4.5H7.999L8 4.75C8 5.16421 7.66421 5.5 7.25 5.5C6.83579 5.5 6.5 5.16421 6.5 4.75L6.499 4.5ZM16.25 12C16.6642 12 17 12.3358 17 12.75C17 13.1642 16.6642 13.5 16.25 13.5H7.75C7.33579 13.5 7 13.1642 7 12.75C7 12.3358 7.33579 12 7.75 12H16.25ZM16.25 9C16.6642 9 17 9.33579 17 9.75C17 10.1642 16.6642 10.5 16.25 10.5H7.75C7.33579 10.5 7 10.1642 7 9.75C7 9.33579 7.33579 9 7.75 9H16.25Z" fill="#1C1C1C"/>
</svg>
