<svg width="24" height="24" viewBox="0 0 24 24" fill="none" xmlns="http://www.w3.org/2000/svg">
<path fill-rule="evenodd" clip-rule="evenodd" d="M16.75 2C17.1642 2 17.5 2.33579 17.5 2.75V3H19.25C20.1682 3 20.9212 3.70711 20.9942 4.60647L21 4.75V14H19.5V4.75L19.4934 4.69268C19.4727 4.60432 19.4051 4.53402 19.3183 4.50944L19.25 4.5H17.5V4.75C17.5 5.16421 17.1642 5.5 16.75 5.5C16.3358 5.5 16 5.16421 16 4.75V4.5H12.75V4.75C12.75 5.16421 12.4142 5.5 12 5.5C11.5858 5.5 11.25 5.16421 11.25 4.75V4.5H7.999L8 4.75C8 5.16421 7.66421 5.5 7.25 5.5C6.83579 5.5 6.5 5.16421 6.5 4.75L6.499 4.5H4.75L4.69268 4.5066C4.60432 4.52733 4.53402 4.59493 4.50944 4.68173L4.5 4.75V19.25L4.5066 19.3073C4.52733 19.3957 4.59493 19.466 4.68173 19.4906L4.75 19.5H14V21H4.75C3.83183 21 3.07881 20.2929 3.0058 19.3935L3 19.25V4.75C3 3.83183 3.70711 3.07881 4.60647 3.0058L4.75 3H6.5V2.75C6.5 2.33579 6.83579 2 7.25 2C7.66421 2 8 2.33579 8 2.75V3H11.25V2.75C11.25 2.33579 11.5858 2 12 2C12.4142 2 12.75 2.33579 12.75 2.75V3H16V2.75C16 2.33579 16.3358 2 16.75 2ZM12.8107 9.75L20.3232 17.2626C20.9664 17.9058 21.0043 18.9251 20.4367 19.6126L20.3232 19.7374L19.7374 20.3232C19.0942 20.9664 18.0749 21.0043 17.3874 20.4367L17.2626 20.3232L9.75 12.8107V9.75H12.8107ZM18.507 17.568L17.569 18.508L18.3232 19.2626C18.3883 19.3276 18.4804 19.3493 18.5634 19.3276L18.6235 19.3032L18.6768 19.2626L19.2626 18.6768C19.3439 18.5954 19.3575 18.4719 19.3032 18.3765L19.2626 18.3232L18.507 17.568ZM12.189 11.25H11.25V12.189L16.508 17.447L17.446 16.507L12.189 11.25Z" fill="#1C1C1C"/>
</svg>
