<svg width="24" height="24" viewBox="0 0 24 24" fill="none" xmlns="http://www.w3.org/2000/svg">
<path fill-rule="evenodd" clip-rule="evenodd" d="M18.25 2C19.2165 2 20 2.7835 20 3.75V20.25C20 21.2165 19.2165 22 18.25 22H14L13.9991 20.5H18.25C18.3683 20.5 18.4675 20.4178 18.4934 20.3073L18.5 20.25V3.75C18.5 3.63165 18.4178 3.53251 18.3073 3.5066L18.25 3.5H5.75C5.63165 3.5 5.53251 3.58223 5.5066 3.69268L5.5 3.75L5.49907 11H4V3.75C4 2.7835 4.7835 2 5.75 2H18.25ZM9.22499 20.9744C9.10917 21.5596 8.60472 22 7.99999 22C7.39525 22 6.89081 21.5596 6.77499 20.9744H9.22499ZM7.99999 12C8.45615 12 8.84098 12.3916 8.96111 12.9269C10.1461 13.3266 11 14.4482 11 15.7692V18.6667L11.8348 19.3088C12.0536 19.4772 12.0946 19.7911 11.9262 20.01C11.8316 20.133 11.6851 20.2051 11.5299 20.2051H4.47007C4.19392 20.2051 3.97007 19.9813 3.97007 19.7051C3.97007 19.5499 4.04217 19.4035 4.16521 19.3088L5.00001 18.6667V15.7692C5.00001 14.4482 5.85387 13.3266 7.0398 12.9262C7.159 12.3916 7.54383 12 7.99999 12ZM15.25 14.5C15.6642 14.5 16 14.8358 16 15.25C16 15.6642 15.6642 16 15.25 16H13.75C13.3358 16 13 15.6642 13 15.25C13 14.8358 13.3358 14.5 13.75 14.5H15.25ZM15.25 11C15.6642 11 16 11.3358 16 11.75C16 12.1642 15.6642 12.5 15.25 12.5H11.75C11.3358 12.5 11 12.1642 11 11.75C11 11.3358 11.3358 11 11.75 11H15.25ZM15.25 7.5C15.6642 7.5 16 7.83579 16 8.25C16 8.66421 15.6642 9 15.25 9H8.75C8.33579 9 8 8.66421 8 8.25C8 7.83579 8.33579 7.5 8.75 7.5H15.25Z" fill="#1C1C1C"/>
</svg>
