<svg width="24" height="24" viewBox="0 0 24 24" fill="none" xmlns="http://www.w3.org/2000/svg">
<path d="M3.20312 16.625C3.20312 17.2266 3.53125 17.5859 4.07812 17.5859C4.63281 17.5859 4.95312 17.2344 4.95312 16.625V7.89844C4.95312 7.22656 4.51562 6.76562 3.875 6.76562C3.5 6.76562 3.13281 6.90625 2.60156 7.28125L1.125 8.34375C0.757812 8.59375 0.585938 8.85156 0.585938 9.13281C0.585938 9.5 0.867188 9.78906 1.23438 9.78906C1.42969 9.78906 1.61719 9.71875 1.89844 9.52344L3.15625 8.625H3.20312V16.625Z" fill="#1C1C1C"/>
<path d="M7.35156 16.6562C7.35156 17.1719 7.76562 17.5 8.39844 17.5H13.6172C14.1484 17.5 14.4609 17.2188 14.4609 16.7656C14.4609 16.3047 14.1328 16.0234 13.6172 16.0234H9.64844V15.9219L12.3125 12.9688C13.6797 11.4766 14.125 10.6562 14.125 9.60938C14.125 7.86719 12.6953 6.625 10.7031 6.625C8.61719 6.625 7.21094 8 7.21094 9.36719C7.21094 9.85156 7.52344 10.1797 7.97656 10.1797C8.34375 10.1797 8.59375 9.96875 8.78125 9.52344C9.04688 8.61719 9.71094 8.09375 10.6016 8.09375C11.6641 8.09375 12.375 8.75781 12.375 9.75C12.375 10.4375 12.0312 11.0625 11.1641 12.0156L8.09375 15.4219C7.53125 16.0234 7.35156 16.3125 7.35156 16.6562Z" fill="#1C1C1C"/>
<path d="M15.9141 15.2812C15.9141 16.5234 17.4688 17.7266 19.5312 17.7266C21.8047 17.7266 23.3984 16.4297 23.3984 14.5859C23.3984 13.2344 22.4062 12.1016 21.1016 11.9688V11.8594C22.1797 11.6875 23.0547 10.6016 23.0547 9.4375C23.0547 7.78906 21.5938 6.625 19.5312 6.625C17.5469 6.625 16.1172 7.78125 16.1172 9.01562C16.1172 9.46875 16.4219 9.78125 16.8594 9.78125C17.2031 9.78125 17.4375 9.61719 17.6406 9.20312C18.0078 8.46094 18.6484 8.04688 19.4922 8.04688C20.5781 8.04688 21.3203 8.69531 21.3203 9.65625C21.3203 10.6094 20.5625 11.2969 19.5156 11.2969H18.7031C18.2734 11.2969 17.9766 11.6016 17.9766 12.0078C17.9766 12.4297 18.2812 12.7422 18.7031 12.7422H19.5625C20.8125 12.7422 21.6484 13.4609 21.6484 14.5312C21.6484 15.6094 20.8281 16.2969 19.5547 16.2969C18.5938 16.2969 17.8438 15.875 17.4141 15.1094C17.1641 14.6953 16.9453 14.5391 16.6328 14.5391C16.2109 14.5391 15.9141 14.8516 15.9141 15.2812Z" fill="#1C1C1C"/>
</svg>
