<svg width="24" height="24" viewBox="0 0 24 24" fill="none" xmlns="http://www.w3.org/2000/svg">
<path fill-rule="evenodd" clip-rule="evenodd" d="M12 1.75C12.2665 1.75 12.5087 1.85426 12.6879 2.02423C17.89 2.37685 22 6.70846 22 12C22 17.2915 17.89 21.6231 12.6882 21.9767C12.5087 22.1457 12.2665 22.25 12 22.25C11.4477 22.25 11 21.8023 11 21.25C11 20.6977 11.4477 20.25 12 20.25C12.2401 20.25 12.4604 20.3346 12.6327 20.4756C17.0317 20.153 20.5 16.4815 20.5 12C20.5 7.51845 17.0317 3.84696 12.6329 3.5232C12.4604 3.66541 12.2401 3.75 12 3.75C11.4477 3.75 11 3.30228 11 2.75C11 2.19772 11.4477 1.75 12 1.75ZM6.50897 19.5107C6.78512 19.0324 7.39671 18.8686 7.875 19.1447C8.35329 19.4208 8.51717 20.0324 8.24102 20.5107C7.96488 20.989 7.35329 21.1529 6.875 20.8768C6.39671 20.6006 6.23283 19.989 6.50897 19.5107ZM3.48927 15.759C3.96756 15.4828 4.57916 15.6467 4.8553 16.125C5.13144 16.6033 4.96756 17.2149 4.48927 17.491C4.01098 17.7672 3.39939 17.6033 3.12325 17.125C2.8471 16.6467 3.01098 16.0351 3.48927 15.759ZM2.75 11C3.30228 11 3.75 11.4477 3.75 12C3.75 12.5523 3.30228 13 2.75 13C2.19772 13 1.75 12.5523 1.75 12C1.75 11.4477 2.19772 11 2.75 11ZM12 5.25C12.3797 5.25 12.6935 5.53215 12.7432 5.89823L12.75 6V12C12.75 12.3797 12.4678 12.6935 12.1018 12.7432L12 12.75H7.5C7.08579 12.75 6.75 12.4142 6.75 12C6.75 11.6203 7.03215 11.3065 7.39823 11.2568L7.5 11.25H11.25V6C11.25 5.58579 11.5858 5.25 12 5.25ZM3.12325 6.87504C3.39939 6.39675 4.01098 6.23288 4.48927 6.50902C4.96756 6.78516 5.13144 7.39675 4.8553 7.87504C4.57916 8.35334 3.96756 8.51721 3.48927 8.24107C3.01098 7.96493 2.8471 7.35334 3.12325 6.87504ZM6.875 3.12328C7.35329 2.84713 7.96488 3.01101 8.24102 3.4893C8.51717 3.9676 8.35329 4.57919 7.875 4.85533C7.39671 5.13147 6.78512 4.9676 6.50897 4.4893C6.23283 4.01101 6.39671 3.39942 6.875 3.12328Z" fill="#1C1C1C"/>
</svg>
