<svg width="24" height="24" viewBox="0 0 24 24" fill="none" xmlns="http://www.w3.org/2000/svg">
<path fill-rule="evenodd" clip-rule="evenodd" d="M17.5354 6.5H20.25C20.3881 6.5 20.5 6.61193 20.5 6.75V9.46456C18.9672 9.2453 17.7547 8.03285 17.5354 6.5ZM6.46456 6.5H3.75C3.61193 6.5 3.5 6.61193 3.5 6.75V9.46456C5.03285 9.2453 6.2453 8.03285 6.46456 6.5ZM7.97531 6.5C7.74078 8.86221 5.86221 10.7408 3.5 10.9753V13.0247C5.86221 13.2592 7.74078 15.1378 7.97531 17.5H14V19H3.75C2.7835 19 2 18.2165 2 17.25V6.75C2 5.7835 2.7835 5 3.75 5H20.25C21.2165 5 22 5.7835 22 6.75V11H20.5V10.9753C18.1378 10.7408 16.2592 8.86221 16.0247 6.5H7.97531ZM3.5 17.25V14.5354C5.03285 14.7547 6.2453 15.9672 6.46456 17.5H3.75C3.61193 17.5 3.5 17.3881 3.5 17.25ZM14 12C14 13.1046 13.1046 14 12 14C10.8954 14 10 13.1046 10 12C10 10.8954 10.8954 10 12 10C13.1046 10 14 10.8954 14 12ZM15.5 12C15.5 13.933 13.933 15.5 12 15.5C10.067 15.5 8.5 13.933 8.5 12C8.5 10.067 10.067 8.5 12 8.5C13.933 8.5 15.5 10.067 15.5 12ZM19.5 12C21.9853 12 24 14.0147 24 16.5C24 18.9853 21.9853 21 19.5 21C17.0147 21 15 18.9853 15 16.5C15 14.0147 17.0147 12 19.5 12ZM19.3 13.55C19.7142 13.55 20.05 13.8858 20.05 14.3V16.3365L21.6354 17.1292C22.0059 17.3144 22.156 17.7649 21.9708 18.1354C21.7856 18.5059 21.3351 18.6561 20.9646 18.4708L18.55 17.2635V14.3C18.55 13.8858 18.8858 13.55 19.3 13.55Z" fill="#1C1C1C"/>
</svg>
