<svg width="24" height="24" viewBox="0 0 24 24" fill="none" xmlns="http://www.w3.org/2000/svg">
<path d="M20.25 5C21.2165 5 22 5.7835 22 6.75V11.5H20.5V10.9746C18.1378 10.74 16.2589 8.8622 16.0244 6.5H7.97559C7.74107 8.8622 5.86218 10.74 3.5 10.9746V13.0244C5.86223 13.2589 7.74106 15.1378 7.97559 17.5H14.5V19H3.75C2.7835 19 2 18.2165 2 17.25V6.75C2 5.7835 2.7835 5 3.75 5H20.25ZM20.8955 13.1357C21.1665 12.9346 21.5511 12.9573 21.7969 13.2031C22.0427 13.4489 22.0654 13.8335 21.8643 14.1045L21.7969 14.1816L19.9795 16L21.7969 17.8184C22.0672 18.0887 22.0672 18.5265 21.7969 18.7969C21.5511 19.0427 21.1665 19.0654 20.8955 18.8643L20.8184 18.7969L19 16.9795L17.1816 18.7969L17.1045 18.8643C16.8335 19.0654 16.4489 19.0427 16.2031 18.7969C15.9573 18.5511 15.9346 18.1665 16.1357 17.8955L16.2031 17.8184L18.0205 16L16.2031 14.1816C15.9328 13.9113 15.9328 13.4735 16.2031 13.2031C16.4489 12.9573 16.8335 12.9346 17.1045 13.1357L17.1816 13.2031L19 15.0205L20.8184 13.2031L20.8955 13.1357ZM3.5 17.25C3.5 17.3881 3.61193 17.5 3.75 17.5H6.46387C6.24457 15.9672 5.03283 14.7544 3.5 14.5352V17.25ZM12 8.5C13.933 8.5 15.5 10.067 15.5 12C15.5 13.933 13.933 15.5 12 15.5C10.067 15.5 8.5 13.933 8.5 12C8.5 10.067 10.067 8.5 12 8.5ZM12 10C10.8954 10 10 10.8954 10 12C10 13.1046 10.8954 14 12 14C13.1046 14 14 13.1046 14 12C14 10.8954 13.1046 10 12 10ZM3.75 6.5C3.61193 6.5 3.5 6.61193 3.5 6.75V9.46387C5.03277 9.24458 6.24458 8.03277 6.46387 6.5H3.75ZM17.5361 6.5C17.7554 8.03277 18.9672 9.24458 20.5 9.46387V6.75C20.5 6.61193 20.3881 6.5 20.25 6.5H17.5361Z" fill="#1C1C1C"/>
</svg>
