<svg width="24" height="24" viewBox="0 0 24 24" fill="none" xmlns="http://www.w3.org/2000/svg">
<path d="M20.5957 13.6084C20.8547 13.3322 21.2998 13.2657 21.6436 13.4678C21.9873 13.6699 22.1114 14.0714 21.9502 14.4053L21.8926 14.5029L18.7754 18.6553L18.7051 18.7422C18.4064 19.0647 17.8708 19.0916 17.5361 18.8008L17.4561 18.7217L15.5781 16.5566L15.5098 16.4648C15.3109 16.1491 15.3863 15.7381 15.7041 15.5029C16.0223 15.2677 16.4739 15.2892 16.7637 15.5381L16.8457 15.6201L18.0137 16.9648L20.5234 13.6973L20.5957 13.6084ZM20.25 5C21.2165 5 22 5.7835 22 6.75V11.5H20.5V10.9746C18.1378 10.74 16.2589 8.8622 16.0244 6.5H7.97559C7.74107 8.8622 5.86218 10.74 3.5 10.9746V13.0244C5.86223 13.2589 7.74106 15.1378 7.97559 17.5H14.5V19H3.75C2.7835 19 2 18.2165 2 17.25V6.75C2 5.7835 2.7835 5 3.75 5H20.25ZM3.5 17.25C3.5 17.3881 3.61193 17.5 3.75 17.5H6.46387C6.24457 15.9672 5.03283 14.7544 3.5 14.5352V17.25ZM12 8.5C13.933 8.5 15.5 10.067 15.5 12C15.5 13.933 13.933 15.5 12 15.5C10.067 15.5 8.5 13.933 8.5 12C8.5 10.067 10.067 8.5 12 8.5ZM12 10C10.8954 10 10 10.8954 10 12C10 13.1046 10.8954 14 12 14C13.1046 14 14 13.1046 14 12C14 10.8954 13.1046 10 12 10ZM3.75 6.5C3.61193 6.5 3.5 6.61193 3.5 6.75V9.46387C5.03277 9.24458 6.24458 8.03277 6.46387 6.5H3.75ZM17.5361 6.5C17.7554 8.03277 18.9672 9.24458 20.5 9.46387V6.75C20.5 6.61193 20.3881 6.5 20.25 6.5H17.5361Z" fill="#1C1C1C"/>
</svg>
