<svg width="24" height="24" viewBox="0 0 24 24" fill="none" xmlns="http://www.w3.org/2000/svg">
<path fill-rule="evenodd" clip-rule="evenodd" d="M20.25 6C21.2165 6 22 6.7835 22 7.75V20.25C22 21.2165 21.2165 22 20.25 22H7.75C6.7835 22 6 21.2165 6 20.25V19H7.5V20.25C7.5 20.3683 7.58223 20.4675 7.69268 20.4934L7.75 20.5H20.25C20.3683 20.5 20.4675 20.4178 20.4934 20.3073L20.5 20.25V7.75C20.5 7.63165 20.4178 7.53251 20.3073 7.5066L20.25 7.5H19V6H20.25ZM13.25 1C13.6642 1 14 1.33579 14 1.75V2H16.25C17.2165 2 18 2.7835 18 3.75V16.25C18 17.2165 17.2165 18 16.25 18H3.75C2.7835 18 2 17.2165 2 16.25V3.75C2 2.7835 2.7835 2 3.75 2H6V1.75C6 1.33579 6.33579 1 6.75 1C7.16421 1 7.5 1.33579 7.5 1.75V2H12.5V1.75C12.5 1.33579 12.8358 1 13.25 1ZM16.5 7.5H3.5V16.25C3.5 16.3683 3.58223 16.4675 3.69268 16.4934L3.75 16.5H16.25C16.3683 16.5 16.4675 16.4178 16.4934 16.3073L16.5 16.25V7.5ZM10.3047 8.77734C10.6847 8.77734 10.9258 8.98718 10.9665 9.33056L10.9727 9.4375V13.9922C10.9727 14.3477 10.7383 14.582 10.3906 14.582C10.0777 14.582 9.85344 14.3922 9.81171 14.0951L9.80469 13.9922V9.95703H9.78125L8.95703 10.5312C8.84766 10.6094 8.76562 10.6367 8.64453 10.6367C8.40625 10.6367 8.23047 10.4648 8.23047 10.2148C8.23047 10.0651 8.2793 9.94792 8.40182 9.83842L8.48438 9.77344L9.60156 9C9.875 8.8125 10.0625 8.77734 10.3047 8.77734ZM6 3.5H3.75C3.63165 3.5 3.53251 3.58223 3.5066 3.69268L3.5 3.75V6H16.5V3.75C16.5 3.63165 16.4178 3.53251 16.3073 3.5066L16.25 3.5H14V3.75C14 4.16421 13.6642 4.5 13.25 4.5C12.8358 4.5 12.5 4.16421 12.5 3.75V3.5H7.5V3.75C7.5 4.16421 7.16421 4.5 6.75 4.5C6.33579 4.5 6 4.16421 6 3.75V3.5Z" fill="#1C1C1C"/>
</svg>
