<svg width="24" height="24" viewBox="0 0 24 24" fill="none" xmlns="http://www.w3.org/2000/svg">
<path fill-rule="evenodd" clip-rule="evenodd" d="M10.5 11.5C11.986 11.5 13.2512 11.8092 14.2956 12.4275C13.834 12.7186 13.415 13.072 13.0501 13.4752C12.3243 13.1544 11.4763 13 10.5 13C7.12943 13 5.28858 14.8404 4.69354 19.0017C4.68474 19.0632 4.68033 19.1253 4.68033 19.1875C4.68033 19.8671 5.1968 20.426 5.85864 20.4932L5.99284 20.5L12.3032 20.501C12.63 21.0656 13.0461 21.572 13.5322 22.0009L5.99284 22C4.43953 22 3.18033 20.7408 3.18033 19.1875C3.18033 19.0543 3.18979 18.9213 3.20865 18.7894C3.90353 13.9298 6.33397 11.5 10.5 11.5ZM17.5 13C19.9853 13 22 15.0147 22 17.5C22 19.9853 19.9853 22 17.5 22C15.0147 22 13 19.9853 13 17.5C13 15.0147 15.0147 13 17.5 13ZM19.9027 14.8672C19.585 14.6651 19.173 14.7318 18.9336 15.0082L18.8673 15.0973L16.884 18.212L16.0856 17.2133L16.0101 17.1318C15.7423 16.8829 15.3255 16.8609 15.0315 17.0961C14.7374 17.3314 14.6674 17.7428 14.8515 18.0587L14.9143 18.1503L16.3689 19.9685L16.4421 20.0479C16.7514 20.339 17.247 20.3122 17.5231 19.9895L17.5873 19.9026L20.1327 15.9026L20.1854 15.8048C20.3344 15.4709 20.2203 15.0694 19.9027 14.8672ZM10.5 2C12.433 2 14 3.90279 14 6.25C14 8.59721 12.433 10.5 10.5 10.5C8.56699 10.5 6.99999 8.59721 6.99999 6.25C6.99999 3.90279 8.56699 2 10.5 2ZM10.5 3.5C9.46673 3.5 8.5 4.67389 8.5 6.25C8.5 7.82611 9.46673 9 10.5 9C11.5333 9 12.5 7.82611 12.5 6.25C12.5 4.67389 11.5333 3.5 10.5 3.5Z" fill="#1C1C1C"/>
</svg>
