<svg width="24" height="24" viewBox="0 0 24 24" fill="none" xmlns="http://www.w3.org/2000/svg">
<path fill-rule="evenodd" clip-rule="evenodd" d="M10.5 11.5C11.9861 11.5 13.2513 11.8092 14.2957 12.4275C13.834 12.7186 13.4151 13.072 13.0501 13.4752C12.3243 13.1544 11.4764 13 10.5 13C7.12946 13 5.28861 14.8404 4.69357 19.0017C4.68478 19.0632 4.68036 19.1253 4.68036 19.1875C4.68036 19.8671 5.19683 20.426 5.85867 20.4932L5.99287 20.5L12.3033 20.501C12.63 21.0656 13.0461 21.572 13.5323 22.0009L5.99287 22C4.43956 22 3.18036 20.7408 3.18036 19.1875C3.18036 19.0543 3.18982 18.9213 3.20868 18.7894C3.90356 13.9298 6.334 11.5 10.5 11.5ZM17.5 13C19.9853 13 22 15.0147 22 17.5C22 19.9853 19.9853 22 17.5 22C15.0147 22 13 19.9853 13 17.5C13 15.0147 15.0147 13 17.5 13ZM17.5 14.5C17.1203 14.5 16.8065 14.7822 16.7568 15.1482L16.75 15.25L16.7493 16.75H15.25C14.8703 16.75 14.5565 17.0322 14.5068 17.3982L14.5 17.5C14.5 17.8797 14.7822 18.1935 15.1482 18.2432L15.25 18.25H16.7493L16.75 19.75C16.75 20.1297 17.0322 20.4435 17.3982 20.4932L17.5 20.5C17.8797 20.5 18.1935 20.2178 18.2432 19.8518L18.25 19.75L18.2493 18.25H19.75C20.1297 18.25 20.4435 17.9678 20.4932 17.6018L20.5 17.5C20.5 17.1203 20.2178 16.8065 19.8518 16.7568L19.75 16.75H18.2493L18.25 15.25C18.25 14.8703 17.9678 14.5565 17.6018 14.5068L17.5 14.5ZM10.5 2C12.433 2 14 3.90279 14 6.25C14 8.59721 12.433 10.5 10.5 10.5C8.56702 10.5 7.00002 8.59721 7.00002 6.25C7.00002 3.90279 8.56702 2 10.5 2ZM10.5 3.5C9.46673 3.5 8.5 4.67389 8.5 6.25C8.5 7.82611 9.46673 9 10.5 9C11.5333 9 12.5 7.82611 12.5 6.25C12.5 4.67389 11.5333 3.5 10.5 3.5Z" fill="#1C1C1C"/>
</svg>
