<svg width="24" height="24" viewBox="0 0 24 24" fill="none" xmlns="http://www.w3.org/2000/svg">
<path fill-rule="evenodd" clip-rule="evenodd" d="M11.9998 11.5C16.5529 11.5 19.2092 13.9298 19.9687 18.7894C20.209 20.3271 19.0414 21.7518 17.3609 21.9717C17.2168 21.9905 17.0714 22 16.9258 22H7.07385C5.37621 22 4 20.7408 4 19.1875C4 19.0543 4.01034 18.9213 4.03095 18.7894C4.7904 13.9298 7.44668 11.5 11.9998 11.5ZM11.9998 13C8.31605 13 6.30415 14.8404 5.65382 19.0017C5.64421 19.0632 5.63938 19.1253 5.63938 19.1875C5.63938 19.8671 6.20384 20.426 6.92718 20.4932L7.07385 20.5H16.9258C16.9937 20.5 17.0616 20.4956 17.1288 20.4868C17.9131 20.3842 18.4579 19.7193 18.3458 19.0017C17.6955 14.8404 15.6836 13 11.9998 13ZM11.9998 2C14.1124 2 15.825 3.90279 15.825 6.25C15.825 8.59721 14.1124 10.5 11.9998 10.5C9.88717 10.5 8.17456 8.59721 8.17456 6.25C8.17456 3.90279 9.88717 2 11.9998 2ZM11.9998 3.5C10.8705 3.5 9.81394 4.67389 9.81394 6.25C9.81394 7.82611 10.8705 9 11.9998 9C13.1291 9 14.1856 7.82611 14.1856 6.25C14.1856 4.67389 13.1291 3.5 11.9998 3.5Z" fill="#1C1C1C"/>
</svg>
