<svg width="24" height="24" viewBox="0 0 24 24" fill="none" xmlns="http://www.w3.org/2000/svg">
<path fill-rule="evenodd" clip-rule="evenodd" d="M14.75 11.5C18.916 11.5 21.3465 13.9298 22.0414 18.7894C22.2612 20.3271 21.1929 21.7518 19.6553 21.9717C19.5234 21.9905 19.3904 22 19.2572 22H10.2429C8.68956 22 7.43036 20.7408 7.43036 19.1875C7.43036 19.0543 7.43982 18.9213 7.45868 18.7894C8.15356 13.9298 10.584 11.5 14.75 11.5ZM14.75 13C11.3795 13 9.53861 14.8404 8.94357 19.0017C8.93478 19.0632 8.93036 19.1253 8.93036 19.1875C8.93036 19.8671 9.44683 20.426 10.1087 20.4932L10.2429 20.5H19.2572C19.3193 20.5 19.3814 20.4956 19.443 20.4868C20.1605 20.3842 20.6591 19.7193 20.5565 19.0017C19.9614 14.8404 18.1206 13 14.75 13ZM6.44621 6.39705L6.53033 6.46967L9.53033 9.46967C9.7966 9.73594 9.8208 10.1526 9.60295 10.4462L9.53033 10.5303L6.53033 13.5303C6.23744 13.8232 5.76256 13.8232 5.46967 13.5303C5.2034 13.2641 5.1792 12.8474 5.39705 12.5538L5.46967 12.4697L7.189 10.75H1.75C1.33579 10.75 1 10.4142 1 10C1 9.6203 1.28215 9.30651 1.64823 9.25685L1.75 9.25H7.189L5.46967 7.53033C5.2034 7.26406 5.1792 6.8474 5.39705 6.55379L5.46967 6.46967C5.73594 6.2034 6.1526 6.1792 6.44621 6.39705ZM14.75 2C16.683 2 18.25 3.90279 18.25 6.25C18.25 8.59721 16.683 10.5 14.75 10.5C12.817 10.5 11.25 8.59721 11.25 6.25C11.25 3.90279 12.817 2 14.75 2ZM14.75 3.5C13.7167 3.5 12.75 4.67389 12.75 6.25C12.75 7.82611 13.7167 9 14.75 9C15.7833 9 16.75 7.82611 16.75 6.25C16.75 4.67389 15.7833 3.5 14.75 3.5Z" fill="#1C1C1C"/>
</svg>
