<svg width="24" height="24" viewBox="0 0 24 24" fill="none" xmlns="http://www.w3.org/2000/svg">
<path fill-rule="evenodd" clip-rule="evenodd" d="M11.9998 11.5C16.5529 11.5 19.2092 13.9298 19.9687 18.7894C20.209 20.3271 19.0414 21.7518 17.3609 21.9717C17.2168 21.9905 17.0714 22 16.9258 22H7.07385C5.37621 22 4 20.7408 4 19.1875C4 19.0543 4.01034 18.9213 4.03095 18.7894C4.7904 13.9298 7.44668 11.5 11.9998 11.5ZM11.9998 2C14.1124 2 15.825 3.90279 15.825 6.25C15.825 8.59721 14.1124 10.5 11.9998 10.5C9.88717 10.5 8.17456 8.59721 8.17456 6.25C8.17456 3.90279 9.88717 2 11.9998 2Z" fill="#1C1C1C"/>
</svg>
