<svg width="24" height="24" viewBox="0 0 24 24" fill="none" xmlns="http://www.w3.org/2000/svg">
<path d="M5.35688 4.38354L6.24814 3.80431C7.0833 3.26155 8.18967 3.48067 8.83361 4.3163L10.1149 5.97931C10.6733 6.70398 10.7418 7.71375 10.2843 8.47575L9.01117 10.5962C9.38326 11.5608 9.97314 12.4507 10.7808 13.2661C11.5885 14.0814 12.489 14.6959 13.4824 15.1097L15.3581 13.8564C16.0691 13.3813 17.0026 13.4582 17.6747 14.0473L19.2402 15.4195C20.0215 16.1042 20.2296 17.2819 19.7271 18.1746L19.1886 19.1313C18.6526 20.0835 17.6717 20.6397 16.6134 20.5913C14.1148 20.4769 11.4161 18.8732 8.51702 15.7801C5.61372 12.6825 4.10894 9.79751 4.00269 7.12531C3.95799 6.00089 4.47314 4.95788 5.35688 4.38354Z" fill="#1C1C1C"/>
</svg>
