<svg width="24" height="24" viewBox="0 0 24 24" fill="none" xmlns="http://www.w3.org/2000/svg">
<path d="M4.74282 3.9985L5.77901 3.35669C6.95328 2.62934 8.48482 2.88592 9.35799 3.95623L10.7481 5.66023C11.4923 6.57254 11.5732 7.85739 10.9493 8.85582L9.8666 10.5886C9.83492 10.6392 9.8224 10.6995 9.8314 10.7586C9.89129 11.1536 10.3516 11.831 11.2287 12.7082C11.8666 13.3461 12.4027 13.7696 12.8181 13.9773C13.1076 14.1221 13.2483 14.1324 13.2987 14.1014L15.0816 12.9874C16.0797 12.3637 17.3642 12.4443 18.2764 13.188L19.9729 14.5711C21.0407 15.4416 21.2996 16.9679 20.5786 18.1418L19.9397 19.182C19.2503 20.3045 18.0224 20.9829 16.7053 20.9692C13.8461 20.9395 10.8594 19.3336 7.73135 16.2056C4.59894 13.0732 2.99297 10.0825 2.96762 7.21971C2.95601 5.90959 3.629 4.68841 4.74282 3.9985ZM5.53267 5.2737C4.86439 5.68764 4.46059 6.42035 4.46756 7.20642C4.48888 9.61447 5.91232 12.2653 8.79201 15.145C11.6679 18.0207 14.3154 19.4443 16.7208 19.4693C17.5112 19.4775 18.2479 19.0705 18.6615 18.3969L19.3004 17.3568C19.6281 16.8231 19.5105 16.1294 19.0251 15.7337L17.3287 14.3506C16.914 14.0127 16.3301 13.9759 15.8764 14.2595L14.0892 15.3762C13.0496 16.0158 11.7804 15.3812 10.1681 13.7688C9.08154 12.6823 8.4694 11.7813 8.34837 10.9836C8.28566 10.5703 8.37296 10.1482 8.59448 9.79368L9.67725 8.06094C9.96085 7.6071 9.92404 7.02309 9.58579 6.6084L8.19569 4.9044C7.79881 4.4179 7.10262 4.30127 6.56887 4.63188L5.53267 5.2737Z" fill="#1C1C1C"/>
</svg>
