<svg width="24" height="24" viewBox="0 0 24 24" fill="none" xmlns="http://www.w3.org/2000/svg">
<path fill-rule="evenodd" clip-rule="evenodd" d="M12 2C17.5228 2 22 6.47715 22 12C22 17.5228 17.5228 22 12 22C6.47715 22 2 17.5228 2 12C2 6.47715 6.47715 2 12 2ZM12 3.5C7.30558 3.5 3.5 7.30558 3.5 12C3.5 16.6944 7.30558 20.5 12 20.5C16.6944 20.5 20.5 16.6944 20.5 12C20.5 7.30558 16.6944 3.5 12 3.5ZM9.79999 8.00001C9.79999 7.44944 10.3979 7.12745 10.8509 7.39384L10.934 7.45077L15.7937 11.2906C16.1188 11.5475 16.1459 12.0209 15.8749 12.3139L15.7937 12.3891L10.934 16.2289C10.502 16.5702 9.87865 16.3007 9.80681 15.7801L9.79999 15.6797V8.00001ZM11.2 9.44495V14.2339L14.23 11.8389L11.2 9.44495Z" fill="#1C1C1C"/>
</svg>
