<svg width="24" height="24" viewBox="0 0 24 24" fill="none" xmlns="http://www.w3.org/2000/svg">
<path fill-rule="evenodd" clip-rule="evenodd" d="M6.16887 17.0547C6.59856 17.0547 6.90324 16.75 6.90324 16.3047V13.4297H9.55168C10.0048 13.4297 10.3095 13.1328 10.3095 12.7109C10.3095 12.2812 10.0048 11.9844 9.55168 11.9844H6.90324V9.25781C6.90324 8.8125 6.59856 8.5 6.16887 8.5C5.73918 8.5 5.44231 8.8125 5.44231 9.25781V11.9844H2.82512C2.37981 11.9844 2.06731 12.2812 2.06731 12.7109C2.06731 13.1328 2.37981 13.4297 2.82512 13.4297H5.44231V16.3047C5.44231 16.75 5.74699 17.0547 6.16887 17.0547ZM11.7672 19.5078C12.1188 19.5078 12.4079 19.2969 12.5016 18.9531L15.9547 6.70312C15.9782 6.64062 15.9938 6.53125 16.0016 6.44531C16.0094 6.03906 15.6657 5.69531 15.236 5.69531C14.8766 5.69531 14.5875 5.90625 14.4938 6.24219L11.0485 18.4922C11.025 18.5547 11.0016 18.6719 11.0016 18.7578C10.9938 19.1641 11.3297 19.5078 11.7672 19.5078ZM21.1547 13.3984C21.7328 13.3984 22.0375 13.0781 22.0375 12.6172C22.0375 12.1562 21.7328 11.8516 21.1547 11.8516H17.475C16.9047 11.8516 16.5922 12.1641 16.5922 12.6172C16.5922 13.0781 16.8969 13.3984 17.475 13.3984H21.1547Z" fill="#1C1C1C"/>
</svg>
