<svg width="24" height="24" viewBox="0 0 24 24" fill="none" xmlns="http://www.w3.org/2000/svg">
<path fill-rule="evenodd" clip-rule="evenodd" d="M16.75 2C17.7165 2 18.5 2.7835 18.5 3.75L18.5005 5.50824C20.4548 5.63715 22 7.26312 22 9.25V16.75C22 17.7165 21.2165 18.5 20.25 18.5H18.5V20.25C18.5 21.2165 17.7165 22 16.75 22H7.25C6.2835 22 5.5 21.2165 5.5 20.25V18.5H3.75C2.7835 18.5 2 17.7165 2 16.75V9.25C2 7.26278 3.54573 5.63659 5.50046 5.50817L5.5 3.75C5.5 2.7835 6.2835 2 7.25 2H16.75ZM17 14.5H7V20.25C7 20.3683 7.08223 20.4675 7.19268 20.4934L7.25 20.5H16.75C16.8683 20.5 16.9675 20.4178 16.9934 20.3073L17 20.25V14.5ZM18.25 7H5.75C4.55914 7 3.58436 7.92516 3.50519 9.09595L3.5 9.25V16.75C3.5 16.8683 3.58223 16.9675 3.69268 16.9934L3.75 17H5.5V13.75C5.5 13.3358 5.83579 13 6.25 13H17.75C18.1642 13 18.5 13.3358 18.5 13.75V17H20.25C20.3683 17 20.4675 16.9178 20.4934 16.8073L20.5 16.75V9.25C20.5 8.05914 19.5748 7.08435 18.404 7.00519L18.25 7ZM17.75 10C18.1642 10 18.5 10.3358 18.5 10.75C18.5 11.1642 18.1642 11.5 17.75 11.5H15.25C14.8358 11.5 14.5 11.1642 14.5 10.75C14.5 10.3358 14.8358 10 15.25 10H17.75ZM16.75 3.5H7.25C7.13165 3.5 7.03251 3.58223 7.0066 3.69268L7 3.75V5.5H17V3.75C17 3.63165 16.9178 3.53251 16.8073 3.5066L16.75 3.5Z" fill="#1C1C1C"/>
</svg>
