<svg width="24" height="24" viewBox="0 0 24 24" fill="none" xmlns="http://www.w3.org/2000/svg">
<path fill-rule="evenodd" clip-rule="evenodd" d="M8.49681 2.75C8.49681 2.33579 8.16102 2 7.74681 2C7.3326 2 6.99681 2.33579 6.99681 2.75V3H4.74681C3.78031 3 2.99681 3.7835 2.99681 4.75V6.5V8V12H4.49681V8H19.4968V19.25L19.4902 19.3073C19.4643 19.4178 19.3652 19.5 19.2468 19.5H11.9968V21H19.2468C20.2133 21 20.9968 20.2165 20.9968 19.25V8V6.5V4.75C20.9968 3.7835 20.2133 3 19.2468 3H16.9968V2.75C16.9968 2.33579 16.661 2 16.2468 2C15.8326 2 15.4968 2.33579 15.4968 2.75V3H8.49681V2.75ZM19.4968 6.5V4.75C19.4968 4.63165 19.4146 4.53251 19.3041 4.5066L19.2468 4.5H16.9968V4.75C16.9968 5.16421 16.661 5.5 16.2468 5.5C15.8326 5.5 15.4968 5.16421 15.4968 4.75V4.5H8.49681V4.75C8.49681 5.16421 8.16102 5.5 7.74681 5.5C7.3326 5.5 6.99681 5.16421 6.99681 4.75V4.5H4.74681C4.62846 4.5 4.52932 4.58223 4.50341 4.69268L4.49681 4.75V6.5H19.4968ZM2.71593 18.6731L3.11725 17.9781C3.55362 19.7144 5.12509 21 6.99681 21C7.90173 21 8.76259 20.6977 9.46075 20.1512C9.78691 19.8959 9.84435 19.4245 9.58902 19.0983C9.3337 18.7722 8.86231 18.7147 8.53615 18.9701C8.09962 19.3118 7.56356 19.5 6.99681 19.5C5.76744 19.5 4.74533 18.6126 4.53603 17.4435L5.41366 17.9503C5.62624 18.073 5.89147 18.0219 6.04476 17.8411L6.09667 17.7673C6.2194 17.5547 6.1683 17.2895 5.98747 17.1362L5.91366 17.0843L3.77036 15.8468C3.55778 15.7241 3.29255 15.7752 3.13926 15.956L3.08734 16.0298L1.84991 18.1731C1.71184 18.4123 1.79377 18.7181 2.03292 18.8562C2.24549 18.9789 2.51073 18.9278 2.66402 18.747L2.71593 18.6731ZM9.49094 16.8274C9.40226 15.5272 8.31949 14.5 6.99681 14.5C6.43006 14.5 5.894 14.6882 5.45747 15.0299C5.13131 15.2853 4.65992 15.2278 4.4046 14.9017C4.14928 14.5755 4.20671 14.1041 4.53287 13.8488C5.23103 13.3023 6.09189 13 6.99681 13C8.93112 13 10.5448 14.373 10.9163 16.1976L11.2746 15.5768C11.3973 15.3643 11.6525 15.2759 11.8757 15.3559L11.9576 15.3938C12.1701 15.5166 12.2585 15.7718 12.1785 15.995L12.1406 16.0768L10.9032 18.2201C10.7804 18.4327 10.5252 18.5211 10.302 18.4411L10.2201 18.4032L8.07683 17.1657C7.83769 17.0276 7.75575 16.7219 7.89382 16.4827C8.01655 16.2701 8.2718 16.1818 8.49497 16.2617L8.57683 16.2997L9.49094 16.8274Z" fill="#1C1C1C"/>
</svg>
