<svg width="24" height="24" viewBox="0 0 24 24" fill="none" xmlns="http://www.w3.org/2000/svg">
<path fill-rule="evenodd" clip-rule="evenodd" d="M7.79687 9C8.26099 9 8.70611 9.18437 9.0343 9.51256L15.2626 15.7408C15.946 16.4242 15.946 17.5323 15.2626 18.2157L11.2157 22.2626C10.5323 22.946 9.42424 22.946 8.74082 22.2626L2.51256 16.0343C2.18437 15.7061 2 15.261 2 14.7969V10.75C2 9.7835 2.7835 9 3.75 9H7.79687ZM18.25 2C19.2165 2 20 2.7835 20 3.75V20.25C20 21.2165 19.2165 22 18.25 22H14.5V20.5H18.25C18.3683 20.5 18.4675 20.4178 18.4934 20.3073L18.5 20.25V3.75C18.5 3.63165 18.4178 3.53251 18.3073 3.5066L18.25 3.5H5.75C5.63165 3.5 5.53251 3.58223 5.5066 3.69268L5.5 3.75V8H4V3.75C4 2.7835 4.7835 2 5.75 2H18.25ZM7.79687 10.5H3.75C3.63165 10.5 3.53251 10.5822 3.5066 10.6927L3.5 10.75V14.7969C3.5 14.8411 3.51171 14.8841 3.5334 14.9217L3.57322 14.9736L9.80148 21.2019C9.88284 21.2833 10.0063 21.2968 10.1017 21.2426L10.155 21.2019L14.2019 17.155C14.2833 17.0737 14.2968 16.9502 14.2426 16.8548L14.2019 16.8015L7.97364 10.5732C7.94239 10.542 7.90371 10.5198 7.86175 10.5086L7.79687 10.5ZM5.29289 12.2929C5.68342 11.9024 6.31658 11.9024 6.70711 12.2929C7.09763 12.6834 7.09763 13.3166 6.70711 13.7071C6.31658 14.0976 5.68342 14.0976 5.29289 13.7071C4.90237 13.3166 4.90237 12.6834 5.29289 12.2929ZM15.75 9.5C16.1642 9.5 16.5 9.83579 16.5 10.25C16.5 10.6642 16.1642 11 15.75 11H13.25C12.8358 11 12.5 10.6642 12.5 10.25C12.5 9.83579 12.8358 9.5 13.25 9.5H15.75ZM15.75 6C16.1642 6 16.5 6.33579 16.5 6.75C16.5 7.16421 16.1642 7.5 15.75 7.5H8.25C7.83579 7.5 7.5 7.16421 7.5 6.75C7.5 6.33579 7.83579 6 8.25 6H15.75Z" fill="#1C1C1C"/>
</svg>
