<svg width="24" height="24" viewBox="0 0 24 24" fill="none" xmlns="http://www.w3.org/2000/svg">
<path fill-rule="evenodd" clip-rule="evenodd" d="M19.25 3C20.2165 3 21 3.7835 21 4.75V19.25C21 20.2165 20.2165 21 19.25 21H4.75C3.7835 21 3 20.2165 3 19.25V4.75C3 3.7835 3.7835 3 4.75 3H19.25ZM19.25 4.5H4.75C4.63165 4.5 4.53251 4.58223 4.5066 4.69268L4.5 4.75V19.25C4.5 19.3683 4.58223 19.4675 4.69268 19.4934L4.75 19.5H19.25C19.3683 19.5 19.4675 19.4178 19.4934 19.3073L19.5 19.25V4.75C19.5 4.63165 19.4178 4.53251 19.3073 4.5066L19.25 4.5ZM8.25 15C8.66421 15 9 15.3358 9 15.75V16.75C9 17.1642 8.66421 17.5 8.25 17.5H7.25C6.83579 17.5 6.5 17.1642 6.5 16.75V15.75C6.5 15.3358 6.83579 15 7.25 15H8.25ZM16.75 16C17.1642 16 17.5 16.3358 17.5 16.75C17.5 17.1642 17.1642 17.5 16.75 17.5H12.25C11.8358 17.5 11.5 17.1642 11.5 16.75C11.5 16.3358 11.8358 16 12.25 16H16.75ZM16.75 12.8334C17.1642 12.8334 17.5 13.1692 17.5 13.5834C17.5 13.9976 17.1642 14.3334 16.75 14.3334H12.25C11.8358 14.3334 11.5 13.9976 11.5 13.5834C11.5 13.1692 11.8358 12.8334 12.25 12.8334H16.75ZM16.75 9.66663C17.1642 9.66663 17.5 10.0024 17.5 10.4166C17.5 10.8308 17.1642 11.1666 16.75 11.1666H12.25C11.8358 11.1666 11.5 10.8308 11.5 10.4166C11.5 10.0024 11.8358 9.66663 12.25 9.66663H16.75ZM8.25 6.5C8.66421 6.5 9 6.83579 9 7.25V8.25C9 8.66421 8.66421 9 8.25 9H7.25C6.83579 9 6.5 8.66421 6.5 8.25V7.25C6.5 6.83579 6.83579 6.5 7.25 6.5H8.25ZM16.75 6.5C17.1642 6.5 17.5 6.83579 17.5 7.25C17.5 7.66421 17.1642 8 16.75 8H12.25C11.8358 8 11.5 7.66421 11.5 7.25C11.5 6.83579 11.8358 6.5 12.25 6.5H16.75Z" fill="#1C1C1C"/>
</svg>
