<svg width="24" height="24" viewBox="0 0 24 24" fill="none" xmlns="http://www.w3.org/2000/svg">
<path fill-rule="evenodd" clip-rule="evenodd" d="M7.10187 11.125C7.85464 11.125 8.57448 11.4201 9.10946 11.942L9.25067 12.09L14.0573 17.4974C14.2403 17.7033 14.4912 17.8336 14.7616 17.8667L14.8981 17.875H18.314L17.2197 16.7803L17.1471 16.6962C16.9292 16.4026 16.9534 15.9859 17.2197 15.7197C17.4859 15.4534 17.9026 15.4292 18.1962 15.6471L18.2803 15.7197L20.7803 18.2197C20.8171 18.2565 20.8493 18.2961 20.8768 18.3379L20.9296 18.4323L20.9581 18.5024L20.9811 18.5824L20.9943 18.6571L20.9999 18.7592L20.9983 18.801L20.9893 18.8764L20.9616 18.9874L20.9194 19.0887L20.8813 19.1553L20.8544 19.1943L20.8192 19.2384L20.7803 19.2803L18.2803 21.7803L18.1962 21.8529C17.9026 22.0708 17.4859 22.0466 17.2197 21.7803C16.9534 21.5141 16.9292 21.0974 17.1471 20.8038L17.2197 20.7197L18.315 19.624L14.8981 19.625C14.1454 19.625 13.4255 19.3299 12.8905 18.808L12.7493 18.66L7.9427 13.2526C7.75971 13.0467 7.50875 12.9164 7.23842 12.8833L7.10187 12.875H3.75C3.26675 12.875 2.875 12.4832 2.875 12C2.875 11.5539 3.2088 11.1858 3.64024 11.1318L3.75 11.125H7.10187ZM18.1962 2.14705L18.2803 2.21967L20.7803 4.71967C20.8191 4.75845 20.8527 4.80041 20.8813 4.84472L20.93 4.93316L20.9734 5.05161L20.9943 5.15773L20.9983 5.1995L20.9998 5.26885L20.9943 5.34243L20.9811 5.41761L20.9582 5.4975L20.911 5.60471L20.8529 5.69621L20.7803 5.78033L18.2803 8.28033C17.9874 8.57322 17.5126 8.57322 17.2197 8.28033C16.9534 8.01406 16.9292 7.5974 17.1471 7.30379L17.2197 7.21967L18.315 6.124L14.8886 6.12499L14.7533 6.13315C14.5302 6.16016 14.3201 6.25351 14.1504 6.40102L14.0537 6.49592L11.1493 9.71149L11.0638 9.79425C10.7346 10.0724 10.2422 10.0713 9.9135 9.77433C9.58476 9.47741 9.53373 8.98774 9.777 8.63196L9.85066 8.53849L12.755 5.32292L12.896 5.17749C13.3811 4.71104 14.0149 4.42946 14.6862 4.38212L14.8886 4.37499L18.313 4.374L17.2197 3.28033C16.9268 2.98744 16.9268 2.51256 17.2197 2.21967C17.4859 1.9534 17.9026 1.9292 18.1962 2.14705Z" fill="#1C1C1C"/>
</svg>
