<svg width="24" height="24" viewBox="0 0 24 24" fill="none" xmlns="http://www.w3.org/2000/svg">
<path fill-rule="evenodd" clip-rule="evenodd" d="M21.2501 11.25C21.6643 11.25 22.0001 11.5858 22.0001 12C22.0001 17.5228 17.5229 22 12.0001 22C9.00136 22 6.23226 20.6687 4.36179 18.4555L4.3241 19.5262C4.30964 19.9401 3.96234 20.264 3.54838 20.2495C3.16892 20.2363 2.86516 19.9434 2.8283 19.5758L2.82501 19.4738L2.92372 16.6471C2.93818 16.2332 3.28548 15.9093 3.69944 15.9238L6.52614 16.0225C6.94011 16.0369 7.26397 16.3842 7.24951 16.7982C7.23626 17.1776 6.94333 17.4814 6.57574 17.5183L6.4738 17.5215L5.50829 17.4882C7.09855 19.3694 9.45122 20.5 12.0001 20.5C16.6945 20.5 20.5001 16.6944 20.5001 12C20.5001 11.5858 20.8359 11.25 21.2501 11.25ZM12.0352 6.98242C12.2725 6.98242 12.5145 7.09158 12.5605 7.38679L12.5684 7.49219V7.91406C13.3477 8.01367 14.0449 8.2832 14.4785 8.70508C14.8066 9.01562 14.9824 9.36133 14.9824 9.68945C14.9824 10.0762 14.6777 10.3457 14.3086 10.3457C13.9922 10.3457 13.752 10.2344 13.459 9.98242C12.9609 9.50781 12.5391 9.32031 11.9531 9.32031C11.2617 9.32031 10.8223 9.71289 10.8223 10.2051C10.8223 10.6107 11.1118 10.8816 11.7417 11.0361L11.9062 11.0723L13.0137 11.3008C14.4902 11.5879 15.2168 12.3203 15.2168 13.5215C15.2168 14.8523 14.2751 15.7903 12.7526 16.0363L12.5508 16.0645V16.4336C12.5508 16.8086 12.2812 16.9434 12.0176 16.9434C11.7803 16.9434 11.5335 16.8342 11.4865 16.539L11.4785 16.4336V16.0762C10.5879 16 9.80273 15.7246 9.31641 15.2734C8.98828 14.9746 8.80078 14.6348 8.80078 14.2832C8.80078 13.8262 9.13477 13.5684 9.55078 13.5684C9.80859 13.5684 10.0195 13.6504 10.3535 13.9316C10.875 14.4062 11.4492 14.6523 12.041 14.6523C12.8672 14.6523 13.3125 14.2832 13.3125 13.7207C13.3125 13.3105 13.0216 13.0586 12.2968 12.8792L12.1348 12.8418L11.0332 12.6016C9.61523 12.3086 8.90039 11.5469 8.90039 10.3516C8.90039 9.05444 9.83673 8.12863 11.3072 7.92481L11.502 7.90234V7.49219C11.502 7.11133 11.7715 6.98242 12.0352 6.98242ZM12 2C15 2 17.7692 3.33247 19.6388 5.54501L19.6759 4.47383C19.6903 4.05986 20.0376 3.736 20.4516 3.75046C20.8311 3.76371 21.1348 4.05664 21.1717 4.42423L21.175 4.52617L21.0762 7.35288C21.063 7.73234 20.7701 8.0361 20.4025 8.07296L20.3005 8.07625L17.4738 7.97754C17.0599 7.96308 16.736 7.61578 16.7505 7.20182C16.7637 6.82235 17.0566 6.5186 17.4242 6.48174L17.5262 6.47845L18.492 6.5119C16.9025 4.63157 14.5498 3.5 12 3.5C7.30558 3.5 3.5 7.30558 3.5 12C3.5 12.4142 3.16421 12.75 2.75 12.75C2.33579 12.75 2 12.4142 2 12C2 6.47715 6.47715 2 12 2Z" fill="#1C1C1C"/>
</svg>
