<svg width="24" height="24" viewBox="0 0 24 24" fill="none" xmlns="http://www.w3.org/2000/svg">
<path fill-rule="evenodd" clip-rule="evenodd" d="M12 2C17.5228 2 22 6.47715 22 12C22 17.5228 17.5228 22 12 22C6.47715 22 2 17.5228 2 12C2 6.47715 6.47715 2 12 2ZM12.0352 6.98242C11.7715 6.98242 11.502 7.11133 11.502 7.49219V7.90234C9.91992 8.04883 8.90039 8.99805 8.90039 10.3516C8.90039 11.4871 9.54554 12.2313 10.8258 12.5541L12.1348 12.8418C12.9785 13.0234 13.3125 13.2812 13.3125 13.7207C13.3125 14.2832 12.8672 14.6523 12.041 14.6523C11.4492 14.6523 10.875 14.4062 10.3535 13.9316C10.0195 13.6504 9.80859 13.5684 9.55078 13.5684C9.13477 13.5684 8.80078 13.8262 8.80078 14.2832C8.80078 14.6348 8.98828 14.9746 9.31641 15.2734C9.80273 15.7246 10.5879 16 11.4785 16.0762V16.4336C11.4785 16.8086 11.7539 16.9434 12.0176 16.9434C12.2812 16.9434 12.5508 16.8086 12.5508 16.4336V16.0645C14.1914 15.8711 15.2168 14.9102 15.2168 13.5215C15.2168 12.3775 14.5578 11.6587 13.2195 11.3448L11.9062 11.0723C11.1621 10.9258 10.8223 10.6445 10.8223 10.2051C10.8223 9.71289 11.2617 9.32031 11.9531 9.32031C12.5391 9.32031 12.9609 9.50781 13.459 9.98242C13.752 10.2344 13.9922 10.3457 14.3086 10.3457C14.6777 10.3457 14.9824 10.0762 14.9824 9.68945C14.9824 9.36133 14.8066 9.01562 14.4785 8.70508C14.0449 8.2832 13.3477 8.01367 12.5684 7.91406V7.49219C12.5684 7.11719 12.2988 6.98242 12.0352 6.98242Z" fill="#1C1C1C"/>
</svg>
