<svg width="24" height="24" viewBox="0 0 24 24" fill="none" xmlns="http://www.w3.org/2000/svg">
<path fill-rule="evenodd" clip-rule="evenodd" d="M17 7C19.7614 7 22 9.23858 22 12C22 14.6888 19.8777 16.8818 17.2169 16.9954L17 17H14.5C14.0858 17 13.75 16.6642 13.75 16.25C13.75 15.8703 14.0322 15.5565 14.3982 15.5068L14.5 15.5H17C18.933 15.5 20.5 13.933 20.5 12C20.5 10.1314 19.0357 8.60487 17.192 8.50518L17 8.5H14.5C14.0858 8.5 13.75 8.16421 13.75 7.75C13.75 7.3703 14.0322 7.05651 14.3982 7.00685L14.5 7H17ZM9.5 7C9.91421 7 10.25 7.33579 10.25 7.75C10.25 8.1297 9.96785 8.44349 9.60177 8.49315L9.5 8.5H7C5.067 8.5 3.5 10.067 3.5 12C3.5 13.8686 4.96428 15.3951 6.80796 15.4948L7 15.5H9.5C9.91421 15.5 10.25 15.8358 10.25 16.25C10.25 16.6297 9.96785 16.9435 9.60177 16.9932L9.5 17H7C4.23858 17 2 14.7614 2 12C2 9.31125 4.12231 7.11818 6.78311 7.00462L7 7H9.5ZM17 11.25C17.4142 11.25 17.75 11.5858 17.75 12C17.75 12.4142 17.4142 12.75 17 12.75H7C6.58579 12.75 6.25 12.4142 6.25 12C6.25 11.5858 6.58579 11.25 7 11.25H17Z" fill="#1C1C1C"/>
</svg>
