<svg width="24" height="24" viewBox="0 0 24 24" fill="none" xmlns="http://www.w3.org/2000/svg">
<path fill-rule="evenodd" clip-rule="evenodd" d="M12.268 21.2462L12 21.25L11.6767 21.2444L11.3577 21.2279L11.057 21.2025L10.7285 21.1629C10.0095 21.0644 9.31719 20.8831 8.66111 20.629L8.37339 20.512L8.01961 20.3523L7.78267 20.2348L7.42484 20.0416L7.04018 19.8092L6.77722 19.636L6.47764 19.4213L6.24689 19.2437L6.00852 19.0477L5.65331 18.7292C5.53514 18.6177 5.4199 18.5031 5.30773 18.3856L5.15687 18.2237C4.44692 17.4454 3.89194 16.5704 3.49529 15.6439L3.36864 15.3329L3.23466 14.9615L3.14828 14.6932L3.06735 14.4081C2.86014 13.6405 2.75 12.8331 2.75 12C2.75 11.1069 2.87657 10.2433 3.11276 9.42631L3.24958 8.99478L3.327 8.77709L3.49552 8.35577C3.70669 7.86226 3.96306 7.38309 4.26441 6.9248L4.43538 6.6752C4.64814 6.37239 4.88196 6.07974 5.13607 5.79893L5.30356 5.61872C5.47808 5.43563 5.66003 5.25969 5.84893 5.09139L6.04567 4.92093L6.39125 4.64311L6.71931 4.40445L7.02118 4.20201L7.13764 4.12955C7.35468 3.99456 7.57643 3.86964 7.80202 3.75467L8.28578 3.52575L8.65529 3.3732L9.08265 3.21995L9.43572 3.11011L9.69887 3.03857L9.84417 3.00336C10.5362 2.83736 11.2579 2.74998 12 2.74998L12.2405 2.75306L12.5571 2.76666L12.9459 2.798L13.2296 2.83135L13.7168 2.90979L14.1471 3.00102L14.4336 3.07418L14.8242 3.18963L15.1172 3.28885L15.4531 3.41616L15.623 3.48673L16.002 3.65781L16.2607 3.78694L16.5107 3.92168L16.927 4.16948L17.1817 4.33581C17.3962 4.48088 17.6059 4.63621 17.8102 4.80152C17.9858 4.94316 18.1566 5.09188 18.3221 5.247L18.3211 3.2218C18.3211 2.84524 18.5986 2.5335 18.9602 2.47993L19.0711 2.4718C19.4476 2.4718 19.7594 2.74931 19.8129 3.11097L19.8211 3.2218V7.05023C19.8211 7.42679 19.5436 7.73853 19.1819 7.7921L19.0711 7.80023H15.2426C14.8284 7.80023 14.4926 7.46444 14.4926 7.05023C14.4926 6.67367 14.7702 6.36193 15.1318 6.30836L15.2426 6.30023L17.2505 6.2994L17.0535 6.12325L16.8344 5.94147L16.7029 5.83889L16.5038 5.6915L16.2776 5.53562L16.0434 5.38629L15.8075 5.24747L15.6582 5.16552L15.4362 5.05114L15.1682 4.9249L15.0467 4.87173C14.8454 4.78574 14.6411 4.70868 14.4346 4.64053C14.3027 4.59672 14.169 4.55654 14.0341 4.51994L13.7707 4.45348L13.5128 4.39783L13.251 4.35067L12.973 4.31093L12.624 4.27483L12.2706 4.25463L12 4.24998L11.8173 4.25209L11.4406 4.26985L11.1466 4.29643L10.8992 4.32756L10.5641 4.38275L10.2203 4.45598L9.97708 4.51729L9.77541 4.57455C9.59357 4.62886 9.41333 4.68997 9.2351 4.7579L8.9531 4.87188L8.74854 4.9627L8.43182 5.11791L8.19256 5.24816C7.97607 5.3705 7.76606 5.50296 7.56315 5.64488L7.17978 5.93046L6.96964 6.10387L6.89534 6.16846C6.82921 6.22639 6.76409 6.28542 6.69998 6.34554L6.51992 6.5199L6.28122 6.76941L6.10592 6.96762L5.95351 7.1516C5.83461 7.29969 5.72103 7.45225 5.61308 7.60898C5.52537 7.73512 5.44275 7.86304 5.36427 7.99277L5.18974 8.29669L5.0739 8.51891L4.96191 8.75087C4.90928 8.86469 4.85933 8.97999 4.81214 9.09671L4.7021 9.38626L4.58016 9.75495L4.53432 9.91497C4.4497 10.219 4.38396 10.5273 4.33712 10.8378L4.28615 11.2466L4.29658 11.149C4.24682 11.6021 4.23693 12.0586 4.2669 12.5131L4.29063 12.7984C4.3224 13.1045 4.37219 13.4092 4.44014 13.7107L4.51414 14.0111L4.5718 14.2153C4.64445 14.4597 4.7294 14.7012 4.82666 14.9388L4.91233 15.1396C4.96157 15.2512 5.01364 15.3617 5.06847 15.4711L5.15946 15.6461L5.29564 15.8915L5.44425 16.1365L5.50157 16.2245C5.55132 16.3009 5.60239 16.3764 5.65473 16.4508C5.74404 16.579 5.83872 16.7053 5.93777 16.8293L6.07934 17.0015L6.17196 17.1086L6.34565 17.3001L6.51992 17.4801L6.7001 17.6546L6.94596 17.8757L7.2697 18.1394L7.61893 18.3944L7.74228 18.4774L7.98159 18.6281L8.18125 18.7461L8.44089 18.8868L8.69843 19.0136L9.02839 19.1601L9.26735 19.2546C9.46278 19.3282 9.66111 19.3937 9.86186 19.4512L10.2206 19.5447L10.3572 19.5755L10.4811 19.6009L10.7781 19.654L11.1066 19.699L11.3528 19.7232L11.4497 19.7307C11.541 19.7371 11.6327 19.742 11.7249 19.7452L12 19.75C16.2802 19.75 19.75 16.2802 19.75 12C19.75 11.5858 20.0858 11.25 20.5 11.25C20.9142 11.25 21.25 11.5858 21.25 12C21.25 17.019 17.2527 21.1044 12.268 21.2462Z" fill="#1C1C1C"/>
</svg>
