<svg width="24" height="24" viewBox="0 0 24 24" fill="none" xmlns="http://www.w3.org/2000/svg">
<path fill-rule="evenodd" clip-rule="evenodd" d="M12 2C17.5228 2 22 6.47715 22 12C22 17.5228 17.5228 22 12 22C6.47715 22 2 17.5228 2 12C2 6.47715 6.47715 2 12 2ZM12 3.5C7.30558 3.5 3.5 7.30558 3.5 12C3.5 16.6944 7.30558 20.5 12 20.5C16.6944 20.5 20.5 16.6944 20.5 12C20.5 7.30558 16.6944 3.5 12 3.5ZM8.64124 8.64124C8.90973 8.37275 9.33113 8.35038 9.6251 8.57412L9.7019 8.64124L12 10.9393L14.2981 8.64124C14.591 8.34835 15.0659 8.34835 15.3588 8.64124C15.6272 8.90973 15.6496 9.33113 15.4259 9.6251L15.3588 9.7019L13.0607 12L15.3588 14.2981C15.6516 14.591 15.6516 15.0659 15.3588 15.3588C15.0903 15.6272 14.6689 15.6496 14.3749 15.4259L14.2981 15.3588L12 13.0607L9.7019 15.3588C9.40901 15.6516 8.93413 15.6516 8.64124 15.3588C8.37275 15.0903 8.35038 14.6689 8.57412 14.3749L8.64124 14.2981L10.9393 12L8.64124 9.7019C8.34835 9.40901 8.34835 8.93413 8.64124 8.64124Z" fill="#1C1C1C"/>
</svg>
