<svg width="24" height="24" viewBox="0 0 24 24" fill="none" xmlns="http://www.w3.org/2000/svg">
<path fill-rule="evenodd" clip-rule="evenodd" d="M6.25 12C7.2165 12 8 12.7835 8 13.75V18.25C8 19.2165 7.2165 20 6.25 20H4.75C3.7835 20 3 19.2165 3 18.25V13.75C3 12.7835 3.7835 12 4.75 12H6.25ZM12.75 7C13.7165 7 14.5 7.7835 14.5 8.75V18.25C14.5 19.2165 13.7165 20 12.75 20H11.25C10.2835 20 9.5 19.2165 9.5 18.25V8.75C9.5 7.7835 10.2835 7 11.25 7H12.75ZM19.25 4C20.2165 4 21 4.7835 21 5.75V18.25C21 19.2165 20.2165 20 19.25 20H17.75C16.7835 20 16 19.2165 16 18.25V5.75C16 4.7835 16.7835 4 17.75 4H19.25ZM6.25 13.5H4.75C4.63165 13.5 4.53251 13.5822 4.5066 13.6927L4.5 13.75V18.25C4.5 18.3683 4.58223 18.4675 4.69268 18.4934L4.75 18.5H6.25C6.36835 18.5 6.46749 18.4178 6.4934 18.3073L6.5 18.25V13.75C6.5 13.6317 6.41777 13.5325 6.30732 13.5066L6.25 13.5ZM12.75 8.5H11.25C11.1317 8.5 11.0325 8.58223 11.0066 8.69268L11 8.75V18.25C11 18.3683 11.0822 18.4675 11.1927 18.4934L11.25 18.5H12.75C12.8683 18.5 12.9675 18.4178 12.9934 18.3073L13 18.25V8.75C13 8.63165 12.9178 8.53251 12.8073 8.5066L12.75 8.5ZM19.25 5.5H17.75C17.6317 5.5 17.5325 5.58223 17.5066 5.69268L17.5 5.75V18.25C17.5 18.3683 17.5822 18.4675 17.6927 18.4934L17.75 18.5H19.25C19.3683 18.5 19.4675 18.4178 19.4934 18.3073L19.5 18.25V5.75C19.5 5.63165 19.4178 5.53251 19.3073 5.5066L19.25 5.5Z" fill="#1C1C1C"/>
</svg>
