<svg width="24" height="24" viewBox="0 0 24 24" fill="none" xmlns="http://www.w3.org/2000/svg">
<path fill-rule="evenodd" clip-rule="evenodd" d="M18 9.25C18.3797 9.25 18.6935 9.53215 18.7432 9.89823L18.75 10V18.25C18.75 20.2543 17.1776 21.8913 15.1992 21.9948L15 22H10C7.99574 22 6.35873 20.4276 6.2552 18.4492L6.25 18.25V10C6.25 9.6203 6.53215 9.30651 6.89823 9.25685L7 9.25H18ZM17.25 10.75H7.75V18.25C7.75 19.3867 8.59297 20.3266 9.68788 20.4785L9.84595 20.4948L10 20.5H15C16.1909 20.5 17.1656 19.5748 17.2448 18.404L17.25 18.25V10.75ZM10.5 12.25C10.8797 12.25 11.1935 12.5322 11.2432 12.8982L11.25 13V18.25C11.25 18.6642 10.9142 19 10.5 19C10.1203 19 9.80651 18.7178 9.75685 18.3518L9.75 18.25V13C9.75 12.5858 10.0858 12.25 10.5 12.25ZM14.5 12.25C14.8797 12.25 15.1935 12.5322 15.2432 12.8982L15.25 13V18.25C15.25 18.6642 14.9142 19 14.5 19C14.1203 19 13.8065 18.7178 13.7568 18.3518L13.75 18.25V13C13.75 12.5858 14.0858 12.25 14.5 12.25ZM16.8721 2.40136C18.5548 3.22206 19.3703 5.10803 18.9027 6.85108L21.5702 8.15268C21.9425 8.33426 22.0971 8.78326 21.9155 9.15555C21.7491 9.49682 21.3579 9.65517 21.0071 9.53933L20.9126 9.50087L9.0855 3.73239C8.71321 3.55081 8.55861 3.10181 8.74019 2.72952C8.90664 2.38825 9.29779 2.2299 9.64859 2.34574L9.74306 2.3842L12.1156 3.54065C13.2013 2.09911 15.1895 1.58069 16.8721 2.40136ZM3 4.25C3.3797 4.25 3.69349 4.53215 3.74315 4.89823L3.75 5L3.75008 5.62938C6.184 3.9464 9.46444 4.38481 11.2919 6.73919C11.5459 7.0664 11.4865 7.53755 11.1593 7.79153C10.8321 8.04551 10.3609 7.98614 10.1069 7.65893C8.81934 6.00005 6.54619 5.64702 4.7771 6.74905L5.5 6.75C5.8797 6.75 6.19349 7.03215 6.24315 7.39823L6.25 7.5C6.25 7.8797 5.96785 8.19349 5.60177 8.24315L5.5 8.25H3C2.6203 8.25 2.30651 7.96785 2.25685 7.60177L2.25 7.5V5C2.25 4.58579 2.58579 4.25 3 4.25ZM13.5069 4.21872L17.5119 6.17171C17.6434 5.19642 17.1475 4.2046 16.2145 3.74958C15.2815 3.29451 14.1945 3.51442 13.5069 4.21872Z" fill="#1C1C1C"/>
</svg>
