<svg width="24" height="24" viewBox="0 0 24 24" fill="none" xmlns="http://www.w3.org/2000/svg">
<path fill-rule="evenodd" clip-rule="evenodd" d="M12 2.75C17.1086 2.75 21.25 6.89137 21.25 12C21.25 14.486 20.2638 16.8177 18.5407 18.5407C18.2478 18.8336 17.773 18.8336 17.4801 18.5407C17.1872 18.2478 17.1872 17.773 17.4801 17.4801C18.9246 16.0356 19.75 14.0841 19.75 12C19.75 7.71979 16.2802 4.25 12 4.25C7.82606 4.25 4.42279 7.54964 4.25638 11.6827L4.96967 10.9697L5.05379 10.8971C5.3474 10.6792 5.76406 10.7034 6.03033 10.9697C6.2966 11.2359 6.3208 11.6526 6.10295 11.9462L6.03033 12.0303L4.03033 14.0303L3.94621 14.1029C3.68522 14.2966 3.32701 14.299 3.06362 14.1101L2.96967 14.0303L0.96967 12.0303L0.897052 11.9462C0.703403 11.6852 0.701013 11.327 0.88988 11.0636L0.96967 10.9697L1.05379 10.8971C1.31478 10.7034 1.67299 10.701 1.93638 10.8899L2.03033 10.9697L2.75496 11.694C2.91638 6.72704 6.99375 2.75 12 2.75Z" fill="#1C1C1C"/>
</svg>
