<svg width="24" height="24" viewBox="0 0 24 24" fill="none" xmlns="http://www.w3.org/2000/svg">
<path fill-rule="evenodd" clip-rule="evenodd" d="M12 2.75C17.0063 2.75 21.0836 6.72704 21.245 11.694L21.9697 10.9697C22.2359 10.7034 22.6526 10.6792 22.9462 10.8971L23.0303 10.9697C23.2966 11.2359 23.3208 11.6526 23.1029 11.9462L23.0303 12.0303L21.0303 14.0303C20.7641 14.2966 20.3474 14.3208 20.0538 14.1029L19.9697 14.0303L17.9697 12.0303C17.6768 11.7374 17.6768 11.2626 17.9697 10.9697C18.2359 10.7034 18.6526 10.6792 18.9462 10.8971L19.0303 10.9697L19.7436 11.6817C19.5767 7.54911 16.1736 4.25 12 4.25C7.71979 4.25 4.25 7.71979 4.25 12C4.25 14.0841 5.07541 16.0356 6.51992 17.4801C6.81282 17.773 6.81282 18.2478 6.51992 18.5407C6.22703 18.8336 5.75216 18.8336 5.45926 18.5407C3.73623 16.8177 2.75 14.486 2.75 12C2.75 6.89137 6.89137 2.75 12 2.75Z" fill="#1C1C1C"/>
</svg>
