<svg width="24" height="24" viewBox="0 0 24 24" fill="none" xmlns="http://www.w3.org/2000/svg">
<path fill-rule="evenodd" clip-rule="evenodd" d="M18.5303 2.96967C18.2374 2.67678 17.7626 2.67678 17.4697 2.96967L14.4697 5.96967C14.1768 6.26256 14.1768 6.73744 14.4697 7.03033C14.7626 7.32322 15.2374 7.32322 15.5303 7.03033L17.25 5.31066V18.6893L15.5303 16.9697C15.2374 16.6768 14.7626 16.6768 14.4697 16.9697C14.1768 17.2626 14.1768 17.7374 14.4697 18.0303L17.4697 21.0303C17.7626 21.3232 18.2374 21.3232 18.5303 21.0303L21.5303 18.0303C21.8232 17.7374 21.8232 17.2626 21.5303 16.9697C21.2374 16.6768 20.7626 16.6768 20.4697 16.9697L18.75 18.6893V5.31066L20.4697 7.03033C20.7626 7.32322 21.2374 7.32322 21.5303 7.03033C21.8232 6.73744 21.8232 6.26256 21.5303 5.96967L18.5303 2.96967ZM2.25 7.5C2.25 7.08579 2.58579 6.75 3 6.75H11.5C11.9142 6.75 12.25 7.08579 12.25 7.5C12.25 7.91421 11.9142 8.25 11.5 8.25H3C2.58579 8.25 2.25 7.91421 2.25 7.5ZM3 11.25C2.58579 11.25 2.25 11.5858 2.25 12C2.25 12.4142 2.58579 12.75 3 12.75H11.5C11.9142 12.75 12.25 12.4142 12.25 12C12.25 11.5858 11.9142 11.25 11.5 11.25H3ZM3 15.75C2.58579 15.75 2.25 16.0858 2.25 16.5C2.25 16.9142 2.58579 17.25 3 17.25H11.5C11.9142 17.25 12.25 16.9142 12.25 16.5C12.25 16.0858 11.9142 15.75 11.5 15.75H3Z" fill="#1C1C1C"/>
</svg>
