<svg width="24" height="24" viewBox="0 0 24 24" fill="none" xmlns="http://www.w3.org/2000/svg">
<path d="M17.4697 2.96973C17.7626 2.67683 18.2374 2.67683 18.5303 2.96973L21.5303 5.96973C21.8232 6.26262 21.8232 6.73738 21.5303 7.03027C21.2374 7.32317 20.7626 7.32317 20.4697 7.03027L18.75 5.31055V18.6895L20.4697 16.9697C20.7626 16.6768 21.2374 16.6768 21.5303 16.9697C21.8232 17.2626 21.8232 17.7374 21.5303 18.0303L18.5303 21.0303C18.2374 21.3232 17.7626 21.3232 17.4697 21.0303L14.4697 18.0303C14.1768 17.7374 14.1768 17.2626 14.4697 16.9697C14.7626 16.6768 15.2374 16.6768 15.5303 16.9697L17.25 18.6895V5.31055L15.5303 7.03027C15.2374 7.32317 14.7626 7.32317 14.4697 7.03027C14.1768 6.73738 14.1768 6.26262 14.4697 5.96973L17.4697 2.96973ZM11.5 17.25C11.9142 17.25 12.25 17.5858 12.25 18C12.25 18.4142 11.9142 18.75 11.5 18.75H3C2.58579 18.75 2.25 18.4142 2.25 18C2.25 17.5858 2.58579 17.25 3 17.25H11.5ZM11.5 11.25C11.9142 11.25 12.25 11.5858 12.25 12C12.25 12.4142 11.9142 12.75 11.5 12.75H3C2.58579 12.75 2.25 12.4142 2.25 12C2.25 11.5858 2.58579 11.25 3 11.25H11.5ZM11.5 5.25C11.9142 5.25 12.25 5.58579 12.25 6C12.25 6.41421 11.9142 6.75 11.5 6.75H3C2.58579 6.75 2.25 6.41421 2.25 6C2.25 5.58579 2.58579 5.25 3 5.25H11.5Z" fill="#1C1C1C"/>
</svg>
