<svg width="24" height="24" viewBox="0 0 24 24" fill="none" xmlns="http://www.w3.org/2000/svg">
<path fill-rule="evenodd" clip-rule="evenodd" d="M10 2.25C14.2802 2.25 17.75 5.71979 17.75 10C17.75 11.8699 17.0878 13.5852 15.985 14.924L21.5303 20.4697C21.8232 20.7626 21.8232 21.2374 21.5303 21.5303C21.2641 21.7966 20.8474 21.8208 20.5538 21.6029L20.4697 21.5303L14.924 15.985C13.5852 17.0878 11.8699 17.75 10 17.75C5.71979 17.75 2.25 14.2802 2.25 10C2.25 5.71979 5.71979 2.25 10 2.25ZM10 3.75C6.54822 3.75 3.75 6.54822 3.75 10C3.75 13.4518 6.54822 16.25 10 16.25C13.4518 16.25 16.25 13.4518 16.25 10C16.25 6.54822 13.4518 3.75 10 3.75ZM10 6.5C10.4142 6.5 10.75 6.83579 10.75 7.25V9.25H12.75C13.1642 9.25 13.5 9.58579 13.5 10C13.5 10.4142 13.1642 10.75 12.75 10.75H10.75V12.75C10.75 13.1642 10.4142 13.5 10 13.5C9.58579 13.5 9.25 13.1642 9.25 12.75V10.75H7.25C6.83579 10.75 6.5 10.4142 6.5 10C6.5 9.58579 6.83579 9.25 7.25 9.25H9.25V7.25C9.25 6.83579 9.58579 6.5 10 6.5Z" fill="#1C1C1C"/>
</svg>
