<svg width="24" height="24" viewBox="0 0 24 24" fill="none" xmlns="http://www.w3.org/2000/svg">
<path fill-rule="evenodd" clip-rule="evenodd" d="M12.0107 2.25C12.2898 2.25 12.5459 2.40502 12.6753 2.65236C13.3948 4.02783 15.8486 4.97466 20.064 5.33544C20.452 5.36865 20.75 5.69329 20.75 6.08271C20.75 13.8301 19.21 17.4613 14.8047 20.2962L14.3033 20.608L13.778 20.9144C13.5093 21.0663 13.2314 21.2166 12.9442 21.3657L12.6538 21.5145L12.3306 21.6732C12.1248 21.7743 11.8841 21.7757 11.6772 21.677C5.38351 18.6761 3.25 15.1355 3.25 6.08271C3.25 5.69329 3.54804 5.36865 3.93604 5.33544C8.15138 4.97466 10.6052 4.02783 11.3247 2.65236C11.4379 2.43594 11.6481 2.2902 11.8859 2.25714L12.0107 2.25ZM12 4.245L11.9357 4.31224C10.7018 5.54022 8.47874 6.31716 5.27726 6.70533L4.754 6.76299L4.76357 7.30261C4.77588 7.83369 4.79675 8.34151 4.82679 8.82762L4.87881 9.54071C5.35136 15.1183 7.19147 17.682 11.4966 19.9128L11.7688 20.0518L11.997 20.165L12.2586 20.0317C16.9436 17.6016 18.7967 14.9993 19.1744 8.82217L19.2121 8.07875L19.2367 7.30111L19.2442 6.89907L19.245 6.76299L18.7227 6.70533C15.6546 6.33333 13.4851 5.60429 12.2237 4.4634L12.0643 4.31224L12 4.245ZM16.9033 8.34896L16.9801 8.41608C17.2486 8.68457 17.271 9.10597 17.0473 9.39994L16.9801 9.47674L11.4592 14.9977L8.07766 11.6162C7.78477 11.3233 7.78477 10.8484 8.07766 10.5555C8.34615 10.287 8.76755 10.2646 9.06152 10.4884L9.13832 10.5555L11.4583 12.8769L15.9195 8.41608C16.188 8.1476 16.6094 8.12522 16.9033 8.34896Z" fill="#1C1C1C"/>
</svg>
