<svg width="24" height="24" viewBox="0 0 24 24" fill="none" xmlns="http://www.w3.org/2000/svg">
<path fill-rule="evenodd" clip-rule="evenodd" d="M13.0561 2C13.9736 2.00069 14.7261 2.70704 14.8 3.60619L14.806 3.74969L14.806 4.53695L15.0492 4.62962L15.2027 4.69341L15.296 4.73495L15.8499 4.18233C16.4529 3.57958 17.3864 3.5087 18.0672 3.96975L18.1998 4.06905L18.3247 4.18253L19.8175 5.67534C20.4606 6.31856 20.4985 7.33782 19.931 8.02533L19.8175 8.15018L19.294 8.67295L19.3403 8.7725L19.4077 8.92862L19.4719 9.08621L19.511 9.19395L20.2502 9.19434C21.1172 9.19451 21.8369 9.82518 21.9758 10.6529L21.9942 10.8009L22 10.9444V13.0558C21.9996 13.9736 21.2929 14.7263 20.3937 14.7998L20.2502 14.8057L19.511 14.806L19.4717 14.9142L19.4075 15.0718L19.34 15.2279L19.293 15.326L19.817 15.8496C20.3695 16.4014 20.4801 17.2385 20.1071 17.9297L20.0261 18.0658L19.932 18.1973L19.8175 18.3246L18.3247 19.8173C17.7359 20.4063 16.8228 20.4926 16.109 20.0261L15.9776 19.9322L15.8498 19.8173L15.296 19.263L15.2029 19.3064L15.0494 19.3702L14.806 19.462L14.806 20.2508C14.805 21.1173 14.1746 21.8364 13.347 21.9756L13.1991 21.994L13.0556 21.9999H10.9446C10.0264 22.0001 9.27326 21.293 9.20025 20.3934L9.19444 20.2499L9.194 19.402L9.11476 19.3727L8.96596 19.3111L8.752 19.215L8.15015 19.8175C7.5471 20.4203 6.61361 20.4912 5.93279 20.0302L5.80017 19.9309L5.67532 19.8174L4.18253 18.3246C3.53934 17.6814 3.5015 16.6621 4.06902 15.9746L4.18253 15.8497L4.815 15.216L4.72581 15.0124L4.646 14.806L3.74884 14.806C2.88254 14.8047 2.16371 14.1744 2.02441 13.347L2.00593 13.199L2 13.0555L2 10.9443C2.0001 10.0263 2.7071 9.27331 3.60643 9.20017L3.74995 9.19435L4.646 9.19395L4.72555 8.98809L4.815 8.78295L4.18252 8.15017C3.57953 7.54714 3.5086 6.61356 3.96972 5.93276L4.06904 5.80014L4.18254 5.6753L5.67532 4.18253C6.26425 3.5936 7.17731 3.50733 7.89079 3.97359L8.0221 4.0675L8.1502 4.18254L8.752 4.78395L8.96588 4.68888L9.1147 4.62723L9.194 4.59695L9.19455 3.75022C9.19432 2.95846 9.72236 2.28128 10.4876 2.06617L10.6338 2.03134L10.7852 2.00784L10.9444 2L13.0561 2ZM10.987 3.49878L10.9143 3.50161C10.8109 3.51363 10.7272 3.58977 10.7022 3.68838L10.6945 3.74991L10.6947 5.12731C10.6947 5.45596 10.4808 5.74634 10.1669 5.84371C9.75029 5.97295 9.34879 6.14429 8.96787 6.35471C8.70784 6.49835 8.39123 6.47366 8.15811 6.30043L8.07488 6.22855L7.12342 5.27503L7.06528 5.22174C6.98691 5.1608 6.88031 5.15396 6.7951 5.19936L6.73598 5.24318L5.24321 6.73594C5.16185 6.81731 5.14829 6.9408 5.20252 7.03621L5.2432 7.08952L6.25202 8.09837C6.48514 8.33149 6.53869 8.68951 6.38398 8.98064C6.18464 9.35575 6.02286 9.74996 5.90135 10.1582C5.81721 10.4409 5.57688 10.6445 5.29148 10.6863L5.18256 10.6942L3.75013 10.6943C3.63173 10.6944 3.53255 10.7766 3.50661 10.8871L3.5 10.9444L3.5 13.0547C3.50012 13.1735 3.58273 13.2732 3.69314 13.2993L3.75041 13.306L5.18328 13.3068C5.51489 13.307 5.80701 13.5249 5.90167 13.8427C6.02314 14.2506 6.18482 14.6445 6.38398 15.0192C6.5215 15.278 6.49447 15.5897 6.32304 15.8194L6.25202 15.9015L5.24321 16.9104C5.16185 16.9917 5.14829 17.1152 5.20253 17.2106L5.2432 17.2639L6.73592 18.7566C6.81732 18.838 6.94087 18.8516 7.03629 18.7974L7.08961 18.7567L8.07506 17.7714C8.31136 17.5351 8.67548 17.4837 8.96799 17.6452C9.34887 17.8556 9.75033 18.0269 10.1669 18.1562C10.4459 18.2427 10.646 18.4818 10.6869 18.7647L10.6947 18.8726L10.6944 20.25C10.6944 20.3683 10.7766 20.4674 10.8871 20.4933L10.9444 20.4999H13.055C13.1737 20.4998 13.2732 20.4173 13.2993 20.3069L13.306 20.2496L13.3065 18.9188C13.3067 18.584 13.5288 18.2898 13.8508 18.1979C14.284 18.0743 14.7019 17.9056 15.0985 17.6948C15.3573 17.5573 15.6689 17.5843 15.8987 17.7558L15.9808 17.8268L16.8769 18.7251L16.9348 18.7782C17.0131 18.8391 17.1197 18.846 17.2049 18.8005L17.264 18.7567L18.7257 17.297L18.7784 17.2398C18.8393 17.1614 18.8461 17.0549 18.8007 16.9697L18.7568 16.9106L17.8503 16.0045C17.6139 15.7682 17.5624 15.404 17.724 15.1114C17.9463 14.709 18.125 14.2838 18.2565 13.842C18.3406 13.5594 18.5809 13.3558 18.8663 13.314L18.9752 13.306L20.2495 13.3057C20.368 13.3056 20.4674 13.2232 20.4934 13.1128L20.5 13.0555V10.9445C20.5 10.8261 20.4177 10.7269 20.3073 10.7009L20.2499 10.6943L18.9754 10.6942C18.6436 10.6942 18.3513 10.4762 18.2566 10.1582C18.1251 9.71648 17.9465 9.29126 17.7243 8.88895C17.5807 8.62894 17.6054 8.31234 17.7786 8.07923L17.8504 7.996L18.7568 7.0896C18.8381 7.0082 18.8517 6.88468 18.7975 6.78926L18.7568 6.73595L17.2641 5.24327C17.1827 5.16187 17.0591 5.1483 16.9637 5.20251L16.9104 5.24317L15.9804 6.17297C15.7473 6.40605 15.3893 6.45959 15.0982 6.3049C14.7017 6.09421 14.2839 5.9255 13.8508 5.80196C13.5646 5.72031 13.3573 5.47878 13.3146 5.19093L13.3065 5.08104L13.306 3.75087C13.3058 3.63218 13.2233 3.53271 13.1125 3.50665L13.0556 3.49999L10.987 3.49878ZM12 7.53308C14.467 7.53308 16.4669 9.53297 16.4669 12C16.4669 14.4669 14.467 16.4668 12 16.4668C9.53298 16.4668 7.53308 14.4669 7.53308 12C7.53308 9.53297 9.53298 7.53308 12 7.53308ZM12 9.03308C10.3614 9.03308 9.03308 10.3614 9.03308 12C9.03308 13.6385 10.3614 14.9668 12 14.9668C13.6386 14.9668 14.9669 13.6385 14.9669 12C14.9669 10.3614 13.6386 9.03308 12 9.03308Z" fill="#1C1C1C"/>
</svg>
