<svg width="24" height="24" viewBox="0 0 24 24" fill="none" xmlns="http://www.w3.org/2000/svg">
<path fill-rule="evenodd" clip-rule="evenodd" d="M20.25 5C21.2165 5 22 5.7835 22 6.75V17.25C22 18.2165 21.2165 19 20.25 19H3.75C2.7835 19 2 18.2165 2 17.25V6.75C2 5.7835 2.7835 5 3.75 5H20.25ZM20.25 6.5H3.75C3.63165 6.5 3.53251 6.58223 3.5066 6.69268L3.5 6.75V17.25C3.5 17.3683 3.58223 17.4675 3.69268 17.4934L3.75 17.5H20.25C20.3683 17.5 20.4675 17.4178 20.4934 17.3073L20.5 17.25V6.75C20.5 6.63165 20.4178 6.53251 20.3073 6.5066L20.25 6.5ZM6.5 14C6.77614 14 7 14.2239 7 14.5V15.5C7 15.7761 6.77614 16 6.5 16H5.5C5.22386 16 5 15.7761 5 15.5V14.5C5 14.2239 5.22386 14 5.5 14H6.5ZM15.5 14C15.7761 14 16 14.2239 16 14.5V15.5C16 15.7761 15.7761 16 15.5 16H8.5C8.22386 16 8 15.7761 8 15.5V14.5C8 14.2239 8.22386 14 8.5 14H15.5ZM18.5 14C18.7761 14 19 14.2239 19 14.5V15.5C19 15.7761 18.7761 16 18.5 16H17.5C17.2239 16 17 15.7761 17 15.5V14.5C17 14.2239 17.2239 14 17.5 14H18.5ZM6.5 11C6.77614 11 7 11.2239 7 11.5V12.5C7 12.7761 6.77614 13 6.5 13H5.5C5.22386 13 5 12.7761 5 12.5V11.5C5 11.2239 5.22386 11 5.5 11H6.5ZM9.5 11C9.77614 11 10 11.2239 10 11.5V12.5C10 12.7761 9.77614 13 9.5 13H8.5C8.22386 13 8 12.7761 8 12.5V11.5C8 11.2239 8.22386 11 8.5 11H9.5ZM12.5 11C12.7761 11 13 11.2239 13 11.5V12.5C13 12.7761 12.7761 13 12.5 13H11.5C11.2239 13 11 12.7761 11 12.5V11.5C11 11.2239 11.2239 11 11.5 11H12.5ZM15.5 11C15.7761 11 16 11.2239 16 11.5V12.5C16 12.7761 15.7761 13 15.5 13H14.5C14.2239 13 14 12.7761 14 12.5V11.5C14 11.2239 14.2239 11 14.5 11H15.5ZM18.5 11C18.7761 11 19 11.2239 19 11.5V12.5C19 12.7761 18.7761 13 18.5 13H17.5C17.2239 13 17 12.7761 17 12.5V11.5C17 11.2239 17.2239 11 17.5 11H18.5ZM6.5 8C6.77614 8 7 8.22386 7 8.5V9.5C7 9.77614 6.77614 10 6.5 10H5.5C5.22386 10 5 9.77614 5 9.5V8.5C5 8.22386 5.22386 8 5.5 8H6.5ZM9.5 8C9.77614 8 10 8.22386 10 8.5V9.5C10 9.77614 9.77614 10 9.5 10H8.5C8.22386 10 8 9.77614 8 9.5V8.5C8 8.22386 8.22386 8 8.5 8H9.5ZM12.5 8C12.7761 8 13 8.22386 13 8.5V9.5C13 9.77614 12.7761 10 12.5 10H11.5C11.2239 10 11 9.77614 11 9.5V8.5C11 8.22386 11.2239 8 11.5 8H12.5ZM15.5 8C15.7761 8 16 8.22386 16 8.5V9.5C16 9.77614 15.7761 10 15.5 10H14.5C14.2239 10 14 9.77614 14 9.5V8.5C14 8.22386 14.2239 8 14.5 8H15.5ZM18.5 8C18.7761 8 19 8.22386 19 8.5V9.5C19 9.77614 18.7761 10 18.5 10H17.5C17.2239 10 17 9.77614 17 9.5V8.5C17 8.22386 17.2239 8 17.5 8H18.5Z" fill="#1C1C1C"/>
</svg>
