<svg width="24" height="24" viewBox="0 0 24 24" fill="none" xmlns="http://www.w3.org/2000/svg">
<path fill-rule="evenodd" clip-rule="evenodd" d="M19.25 6C20.1682 6 20.9212 6.70711 20.9942 7.60647L21 7.75V11H19.5V7.75L19.4934 7.69268C19.4727 7.60432 19.4051 7.53402 19.3183 7.50944L19.25 7.5H7.75L7.69268 7.5066C7.60432 7.52733 7.53402 7.59493 7.50944 7.68173L7.5 7.75V19.25L7.5066 19.3073C7.52733 19.3957 7.59493 19.466 7.68173 19.4906L7.75 19.5H11V21H7.75C6.83183 21 6.07881 20.2929 6.0058 19.3935L6 19.25V7.75C6 6.83183 6.70711 6.07881 7.60647 6.0058L7.75 6H19.25ZM17.25 3L17.3518 3.00685C17.7178 3.05651 18 3.3703 18 3.75C18 4.1297 17.7178 4.44349 17.3518 4.49315L17.25 4.5H4.75L4.69268 4.5066C4.60432 4.52733 4.53402 4.59493 4.50944 4.68173L4.5 4.75V17.25L4.49315 17.3518C4.44349 17.7178 4.1297 18 3.75 18C3.3703 18 3.05651 17.7178 3.00685 17.3518L3 17.25V4.75L3.0058 4.60647C3.07475 3.75707 3.75026 3.07916 4.59859 3.00646L4.75 3H17.25ZM14.75 11.75C13.0931 11.75 11.75 13.0931 11.75 14.75C11.75 16.4069 13.0931 17.75 14.75 17.75C16.4069 17.75 17.75 16.4069 17.75 14.75C17.75 13.0931 16.4069 11.75 14.75 11.75ZM14.75 19.25C12.2647 19.25 10.25 17.2353 10.25 14.75C10.25 12.2647 12.2647 10.25 14.75 10.25C17.2353 10.25 19.25 12.2647 19.25 14.75C19.25 15.7441 18.9276 16.6629 18.3818 17.4076L18.4182 17.3571L20.7803 19.7197C21.0732 20.0126 21.0732 20.4874 20.7803 20.7803C20.5141 21.0466 20.0974 21.0708 19.8038 20.8529L19.7197 20.7803L17.3571 18.4182L17.2454 18.4953C16.5313 18.9721 15.6731 19.25 14.75 19.25Z" fill="#1C1C1C"/>
</svg>
