<svg width="24" height="24" viewBox="0 0 24 24" fill="none" xmlns="http://www.w3.org/2000/svg">
<path fill-rule="evenodd" clip-rule="evenodd" d="M3.75 4C4.16421 4 4.5 4.33579 4.5 4.75V19.25C4.5 19.6642 4.16421 20 3.75 20C3.33579 20 3 19.6642 3 19.25V4.75C3 4.33579 3.33579 4 3.75 4ZM7.25 4C7.66421 4 8 4.33579 8 4.75V19.25C8 19.6642 7.66421 20 7.25 20C6.83579 20 6.5 19.6642 6.5 19.25V4.75C6.5 4.33579 6.83579 4 7.25 4ZM10.75 4C11.1642 4 11.5 4.33579 11.5 4.75V11.25H18.439L16.2197 9.03033C15.9268 8.73744 15.9268 8.26256 16.2197 7.96967C16.4859 7.7034 16.9026 7.6792 17.1962 7.89705L17.2803 7.96967L20.7803 11.4697C20.8049 11.4943 20.8278 11.5206 20.8488 11.5484L20.7803 11.4697L20.8192 11.5116L20.8601 11.5636L20.9278 11.6785L20.9659 11.7759L20.9869 11.8598L20.9982 11.9477V12.0523L20.995 12.072L20.9892 12.1274L20.9741 12.1962L20.9502 12.2693L20.9031 12.3689L20.8712 12.4203L20.8437 12.4583L20.7803 12.5303L17.2803 16.0303C16.9874 16.3232 16.5126 16.3232 16.2197 16.0303C15.9534 15.7641 15.9292 15.3474 16.1471 15.0538L16.2197 14.9697L18.439 12.75H11.499L11.5 19.25C11.5 19.6642 11.1642 20 10.75 20C10.3358 20 10 19.6642 10 19.25V4.75C10 4.33579 10.3358 4 10.75 4Z" fill="#1C1C1C"/>
</svg>
