<svg width="24" height="24" viewBox="0 0 24 24" fill="none" xmlns="http://www.w3.org/2000/svg">
<path fill-rule="evenodd" clip-rule="evenodd" d="M5.5 18V20.25C5.5 20.3683 5.58223 20.4675 5.69268 20.4934L5.75 20.5H8V22H5.75C4.7835 22 4 21.2165 4 20.25V18H5.5ZM13.75 12.75C12.0931 12.75 10.75 14.0931 10.75 15.75C10.75 17.4069 12.0931 18.75 13.75 18.75C15.4069 18.75 16.75 17.4069 16.75 15.75C16.75 14.0931 15.4069 12.75 13.75 12.75ZM5.5 12.75V16.5H4V12.75H5.5ZM20 7.5V11.25H18.5V7.5H20ZM5.5 7.5V11.25H4V7.5H5.5ZM18.25 2C19.2165 2 20 2.7835 20 3.75V6H18.5V3.75C18.5 3.63165 18.4178 3.53251 18.3073 3.5066L18.25 3.5L16 3.499V2H18.25ZM8 2V3.5H5.75C5.63165 3.5 5.53251 3.58223 5.5066 3.69268L5.5 3.75V6H4V3.75C4 2.7835 4.7835 2 5.75 2H8ZM14.5 2V3.499L9.5 3.5V2H14.5ZM13.75 20.25C11.2647 20.25 9.25 18.2353 9.25 15.75C9.25 13.2647 11.2647 11.25 13.75 11.25C16.2353 11.25 18.25 13.2647 18.25 15.75C18.25 16.7441 17.9276 17.6629 17.3818 18.4076L17.4182 18.3571L19.7803 20.7197C20.0732 21.0126 20.0732 21.4874 19.7803 21.7803C19.5141 22.0466 19.0974 22.0708 18.8038 21.8529L18.7197 21.7803L16.3571 19.4182L16.2454 19.4953C15.5313 19.972 14.6731 20.25 13.75 20.25Z" fill="#1C1C1C"/>
</svg>
