<svg width="24" height="24" viewBox="0 0 24 24" fill="none" xmlns="http://www.w3.org/2000/svg">
<path fill-rule="evenodd" clip-rule="evenodd" d="M3.75 4C4.16421 4 4.5 4.33579 4.5 4.75V19.25C4.5 19.6642 4.16421 20 3.75 20C3.33579 20 3 19.6642 3 19.25V4.75C3 4.33579 3.33579 4 3.75 4ZM7.25 4C7.66421 4 8 4.33579 8 4.75V19.25C8 19.6642 7.66421 20 7.25 20C6.83579 20 6.5 19.6642 6.5 19.25V4.75C6.5 4.33579 6.83579 4 7.25 4ZM15.0303 7.96967C15.2966 8.23594 15.3208 8.6526 15.1029 8.94621L15.0303 9.03033L12.811 11.25H20.25C20.6642 11.25 21 11.5858 21 12C21 12.3797 20.7178 12.6935 20.3518 12.7432L20.25 12.75H12.811L15.0303 14.9697C15.3232 15.2626 15.3232 15.7374 15.0303 16.0303C14.7641 16.2966 14.3474 16.3208 14.0538 16.1029L13.9697 16.0303L10.4697 12.5303L10.4153 12.4699L10.3687 12.4053L10.3202 12.3172L10.276 12.1962L10.2577 12.1083L10.2508 11.9646L10.2696 11.829L10.2998 11.7307L10.3469 11.631L10.401 11.5486L10.4697 11.4697L13.9697 7.96967C14.2626 7.67678 14.7374 7.67678 15.0303 7.96967Z" fill="#1C1C1C"/>
</svg>
