<svg width="24" height="24" viewBox="0 0 24 24" fill="none" xmlns="http://www.w3.org/2000/svg">
<path fill-rule="evenodd" clip-rule="evenodd" d="M2.5 12.75H7C7.41421 12.75 7.75 13.0858 7.75 13.5C7.75 13.9142 7.41421 14.25 7 14.25H5.5V21.25C5.5 21.6642 5.16421 22 4.75 22C4.33579 22 4 21.6642 4 21.25V14.25H2.5C2.08579 14.25 1.75 13.9142 1.75 13.5C1.75 13.0858 2.08579 12.75 2.5 12.75ZM12 10.75C12.4142 10.75 12.75 11.0858 12.75 11.5V21.25C12.75 21.6642 12.4142 22 12 22C11.5858 22 11.25 21.6642 11.25 21.25V11.5C11.25 11.0858 11.5858 10.75 12 10.75ZM21.5 14.75C21.9142 14.75 22.25 15.0858 22.25 15.5C22.25 15.9142 21.9142 16.25 21.5 16.25H20V21.25C20 21.6642 19.6642 22 19.25 22C18.8358 22 18.5 21.6642 18.5 21.25V16.25H17C16.5858 16.25 16.25 15.9142 16.25 15.5C16.25 15.0858 16.5858 14.75 17 14.75H21.5ZM19.25 2C19.6642 2 20 2.33579 20 2.75V12.5C20 12.9142 19.6642 13.25 19.25 13.25C18.8358 13.25 18.5 12.9142 18.5 12.5V2.75C18.5 2.33579 18.8358 2 19.25 2ZM4.75 2C5.16421 2 5.5 2.33579 5.5 2.75V10.5C5.5 10.9142 5.16421 11.25 4.75 11.25C4.33579 11.25 4 10.9142 4 10.5V2.75C4 2.33579 4.33579 2 4.75 2ZM12 2C12.4142 2 12.75 2.33579 12.75 2.75V7.75H14.25C14.6642 7.75 15 8.08579 15 8.5C15 8.91421 14.6642 9.25 14.25 9.25H9.75C9.33579 9.25 9 8.91421 9 8.5C9 8.08579 9.33579 7.75 9.75 7.75H11.25V2.75C11.25 2.33579 11.5858 2 12 2Z" fill="#1C1C1C"/>
</svg>
