<svg width="24" height="24" viewBox="0 0 24 24" fill="none" xmlns="http://www.w3.org/2000/svg">
<path fill-rule="evenodd" clip-rule="evenodd" d="M5.25 18C5.66421 18 6 18.3358 6 18.75C6 19.1642 5.66421 19.5 5.25 19.5H2.75C2.33579 19.5 2 19.1642 2 18.75C2 18.3358 2.33579 18 2.75 18H5.25ZM17.75 4.5C18.1297 4.5 18.4435 4.78215 18.4932 5.14823L18.5 5.25V16.939L20.7197 14.7197C21.0126 14.4268 21.4874 14.4268 21.7803 14.7197C22.0466 14.9859 22.0708 15.4026 21.8529 15.6962L21.7803 15.7803L18.2803 19.2803C18.2416 19.3191 18.1996 19.3527 18.1553 19.3813L18.0668 19.43L17.9484 19.4734L17.8423 19.4943L17.801 19.4983L17.7311 19.4998L17.6576 19.4943L17.5824 19.4811L17.5025 19.4582L17.4027 19.415C17.3365 19.3803 17.2748 19.3355 17.2197 19.2803L13.7197 15.7803C13.4268 15.4874 13.4268 15.0126 13.7197 14.7197C13.9859 14.4534 14.4026 14.4292 14.6962 14.6471L14.7803 14.7197L17 16.939V5.25C17 4.83579 17.3358 4.5 17.75 4.5ZM8.25 13.5C8.66421 13.5 9 13.8358 9 14.25C9 14.6642 8.66421 15 8.25 15H2.75C2.33579 15 2 14.6642 2 14.25C2 13.8358 2.33579 13.5 2.75 13.5H8.25ZM11.25 9C11.6642 9 12 9.33579 12 9.75C12 10.1642 11.6642 10.5 11.25 10.5H2.75C2.33579 10.5 2 10.1642 2 9.75C2 9.33579 2.33579 9 2.75 9H11.25ZM14.25 4.5C14.6642 4.5 15 4.83579 15 5.25C15 5.66421 14.6642 6 14.25 6H2.75C2.33579 6 2 5.66421 2 5.25C2 4.83579 2.33579 4.5 2.75 4.5H14.25Z" fill="#1C1C1C"/>
</svg>
