<svg width="24" height="24" viewBox="0 0 24 24" fill="none" xmlns="http://www.w3.org/2000/svg">
<path fill-rule="evenodd" clip-rule="evenodd" d="M8.895 8.726L2.21166 9.08364L2.10684 9.0961C1.49887 9.20983 1.27405 10.0051 1.77909 10.415L6.976 14.632L5.25056 21.099L5.2307 21.1975C5.14649 21.8134 5.8357 22.2765 6.38304 21.9218L12 18.281L17.617 21.9218L17.7044 21.9711C18.2642 22.2416 18.9176 21.7292 18.7494 21.099L17.023 14.632L22.2209 10.415L22.2984 10.3433C22.7234 9.8939 22.4378 9.11834 21.7883 9.08364L15.104 8.726L12.6999 2.48051C12.4532 1.83983 11.5468 1.83983 11.3001 2.48051L8.895 8.726Z" fill="#1C1C1C"/>
</svg>
