<svg width="24" height="24" viewBox="0 0 24 24" fill="none" xmlns="http://www.w3.org/2000/svg">
<path fill-rule="evenodd" clip-rule="evenodd" d="M18.25 2C19.2165 2 20 2.7835 20 3.75V20.25C20 21.2165 19.2165 22 18.25 22H13L12.999 20.5H18.25C18.3683 20.5 18.4675 20.4178 18.4934 20.3073L18.5 20.25V3.75C18.5 3.63165 18.4178 3.53251 18.3073 3.5066L18.25 3.5H5.75C5.63165 3.5 5.53251 3.58223 5.5066 3.69268L5.5 3.75L5.49901 13H4V3.75C4 2.7835 4.7835 2 5.75 2H18.25ZM4.14243 16.9561C4.27656 16.7978 4.4964 16.7389 4.69167 16.8089L4.77353 16.8469L6.91683 18.0843L6.99064 18.1362C7.14887 18.2703 7.20777 18.4902 7.13781 18.6854L7.09985 18.7673L7.04793 18.8411C6.91381 18.9993 6.69397 19.0582 6.4987 18.9883L6.41683 18.9503L5.53944 18.4448C5.74926 19.6133 6.77108 20.5001 8 20.5001C8.56675 20.5001 9.10281 20.3118 9.53934 19.9701C9.8655 19.7148 10.3369 19.7722 10.5922 20.0984C10.8475 20.4246 10.7901 20.8959 10.4639 21.1513C9.76578 21.6978 8.90492 22.0001 8 22.0001C6.12847 22.0001 4.55715 20.7147 4.12058 18.9787L3.71911 19.6732L3.66719 19.747C3.5139 19.9278 3.24867 19.9789 3.03609 19.8562C2.82352 19.7335 2.73516 19.4782 2.81512 19.255L2.85308 19.1732L4.09052 17.0299L4.14243 16.9561ZM8.00002 14C9.93427 14 11.5479 15.3729 11.9195 17.1974L12.2777 16.5769C12.4004 16.3643 12.6557 16.2759 12.8789 16.3559L12.9607 16.3939C13.1733 16.5166 13.2617 16.7719 13.1817 16.995L13.1437 17.0769L11.9063 19.2202C11.7836 19.4328 11.5283 19.5211 11.3052 19.4412L11.2233 19.4032L9.07999 18.1658C8.84084 18.0277 8.75891 17.7219 8.89698 17.4827C9.01971 17.2702 9.27496 17.1818 9.49813 17.2618L9.57999 17.2997L10.4942 17.8275C10.4056 16.5273 9.32276 15.5 8.00002 15.5C7.43327 15.5 6.89721 15.6882 6.46069 16.0299C6.13452 16.2853 5.66313 16.2278 5.40781 15.9017C5.15249 15.5755 5.20992 15.1041 5.53608 14.8488C6.23424 14.3023 7.0951 14 8.00002 14ZM15.75 13C16.1642 13 16.5 13.3358 16.5 13.75C16.5 14.1642 16.1642 14.5 15.75 14.5H13.25C12.8358 14.5 12.5 14.1642 12.5 13.75C12.5 13.3358 12.8358 13 13.25 13H15.75ZM15.75 9.5C16.1642 9.5 16.5 9.83579 16.5 10.25C16.5 10.6642 16.1642 11 15.75 11H8.25C7.83579 11 7.5 10.6642 7.5 10.25C7.5 9.83579 7.83579 9.5 8.25 9.5H15.75ZM15.75 6C16.1642 6 16.5 6.33579 16.5 6.75C16.5 7.16421 16.1642 7.5 15.75 7.5H8.25C7.83579 7.5 7.5 7.16421 7.5 6.75C7.5 6.33579 7.83579 6 8.25 6H15.75Z" fill="#1C1C1C"/>
</svg>
