<svg width="24" height="24" viewBox="0 0 24 24" fill="none" xmlns="http://www.w3.org/2000/svg">
<path fill-rule="evenodd" clip-rule="evenodd" d="M19.25 3C20.2165 3 21 3.7835 21 4.75V19.25C21 20.2165 20.2165 21 19.25 21H4.75C3.7835 21 3 20.2165 3 19.25V4.75C3 3.7835 3.7835 3 4.75 3H19.25ZM19.5 6H4.5V19.25C4.5 19.3683 4.58223 19.4675 4.69268 19.4934L4.75 19.5H19.25C19.3683 19.5 19.4675 19.4178 19.4934 19.3073L19.5 19.25V6ZM10.75 15.5C11.1642 15.5 11.5 15.8358 11.5 16.25C11.5 16.6642 11.1642 17 10.75 17H6.75C6.33579 17 6 16.6642 6 16.25C6 15.8358 6.33579 15.5 6.75 15.5H10.75ZM17.25 15.5C17.6642 15.5 18 15.8358 18 16.25C18 16.6642 17.6642 17 17.25 17H13.25C12.8358 17 12.5 16.6642 12.5 16.25C12.5 15.8358 12.8358 15.5 13.25 15.5H17.25ZM10.75 12C11.1642 12 11.5 12.3358 11.5 12.75C11.5 13.1642 11.1642 13.5 10.75 13.5H6.75C6.33579 13.5 6 13.1642 6 12.75C6 12.3358 6.33579 12 6.75 12H10.75ZM17.25 12C17.6642 12 18 12.3358 18 12.75C18 13.1642 17.6642 13.5 17.25 13.5H13.25C12.8358 13.5 12.5 13.1642 12.5 12.75C12.5 12.3358 12.8358 12 13.25 12H17.25ZM10.75 8.5C11.1642 8.5 11.5 8.83579 11.5 9.25C11.5 9.66421 11.1642 10 10.75 10H6.75C6.33579 10 6 9.66421 6 9.25C6 8.83579 6.33579 8.5 6.75 8.5H10.75ZM17.25 8.5C17.6642 8.5 18 8.83579 18 9.25C18 9.66421 17.6642 10 17.25 10H13.25C12.8358 10 12.5 9.66421 12.5 9.25C12.5 8.83579 12.8358 8.5 13.25 8.5H17.25Z" fill="#1C1C1C"/>
</svg>
