<svg width="24" height="24" viewBox="0 0 24 24" fill="none" xmlns="http://www.w3.org/2000/svg">
<path fill-rule="evenodd" clip-rule="evenodd" d="M10.3557 2C10.8198 2 11.265 2.18437 11.5932 2.51256L21.5126 12.432C22.196 13.1154 22.196 14.2234 21.5126 14.9068L14.9068 21.5126C14.2234 22.196 13.1154 22.196 12.432 21.5126L2.51256 11.5932C2.18437 11.265 2 10.8198 2 10.3557V3.75C2 2.7835 2.7835 2 3.75 2H10.3557ZM10.3557 3.5H3.75C3.63165 3.5 3.53251 3.58223 3.5066 3.69268L3.5 3.75V10.3557C3.5 10.3999 3.51171 10.4429 3.5334 10.4806L3.57322 10.5325L13.4926 20.4519C13.574 20.5333 13.6975 20.5468 13.7929 20.4926L13.8462 20.4519L20.4519 13.8462C20.5333 13.7648 20.5468 13.6413 20.4926 13.5459L20.4519 13.4926L10.5325 3.57322C10.5012 3.54197 10.4626 3.51984 10.4206 3.50857L10.3557 3.5ZM11.9254 8.89403C12.2914 8.88713 12.578 8.98035 12.7783 9.18061C13.0337 9.4361 13.0027 9.82625 12.7575 10.0714C12.5435 10.2855 12.3052 10.3925 11.9772 10.4374C11.4662 10.5064 11.152 10.648 10.8482 10.9518C10.5133 11.2867 10.5133 11.6941 10.7343 11.9151C10.9368 12.1177 11.2177 12.091 11.6567 11.8086L11.7804 11.7252L12.4951 11.2246C13.5344 10.4961 14.4286 10.4926 15.1606 11.2246C15.9695 12.0335 15.9704 13.1806 15.2052 14.2663L15.0846 14.4287L15.24 14.584C15.4782 14.8223 15.3678 15.0778 15.2193 15.2262C15.0795 15.3661 14.8557 15.4723 14.6387 15.3185L14.5667 15.2573L14.4217 15.1123C13.8071 15.644 13.1373 15.9686 12.5642 15.9824C12.2155 15.9858 11.922 15.8995 11.7148 15.6923C11.4075 15.3851 11.4697 14.9776 11.7563 14.6911C11.9013 14.5461 12.0767 14.4518 12.3609 14.3908L12.5124 14.3631C13.0407 14.2837 13.5033 14.0696 13.783 13.7899C14.2077 13.3652 14.2422 12.9716 13.9798 12.7092C13.7867 12.5162 13.5066 12.5552 13.0172 12.8582L12.8784 12.9475L12.1671 13.4239C11.1175 14.1352 10.2302 14.1179 9.49131 13.3791C8.70213 12.5899 8.70839 11.4499 9.46536 10.4216L9.58453 10.2682L9.38083 10.0645C9.13914 9.8228 9.25998 9.57076 9.4119 9.41884C9.54862 9.28211 9.76366 9.17335 9.98149 9.32916L10.0541 9.39122L10.2682 9.60528C10.8137 9.17025 11.4075 8.90094 11.9254 8.89403ZM6.04289 6.04289C6.43342 5.65237 7.06658 5.65237 7.45711 6.04289C7.84763 6.43342 7.84763 7.06658 7.45711 7.45711C7.06658 7.84763 6.43342 7.84763 6.04289 7.45711C5.65237 7.06658 5.65237 6.43342 6.04289 6.04289Z" fill="#1C1C1C"/>
</svg>
