<svg width="24" height="24" viewBox="0 0 24 24" fill="none" xmlns="http://www.w3.org/2000/svg">
<path fill-rule="evenodd" clip-rule="evenodd" d="M14.5 20.5V22H9.5V20.5H14.5ZM5.5 18V20.25C5.5 20.3683 5.58223 20.4675 5.69268 20.4934L5.75 20.5H8V22H5.75C4.7835 22 4 21.2165 4 20.25V18H5.5ZM20 18V20.25C20 21.2165 19.2165 22 18.25 22H16V20.5H18.25C18.3683 20.5 18.4675 20.4178 18.4934 20.3073L18.5 20.25V18H20ZM20 12.75V16.5H18.5V12.75H20ZM5.5 12.75V16.5H4V12.75H5.5ZM20 7.5V11.25H18.5V7.5H20ZM4 11.25V7.5H13.25C13.6642 7.5 14 7.83579 14 8.25V10.5C14 10.9142 13.6642 11.25 13.25 11.25H4ZM18.25 2C19.2165 2 20 2.7835 20 3.75V6H18.5V3.75C18.5 3.63165 18.4178 3.53251 18.3073 3.5066L18.25 3.5L16 3.499V2H18.25ZM8 2V3.5H5.75C5.63165 3.5 5.53251 3.58223 5.5066 3.69268L5.5 3.75V6H4V3.75C4 2.7835 4.7835 2 5.75 2H8ZM14.5 2V3.499L9.5 3.5V2H14.5Z" fill="#1C1C1C"/>
</svg>
