<svg width="24" height="24" viewBox="0 0 24 24" fill="none" xmlns="http://www.w3.org/2000/svg">
<path d="M10.5 9.25C10.9142 9.25 11.25 9.58579 11.25 10V11.5C11.25 11.9142 10.9142 12.25 10.5 12.25C10.0858 12.25 9.75 11.9142 9.75 11.5V10.75H7.25V19.5H8.5C8.91421 19.5 9.25 19.8358 9.25 20.25C9.25 20.6642 8.91421 21 8.5 21H4.5C4.08579 21 3.75 20.6642 3.75 20.25C3.75 19.8358 4.08579 19.5 4.5 19.5H5.75V10.75H3.25V11.5C3.25 11.9142 2.91421 12.25 2.5 12.25C2.08579 12.25 1.75 11.9142 1.75 11.5V10C1.75 9.58579 2.08579 9.25 2.5 9.25H10.5ZM21.5 3C21.9142 3 22.25 3.33579 22.25 3.75V5.25C22.25 5.66421 21.9142 6 21.5 6C21.0858 6 20.75 5.66421 20.75 5.25V4.5H16.25V19.5H17.5C17.9142 19.5 18.25 19.8358 18.25 20.25C18.25 20.6642 17.9142 21 17.5 21H13.5C13.0858 21 12.75 20.6642 12.75 20.25C12.75 19.8358 13.0858 19.5 13.5 19.5H14.75V4.5H10.25V5.25C10.25 5.66421 9.91421 6 9.5 6C9.08579 6 8.75 5.66421 8.75 5.25V3.75C8.75 3.33579 9.08579 3 9.5 3H21.5Z" fill="#1C1C1C"/>
</svg>
