<svg width="24" height="24" viewBox="0 0 24 24" fill="none" xmlns="http://www.w3.org/2000/svg">
<path fill-rule="evenodd" clip-rule="evenodd" d="M14.8386 4C15.7741 4 16.5479 4.75427 16.623 5.70548L16.6289 5.85723V15.1341C16.6289 15.5715 16.4804 15.9943 16.2148 16.3242L16.1097 16.4434L11.1505 21.5879C10.6313 22.1358 9.7898 22.1358 9.26165 21.5972C8.97519 21.3001 8.83727 20.8928 8.87303 20.4799L8.89463 20.325L9.74504 16.072H4.6873C2.81928 16.072 1.54156 14.1474 2.15555 12.3531L2.21661 12.1904L5.13489 5.12362C5.40088 4.49415 5.97562 4.06486 6.62975 4.00674L6.78201 4H14.8386ZM20.2096 4C21.1451 4 21.919 4.75427 21.994 5.70548L22 5.85723V13.2861C22 14.3076 21.1943 15.1433 20.2096 15.1433C19.2742 15.1433 18.5003 14.3891 18.4253 13.4379L18.4193 13.2861V5.85723C18.4193 4.83575 19.225 4 20.2096 4Z" fill="#1C1C1C"/>
</svg>
