<svg width="24" height="24" viewBox="0 0 24 24" fill="none" xmlns="http://www.w3.org/2000/svg">
<path fill-rule="evenodd" clip-rule="evenodd" d="M12.8495 2.41208C13.3687 1.8642 14.2102 1.8642 14.7384 2.40279C15.0248 2.69995 15.1627 3.10716 15.127 3.52008L15.1054 3.67499L14.255 7.92804H19.3127C21.1807 7.92804 22.4584 9.85258 21.8445 11.6469L21.7834 11.8096L18.8651 18.8764C18.5991 19.5058 18.0244 19.9351 17.3702 19.9933L17.218 20H9.16141C8.22595 20 7.45207 19.2457 7.37702 18.2945L7.37106 18.1428V8.86594C7.37106 8.42846 7.51959 8.00565 7.78522 7.67578L7.89026 7.55659L12.8495 2.41208ZM3.79035 8.85669C4.72581 8.85669 5.49969 9.61095 5.57474 10.5622L5.5807 10.7139V18.1428C5.5807 19.1643 4.77505 20 3.79035 20C2.85489 20 2.08101 19.2458 2.00596 18.2946L2 18.1428V10.7139C2 9.69244 2.80566 8.85669 3.79035 8.85669Z" fill="#1C1C1C"/>
</svg>
