<svg width="24" height="24" viewBox="0 0 24 24" fill="none" xmlns="http://www.w3.org/2000/svg">
<path fill-rule="evenodd" clip-rule="evenodd" d="M18 11.25C18.9182 11.25 19.6712 11.9571 19.7442 12.8565L19.75 13V17.5858C19.75 17.9919 19.6088 18.3835 19.3537 18.6949L19.2374 18.8232L15.9327 22.128C15.4445 22.6161 14.6531 22.6161 14.1649 22.128C13.8722 21.8353 13.7455 21.4194 13.8194 21.018L13.8515 20.8849L14.493 18.75H12.5C11.6328 18.75 10.913 18.1193 10.7742 17.2916L10.7558 17.1435L10.75 17C10.75 16.8267 10.7757 16.6547 10.8261 16.4896L10.8846 16.3269L12.5513 12.3269C12.8036 11.7214 13.371 11.3118 14.0164 11.2564L14.1667 11.25H18ZM18 12.75H14.1667C14.0859 12.75 14.0115 12.7888 13.9651 12.8521L13.9359 12.9038L12.2692 16.9038C12.2565 16.9343 12.25 16.967 12.25 17C12.25 17.1183 12.3322 17.2175 12.4427 17.2434L12.5 17.25H15.3656C15.4895 17.256 15.4895 17.256 15.6098 17.2858C16.0249 17.4104 16.2742 17.8237 16.204 18.2402L16.1797 18.3442L15.574 20.367L18.1768 17.7626C18.208 17.7313 18.2302 17.6926 18.2414 17.6507L18.25 17.5858V13C18.25 12.8817 18.1678 12.7825 18.0573 12.7566L18 12.75ZM22 11.25C22.5133 11.25 22.9396 11.691 22.9941 12.2529L23 12.375V16.875C23 17.4937 22.55 18 22 18C21.4867 18 21.0604 17.559 21.0059 16.9971L21 16.875V12.375C21 11.7563 21.45 11.25 22 11.25ZM2 6C2.51333 6 2.93956 6.441 2.9941 7.00287L3 7.125V11.625C3 12.2437 2.55 12.75 2 12.75C1.48667 12.75 1.06044 12.309 1.0059 11.7471L1 11.625V7.125C1 6.50625 1.45 6 2 6ZM8.06733 1.87198C8.55549 1.38382 9.34695 1.38382 9.8351 1.87198C10.1278 2.16462 10.2545 2.58062 10.1806 2.98199L10.1485 3.11504L9.507 5.24997H11.5C12.3672 5.24997 13.087 5.8807 13.2258 6.70842L13.2442 6.85644L13.25 6.99997C13.25 7.17325 13.2243 7.34525 13.1739 7.5104L13.1154 7.67305L11.4487 11.673C11.1964 12.2786 10.629 12.6881 9.98355 12.7435L9.83333 12.75H6C5.08183 12.75 4.32881 12.0429 4.2558 11.1435L4.25 11V6.41418C4.25 6.00807 4.39116 5.61651 4.64631 5.30511L4.76256 5.17675L8.06733 1.87198ZM8.426 3.63293L5.82322 6.23737C5.79197 6.26863 5.76984 6.30731 5.75856 6.34927L5.75 6.41415V10.9999C5.75 11.1183 5.83223 11.2174 5.94268 11.2433L6 11.2499H9.83333C9.91407 11.2499 9.98848 11.2111 10.0349 11.1479L10.0641 11.0961L11.7308 7.09609C11.7435 7.06562 11.75 7.03294 11.75 6.99993C11.75 6.88159 11.6678 6.78245 11.5573 6.75654L11.5 6.74993H8.6344C8.51054 6.7439 8.51054 6.7439 8.39016 6.71409C7.9751 6.58957 7.72576 6.17623 7.79596 5.75972L7.82025 5.65569L8.426 3.63293Z" fill="#1C1C1C"/>
</svg>
