<svg width="24" height="24" viewBox="0 0 24 24" fill="none" xmlns="http://www.w3.org/2000/svg">
<path fill-rule="evenodd" clip-rule="evenodd" d="M16.5 16C18.9339 16 20.3805 17.3164 20.8398 19.9493C21.0058 20.9014 20.3686 21.8079 19.4165 21.974C19.3172 21.9913 19.2166 22 19.1158 22H13.8842C12.9177 22 12.1342 21.2165 12.1342 20.25C12.1342 20.1492 12.1429 20.0486 12.1602 19.9493C12.6195 17.3164 14.0661 16 16.5 16ZM12 2C17.5228 2 22 6.47715 22 12C22 13.5684 21.6389 15.0525 20.9954 16.3737C20.8438 16.1965 20.6829 16.0327 20.5134 15.8816C20.2955 15.6874 20.062 15.5121 19.8126 15.3567C20.2544 14.3279 20.5 13.1926 20.5 12C20.5 7.30558 16.6944 3.5 12 3.5C7.30558 3.5 3.5 7.30558 3.5 12C3.5 16.1841 6.52309 19.662 10.5042 20.3688C10.5234 20.947 10.6995 21.4866 10.9908 21.9493C5.94247 21.4443 2 17.1826 2 12C2 6.47715 6.47715 2 12 2ZM16.5 10.5C17.6046 10.5 18.5 11.6193 18.5 13C18.5 14.3807 17.6046 15.5 16.5 15.5C15.3954 15.5 14.5 14.3807 14.5 13C14.5 11.6193 15.3954 10.5 16.5 10.5ZM12 5.25C12.3797 5.25 12.6935 5.53215 12.7432 5.89823L12.75 6V12C12.75 12.3797 12.4678 12.6935 12.1018 12.7432L12 12.75H7.5C7.08579 12.75 6.75 12.4142 6.75 12C6.75 11.6203 7.03215 11.3065 7.39823 11.2568L7.5 11.25H11.25V6C11.25 5.58579 11.5858 5.25 12 5.25Z" fill="#1C1C1C"/>
</svg>
