<svg width="24" height="24" viewBox="0 0 24 24" fill="none" xmlns="http://www.w3.org/2000/svg">
<path fill-rule="evenodd" clip-rule="evenodd" d="M13.5858 2C13.851 2 14.1054 2.10536 14.2929 2.29289L19.7071 7.70711C19.8946 7.89464 20 8.149 20 8.41421V20.25C20 21.2165 19.2165 22 18.25 22H5.75C4.7835 22 4 21.2165 4 20.25V16.5H5.5V20.25C5.5 20.3683 5.58223 20.4675 5.69268 20.4934L5.75 20.5H18.25C18.3683 20.5 18.4675 20.4178 18.4934 20.3073L18.5 20.25V9H14.75C13.8318 9 13.0788 8.29289 13.0058 7.39353L13 7.25V3.5H5.75C5.63165 3.5 5.53251 3.58223 5.5066 3.69268L5.5 3.75V11.5H4V3.75C4 2.7835 4.7835 2 5.75 2H13.5858ZM8.44621 10.3971L8.53033 10.4697L11.5303 13.4697C11.7966 13.7359 11.8208 14.1526 11.6029 14.4462L11.5303 14.5303L8.53033 17.5303C8.23744 17.8232 7.76256 17.8232 7.46967 17.5303C7.2034 17.2641 7.1792 16.8474 7.39705 16.5538L7.46967 16.4697L9.189 14.75H2.75C2.33579 14.75 2 14.4142 2 14C2 13.6203 2.28215 13.3065 2.64823 13.2568L2.75 13.25H9.189L7.46967 11.5303C7.2034 11.2641 7.1792 10.8474 7.39705 10.5538L7.46967 10.4697C7.73594 10.2034 8.1526 10.1792 8.44621 10.3971ZM14.5 4.62097V7.24997C14.5 7.36832 14.5822 7.46746 14.6927 7.49337L14.75 7.49997H17.38L14.5 4.62097Z" fill="#1C1C1C"/>
</svg>
