<svg width="24" height="24" viewBox="0 0 24 24" fill="none" xmlns="http://www.w3.org/2000/svg">
<path d="M6.21973 4.21973C6.51262 3.92683 6.98738 3.92683 7.28027 4.21973C7.57317 4.51262 7.57317 4.98738 7.28027 5.28027L4.56055 8H16C19.3137 8 22 10.6863 22 14C22 17.3137 19.3137 20 16 20H10.5C10.0858 20 9.75 19.6642 9.75 19.25C9.75 18.8358 10.0858 18.5 10.5 18.5H16C18.4853 18.5 20.5 16.4853 20.5 14C20.5 11.5147 18.4853 9.5 16 9.5H4.56055L7.28027 12.2197C7.57317 12.5126 7.57317 12.9874 7.28027 13.2803C6.98738 13.5732 6.51262 13.5732 6.21973 13.2803L2.21973 9.28027C1.92683 8.98738 1.92683 8.51262 2.21973 8.21973L6.21973 4.21973Z" fill="#1C1C1C"/>
</svg>
