<svg width="24" height="24" viewBox="0 0 24 24" fill="none" xmlns="http://www.w3.org/2000/svg">
<path fill-rule="evenodd" clip-rule="evenodd" d="M12 5V6.5H4.75C4.63165 6.5 4.53251 6.58223 4.5066 6.69268L4.5 6.75V19.25C4.5 19.3683 4.58223 19.4675 4.69268 19.4934L4.75 19.5H17.25C17.3683 19.5 17.4675 19.4178 17.4934 19.3073L17.5 19.25V12H19V19.25C19 20.2165 18.2165 21 17.25 21H4.75C3.7835 21 3 20.2165 3 19.25V6.75C3 5.7835 3.7835 5 4.75 5H12ZM20.25 3C20.6297 3 20.9435 3.28215 20.9932 3.64823L21 3.75V8.25C21 8.66421 20.6642 9 20.25 9C19.8703 9 19.5565 8.71785 19.5068 8.35177L19.5 8.25V5.56L14.5303 10.5303C14.2374 10.8232 13.7626 10.8232 13.4697 10.5303C13.2034 10.2641 13.1792 9.8474 13.3971 9.55379L13.4697 9.46967L18.438 4.5H15.75C15.3703 4.5 15.0565 4.21785 15.0068 3.85177L15 3.75C15 3.3703 15.2822 3.05651 15.6482 3.00685L15.75 3H20.25Z" fill="#1C1C1C"/>
</svg>
