<svg width="24" height="24" viewBox="0 0 24 24" fill="none" xmlns="http://www.w3.org/2000/svg">
<path fill-rule="evenodd" clip-rule="evenodd" d="M3.36798 4.3464L3.46046 4.40802L21.4605 18.408C21.7874 18.6623 21.8463 19.1335 21.592 19.4605C21.3608 19.7577 20.9504 19.8334 20.632 19.6537L20.5395 19.592L17.2 16.995L17 17H14.5C14.0858 17 13.75 16.6642 13.75 16.25C13.75 15.8703 14.0322 15.5565 14.3982 15.5069L14.5 15.5L15.278 15.5L11.742 12.75L7 12.75C6.58579 12.75 6.25 12.4142 6.25 12C6.25 11.5858 6.58579 11.25 7 11.25L9.814 11.25L6.35482 8.55938C4.73002 8.86215 3.5 10.2874 3.5 12C3.5 13.8686 4.96428 15.3952 6.80796 15.4949L7 15.5H9.5C9.91421 15.5 10.25 15.8358 10.25 16.25C10.25 16.6297 9.96785 16.9435 9.60177 16.9932L9.5 17H7C4.23858 17 2 14.7615 2 12C2 9.97844 3.19976 8.23706 4.9261 7.44908L2.53954 5.59205C2.21258 5.33775 2.15368 4.86654 2.40799 4.53958C2.63917 4.24234 3.04961 4.16664 3.36798 4.3464ZM17 7C19.7614 7 22 9.23858 22 12C22 13.4537 21.3796 14.7625 20.3891 15.6761L19.1823 14.7365C19.9854 14.0952 20.5 13.1077 20.5 12C20.5 10.1314 19.0357 8.60487 17.192 8.50518L17 8.5H14.5C14.0858 8.5 13.75 8.16421 13.75 7.75C13.75 7.3703 14.0322 7.05651 14.3982 7.00685L14.5 7H17ZM17 11.25C17.4142 11.25 17.75 11.5858 17.75 12C17.75 12.4142 17.4142 12.75 17 12.75L16.628 12.75L14.699 11.25L17 11.25Z" fill="#1C1C1C"/>
</svg>
