<svg width="24" height="24" viewBox="0 0 24 24" fill="none" xmlns="http://www.w3.org/2000/svg">
<path fill-rule="evenodd" clip-rule="evenodd" d="M19.25 3C20.216 3 21 3.784 21 4.75V7H16C14.7115 7.00007 13.4728 7.49754 12.5422 8.38866C11.6116 9.27978 11.0609 10.4958 11.005 11.783L11 12C11.0001 13.2885 11.4975 14.5272 12.3887 15.4578C13.2798 16.3884 14.4958 16.9391 15.783 16.995L16 17H21V19.25C21 19.7141 20.8156 20.1592 20.4874 20.4874C20.1592 20.8156 19.7141 21 19.25 21H4.75C4.28587 21 3.84075 20.8156 3.51256 20.4874C3.18437 20.1592 3 19.7141 3 19.25V4.75C3 3.784 3.784 3 4.75 3H19.25ZM20.75 8.5C21.44 8.5 22 9.06 22 9.75V14.25C22 14.94 21.44 15.5 20.75 15.5H16C15.0717 15.5 14.1815 15.1313 13.5251 14.4749C12.8687 13.8185 12.5 12.9283 12.5 12C12.5 11.0717 12.8687 10.1815 13.5251 9.52513C14.1815 8.86875 15.0717 8.5 16 8.5H20.75ZM16 10.5C15.803 10.5 15.608 10.5388 15.426 10.6142C15.244 10.6896 15.0786 10.8001 14.9393 10.9393C14.8001 11.0786 14.6896 11.244 14.6142 11.426C14.5388 11.608 14.5 11.803 14.5 12C14.5 12.197 14.5388 12.392 14.6142 12.574C14.6896 12.756 14.8001 12.9214 14.9393 13.0607C15.0786 13.1999 15.244 13.3104 15.426 13.3858C15.608 13.4612 15.803 13.5 16 13.5C16.3978 13.5 16.7794 13.342 17.0607 13.0607C17.342 12.7794 17.5 12.3978 17.5 12C17.5 11.6022 17.342 11.2206 17.0607 10.9393C16.7794 10.658 16.3978 10.5 16 10.5Z" fill="#1C1C1C"/>
</svg>
