<svg width="24" height="24" viewBox="0 0 24 24" fill="none" xmlns="http://www.w3.org/2000/svg">
<path fill-rule="evenodd" clip-rule="evenodd" d="M4.75 4.5H19.25C19.3881 4.5 19.5 4.61193 19.5 4.75V7H16C13.2386 7 11 9.23858 11 12C11 14.7614 13.2386 17 16 17H19.5V19.25C19.5 19.3881 19.3881 19.5 19.25 19.5H4.75C4.61193 19.5 4.5 19.3881 4.5 19.25V4.75C4.5 4.61193 4.61193 4.5 4.75 4.5ZM22 7H21V4.75C21 3.7835 20.2165 3 19.25 3H4.75C3.7835 3 3 3.7835 3 4.75V19.25C3 20.2165 3.7835 21 4.75 21H19.25C20.2165 21 21 20.2165 21 19.25V17H22C22.5523 17 23 16.5523 23 16V8C23 7.44772 22.5523 7 22 7ZM21.5 8.5H16C14.067 8.5 12.5 10.067 12.5 12C12.5 13.933 14.067 15.5 16 15.5H21.5V8.5ZM16 13.5C16.8284 13.5 17.5 12.8284 17.5 12C17.5 11.1716 16.8284 10.5 16 10.5C15.1716 10.5 14.5 11.1716 14.5 12C14.5 12.8284 15.1716 13.5 16 13.5Z" fill="#1C1C1C"/>
</svg>
