<svg width="24" height="24" viewBox="0 0 24 24" fill="none" xmlns="http://www.w3.org/2000/svg">
<path fill-rule="evenodd" clip-rule="evenodd" d="M20.25 4C21.2165 4 22 4.7835 22 5.75V18.25C22 19.2165 21.2165 20 20.25 20H3.75C2.7835 20 2 19.2165 2 18.25V5.75C2 4.7835 2.7835 4 3.75 4H20.25ZM20.5 10H3.5V18.25C3.5 18.3683 3.58223 18.4675 3.69268 18.4934L3.75 18.5H20.25C20.3683 18.5 20.4675 18.4178 20.4934 18.3073L20.5 18.25V10ZM20.25 5.5H3.75C3.63165 5.5 3.53251 5.58223 3.5066 5.69268L3.5 5.75V8.5H20.5V5.75C20.5 5.63165 20.4178 5.53251 20.3073 5.5066L20.25 5.5ZM5.5 6.5V7.5H4.5V6.5H5.5ZM7.5 6.5V7.5H6.5V6.5H7.5ZM9.5 6.5V7.5H8.5V6.5H9.5Z" fill="#1C1C1C"/>
</svg>
