<svg width="24" height="24" viewBox="0 0 24 24" fill="none" xmlns="http://www.w3.org/2000/svg">
<path fill-rule="evenodd" clip-rule="evenodd" d="M11 15.5C12.2426 15.5 13.25 16.5074 13.25 17.75C13.25 18.9926 12.2426 20 11 20C9.75736 20 8.75 18.9926 8.75 17.75C8.75 16.5074 9.75736 15.5 11 15.5ZM16.8315 15.5C18.0741 15.5 19.0815 16.5074 19.0815 17.75C19.0815 18.9926 18.0741 20 16.8315 20C15.5888 20 14.5815 18.9926 14.5815 17.75C14.5815 16.5074 15.5888 15.5 16.8315 15.5ZM11 17C10.5858 17 10.25 17.3358 10.25 17.75C10.25 18.1642 10.5858 18.5 11 18.5C11.4142 18.5 11.75 18.1642 11.75 17.75C11.75 17.3358 11.4142 17 11 17ZM16.8315 17C16.4173 17 16.0815 17.3358 16.0815 17.75C16.0815 18.1642 16.4173 18.5 16.8315 18.5C17.2457 18.5 17.5815 18.1642 17.5815 17.75C17.5815 17.3358 17.2457 17 16.8315 17ZM5.28738 4C5.94929 4 6.54978 4.3728 6.84644 4.95504L6.90939 5.09305L10.1499 13.0939C10.1805 13.1694 10.2453 13.224 10.3221 13.2428L10.3816 13.25H18.1247C18.2069 13.25 18.2825 13.2097 18.3286 13.1446L18.3574 13.0914L20.5159 7.59468C20.5663 7.46617 20.5031 7.32107 20.3745 7.2706L20.3297 7.25767L20.2832 7.2533L10.2427 7.25C9.8285 7.24986 9.49282 6.91397 9.49296 6.49975C9.49308 6.12006 9.77534 5.80636 10.1414 5.75681L10.2432 5.75L20.2837 5.7533C20.5025 5.75338 20.7192 5.79445 20.9228 5.87439C21.7751 6.20907 22.2175 7.13826 21.9613 8.00006L21.9121 8.14295L19.7536 13.6397C19.5094 14.2616 18.9347 14.6859 18.2777 14.7433L18.1247 14.75H10.3816C9.71972 14.75 9.11924 14.3772 8.82258 13.795L8.75962 13.657L5.5191 5.65615C5.48852 5.58064 5.42374 5.52601 5.34692 5.50718L5.28738 5.5H2.75C2.33579 5.5 2 5.16421 2 4.75C2 4.3703 2.28215 4.05651 2.64823 4.00685L2.75 4H5.28738Z" fill="#1C1C1C"/>
</svg>
