<svg width="24" height="24" viewBox="0 0 24 24" fill="none" xmlns="http://www.w3.org/2000/svg">
<path d="M19.144 16.292C18.5124 16.2941 17.8993 16.5058 17.4009 16.8938C16.9025 17.2818 16.547 17.8242 16.39 18.436H7.722C7.34681 18.4359 6.97533 18.3619 6.62875 18.2182C6.28217 18.0745 5.96729 17.8639 5.70209 17.5985C5.43688 17.3332 5.22655 17.0181 5.08309 16.6714C4.93964 16.3248 4.86587 15.9532 4.866 15.578C4.86574 15.2028 4.93941 14.8311 5.08281 14.4843C5.2262 14.1375 5.43652 13.8224 5.70174 13.5569C5.96695 13.2914 6.28188 13.0808 6.62852 12.937C6.97516 12.7932 7.34673 12.7192 7.722 12.719H9.252C9.40796 13.3311 9.76335 13.8738 10.2621 14.2613C10.7608 14.6489 11.3744 14.8593 12.006 14.8593C12.6376 14.8593 13.2512 14.6489 13.7499 14.2613C14.2486 13.8738 14.604 13.3311 14.76 12.719H16.289C17.4254 12.7182 18.5149 12.2662 19.3181 11.4623C20.1212 10.6584 20.5723 9.56841 20.572 8.43204C20.5725 7.2955 20.1216 6.20528 19.3184 5.40115C18.5152 4.59702 17.4255 4.14484 16.289 4.14404H7.62C7.44519 3.47207 7.03157 2.8868 6.45651 2.49769C5.88145 2.10858 5.18433 1.94229 4.49555 2.02992C3.80677 2.11755 3.1735 2.4531 2.71419 2.97381C2.25487 3.49451 2.00098 4.16471 2 4.85904C2.00098 5.55338 2.25487 6.22357 2.71419 6.74428C3.1735 7.26498 3.80677 7.60053 4.49555 7.68816C5.18433 7.77579 5.88145 7.6095 6.45651 7.22039C7.03157 6.83128 7.44519 6.24601 7.62 5.57404H16.289C17.0465 5.57457 17.7729 5.87595 18.3083 6.4119C18.8437 6.94785 19.1443 7.67449 19.144 8.43204C19.1443 9.18959 18.8437 9.91624 18.3083 10.4522C17.7729 10.9881 17.0465 11.2895 16.289 11.29H14.759C14.603 10.678 14.2476 10.1353 13.7489 9.74776C13.2502 9.36019 12.6366 9.14979 12.005 9.14979C11.3734 9.14979 10.7598 9.36019 10.2611 9.74776C9.76235 10.1353 9.40696 10.678 9.251 11.29H7.721C6.58446 11.2908 5.49476 11.743 4.69157 12.5472C3.88838 13.3513 3.43747 14.4415 3.438 15.578C3.43773 16.7146 3.8889 17.8047 4.69228 18.6086C5.49566 19.4126 6.58546 19.8645 7.722 19.865H16.39C16.5668 20.56 16.9991 21.1627 17.6007 21.5531C18.2022 21.9434 18.9288 22.0926 19.6355 21.971C20.3422 21.8493 20.9771 21.4657 21.4135 20.8967C21.8499 20.3277 22.0557 19.6151 21.99 18.901C21.9291 18.1886 21.6027 17.525 21.0756 17.0417C20.5485 16.5585 19.8591 16.2909 19.144 16.292ZM4.866 6.28804C4.67522 6.29296 4.4854 6.25961 4.30772 6.18996C4.13004 6.12032 3.96811 6.01579 3.83149 5.88255C3.69487 5.7493 3.58632 5.59004 3.51225 5.41417C3.43817 5.23829 3.40008 5.04936 3.40021 4.85852C3.40035 4.66768 3.43871 4.4788 3.51302 4.30302C3.58734 4.12725 3.69612 3.96814 3.83292 3.83509C3.96973 3.70204 4.13181 3.59774 4.30958 3.52834C4.48736 3.45895 4.67723 3.42586 4.868 3.43104C5.24031 3.44115 5.59397 3.59622 5.85364 3.86323C6.11331 4.13023 6.25847 4.48807 6.25821 4.86052C6.25795 5.23297 6.11229 5.5906 5.85224 5.85724C5.5922 6.12388 5.23833 6.27846 4.866 6.28804ZM12.006 10.575C12.1968 10.5701 12.3866 10.6035 12.5643 10.6731C12.742 10.7428 12.9039 10.8473 13.0405 10.9805C13.1771 11.1138 13.2857 11.273 13.3598 11.4489C13.4338 11.6248 13.4719 11.8137 13.4718 12.0046C13.4717 12.1954 13.4333 12.3843 13.359 12.5601C13.2847 12.7358 13.1759 12.8949 13.0391 13.028C12.9023 13.161 12.7402 13.2653 12.5624 13.3347C12.3846 13.4041 12.1948 13.4372 12.004 13.432C11.6317 13.4221 11.278 13.2671 11.0182 13.0002C10.7585 12.7333 10.6132 12.3755 10.6133 12.0031C10.6134 11.6306 10.759 11.2729 11.0189 11.0062C11.2789 10.7395 11.6327 10.5848 12.005 10.575H12.006ZM19.144 20.58C18.9532 20.585 18.7634 20.5516 18.5857 20.482C18.408 20.4123 18.2461 20.3078 18.1095 20.1745C17.9729 20.0413 17.8643 19.882 17.7902 19.7062C17.7162 19.5303 17.6781 19.3414 17.6782 19.1505C17.6783 18.9597 17.7167 18.7708 17.791 18.595C17.8653 18.4193 17.9741 18.2601 18.1109 18.1271C18.2477 17.994 18.4098 17.8897 18.5876 17.8203C18.7654 17.7509 18.9552 17.7179 19.146 17.723C19.5183 17.7332 19.872 17.8882 20.1316 18.1552C20.3913 18.4222 20.5365 18.7801 20.5362 19.1525C20.536 19.525 20.3903 19.8826 20.1302 20.1492C19.8702 20.4159 19.5163 20.5705 19.144 20.58Z" fill="#1C1C1C"/>
</svg>
