<svg width="24" height="24" viewBox="0 0 24 24" fill="none" xmlns="http://www.w3.org/2000/svg">
<path fill-rule="evenodd" clip-rule="evenodd" d="M11.8598 8.01309L11.9268 8.00354L12.0523 8.00183L12.171 8.01959L12.2693 8.04982L12.3689 8.09687L12.4203 8.12878L12.4583 8.15629L12.5303 8.21969L16.0303 11.7197C16.3232 12.0126 16.3232 12.4875 16.0303 12.7803C15.7641 13.0466 15.3474 13.0708 15.0538 12.853L14.9697 12.7803L12.75 10.561V18.75C12.75 19.1642 12.4142 19.5 12 19.5C11.6203 19.5 11.3065 19.2179 11.2568 18.8518L11.25 18.75V10.561L9.03033 12.7803C8.73744 13.0732 8.26256 13.0732 7.96967 12.7803C7.7034 12.5141 7.6792 12.0974 7.89705 11.8038L7.96967 11.7197L11.4697 8.21969L11.5116 8.18077L11.5636 8.1399L11.6785 8.07223L11.7759 8.03411L11.8598 8.01309ZM15.75 4.5C16.1642 4.5 16.5 4.83579 16.5 5.25C16.5 5.66421 16.1642 6 15.75 6H8.25C7.83579 6 7.5 5.66421 7.5 5.25C7.5 4.83579 7.83579 4.5 8.25 4.5H15.75Z" fill="#1C1C1C"/>
</svg>
