<svg width="24" height="24" viewBox="0 0 24 24" fill="none" xmlns="http://www.w3.org/2000/svg">
<path fill-rule="evenodd" clip-rule="evenodd" d="M18.75 7.5C19.1642 7.5 19.5 7.83579 19.5 8.25V15.75C19.5 16.1642 19.1642 16.5 18.75 16.5C18.3358 16.5 18 16.1642 18 15.75V8.25C18 7.83579 18.3358 7.5 18.75 7.5ZM12.1962 7.89705L12.2803 7.96967L15.7803 11.4697C15.8049 11.4943 15.8278 11.5206 15.8488 11.5484L15.7803 11.4697L15.8192 11.5116L15.8601 11.5636L15.9278 11.6785L15.9659 11.7759L15.9869 11.8598L15.9982 11.9477V12.0523L15.9804 12.171L15.9502 12.2693L15.9031 12.3689L15.8712 12.4203L15.8437 12.4583L15.7803 12.5303L12.2803 16.0303C11.9874 16.3232 11.5126 16.3232 11.2197 16.0303C10.9534 15.7641 10.9292 15.3474 11.1471 15.0538L11.2197 14.9697L13.439 12.75H5.25C4.83579 12.75 4.5 12.4142 4.5 12C4.5 11.6203 4.78215 11.3065 5.14823 11.2568L5.25 11.25H13.439L11.2197 9.03033C10.9268 8.73744 10.9268 8.26256 11.2197 7.96967C11.4859 7.7034 11.9026 7.6792 12.1962 7.89705Z" fill="#1C1C1C"/>
</svg>
