<svg width="24" height="24" viewBox="0 0 24 24" fill="none" xmlns="http://www.w3.org/2000/svg">
<path fill-rule="evenodd" clip-rule="evenodd" d="M11.0303 7.96967C11.2966 8.23594 11.3208 8.6526 11.1029 8.94621L11.0303 9.03033L8.811 11.249L17 11.25C17.4142 11.25 17.75 11.5858 17.75 12C17.75 12.3797 17.4678 12.6935 17.1018 12.7432L17 12.75L8.81 12.749L11.0303 14.9697C11.3232 15.2626 11.3232 15.7374 11.0303 16.0303C10.7641 16.2966 10.3474 16.3208 10.0538 16.1029L9.96967 16.0303L6.46967 12.5303L6.38988 12.4364L6.33895 12.3547L6.28881 12.2387L6.26242 12.1363L6.25146 12.0471L6.25149 11.9525L6.26973 11.8286L6.29999 11.7302L6.34686 11.631L6.40096 11.5486L6.46967 11.4697L9.96967 7.96967C10.2626 7.67678 10.7374 7.67678 11.0303 7.96967Z" fill="#1C1C1C"/>
</svg>
