<svg width="24" height="24" viewBox="0 0 24 24" fill="none" xmlns="http://www.w3.org/2000/svg">
<path fill-rule="evenodd" clip-rule="evenodd" d="M5.25 7.5C5.66421 7.5 6 7.83579 6 8.25V15.75C6 16.1642 5.66421 16.5 5.25 16.5C4.83579 16.5 4.5 16.1642 4.5 15.75V8.25C4.5 7.83579 4.83579 7.5 5.25 7.5ZM12.7803 7.96967C13.0466 8.23594 13.0708 8.6526 12.8529 8.94621L12.7803 9.03033L10.561 11.25H18.75C19.1642 11.25 19.5 11.5858 19.5 12C19.5 12.3797 19.2178 12.6935 18.8518 12.7432L18.75 12.75H10.561L12.7803 14.9697C13.0732 15.2626 13.0732 15.7374 12.7803 16.0303C12.5141 16.2966 12.0974 16.3208 11.8038 16.1029L11.7197 16.0303L8.21966 12.5303L8.16535 12.4699L8.11872 12.4053L8.07015 12.3172L8.02596 12.1962L8.00775 12.1083L8.00082 11.9646L8.01957 11.829L8.0498 11.7307L8.09685 11.631L8.15096 11.5486L8.21966 11.4697L11.7197 7.96967C12.0126 7.67678 12.4874 7.67678 12.7803 7.96967Z" fill="#1C1C1C"/>
</svg>
