<svg width="24" height="24" viewBox="0 0 24 24" fill="none" xmlns="http://www.w3.org/2000/svg">
<path fill-rule="evenodd" clip-rule="evenodd" d="M8.25 18H15.75C16.1642 18 16.5 18.3358 16.5 18.75C16.5 19.1642 16.1642 19.5 15.75 19.5H8.25C7.83579 19.5 7.5 19.1642 7.5 18.75C7.5 18.3358 7.83579 18 8.25 18ZM12 4.5C12.3797 4.5 12.6935 4.78215 12.7432 5.14823L12.75 5.25V13.439L14.9697 11.2197C15.2626 10.9268 15.7374 10.9268 16.0303 11.2197C16.2966 11.4859 16.3208 11.9026 16.1029 12.1962L16.0303 12.2803L12.5303 15.7803C12.5057 15.8049 12.4794 15.8278 12.4516 15.8488L12.5303 15.7803L12.4884 15.8192L12.4364 15.8601L12.3215 15.9278L12.2241 15.9659L12.1402 15.9869L12.0523 15.9982L12 16L11.971 15.998L11.9477 15.9982L11.927 15.995L11.8726 15.9892L11.8038 15.9741L11.7307 15.9502L11.631 15.9031L11.5486 15.849L11.4697 15.7803L7.96967 12.2803C7.67678 11.9874 7.67678 11.5126 7.96967 11.2197C8.23594 10.9534 8.6526 10.9292 8.94621 11.1471L9.03033 11.2197L11.25 13.439V5.25C11.25 4.83579 11.5858 4.5 12 4.5Z" fill="#1C1C1C"/>
</svg>
