<svg width="24" height="24" viewBox="0 0 24 24" fill="none" xmlns="http://www.w3.org/2000/svg">
<path fill-rule="evenodd" clip-rule="evenodd" d="M13.9462 7.89705L14.0303 7.96967L17.5303 11.4697L17.5659 11.5078L17.6101 11.5636L17.661 11.6453L17.7112 11.7613L17.7376 11.8637L17.7482 11.9485L17.7482 12.0514L17.7303 12.1714L17.6911 12.2919L17.6531 12.369L17.5937 12.4583L17.5303 12.5303L14.0303 16.0303C13.7374 16.3232 13.2626 16.3232 12.9697 16.0303C12.7034 15.7641 12.6792 15.3474 12.8971 15.0538L12.9697 14.9697L15.188 12.75H7C6.58579 12.75 6.25 12.4142 6.25 12C6.25 11.6203 6.53215 11.3065 6.89823 11.2568L7 11.25H15.189L12.9697 9.03033C12.6768 8.73744 12.6768 8.26256 12.9697 7.96967C13.2359 7.7034 13.6526 7.6792 13.9462 7.89705Z" fill="#1C1C1C"/>
</svg>
