<svg width="24" height="24" viewBox="0 0 24 24" fill="none" xmlns="http://www.w3.org/2000/svg">
<path fill-rule="evenodd" clip-rule="evenodd" d="M12 6.25C12.3797 6.25 12.6935 6.53215 12.7432 6.89823L12.75 7L12.749 15.189L14.9697 12.9697C15.2626 12.6768 15.7374 12.6768 16.0303 12.9697C16.2966 13.2359 16.3208 13.6526 16.1029 13.9462L16.0303 14.0303L12.5303 17.5303L12.4922 17.5659L12.4462 17.6029L12.444 17.603L12.4364 17.6101L12.3547 17.661L12.2211 17.7168L12.1363 17.7376L12.0515 17.7482L11.9486 17.7482L11.8286 17.7303L11.7081 17.6911L11.631 17.6531L11.5486 17.599L11.4697 17.5303L7.96967 14.0303C7.67678 13.7374 7.67678 13.2626 7.96967 12.9697C8.23594 12.7034 8.6526 12.6792 8.94621 12.8971L9.03033 12.9697L11.249 15.188L11.25 7C11.25 6.58579 11.5858 6.25 12 6.25Z" fill="#1C1C1C"/>
</svg>
