<svg width="24" height="24" viewBox="0 0 24 24" fill="none" xmlns="http://www.w3.org/2000/svg">
<path fill-rule="evenodd" clip-rule="evenodd" d="M11.8637 6.26242L11.9529 6.25146L12.048 6.25152L12.1714 6.26973L12.2919 6.30894L12.369 6.34686L12.4583 6.40627L12.5303 6.46967L16.0303 9.96967C16.3232 10.2626 16.3232 10.7374 16.0303 11.0303C15.7641 11.2966 15.3474 11.3208 15.0538 11.1029L14.9697 11.0303L12.75 8.811V17C12.75 17.4142 12.4142 17.75 12 17.75C11.6203 17.75 11.3065 17.4678 11.2568 17.1018L11.25 17V8.81L9.03033 11.0303C8.73744 11.3232 8.26256 11.3232 7.96967 11.0303C7.7034 10.7641 7.6792 10.3474 7.89705 10.0538L7.96967 9.96967L11.4697 6.46967L11.5636 6.38988L11.6453 6.33895L11.7789 6.28317L11.8637 6.26242Z" fill="#1C1C1C"/>
</svg>
