<svg width="24" height="24" viewBox="0 0 24 24" fill="none" xmlns="http://www.w3.org/2000/svg">
<path fill-rule="evenodd" clip-rule="evenodd" d="M11.4697 6.46967C11.7359 6.2034 12.1526 6.1792 12.4462 6.39705L12.5303 6.46967L17.5303 11.4697L17.6029 11.5538C17.7966 11.8148 17.799 12.173 17.6101 12.4364L17.5303 12.5303L12.5303 17.5303L12.4462 17.6029C12.1852 17.7966 11.827 17.799 11.5636 17.6101L11.4697 17.5303L11.3971 17.4462C11.2034 17.1852 11.201 16.827 11.3899 16.5636L11.4697 16.4697L15.939 12L11.4697 7.53033L11.3971 7.44621C11.1792 7.1526 11.2034 6.73594 11.4697 6.46967ZM6.46967 6.46967C6.73594 6.2034 7.1526 6.1792 7.44621 6.39705L7.53033 6.46967L12.5303 11.4697L12.6029 11.5538C12.7966 11.8148 12.799 12.173 12.6101 12.4364L12.5303 12.5303L7.53033 17.5303L7.44621 17.6029C7.18522 17.7966 6.82701 17.799 6.56362 17.6101L6.46967 17.5303L6.39705 17.4462C6.2034 17.1852 6.20101 16.827 6.38988 16.5636L6.46967 16.4697L10.939 12L6.46967 7.53033L6.39705 7.44621C6.1792 7.1526 6.2034 6.73594 6.46967 6.46967Z" fill="#1C1C1C"/>
</svg>
