<svg width="24" height="24" viewBox="0 0 24 24" fill="none" xmlns="http://www.w3.org/2000/svg">
<path fill-rule="evenodd" clip-rule="evenodd" d="M6.46967 12.5303C6.2034 12.2641 6.1792 11.8474 6.39705 11.5538L6.46967 11.4697L11.4697 6.46967L11.5538 6.39705C11.8148 6.2034 12.173 6.20101 12.4364 6.38988L12.5303 6.46967L17.5303 11.4697L17.6029 11.5538C17.7966 11.8148 17.799 12.173 17.6101 12.4364L17.5303 12.5303L17.4462 12.6029C17.1852 12.7966 16.827 12.799 16.5636 12.6101L16.4697 12.5303L12 8.061L7.53033 12.5303L7.44621 12.6029C7.1526 12.8208 6.73594 12.7966 6.46967 12.5303ZM6.46967 17.5303C6.2034 17.2641 6.1792 16.8474 6.39705 16.5538L6.46967 16.4697L11.4697 11.4697L11.5538 11.3971C11.8148 11.2034 12.173 11.201 12.4364 11.3899L12.5303 11.4697L17.5303 16.4697L17.6029 16.5538C17.7966 16.8148 17.799 17.173 17.6101 17.4364L17.5303 17.5303L17.4462 17.6029C17.1852 17.7966 16.827 17.799 16.5636 17.6101L16.4697 17.5303L12 13.061L7.53033 17.5303L7.44621 17.6029C7.1526 17.8208 6.73594 17.7966 6.46967 17.5303Z" fill="#1C1C1C"/>
</svg>
