<svg width="24" height="24" viewBox="0 0 24 24" fill="none" xmlns="http://www.w3.org/2000/svg">
<path fill-rule="evenodd" clip-rule="evenodd" d="M17.5303 6.46967C17.7966 6.73594 17.8208 7.1526 17.6029 7.44621L17.5303 7.53033L13.061 12L17.5303 16.4697C17.7966 16.7359 17.8208 17.1526 17.6029 17.4462L17.5303 17.5303C17.2641 17.7966 16.8474 17.8208 16.5538 17.6029L16.4697 17.5303L11.4697 12.5303C11.2034 12.2641 11.1792 11.8474 11.3971 11.5538L11.4697 11.4697L16.4697 6.46967C16.7626 6.17678 17.2374 6.17678 17.5303 6.46967ZM12.5303 6.46967C12.7966 6.73594 12.8208 7.1526 12.6029 7.44621L12.5303 7.53033L8.061 12L12.5303 16.4697C12.7966 16.7359 12.8208 17.1526 12.6029 17.4462L12.5303 17.5303C12.2641 17.7966 11.8474 17.8208 11.5538 17.6029L11.4697 17.5303L6.46967 12.5303C6.2034 12.2641 6.1792 11.8474 6.39705 11.5538L6.46967 11.4697L11.4697 6.46967C11.7626 6.17678 12.2374 6.17678 12.5303 6.46967Z" fill="#1C1C1C"/>
</svg>
