<svg width="24" height="24" viewBox="0 0 24 24" fill="none" xmlns="http://www.w3.org/2000/svg">
<path fill-rule="evenodd" clip-rule="evenodd" d="M6.46967 6.46967C6.73594 6.2034 7.1526 6.1792 7.44621 6.39705L7.53033 6.46967L12 10.939L16.4697 6.46967C16.7359 6.2034 17.1526 6.1792 17.4462 6.39705L17.5303 6.46967C17.7966 6.73594 17.8208 7.1526 17.6029 7.44621L17.5303 7.53033L12.5303 12.5303C12.2641 12.7966 11.8474 12.8208 11.5538 12.6029L11.4697 12.5303L6.46967 7.53033C6.17678 7.23744 6.17678 6.76256 6.46967 6.46967ZM6.46967 11.4697C6.73594 11.2034 7.1526 11.1792 7.44621 11.3971L7.53033 11.4697L12 15.939L16.4697 11.4697C16.7359 11.2034 17.1526 11.1792 17.4462 11.3971L17.5303 11.4697C17.7966 11.7359 17.8208 12.1526 17.6029 12.4462L17.5303 12.5303L12.5303 17.5303C12.2641 17.7966 11.8474 17.8208 11.5538 17.6029L11.4697 17.5303L6.46967 12.5303C6.17678 12.2374 6.17678 11.7626 6.46967 11.4697Z" fill="#1C1C1C"/>
</svg>
