<svg width="24" height="24" viewBox="0 0 24 24" fill="none" xmlns="http://www.w3.org/2000/svg">
<path fill-rule="evenodd" clip-rule="evenodd" d="M14.75 18.2487C14.75 18.6636 14.4142 19 14 19H10C9.58579 19 9.25 18.6636 9.25 18.2487C9.25 17.8338 9.58579 17.4975 10 17.4975H11.2334L11.2334 11H10C9.58579 11 9.25 10.6636 9.25 10.2487C9.25 9.83383 9.58579 9.49747 10 9.49747H11.9834C12.1823 9.49747 12.3731 9.57662 12.5137 9.71751C12.6544 9.8584 12.7334 10.0495 12.7334 10.2487L12.7334 17.4975H14C14.4142 17.4975 14.75 17.8338 14.75 18.2487Z" fill="#1C1C1C"/>
<path d="M12.7334 6.00168C12.7334 6.5549 12.2857 7.00337 11.7334 7.00337C11.1811 7.00337 10.7334 6.5549 10.7334 6.00168C10.7334 5.44847 11.1811 5 11.7334 5C12.2857 5 12.7334 5.44847 12.7334 6.00168Z" fill="#1C1C1C"/>
</svg>
