<svg width="24" height="24" viewBox="0 0 24 24" fill="none" xmlns="http://www.w3.org/2000/svg">
<path d="M11 5.5H7.25C6.2835 5.5 5.5 6.2835 5.5 7.25V16.75C5.5 17.7165 6.2835 18.5 7.25 18.5H16.75C17.7165 18.5 18.5 17.7165 18.5 16.75V13H17V16.75C17 16.8881 16.8881 17 16.75 17H7.25C7.11193 17 7 16.8881 7 16.75V7.25C7 7.11193 7.11193 7 7.25 7H11V5.5Z" fill="#1C1C1C"/>
<path fill-rule="evenodd" clip-rule="evenodd" d="M17.75 5.5C18.1297 5.5 18.4435 5.78215 18.4932 6.14823L18.5 6.25V9.75C18.5 10.1642 18.1642 10.5 17.75 10.5C17.3703 10.5 17.0565 10.2178 17.0068 9.85177L17 9.75V8.06L13.0303 12.0303C12.7374 12.3232 12.2626 12.3232 11.9697 12.0303C11.7034 11.7641 11.6792 11.3474 11.8971 11.0538L11.9697 10.9697L15.938 7H14.25C13.8703 7 13.5565 6.71785 13.5068 6.35177L13.5 6.25C13.5 5.8703 13.7822 5.55651 14.1482 5.50685L14.25 5.5H17.75Z" fill="#1C1C1C"/>
</svg>
