<svg width="24" height="24" viewBox="0 0 24 24" fill="none" xmlns="http://www.w3.org/2000/svg">
<path d="M12 14.4887C12.5 14.4887 12.8378 14.1873 12.832 13.725C12.832 13.673 12.832 11.7733 12.832 11.727C12.8841 11.062 13.4365 10.9268 14.3797 10.3138C15.4155 9.64881 16 8.88548 16 7.78098C16 6.01146 14.0773 5 12.1388 5C11.3173 5 10.3076 5.14479 9.5 5.46602C9.19704 5.58652 8.92251 5.73185 8.69699 5.90367C8.576 5.99587 8.46911 6.09569 8.37952 6.2034C8.30361 6.29466 8.24011 6.39158 8.19096 6.49432C8.13306 6.61257 8.08939 6.73191 8.05853 6.84996C8.01847 7.00326 8 7.15438 8 7.29812C8 7.37158 8.0075 7.40599 8.02219 7.47108C8.09771 7.80566 8.36269 8.02044 8.76961 8.02044C9.14575 8.02044 9.43508 7.81804 9.56239 7.47108C9.84015 6.56897 11.2707 6.39311 12.0635 6.39311C13.0241 6.39311 14.2466 6.94827 14.2466 7.79833C14.2466 8.56165 13.8068 8.96066 12.9793 9.50424C12.1229 10.0767 11.1305 10.641 11.1305 11.5778V12.5894C11.1305 12.5894 11.1305 13.2335 11.1305 13.725C11.1305 14.2166 11.5 14.4887 12 14.4887ZM12 19C12.5786 19 13.0474 18.5432 13.0474 17.9822C13.0474 17.4155 12.5786 16.9703 12 16.9703C11.4271 16.9703 10.9584 17.4155 10.9584 17.9822C10.9584 18.5432 11.4271 19 12 19Z" fill="#1C1C1C"/>
</svg>
