<svg width="24" height="24" viewBox="0 0 24 24" fill="none" xmlns="http://www.w3.org/2000/svg">
<path fill-rule="evenodd" clip-rule="evenodd" d="M17.5 4.75C17.8797 4.75 18.1935 5.03215 18.2432 5.39823L18.25 5.5V8.5C18.25 8.8797 17.9678 9.19349 17.6018 9.24315L17.5 9.25H14.5C14.0858 9.25 13.75 8.91421 13.75 8.5C13.75 8.1203 14.0322 7.80651 14.3982 7.75685L14.5 7.75L15.4913 7.74927C14.5246 6.95417 13.3006 6.5 12 6.5C8.96243 6.5 6.5 8.96243 6.5 12C6.5 15.0376 8.96243 17.5 12 17.5C15.0376 17.5 17.5 15.0376 17.5 12C17.5 11.5858 17.8358 11.25 18.25 11.25C18.6642 11.25 19 11.5858 19 12C19 15.866 15.866 19 12 19C8.13401 19 5 15.866 5 12C5 8.13401 8.13401 5 12 5C13.7957 5 15.4782 5.68145 16.7507 6.85827L16.75 5.5C16.75 5.1203 17.0322 4.80651 17.3982 4.75685L17.5 4.75Z" fill="#1C1C1C"/>
</svg>
